<?xml version="1.0" encoding="UTF-8" standalone="no"?>
<!DOCTYPE svg PUBLIC "-//W3C//DTD SVG 1.1//EN" "http://www.w3.org/Graphics/SVG/1.1/DTD/svg11.dtd">
<svg width="100%" height="100%" viewBox="0 0 6378 6378" version="1.1" xmlns="http://www.w3.org/2000/svg" xmlns:xlink="http://www.w3.org/1999/xlink" xml:space="preserve" xmlns:serif="http://www.serif.com/" style="fill-rule:evenodd;clip-rule:evenodd;stroke-miterlimit:10;">
    <g id="Layer-17" serif:id="Layer 17" transform="matrix(4.16667,0,0,4.16667,0,0)">
        <g transform="matrix(0,-1,-1,0,764.41,249.716)">
            <path d="M-516,-516C-800.979,-516 -1032,-284.979 -1032,0C-1032,284.979 -800.979,516 -516,516C-231.021,516 0,284.979 0,0C0,-284.979 -231.021,-516 -516,-516Z" style="fill:none;fill-rule:nonzero;stroke:rgb(35,31,32);stroke-width:2px;"/>
        </g>
        <g transform="matrix(-1,0,0,1,1528.82,0.722)">
            <rect x="400.41" y="400.994" width="728" height="728" style="fill:none;stroke:rgb(35,31,32);stroke-width:2px;"/>
        </g>
        <g transform="matrix(0,-1,-1,0,763.41,401.716)">
            <path d="M-363,-363C-563.479,-363 -726,-200.479 -726,0C-726,200.479 -563.479,363 -363,363C-162.521,363 0,200.479 0,0C0,-200.479 -162.521,-363 -363,-363Z" style="fill:none;fill-rule:nonzero;stroke:rgb(35,31,32);stroke-width:2px;"/>
        </g>
        <g transform="matrix(-1,0,0,1,1528.82,-2.278)">
            <rect x="509.292" y="511.376" width="510.236" height="510.236" style="fill:none;stroke:rgb(35,31,32);stroke-width:2px;"/>
        </g>
        <g transform="matrix(-0.707106,0.707108,0.707108,0.707106,508.41,1019.95)">
            <rect x="-615.909" y="-255.118" width="510.236" height="510.237" style="fill:none;stroke:rgb(35,31,32);stroke-width:2px;"/>
        </g>
        <g transform="matrix(0,-1,-1,0,765.001,207.309)">
            <ellipse cx="-42.52" cy="0" rx="42.52" ry="42.52" style="fill:none;stroke:rgb(35,31,32);stroke-width:2px;"/>
        </g>
        <g transform="matrix(0,-1,-1,0,764.001,1237.76)">
            <ellipse cx="-42.52" cy="0" rx="42.52" ry="42.52" style="fill:none;stroke:rgb(35,31,32);stroke-width:2px;"/>
        </g>
        <g transform="matrix(0,-1,-1,0,1280.98,722.284)">
            <ellipse cx="-42.52" cy="0" rx="42.52" ry="42.52" style="fill:none;stroke:rgb(35,31,32);stroke-width:2px;"/>
        </g>
        <g transform="matrix(0,-1,-1,0,248.027,722.784)">
            <ellipse cx="-42.519" cy="-0.001" rx="42.521" ry="42.52" style="fill:none;stroke:rgb(35,31,32);stroke-width:2px;"/>
        </g>
        <g transform="matrix(-0.707113,-0.707101,-0.707101,0.707113,358.016,400.381)">
            <ellipse cx="-30.066" cy="-30.066" rx="42.52" ry="42.52" style="fill:none;stroke:rgb(35,31,32);stroke-width:2px;"/>
        </g>
        <g transform="matrix(-0.707107,-0.707107,-0.707107,0.707107,1085.95,1129.72)">
            <circle cx="-30.067" cy="-30.066" r="42.52" style="fill:none;stroke:rgb(35,31,32);stroke-width:2px;"/>
        </g>
        <g transform="matrix(-0.707101,-0.707113,-0.707113,0.707101,1087.01,399.673)">
            <ellipse cx="-30.066" cy="-30.066" rx="42.521" ry="42.52" style="fill:none;stroke:rgb(35,31,32);stroke-width:2px;"/>
        </g>
        <g transform="matrix(-0.707113,-0.707101,-0.707101,0.707113,356.957,1130.43)">
            <ellipse cx="-30.065" cy="-30.065" rx="42.521" ry="42.519" style="fill:none;stroke:rgb(35,31,32);stroke-width:2px;"/>
        </g>
        <g transform="matrix(-0.707101,-0.707113,-0.707113,0.707101,721.482,402.321)">
            <ellipse cx="-30.066" cy="-30.066" rx="42.521" ry="42.52" style="fill:none;stroke:rgb(35,31,32);stroke-width:2px;"/>
        </g>
        <g transform="matrix(-0.707095,-0.707119,-0.707119,0.707095,719.982,1127.28)">
            <ellipse cx="-30.067" cy="-30.065" rx="42.52" ry="42.52" style="fill:none;stroke:rgb(35,31,32);stroke-width:2px;"/>
        </g>
        <g transform="matrix(-0.707095,-0.707119,-0.707119,0.707095,1082.46,764.301)">
            <ellipse cx="-30.067" cy="-30.065" rx="42.52" ry="42.52" style="fill:none;stroke:rgb(35,31,32);stroke-width:2px;"/>
        </g>
        <g transform="matrix(-0.707095,-0.707119,-0.707119,0.707095,361.5,765.801)">
            <ellipse cx="-30.067" cy="-30.065" rx="42.52" ry="42.52" style="fill:none;stroke:rgb(35,31,32);stroke-width:2px;"/>
        </g>
        <g transform="matrix(0.924757,-0.380559,-0.380559,-0.924757,441.773,463.532)">
            <path d="M-14.828,74.997L379.31,74.997" style="fill:none;fill-rule:nonzero;stroke:rgb(35,31,32);stroke-width:2px;"/>
        </g>
        <g transform="matrix(0.923413,0.383808,0.383808,-0.923413,807.031,185.685)">
            <path d="M-15.115,-75.746L379.596,-75.747" style="fill:none;fill-rule:nonzero;stroke:rgb(35,31,32);stroke-width:2px;"/>
        </g>
        <g transform="matrix(0.385159,0.92285,0.92285,-0.385159,1342.54,443.006)">
            <path d="M-120.916,-181.49L272.409,-181.49" style="fill:none;fill-rule:nonzero;stroke:rgb(35,31,32);stroke-width:2px;"/>
        </g>
        <g transform="matrix(-0.383808,0.923413,0.923413,0.383808,1343.44,1086.43)">
            <path d="M-273.102,-182.24L121.609,-182.24" style="fill:none;fill-rule:nonzero;stroke:rgb(35,31,32);stroke-width:2px;"/>
        </g>
        <g transform="matrix(-0.92128,0.388901,0.388901,0.92128,806.948,1346.86)">
            <path d="M-381.617,-77.246L15.636,-77.246" style="fill:none;fill-rule:nonzero;stroke:rgb(35,31,32);stroke-width:2px;"/>
        </g>
        <g transform="matrix(-0.920126,-0.391623,-0.391623,0.920126,444.267,1062.38)">
            <path d="M-378.737,77.246L15.755,77.246" style="fill:none;fill-rule:nonzero;stroke:rgb(35,31,32);stroke-width:2px;"/>
        </g>
        <g transform="matrix(-0.384616,-0.923076,-0.923076,0.384616,458.824,805.839)">
            <path d="M-269.987,179.991L119.994,179.991" style="fill:none;fill-rule:nonzero;stroke:rgb(35,31,32);stroke-width:2px;"/>
        </g>
        <g transform="matrix(0.385157,-0.922851,-0.922851,-0.385157,460.588,722.617)">
            <path d="M-120.917,181.49L272.409,181.49" style="fill:none;fill-rule:nonzero;stroke:rgb(35,31,32);stroke-width:2px;"/>
        </g>
        <g transform="matrix(-0.707105,0.707109,0.707109,0.707105,636.442,893.362)">
            <rect x="-307.954" y="-127.559" width="255.117" height="255.118" style="fill:none;stroke:rgb(35,31,32);stroke-width:2px;"/>
        </g>
        <g transform="matrix(-0.707113,0.707101,0.707101,0.707113,720.982,806.322)">
            <rect x="-102.652" y="-42.519" width="85.039" height="85.039" style="fill:none;stroke:rgb(35,31,32);stroke-width:2px;"/>
        </g>
        <g transform="matrix(1,0,0,1,764.771,731.596)">
            <path d="M0,70.433L40.664,0L-40.665,0L0,70.433L40.664,0L-40.665,0L0,70.433Z" style="fill:none;fill-rule:nonzero;stroke:rgb(35,31,32);stroke-width:2px;"/>
        </g>
        <g transform="matrix(0,-1,-1,0,763.355,507.196)">
            <path d="M-257.987,-257.987C-400.469,-257.987 -515.974,-142.483 -515.974,-0.001C-515.974,142.482 -400.469,257.987 -257.987,257.987C-115.505,257.987 0,142.482 0,-0.001C0,-142.483 -115.505,-257.987 -257.987,-257.987Z" style="fill:none;fill-rule:nonzero;stroke:rgb(35,31,32);stroke-width:2px;"/>
        </g>
        <g transform="matrix(0,-1,-1,0,763.355,457.698)">
            <path d="M-305.984,-305.984C-474.976,-305.984 -611.969,-168.991 -611.969,-0C-611.969,168.991 -474.976,305.984 -305.984,305.984C-136.993,305.984 0,168.991 0,-0C0,-168.991 -136.993,-305.984 -305.984,-305.984Z" style="fill:none;fill-rule:nonzero;stroke:rgb(35,31,32);stroke-width:2px;"/>
        </g>
        <g transform="matrix(0,-1,-1,0,761.855,333.204)">
            <path d="M-430.478,-430.478C-668.225,-430.478 -860.956,-237.746 -860.956,0.001C-860.956,237.747 -668.225,430.478 -430.478,430.478C-192.731,430.478 -0,237.747 -0,0.001C-0,-237.746 -192.731,-430.478 -430.478,-430.478Z" style="fill:none;fill-rule:nonzero;stroke:rgb(35,31,32);stroke-width:2px;"/>
        </g>
        <g transform="matrix(-1.66411e-19,-1.00563,-1.00291,-1.66411e-19,765.356,0.611971)">
            <path d="M-760.463,-760.462C-1180.45,-760.462 -1520.92,-419.991 -1520.92,0C-1520.92,419.992 -1180.45,760.463 -760.463,760.463C-340.471,760.463 -0.001,419.992 -0.001,0C-0.001,-419.991 -340.471,-760.462 -760.463,-760.462Z" style="fill:none;fill-rule:nonzero;stroke:rgb(35,31,32);stroke-width:1.99px;"/>
        </g>
        <g transform="matrix(1,0,0,1,0,-904.801)">
            <rect x="222.882" y="1130.01" width="175.491" height="175.491" style="fill:none;stroke:rgb(35,31,32);stroke-width:2px;"/>
        </g>
        <g transform="matrix(1,0,0,1,0,-903.301)">
            <rect x="1128.59" y="1129.26" width="175.49" height="175.491" style="fill:none;stroke:rgb(35,31,32);stroke-width:2px;"/>
        </g>
        <g transform="matrix(1,0,0,1,0,902.608)">
            <rect x="1130.09" y="226.305" width="175.49" height="175.492" style="fill:none;stroke:rgb(35,31,32);stroke-width:2px;"/>
        </g>
        <g transform="matrix(1,0,0,1,0,908.608)">
            <rect x="222.632" y="223.305" width="175.49" height="175.492" style="fill:none;stroke:rgb(35,31,32);stroke-width:2px;"/>
        </g>
        <g transform="matrix(0.708046,-0.706166,-0.706166,-0.708046,35.4774,852.196)">
            <rect x="36.345" y="-87.911" width="175.491" height="175.491" style="fill:none;stroke:rgb(35,31,32);stroke-width:2px;"/>
        </g>
        <g transform="matrix(0.708046,-0.706166,-0.706166,-0.708046,677.288,213.15)">
            <rect x="36.346" y="-87.911" width="175.49" height="175.491" style="fill:none;stroke:rgb(35,31,32);stroke-width:2px;"/>
        </g>
        <g transform="matrix(0.708046,-0.706166,-0.706166,-0.708046,1315.99,851.424)">
            <rect x="36.346" y="-87.912" width="175.491" height="175.492" style="fill:none;stroke:rgb(35,31,32);stroke-width:2px;"/>
        </g>
        <g transform="matrix(0.708044,-0.706169,-0.706169,-0.708044,675.585,1494.36)">
            <rect x="36.346" y="-87.912" width="175.49" height="175.493" style="fill:none;stroke:rgb(35,31,32);stroke-width:2px;"/>
        </g>
        <g transform="matrix(1,0,0,1,762.772,811.096)">
            <path d="M0,121.429C13.187,121.413 24.819,119.927 35.006,117.809C45.198,115.683 53.96,112.95 61.562,110.161C76.764,104.522 87.391,98.925 95.918,95.14C104.429,91.288 110.856,89.12 117.093,88.616C123.323,88.09 129.304,89.184 136.654,91.175C134.661,83.826 133.567,77.846 134.093,71.615C134.597,65.378 136.766,58.952 140.615,50.442C144.403,41.915 149.999,31.286 155.638,16.084C158.426,8.484 161.159,-0.278 163.287,-10.47C165.403,-20.657 166.892,-32.29 166.906,-45.477C193.261,-38.965 206.312,-25.65 210.634,-9.994C212.809,-2.183 212.819,6.136 211.439,14.431C210.048,22.735 207.28,31.005 203.95,39.003C200.624,47.017 197.216,53.789 194.235,60.196C191.247,66.605 188.68,72.653 186.718,79.293C184.74,85.935 183.379,93.168 182.44,102.027C181.481,110.892 180.97,121.374 180.135,134.658C166.853,135.493 156.339,135.974 147.437,136.879C138.54,137.763 131.26,139.054 124.577,140.952C117.898,142.837 111.817,145.322 105.392,148.245C98.972,151.158 92.202,154.517 84.215,157.833C76.24,161.152 68.013,163.951 59.749,165.4C51.492,166.838 43.209,166.906 35.427,164.814C19.823,160.659 6.513,147.783 0,121.429Z" style="fill:none;fill-rule:nonzero;stroke:rgb(35,31,32);stroke-width:2px;"/>
        </g>
        <g transform="matrix(1,0,0,1,595.866,978.438)">
            <path d="M0,-212.82C0.015,-199.632 1.503,-188 3.62,-177.813C5.745,-167.621 8.479,-158.859 11.269,-151.258C16.906,-136.056 22.503,-125.427 26.289,-116.901C30.14,-108.39 32.309,-101.965 32.813,-95.728C33.338,-89.497 32.244,-83.516 30.251,-76.168C37.601,-78.159 43.582,-79.253 49.813,-78.726C56.05,-78.222 62.477,-76.054 70.987,-72.203C79.514,-68.418 90.142,-62.821 105.343,-57.181C112.945,-54.393 121.706,-51.66 131.898,-49.536C142.085,-47.416 153.718,-45.929 166.906,-45.914C160.394,-19.562 147.077,-6.507 131.422,-2.186C123.613,-0.011 115.292,0 106.997,-1.381C98.694,-2.772 90.425,-5.541 82.425,-8.869C74.411,-12.196 67.639,-15.603 61.232,-18.585C54.821,-21.574 48.774,-24.138 42.136,-26.101C35.492,-28.08 28.259,-29.441 19.4,-30.381C10.536,-31.34 0.052,-31.849 -13.229,-32.684C-14.064,-45.968 -14.544,-56.482 -15.451,-65.382C-16.337,-74.28 -17.625,-81.56 -19.524,-88.243C-21.41,-94.922 -23.895,-101.003 -26.815,-107.427C-29.729,-113.848 -33.089,-120.619 -36.403,-128.605C-39.724,-136.579 -42.522,-144.806 -43.971,-153.072C-45.407,-161.328 -45.477,-169.611 -43.385,-177.394C-39.231,-192.996 -26.354,-206.307 0,-212.82Z" style="fill:none;fill-rule:nonzero;stroke:rgb(35,31,32);stroke-width:2px;"/>
        </g>
        <g transform="matrix(1,0,0,1,762.772,720.141)">
            <path d="M0,-121.429C-13.188,-121.413 -24.821,-119.927 -35.008,-117.809C-45.198,-115.684 -53.961,-112.949 -61.563,-110.161C-76.765,-104.523 -87.393,-98.927 -95.919,-95.14C-104.43,-91.289 -110.856,-89.121 -117.094,-88.618C-123.324,-88.092 -129.306,-89.186 -136.655,-91.179C-134.662,-83.827 -133.568,-77.847 -134.094,-71.617C-134.598,-65.38 -136.767,-58.952 -140.617,-50.442C-144.403,-41.915 -150,-31.288 -155.638,-16.086C-158.426,-8.486 -161.159,0.278 -163.286,10.469C-165.403,20.656 -166.892,32.29 -166.906,45.477C-193.26,38.965 -206.312,25.649 -210.634,9.993C-212.809,2.184 -212.821,-6.136 -211.438,-14.431C-210.048,-22.735 -207.279,-31.005 -203.95,-39.003C-200.624,-47.018 -197.216,-53.79 -194.236,-60.196C-191.247,-66.609 -188.682,-72.655 -186.718,-79.293C-184.741,-85.937 -183.38,-93.169 -182.442,-102.029C-181.481,-110.892 -180.971,-121.377 -180.136,-134.659C-166.854,-135.493 -156.339,-135.974 -147.437,-136.88C-138.54,-137.765 -131.261,-139.055 -124.578,-140.954C-117.899,-142.839 -111.818,-145.324 -105.394,-148.246C-98.973,-151.159 -92.202,-154.518 -84.216,-157.833C-76.241,-161.152 -68.013,-163.95 -59.749,-165.4C-51.494,-166.838 -43.21,-166.906 -35.426,-164.815C-19.825,-160.66 -6.514,-147.783 0,-121.429Z" style="fill:none;fill-rule:nonzero;stroke:rgb(35,31,32);stroke-width:2px;"/>
        </g>
        <g transform="matrix(1,0,0,1,929.678,552.798)">
            <path d="M0,212.82C-0.015,199.632 -1.503,187.999 -3.619,177.814C-5.747,167.621 -8.48,158.859 -11.269,151.257C-16.907,136.055 -22.503,125.428 -26.29,116.901C-30.141,108.39 -32.31,101.964 -32.812,95.728C-33.339,89.496 -32.244,83.515 -30.252,76.165C-37.602,78.158 -43.582,79.253 -49.813,78.724C-56.05,78.222 -62.477,76.053 -70.987,72.203C-79.514,68.418 -90.142,62.82 -105.345,57.181C-112.944,54.394 -121.707,51.659 -131.899,49.534C-142.086,47.416 -153.718,45.929 -166.906,45.914C-160.394,19.56 -147.078,6.507 -131.424,2.187C-123.613,0.012 -115.292,0 -106.999,1.382C-98.695,2.771 -90.424,5.54 -82.425,8.869C-74.413,12.195 -67.64,15.605 -61.232,18.586C-54.823,21.574 -48.774,24.139 -42.135,26.103C-35.493,28.078 -28.261,29.441 -19.401,30.379C-10.536,31.34 -0.054,31.849 13.229,32.685C14.065,45.966 14.544,56.48 15.45,65.382C16.335,74.279 17.625,81.56 19.524,88.243C21.409,94.922 23.894,101.001 26.816,107.427C29.729,113.848 33.089,120.617 36.403,128.605C39.724,136.579 42.521,144.806 43.971,153.07C45.408,161.327 45.477,169.611 43.385,177.393C39.231,192.996 26.354,206.306 0,212.82Z" style="fill:none;fill-rule:nonzero;stroke:rgb(35,31,32);stroke-width:2px;"/>
        </g>
        <g transform="matrix(1,0,0,1,831.326,808.231)">
            <path d="M0,-87L-65.384,26.248L-130.768,-87L0,-87ZM24.167,-135.333L-159.5,-135.333L-159.5,48.333L24.167,48.333L24.167,-135.333Z" style="fill:none;fill-rule:nonzero;stroke:rgb(35,31,32);stroke-width:2px;"/>
        </g>
        <g transform="matrix(1,0,0,1,856.748,619.731)">
            <path d="M0,33.833C-25.188,12.72 -57.65,0 -93.088,0C-128.525,0 -160.988,12.72 -186.176,33.833L0,33.833Z" style="fill:none;fill-rule:nonzero;stroke:rgb(35,31,32);stroke-width:2px;"/>
        </g>
        <g transform="matrix(1,0,0,1,652.493,857.819)">
            <path d="M0,-186.176C-21.113,-160.988 -33.833,-128.527 -33.833,-93.088C-33.833,-57.65 -21.113,-25.188 0,0L0,-186.176Z" style="fill:none;fill-rule:nonzero;stroke:rgb(35,31,32);stroke-width:2px;"/>
        </g>
        <g transform="matrix(1,0,0,1,670.572,909.731)">
            <path d="M0,-33.833C25.188,-12.72 57.65,0 93.088,0C128.525,0 160.988,-12.72 186.176,-33.833L0,-33.833Z" style="fill:none;fill-rule:nonzero;stroke:rgb(35,31,32);stroke-width:2px;"/>
        </g>
        <g transform="matrix(1,0,0,1,874.826,857.819)">
            <path d="M0,-186.176L0,0C21.114,-25.188 33.834,-57.65 33.834,-93.088C33.834,-128.527 21.114,-160.988 0,-186.176Z" style="fill:none;fill-rule:nonzero;stroke:rgb(35,31,32);stroke-width:2px;"/>
        </g>
        <g transform="matrix(-1,0,0,1,1530.71,0.002)">
            <rect x="0" y="0" width="1530.71" height="1530.71" style="fill:none;stroke:rgb(35,31,32);stroke-width:2px;"/>
        </g>
        <g transform="matrix(1,0,0,1,246.527,764.303)">
            <path d="M0,0L1033.45,0" style="fill:none;fill-rule:nonzero;stroke:rgb(35,31,32);stroke-width:2px;"/>
        </g>
        <g transform="matrix(0,1,1,0,1279.98,764.303)">
            <path d="M-515.975,-515.975L515.975,-515.975" style="fill:none;fill-rule:nonzero;stroke:rgb(35,31,32);stroke-width:2px;"/>
        </g>
    </g>
</svg>
