<?xml version="1.0" encoding="UTF-8" standalone="no"?>
<!DOCTYPE svg PUBLIC "-//W3C//DTD SVG 1.1//EN" "http://www.w3.org/Graphics/SVG/1.1/DTD/svg11.dtd">
<svg width="100%" height="100%" viewBox="0 0 6378 6378" version="1.1" xmlns="http://www.w3.org/2000/svg" xmlns:xlink="http://www.w3.org/1999/xlink" xml:space="preserve" xmlns:serif="http://www.serif.com/" style="fill-rule:evenodd;clip-rule:evenodd;stroke-miterlimit:10;">
    <g id="Layer-1" serif:id="Layer 1" transform="matrix(4.16667,0,0,4.16667,0,0)">
        <g transform="matrix(1,0,0,1,0,0.975)">
            <rect x="0" y="0" width="1530.71" height="1529.74" style="fill:white;"/>
        </g>
        <g transform="matrix(-1,0,0,1,1530.71,1.948)">
            <rect x="0" y="-0.973" width="1530.71" height="1530.71" style="fill:none;stroke:rgb(35,31,32);stroke-width:1px;"/>
        </g>
        <g transform="matrix(-0.384484,-0.923132,-0.923132,0.384484,224.41,229.002)">
            <path d="M-702.007,-1052.85C-1122,-1052.85 -1462.47,-712.377 -1462.47,-292.385C-1462.47,127.607 -1122,468.077 -702.007,468.076C-282.014,468.076 58.456,127.607 58.455,-292.385C58.456,-712.377 -282.015,-1052.85 -702.007,-1052.85Z" style="fill:none;fill-rule:nonzero;stroke:rgb(35,31,32);stroke-width:1px;"/>
        </g>
        <g transform="matrix(0,-1,-1,0,130.41,370.716)">
            <circle cx="-34" cy="0" r="34" style="fill:none;stroke:rgb(35,31,32);stroke-width:1px;"/>
        </g>
        <g transform="matrix(0,-1,-1,0,136.41,1094.72)">
            <circle cx="-34" cy="0" r="34" style="fill:none;stroke:rgb(35,31,32);stroke-width:1px;"/>
        </g>
        <g transform="matrix(0,-1,-1,0,768.41,1456.72)">
            <circle cx="-34" cy="0" r="34" style="fill:none;stroke:rgb(35,31,32);stroke-width:1px;"/>
        </g>
        <g transform="matrix(0,-1,-1,0,1394.41,1094.72)">
            <circle cx="-34" cy="0" r="34" style="fill:none;stroke:rgb(35,31,32);stroke-width:1px;"/>
        </g>
        <g transform="matrix(0,-1,-1,0,1390.41,364.716)">
            <circle cx="-34" cy="0" r="34" style="fill:none;stroke:rgb(35,31,32);stroke-width:1px;"/>
        </g>
        <g transform="matrix(0,-1,-1,0,762.41,4.7159)">
            <circle cx="-34" cy="0" r="34" style="fill:none;stroke:rgb(35,31,32);stroke-width:1px;"/>
        </g>
    </g>
    <g id="Layer-15" serif:id="Layer 15" transform="matrix(4.16667,0,0,4.16667,0,0)">
        <g transform="matrix(0,-1,-1,0,764.41,249.716)">
            <path d="M-516,-516C-800.979,-516 -1032,-284.979 -1032,0C-1032,284.979 -800.979,516 -516,516C-231.021,516 0,284.979 0,0C0,-284.979 -231.021,-516 -516,-516" style="fill:white;fill-rule:nonzero;"/>
        </g>
        <g transform="matrix(0,-1,-1,0,764.41,249.716)">
            <path d="M-516,-516C-800.979,-516 -1032,-284.979 -1032,0C-1032,284.979 -800.979,516 -516,516C-231.021,516 0,284.979 0,0C0,-284.979 -231.021,-516 -516,-516Z" style="fill:none;fill-rule:nonzero;stroke:rgb(35,31,32);stroke-width:1px;"/>
        </g>
        <g transform="matrix(0,-1,-1,0,761.855,333.204)">
            <path d="M-430.478,-430.478C-668.225,-430.478 -860.956,-237.746 -860.956,0.001C-860.956,237.747 -668.225,430.478 -430.478,430.478C-192.731,430.478 -0,237.747 -0,0.001C-0,-237.746 -192.731,-430.478 -430.478,-430.478Z" style="fill:none;fill-rule:nonzero;stroke:rgb(35,31,32);stroke-width:1px;"/>
        </g>
    </g>
    <g id="Layer-16" serif:id="Layer 16" transform="matrix(4.16667,0,0,4.16667,0,0)">
        <g transform="matrix(1,0,0,1,1271.96,423.529)">
            <path d="M0,-177.269C38.359,-38.893 -42.721,104.378 -181.096,142.738C-319.471,181.096 -462.744,100.019 -501.104,-38.358C-539.461,-176.733 -458.381,-320.006 -320.008,-358.365" style="fill:none;fill-rule:nonzero;stroke:rgb(35,31,32);stroke-width:1px;"/>
        </g>
        <g transform="matrix(1,0,0,1,555.781,601.332)">
            <path d="M0,-538.651C140.3,-508.071 229.246,-369.545 198.664,-229.245C168.083,-88.944 29.557,0 -110.743,-30.581C-251.042,-61.162 -339.988,-199.687 -309.407,-339.988" style="fill:none;fill-rule:nonzero;stroke:rgb(35,31,32);stroke-width:1px;"/>
        </g>
        <g transform="matrix(1,0,0,1,66.7769,954.575)">
            <path d="M0,-379.718C104.855,-477.822 269.388,-472.349 367.492,-367.492C465.596,-262.636 460.123,-98.104 355.266,0C250.41,98.104 85.878,92.63 -12.226,-12.226" style="fill:none;fill-rule:nonzero;stroke:rgb(35,31,32);stroke-width:1px;"/>
        </g>
        <g transform="matrix(1,0,0,1,252.023,1133.31)">
            <path d="M0,137.135C-29.673,-3.36 60.164,-141.309 200.658,-170.983C341.152,-200.658 479.102,-110.82 508.776,29.675C538.45,170.168 448.613,308.117 308.119,337.793" style="fill:none;fill-rule:nonzero;stroke:rgb(35,31,32);stroke-width:1px;"/>
        </g>
        <g transform="matrix(1,0,0,1,950.098,920.022)">
            <path d="M0,539.243C-137.27,497.099 -214.383,351.653 -172.237,214.384C-130.093,77.113 15.353,0 152.622,42.144C289.892,84.291 367.006,229.734 324.86,367.005" style="fill:none;fill-rule:nonzero;stroke:rgb(35,31,32);stroke-width:1px;"/>
        </g>
        <g transform="matrix(1,0,0,1,1463.71,578.312)">
            <path d="M0,369.963C-102.162,470.869 -266.783,469.851 -367.689,367.689C-468.596,265.526 -467.577,100.906 -365.415,0C-263.253,-100.906 -98.633,-99.888 2.273,2.275" style="fill:none;fill-rule:nonzero;stroke:rgb(35,31,32);stroke-width:1px;"/>
        </g>
        <g transform="matrix(-0.498664,-0.866796,-0.866796,0.498664,177.292,426.904)">
            <path d="M-587.69,-1016.09C-378.926,-1016.1 -209.689,-712.543 -209.689,-338.093C-209.689,36.356 -378.923,339.906 -587.69,339.907C-796.452,339.906 -965.689,36.356 -965.69,-338.095C-965.689,-712.544 -796.454,-1016.09 -587.69,-1016.09Z" style="fill:none;fill-rule:nonzero;stroke:rgb(35,31,32);stroke-width:1px;"/>
        </g>
        <g transform="matrix(-1,0,0,1,765.41,1444.72)">
            <path d="M0,-1356C208.764,-1356 378,-1052.45 378,-678C378,-303.551 208.764,0 0,0C-208.764,0 -378,-303.551 -378,-678C-378,-1052.45 -208.764,-1356 0,-1356Z" style="fill:none;fill-rule:nonzero;stroke:rgb(35,31,32);stroke-width:1px;"/>
        </g>
        <g transform="matrix(0.495595,-0.868554,-0.868554,-0.495595,1349.1,423.769)">
            <path d="M-588.88,-341.986C-380.117,-341.986 -210.879,-38.436 -210.88,336.014C-210.88,710.462 -380.116,1014.01 -588.88,1014.01C-797.644,1014.01 -966.881,710.462 -966.88,336.014C-966.88,-38.436 -797.643,-341.986 -588.88,-341.986Z" style="fill:none;fill-rule:nonzero;stroke:rgb(35,31,32);stroke-width:1px;"/>
        </g>
    </g>
    <g id="Layer-9" serif:id="Layer 9" transform="matrix(4.16667,0,0,4.16667,0,0)">
        <g transform="matrix(0.864732,-0.502233,-0.502233,-0.864732,158.02,1829.04)">
            <path d="M-165.855,615.8L2286.39,615.8" style="fill:none;fill-rule:nonzero;stroke:rgb(35,31,32);stroke-width:1px;"/>
        </g>
        <g transform="matrix(0.868173,0.496261,0.496261,-0.868173,143.398,-291.492)">
            <path d="M-161.636,-608.478L2290.61,-608.478" style="fill:none;fill-rule:nonzero;stroke:rgb(35,31,32);stroke-width:1px;"/>
        </g>
        <g transform="matrix(-0.00344093,-0.999994,-0.999994,0.00344093,1991.69,755.598)">
            <path d="M-1230.34,1226.12L1221.9,1226.12" style="fill:none;fill-rule:nonzero;stroke:rgb(35,31,32);stroke-width:1px;"/>
        </g>
    </g>
    <g id="Layer-4" serif:id="Layer 4" transform="matrix(4.16667,0,0,4.16667,0,0)">
        <g transform="matrix(-0.384485,-0.923131,-0.923131,0.384485,581.095,582.919)">
            <path d="M-238.156,-357.179C-380.638,-357.178 -496.142,-241.674 -496.142,-99.191C-496.142,43.29 -380.637,158.794 -238.156,158.795C-95.673,158.794 19.832,43.29 19.831,-99.193C19.831,-241.675 -95.673,-357.179 -238.156,-357.179" style="fill:white;fill-rule:nonzero;"/>
        </g>
        <g transform="matrix(-0.384485,-0.923131,-0.923131,0.384485,581.095,582.919)">
            <path d="M-238.156,-357.179C-380.638,-357.178 -496.142,-241.674 -496.142,-99.191C-496.142,43.29 -380.637,158.794 -238.156,158.795C-95.673,158.794 19.832,43.29 19.831,-99.193C19.831,-241.675 -95.673,-357.179 -238.156,-357.179Z" style="fill:none;fill-rule:nonzero;stroke:rgb(35,31,32);stroke-width:1px;"/>
        </g>
    </g>
    <g id="Layer-13" serif:id="Layer 13" transform="matrix(4.16667,0,0,4.16667,0,0)">
        <g transform="matrix(1,0,0,1,853.433,783.438)">
            <path d="M0,134.217C16.124,124.842 27.271,115.26 35.692,107.421C44.092,99.515 49.812,93.235 54.528,88.686C59.231,84.119 62.916,81.24 66.687,79.53C70.441,77.806 74.266,77.247 78.978,77.048C76.794,72.861 75.381,69.274 75.001,65.164C74.606,61.047 75.268,56.426 76.877,50.089C78.45,43.743 81.039,35.681 83.675,24.488C86.243,13.311 88.93,-1.072 88.976,-19.801C98.922,-19.816 106.545,-17.956 112.372,-14.456C118.189,-10.971 122.187,-5.89 124.841,0.032C127.5,5.949 128.793,12.676 129.406,19.391C130.013,26.111 129.944,32.81 130.086,38.841C130.232,45.026 129.912,50.441 129.588,55.525C129.265,60.614 128.944,65.382 128.951,70.394C128.954,75.411 129.302,80.675 130.146,86.848C130.986,93.031 132.34,100.118 134.141,108.942C125.593,111.78 118.761,114.194 112.967,116.616C107.167,119.019 102.417,121.423 98.016,123.946C93.62,126.459 89.6,129.11 85.287,131.821C80.982,134.53 76.391,137.315 70.918,139.943C65.262,142.651 59.207,145.794 52.892,148.363C46.584,150.937 40.018,152.924 33.599,153.478C27.176,154.033 20.918,153.141 15.238,150.121C9.545,147.11 4.473,141.973 0,134.217Z" style="fill:white;fill-rule:nonzero;stroke:rgb(35,31,32);stroke-width:1px;"/>
        </g>
        <g transform="matrix(1,0,0,1,675.559,1021.03)">
            <path d="M0,-103.377C8.063,-98.714 15.59,-95.197 22.435,-92.402C29.283,-89.607 35.461,-87.546 40.961,-85.882C51.979,-82.574 60.272,-80.793 66.57,-78.99C72.879,-77.219 77.227,-75.476 80.604,-73.079C83.987,-70.69 86.396,-67.675 88.937,-63.685C91.477,-67.675 93.884,-70.69 97.268,-73.079C100.646,-75.476 104.993,-77.219 111.303,-78.99C117.601,-80.793 125.894,-82.574 136.912,-85.882C142.412,-87.546 148.591,-89.607 155.439,-92.402C162.283,-95.197 169.812,-98.712 177.874,-103.377C182.875,-94.773 185.086,-87.254 184.971,-80.464C184.867,-73.69 182.464,-67.688 178.656,-62.437C174.856,-57.173 169.665,-52.698 164.147,-48.82C158.628,-44.93 152.78,-41.661 147.619,-38.525C142.331,-35.305 137.474,-32.896 132.906,-30.629C128.329,-28.372 124.035,-26.275 119.696,-23.76C115.352,-21.246 110.964,-18.333 106.042,-14.511C101.11,-10.691 95.652,-5.983 88.937,0C82.219,-5.983 76.708,-10.665 71.711,-14.467C66.724,-18.266 62.257,-21.172 57.865,-23.709C53.48,-26.25 49.169,-28.395 44.655,-30.766C40.149,-33.138 35.434,-35.708 30.416,-39.13C25.234,-42.665 19.479,-46.33 14.1,-50.521C8.719,-54.703 3.71,-59.375 0.036,-64.674C-3.648,-69.958 -5.995,-75.822 -6.206,-82.244C-6.43,-88.682 -4.5,-95.633 0,-103.377Z" style="fill:white;fill-rule:nonzero;stroke:rgb(35,31,32);stroke-width:1px;"/>
        </g>
        <g transform="matrix(1,0,0,1,586.582,939.403)">
            <path d="M0,-175.765C0.044,-157.036 2.73,-142.654 5.299,-131.476C7.936,-120.286 10.525,-112.223 12.098,-105.875C13.708,-99.538 14.37,-94.917 13.973,-90.802C13.592,-86.691 12.181,-83.104 9.996,-78.916C14.711,-78.717 18.533,-78.161 22.288,-76.434C26.06,-74.724 29.744,-71.847 34.446,-67.279C39.163,-62.73 44.885,-56.45 53.284,-48.543C61.703,-40.704 72.852,-31.122 88.977,-21.747C84.006,-13.128 78.583,-7.463 72.637,-4.181C66.705,-0.891 60.302,0.014 53.844,-0.663C47.391,-1.337 40.913,-3.588 34.796,-6.426C28.672,-9.269 22.917,-12.691 17.613,-15.578C12.185,-18.545 7.659,-21.528 3.414,-24.345C-0.833,-27.167 -4.8,-29.824 -9.154,-32.314C-13.506,-34.808 -18.23,-37.138 -24.014,-39.475C-29.788,-41.832 -36.617,-44.184 -45.167,-47.023C-43.366,-55.846 -42.063,-62.967 -41.27,-69.199C-40.478,-75.419 -40.175,-80.745 -40.177,-85.811C-40.175,-90.877 -40.448,-95.691 -40.652,-100.78C-40.854,-105.862 -40.965,-111.233 -40.506,-117.285C-40.03,-123.535 -39.707,-130.35 -38.77,-137.097C-37.833,-143.842 -36.265,-150.515 -33.521,-156.34C-30.774,-162.172 -26.87,-167.139 -21.41,-170.539C-15.943,-173.957 -8.954,-175.779 0,-175.765Z" style="fill:white;fill-rule:nonzero;stroke:rgb(35,31,32);stroke-width:1px;"/>
        </g>
        <g transform="matrix(1,0,0,1,675.559,743.839)">
            <path d="M0,-134.218C-16.125,-124.842 -27.274,-115.263 -35.693,-107.425C-44.091,-99.516 -49.813,-93.234 -54.531,-88.687C-59.232,-84.119 -62.917,-81.241 -66.688,-79.532C-70.444,-77.807 -74.266,-77.248 -78.981,-77.05C-76.796,-72.861 -75.385,-69.277 -75.003,-65.164C-74.607,-61.047 -75.269,-56.428 -76.878,-50.09C-78.451,-43.742 -81.041,-35.68 -83.677,-24.49C-86.246,-13.31 -88.932,1.07 -88.977,19.799C-98.926,19.817 -106.547,17.957 -112.375,14.453C-118.193,10.971 -122.189,5.887 -124.842,-0.031C-127.503,-5.952 -128.797,-12.679 -129.409,-19.394C-130.014,-26.111 -129.947,-32.808 -130.087,-38.843C-130.234,-45.027 -129.914,-50.442 -129.589,-55.524C-129.267,-60.616 -128.947,-65.384 -128.954,-70.397C-128.957,-75.412 -129.305,-80.676 -130.147,-86.85C-130.988,-93.032 -132.342,-100.12 -134.144,-108.942C-125.594,-111.781 -118.761,-114.195 -112.969,-116.615C-107.168,-119.018 -102.418,-121.424 -98.02,-123.947C-93.621,-126.462 -89.602,-129.111 -85.289,-131.822C-80.983,-134.531 -76.391,-137.315 -70.92,-139.945C-65.264,-142.653 -59.209,-145.794 -52.893,-148.363C-46.586,-150.938 -40.02,-152.926 -33.6,-153.479C-27.178,-154.035 -20.918,-153.141 -15.24,-150.124C-9.546,-147.113 -4.474,-141.973 0,-134.218Z" style="fill:white;fill-rule:nonzero;stroke:rgb(35,31,32);stroke-width:1px;"/>
        </g>
        <g transform="matrix(1,0,0,1,853.433,506.246)">
            <path d="M0,103.374C-8.063,98.708 -15.591,95.194 -22.435,92.4C-29.283,89.604 -35.462,87.544 -40.962,85.878C-51.98,82.572 -60.273,80.791 -66.571,78.988C-72.881,77.216 -77.229,75.475 -80.606,73.076C-83.99,70.689 -86.397,67.674 -88.937,63.684C-91.479,67.674 -93.887,70.689 -97.27,73.076C-100.647,75.475 -104.993,77.216 -111.304,78.988C-117.602,80.791 -125.895,82.572 -136.913,85.878C-142.413,87.544 -148.591,89.604 -155.439,92.4C-162.284,95.195 -169.812,98.708 -177.874,103.375C-182.875,94.772 -185.087,87.252 -184.971,80.461C-184.868,73.688 -182.465,67.686 -178.657,62.435C-174.858,57.172 -169.667,52.696 -164.148,48.82C-158.628,44.929 -152.782,41.66 -147.622,38.522C-142.331,35.304 -137.474,32.893 -132.907,30.627C-128.331,28.371 -124.036,26.272 -119.698,23.758C-115.354,21.245 -110.964,18.33 -106.043,14.51C-101.112,10.689 -95.655,5.981 -88.937,-0.001C-82.222,5.981 -76.709,10.661 -71.714,14.464C-66.725,18.264 -62.26,21.172 -57.867,23.708C-53.481,26.248 -49.171,28.395 -44.657,30.763C-40.152,33.132 -35.436,35.703 -30.416,39.126C-25.235,42.663 -19.48,46.327 -14.101,50.519C-8.72,54.7 -3.713,59.374 -0.037,64.67C3.646,69.957 5.994,75.82 6.205,82.243C6.429,88.678 4.5,95.632 0,103.374Z" style="fill:white;fill-rule:nonzero;stroke:rgb(35,31,32);stroke-width:1px;"/>
        </g>
        <g transform="matrix(1,0,0,1,942.409,587.874)">
            <path d="M0,175.764C-0.046,157.035 -2.732,142.656 -5.301,131.475C-7.937,120.285 -10.525,112.223 -12.099,105.875C-13.708,99.537 -14.369,94.918 -13.975,90.802C-13.593,86.689 -12.182,83.104 -9.998,78.915C-14.71,78.717 -18.534,78.158 -22.289,76.433C-26.06,74.724 -29.744,71.846 -34.447,67.279C-39.163,62.731 -44.884,56.449 -53.283,48.54C-61.704,40.702 -72.852,31.122 -88.976,21.746C-84.006,13.129 -78.583,7.464 -72.636,4.181C-66.707,0.891 -60.301,-0.016 -53.845,0.661C-47.391,1.336 -40.913,3.587 -34.796,6.427C-28.673,9.267 -22.917,12.69 -17.612,15.576C-12.187,18.546 -7.66,21.529 -3.414,24.344C0.833,27.165 4.8,29.825 9.155,32.311C13.505,34.807 18.23,37.138 24.014,39.475C29.787,41.831 36.617,44.185 45.167,47.024C43.364,55.846 42.062,62.967 41.27,69.199C40.478,75.417 40.173,80.746 40.175,85.813C40.173,90.876 40.447,95.69 40.65,100.779C40.854,105.861 40.964,111.231 40.504,117.285C40.031,123.534 39.706,130.349 38.769,137.097C37.831,143.842 36.264,150.514 33.519,156.341C30.773,162.173 26.869,167.138 21.409,170.539C15.941,173.958 8.952,175.78 0,175.764Z" style="fill:white;fill-rule:nonzero;stroke:rgb(35,31,32);stroke-width:1px;"/>
        </g>
    </g>
    <g id="sacrel-centre" serif:id="sacrel centre" transform="matrix(4.16667,0,0,4.16667,0,0)">
        <g transform="matrix(1,0,0,1,849.246,783.571)">
            <path d="M0,128.483C15.424,119.507 26.088,110.337 34.143,102.833C42.178,95.264 47.649,89.251 52.162,84.897C56.659,80.525 60.186,77.77 63.792,76.133C67.385,74.482 71.041,73.948 75.551,73.757C73.461,69.749 72.11,66.315 71.746,62.38C71.367,58.44 72,54.016 73.539,47.949C75.045,41.875 77.521,34.156 80.043,23.444C82.5,12.742 85.07,-1.025 85.112,-18.953C94.629,-18.969 101.92,-17.188 107.494,-13.835C113.061,-10.502 116.883,-5.636 119.422,0.031C121.966,5.698 123.203,12.137 123.789,18.565C124.369,24.997 124.305,31.408 124.439,37.182C124.58,43.103 124.273,48.287 123.963,53.152C123.654,58.025 123.348,62.59 123.354,67.387C123.357,72.19 123.69,77.228 124.496,83.138C125.301,89.057 126.596,95.842 128.318,104.287C120.141,107.004 113.605,109.315 108.064,111.632C102.516,113.933 97.972,116.235 93.762,118.65C89.557,121.057 85.711,123.593 81.586,126.189C77.467,128.783 73.074,131.447 67.84,133.963C62.43,136.557 56.637,139.565 50.596,142.024C44.563,144.489 38.281,146.391 32.141,146.921C25.996,147.452 20.01,146.598 14.578,143.708C9.131,140.825 4.279,135.907 0,128.483Z" style="fill:white;fill-rule:nonzero;stroke:rgb(35,31,32);stroke-width:1px;"/>
        </g>
        <g transform="matrix(1,0,0,1,679.093,1011.01)">
            <path d="M0,-98.958C7.713,-94.493 14.914,-91.128 21.461,-88.453C28.012,-85.778 33.922,-83.805 39.184,-82.21C49.723,-79.045 57.655,-77.339 63.681,-75.615C69.715,-73.918 73.875,-72.25 77.105,-69.954C80.342,-67.67 82.646,-64.782 85.076,-60.963C87.506,-64.782 89.809,-67.67 93.045,-69.954C96.277,-72.25 100.436,-73.918 106.471,-75.615C112.496,-77.339 120.429,-79.045 130.969,-82.21C136.23,-83.804 142.141,-85.778 148.691,-88.453C155.238,-91.128 162.439,-94.492 170.152,-98.958C174.936,-90.723 177.052,-83.525 176.941,-77.024C176.842,-70.541 174.543,-64.794 170.9,-59.769C167.266,-54.73 162.301,-50.445 157.021,-46.734C151.742,-43.01 146.148,-39.88 141.211,-36.878C136.151,-33.797 131.506,-31.489 127.137,-29.319C122.759,-27.159 118.65,-25.151 114.5,-22.744C110.345,-20.338 106.146,-17.548 101.438,-13.891C96.721,-10.233 91.5,-5.727 85.076,0C78.65,-5.727 73.378,-10.208 68.598,-13.847C63.827,-17.483 59.555,-20.268 55.354,-22.695C51.159,-25.128 47.035,-27.182 42.717,-29.451C38.407,-31.72 33.896,-34.181 29.096,-37.457C24.139,-40.841 18.634,-44.349 13.488,-48.361C8.341,-52.364 3.549,-56.837 0.034,-61.909C-3.49,-66.968 -5.734,-72.581 -5.937,-78.73C-6.15,-84.892 -4.305,-91.547 0,-98.958Z" style="fill:white;fill-rule:nonzero;stroke:rgb(35,31,32);stroke-width:1px;"/>
        </g>
        <g transform="matrix(1,0,0,1,593.979,932.871)">
            <path d="M0,-168.253C0.043,-150.325 2.612,-136.559 5.069,-125.857C7.591,-115.146 10.069,-107.427 11.573,-101.352C13.112,-95.284 13.745,-90.86 13.366,-86.921C13.002,-82.985 11.651,-79.553 9.562,-75.543C14.073,-75.353 17.729,-74.819 21.32,-73.167C24.929,-71.531 28.453,-68.776 32.951,-64.404C37.464,-60.05 42.937,-54.036 50.972,-46.468C59.024,-38.964 69.689,-29.793 85.114,-20.817C80.359,-12.568 75.172,-7.144 69.483,-4.004C63.81,-0.854 57.685,0.015 51.507,-0.634C45.334,-1.28 39.137,-3.435 33.286,-6.152C27.428,-8.872 21.923,-12.148 16.849,-14.911C11.656,-17.753 7.327,-20.608 3.265,-23.304C-0.797,-26.005 -4.592,-28.551 -8.757,-30.933C-12.919,-33.32 -17.438,-35.551 -22.972,-37.788C-28.495,-40.044 -35.028,-42.296 -43.206,-45.014C-41.483,-53.458 -40.236,-60.277 -39.479,-66.241C-38.72,-72.195 -38.431,-77.294 -38.433,-82.145C-38.431,-86.993 -38.692,-91.601 -38.888,-96.472C-39.081,-101.337 -39.187,-106.48 -38.747,-112.273C-38.292,-118.255 -37.983,-124.778 -37.086,-131.238C-36.19,-137.694 -34.69,-144.082 -32.065,-149.66C-29.438,-155.242 -25.703,-159.995 -20.48,-163.251C-15.251,-166.524 -8.565,-168.268 0,-168.253Z" style="fill:white;fill-rule:nonzero;stroke:rgb(35,31,32);stroke-width:1px;"/>
        </g>
        <g transform="matrix(1,0,0,1,679.093,745.665)">
            <path d="M0,-128.482C-15.425,-119.506 -26.09,-110.336 -34.143,-102.834C-42.178,-95.262 -47.65,-89.25 -52.163,-84.896C-56.661,-80.524 -60.186,-77.769 -63.794,-76.132C-67.386,-74.481 -71.041,-73.946 -75.553,-73.755C-73.463,-69.747 -72.112,-66.315 -71.748,-62.378C-71.369,-58.438 -72.002,-54.015 -73.541,-47.948C-75.045,-41.873 -77.523,-34.155 -80.045,-23.443C-82.502,-12.741 -85.071,1.025 -85.114,18.954C-94.631,18.97 -101.922,17.19 -107.496,13.836C-113.063,10.503 -116.885,5.637 -119.423,-0.03C-121.968,-5.697 -123.206,-12.136 -123.791,-18.564C-124.371,-24.995 -124.306,-31.406 -124.441,-37.182C-124.581,-43.102 -124.275,-48.286 -123.965,-53.151C-123.656,-58.025 -123.35,-62.588 -123.355,-67.387C-123.359,-72.189 -123.691,-77.228 -124.497,-83.137C-125.302,-89.055 -126.598,-95.84 -128.32,-104.286C-120.143,-107.003 -113.605,-109.314 -108.065,-111.631C-102.516,-113.931 -97.972,-116.234 -93.764,-118.649C-89.557,-121.056 -85.712,-123.592 -81.586,-126.188C-77.469,-128.782 -73.074,-131.446 -67.842,-133.963C-62.43,-136.555 -56.639,-139.562 -50.598,-142.022C-44.564,-144.486 -38.283,-146.39 -32.141,-146.92C-25.998,-147.452 -20.01,-146.596 -14.578,-143.708C-9.131,-140.825 -4.279,-135.905 0,-128.482Z" style="fill:white;fill-rule:nonzero;stroke:rgb(35,31,32);stroke-width:1px;"/>
        </g>
        <g transform="matrix(1,0,0,1,849.246,518.226)">
            <path d="M0,98.956C-7.713,94.491 -14.914,91.127 -21.461,88.452C-28.012,85.775 -33.922,83.803 -39.184,82.209C-49.724,79.044 -57.656,77.339 -63.682,75.613C-69.717,73.917 -73.875,72.249 -77.107,69.954C-80.344,67.669 -82.646,64.782 -85.076,60.962C-87.507,64.782 -89.811,67.669 -93.047,69.954C-96.277,72.249 -100.436,73.917 -106.472,75.613C-112.497,77.339 -120.43,79.044 -130.969,82.209C-136.23,83.803 -142.141,85.775 -148.691,88.452C-155.238,91.128 -162.439,94.491 -170.152,98.957C-174.937,90.723 -177.053,83.524 -176.941,77.023C-176.843,70.54 -174.545,64.794 -170.901,59.768C-167.267,54.729 -162.301,50.444 -157.022,46.734C-151.742,43.009 -146.149,39.88 -141.213,36.876C-136.152,33.796 -131.506,31.487 -127.137,29.318C-122.76,27.159 -118.651,25.15 -114.502,22.743C-110.346,20.337 -106.146,17.547 -101.439,13.891C-96.723,10.232 -91.502,5.727 -85.076,-0.001C-78.652,5.727 -73.379,10.206 -68.6,13.847C-63.828,17.483 -59.557,20.268 -55.355,22.695C-51.16,25.126 -47.035,27.182 -42.719,29.449C-38.408,31.717 -33.896,34.178 -29.096,37.455C-24.14,40.84 -18.635,44.348 -13.488,48.36C-8.342,52.362 -3.551,56.837 -0.035,61.907C3.489,66.968 5.734,72.58 5.936,78.728C6.15,84.889 4.305,91.546 0,98.956Z" style="fill:white;fill-rule:nonzero;stroke:rgb(35,31,32);stroke-width:1px;"/>
        </g>
        <g transform="matrix(1,0,0,1,934.358,596.364)">
            <path d="M0,168.254C-0.042,150.325 -2.612,136.56 -5.069,125.858C-7.591,115.146 -10.067,107.428 -11.573,101.352C-13.112,95.285 -13.745,90.862 -13.366,86.922C-13.001,82.985 -11.651,79.553 -9.562,75.544C-14.071,75.354 -17.728,74.819 -21.32,73.168C-24.927,71.531 -28.453,68.776 -32.95,64.404C-37.462,60.051 -42.935,54.037 -50.97,46.467C-59.024,38.964 -69.688,29.793 -85.112,20.817C-80.358,12.568 -75.171,7.146 -69.481,4.004C-63.81,0.854 -57.683,-0.015 -51.506,0.634C-45.333,1.28 -39.136,3.435 -33.284,6.153C-27.427,8.872 -21.921,12.149 -16.847,14.912C-11.655,17.754 -7.326,20.609 -3.265,23.305C0.798,26.005 4.593,28.551 8.759,30.931C12.921,33.321 17.44,35.552 22.972,37.789C28.495,40.045 35.028,42.298 43.208,45.016C41.483,53.46 40.237,60.277 39.479,66.242C38.722,72.195 38.431,77.296 38.433,82.147C38.431,86.993 38.692,91.602 38.888,96.474C39.081,101.338 39.188,106.479 38.747,112.274C38.294,118.255 37.983,124.779 37.087,131.239C36.19,137.695 34.69,144.083 32.064,149.661C29.438,155.243 25.704,159.995 20.48,163.252C15.251,166.525 8.565,168.269 0,168.254Z" style="fill:white;fill-rule:nonzero;stroke:rgb(35,31,32);stroke-width:1px;"/>
        </g>
    </g>
    <g id="Layer-14" serif:id="Layer 14" transform="matrix(4.16667,0,0,4.16667,0,0)">
        <g transform="matrix(1,0,0,1,766.844,717.716)">
            <path d="M0,188.608C-83.39,188.608 -150.99,121.055 -150.99,37.72C-150.99,24.696 -149.339,12.057 -146.233,0C-129.471,65.081 -70.357,113.165 0,113.165C70.354,113.165 129.472,65.081 146.234,0C149.34,12.057 150.991,24.696 150.991,37.72C150.991,121.055 83.39,188.608 0,188.608" style="fill:white;fill-rule:nonzero;"/>
        </g>
        <g transform="matrix(1,0,0,1,766.844,717.716)">
            <path d="M0,188.608C-83.39,188.608 -150.99,121.055 -150.99,37.72C-150.99,24.696 -149.339,12.057 -146.233,0C-129.471,65.081 -70.357,113.165 0,113.165C70.354,113.165 129.472,65.081 146.234,0C149.34,12.057 150.991,24.696 150.991,37.72C150.991,121.055 83.39,188.608 0,188.608Z" style="fill:none;fill-rule:nonzero;stroke:rgb(35,31,32);stroke-width:1px;"/>
        </g>
    </g>
</svg>
