<?xml version="1.0" encoding="UTF-8" standalone="no"?>
<!DOCTYPE svg PUBLIC "-//W3C//DTD SVG 1.1//EN" "http://www.w3.org/Graphics/SVG/1.1/DTD/svg11.dtd">
<svg width="100%" height="100%" viewBox="0 0 3544 3544" version="1.1" xmlns="http://www.w3.org/2000/svg" xmlns:xlink="http://www.w3.org/1999/xlink" xml:space="preserve" xmlns:serif="http://www.serif.com/" style="fill-rule:evenodd;clip-rule:evenodd;stroke-miterlimit:10;">
    <g id="Strength" transform="matrix(2.87895,0,0,2.87895,-3174.43,-2533.93)">
        <g transform="matrix(4.16667,0,0,-4.16667,-249.311,2093.38)">
            <rect x="382.906" y="53.984" width="178.453" height="178.457" style="fill:white;stroke:rgb(35,31,32);stroke-width:0.5px;"/>
        </g>
        <g transform="matrix(1.60206,3.84636,-3.84636,1.60206,1511.28,-548.749)">
            <ellipse cx="471.998" cy="143.019" rx="88.657" ry="88.656" style="fill:none;stroke:rgb(35,31,32);stroke-width:0.5px;"/>
        </g>
        <g transform="matrix(0,4.16667,-4.16667,0,1830.48,-337.76)">
            <ellipse cx="398.1" cy="101.051" rx="3.965" ry="3.966" style="fill:none;stroke:rgb(35,31,32);stroke-width:0.5px;"/>
        </g>
        <g transform="matrix(0,4.16667,-4.16667,0,2185.11,10.9942)">
            <ellipse cx="398.804" cy="185.457" rx="3.965" ry="3.969" style="fill:none;stroke:rgb(35,31,32);stroke-width:0.5px;"/>
        </g>
        <g transform="matrix(0,4.16667,-4.16667,0,2668,-120.15)">
            <ellipse cx="472.488" cy="227.666" rx="3.963" ry="3.965" style="fill:none;stroke:rgb(35,31,32);stroke-width:0.5px;"/>
        </g>
        <g transform="matrix(0,4.16667,-4.16667,0,2796.17,-600.066)">
            <ellipse cx="545.459" cy="185.457" rx="3.965" ry="3.967" style="fill:none;stroke:rgb(35,31,32);stroke-width:0.5px;"/>
        </g>
        <g transform="matrix(0,4.16667,-4.16667,0,2439.64,-952.727)">
            <ellipse cx="544.994" cy="100.353" rx="3.962" ry="3.967" style="fill:none;stroke:rgb(35,31,32);stroke-width:0.5px;"/>
        </g>
        <g transform="matrix(0,4.16667,-4.16667,0,1959.72,-822.518)">
            <ellipse cx="471.779" cy="58.389" rx="3.966" ry="3.967" style="fill:none;stroke:rgb(35,31,32);stroke-width:0.5px;"/>
        </g>
        <g transform="matrix(0,4.16667,-4.16667,0,2313.85,-470.395)">
            <ellipse cx="472.02" cy="143.139" rx="60.159" ry="60.157" style="fill:white;stroke:rgb(35,31,32);stroke-width:0.5px;"/>
        </g>
        <g transform="matrix(4.16666,0.21047,-0.21047,4.16666,2311.73,-470.112)">
            <circle cx="-118.793" cy="477.724" r="50.121" style="fill:none;stroke:rgb(35,31,32);stroke-width:0.5px;"/>
        </g>
        <g transform="matrix(4.16667,0,0,-4.16667,-249.311,1674.23)">
            <path d="M531.188,103.246C535.656,87.113 526.207,70.41 510.074,65.941C493.941,61.469 477.238,70.922 472.77,87.055C468.301,103.187 477.75,119.887 493.883,124.359" style="fill:none;fill-rule:nonzero;stroke:rgb(35,31,32);stroke-width:0.5px;"/>
        </g>
        <g transform="matrix(4.16667,0,0,-4.16667,-249.311,1671.41)">
            <path d="M447.699,123.977C464.055,120.415 474.422,104.258 470.859,87.899C467.297,71.544 451.141,61.176 434.789,64.739C418.434,68.301 408.066,84.458 411.629,100.817" style="fill:none;fill-rule:nonzero;stroke:rgb(35,31,32);stroke-width:0.5px;"/>
        </g>
        <g transform="matrix(4.16667,0,0,-4.16667,-249.311,2091.8)">
            <path d="M390.691,165.156C402.914,176.594 422.094,175.953 433.531,163.731C444.969,151.504 444.328,132.328 432.105,120.891C419.879,109.453 400.703,110.09 389.266,122.313" style="fill:none;fill-rule:nonzero;stroke:rgb(35,31,32);stroke-width:0.5px;"/>
        </g>
        <g transform="matrix(4.16667,0,0,-4.16667,-249.311,2516.54)">
            <path d="M412.281,186C408.824,202.382 419.297,218.461 435.676,221.918C452.055,225.375 468.137,214.906 471.594,198.527C475.051,182.148 464.578,166.066 448.199,162.609" style="fill:none;fill-rule:nonzero;stroke:rgb(35,31,32);stroke-width:0.5px;"/>
        </g>
        <g transform="matrix(4.16667,0,0,-4.16667,-249.311,2504.63)">
            <path d="M493.664,161.129C477.66,166.043 468.676,183 473.586,199.004C478.5,215.012 495.457,223.996 511.461,219.082C527.469,214.172 536.453,197.211 531.539,181.207" style="fill:none;fill-rule:nonzero;stroke:rgb(35,31,32);stroke-width:0.5px;"/>
        </g>
        <g transform="matrix(4.16667,0,0,-4.16667,-249.311,2090.45)">
            <path d="M553.547,121.3C541.637,109.531 522.441,109.652 510.684,121.562C498.914,133.472 499.035,152.663 510.945,164.425C522.855,176.191 542.047,176.074 553.809,164.163" style="fill:none;fill-rule:nonzero;stroke:rgb(35,31,32);stroke-width:0.5px;"/>
        </g>
        <g transform="matrix(2.07763,3.61173,-3.61173,2.07763,1254.33,-504.959)">
            <ellipse cx="471.908" cy="143.369" rx="44.068" ry="79.041" style="fill:none;stroke:rgb(35,31,32);stroke-width:0.5px;"/>
        </g>
        <g transform="matrix(0,4.16667,-4.16667,0,2314.85,-470.402)">
            <ellipse cx="472.14" cy="143.258" rx="79.043" ry="44.071" style="fill:none;stroke:rgb(35,31,32);stroke-width:0.5px;"/>
        </g>
        <g transform="matrix(4.16667,0,0,-4.16667,-249.311,2095.7)">
            <path d="M540.789,104.317C552.848,125.454 531.891,160.133 493.973,181.762C456.059,203.403 415.547,203.797 403.484,182.665C391.426,161.52 412.379,126.848 450.301,105.219C488.211,83.583 528.727,83.184 540.797,104.317L540.789,104.317Z" style="fill:none;fill-rule:nonzero;stroke:rgb(35,31,32);stroke-width:0.5px;"/>
        </g>
        <g transform="matrix(3.60305,-2.09264,2.09264,3.60305,-282.325,1968.56)">
            <path d="M329.211,142.943L615.098,142.943" style="fill:none;fill-rule:nonzero;stroke:rgb(35,31,32);stroke-width:0.5px;"/>
        </g>
        <g transform="matrix(3.61738,2.06776,-2.06776,3.61738,305.848,2.21019)">
            <path d="M329.215,143.058L615.102,143.058" style="fill:none;fill-rule:nonzero;stroke:rgb(35,31,32);stroke-width:0.5px;"/>
        </g>
        <g transform="matrix(-0.0142829,-4.16664,4.16664,-0.0142829,1129.16,3464.9)">
            <path d="M329.214,142.944L615.102,142.944" style="fill:none;fill-rule:nonzero;stroke:rgb(35,31,32);stroke-width:0.5px;"/>
        </g>
        <g transform="matrix(1.60211,3.84634,-3.84634,1.60211,1511.21,-548.755)">
            <ellipse cx="471.995" cy="143.007" rx="30.08" ry="30.077" style="fill:white;stroke:rgb(35,31,32);stroke-width:0.5px;"/>
        </g>
        <g transform="matrix(4.16667,0,0,-4.16667,-249.311,2175.17)">
            <path d="M482.398,145.202C484.281,146.296 485.578,147.413 486.562,148.327C487.547,149.253 488.203,149.988 488.762,150.511C489.309,151.042 489.734,151.382 490.176,151.577C490.613,151.781 491.062,151.839 491.609,151.87C491.355,152.355 491.191,152.777 491.145,153.257C491.102,153.738 491.176,154.277 491.363,155.011C491.543,155.753 491.852,156.691 492.156,157.995C492.457,159.3 492.773,160.976 492.773,163.156C493.934,163.156 494.82,162.941 495.504,162.534C496.176,162.128 496.648,161.538 496.957,160.847C497.266,160.156 497.414,159.37 497.488,158.589C497.559,157.808 497.551,157.023 497.574,156.324C497.586,155.605 497.551,154.976 497.512,154.382C497.477,153.788 497.438,153.234 497.438,152.648C497.438,152.066 497.477,151.449 497.578,150.73C497.676,150.007 497.836,149.183 498.047,148.156C497.047,147.827 496.254,147.542 495.578,147.265C494.902,146.988 494.348,146.702 493.836,146.409C493.328,146.116 492.855,145.808 492.352,145.495C491.852,145.179 491.316,144.855 490.68,144.55C490.02,144.234 489.316,143.866 488.578,143.566C487.844,143.265 487.078,143.034 486.328,142.968C485.578,142.898 484.852,143.003 484.191,143.355C483.531,143.71 482.941,144.308 482.414,145.21L482.398,145.202Z" style="fill:white;fill-rule:nonzero;stroke:rgb(35,31,32);stroke-width:0.5px;"/>
        </g>
        <g transform="matrix(4.16667,0,0,-4.16667,-249.311,2290.6)">
            <path d="M461.664,172.906C462.602,172.367 463.477,171.953 464.281,171.621C465.074,171.301 465.801,171.059 466.441,170.867C467.723,170.485 468.691,170.274 469.426,170.063C470.16,169.852 470.672,169.649 471.059,169.371C471.457,169.094 471.734,168.742 472.035,168.278C472.328,168.742 472.613,169.094 473.004,169.371C473.398,169.649 473.902,169.852 474.637,170.063C475.371,170.274 476.34,170.485 477.621,170.867C478.262,171.059 478.988,171.301 479.781,171.621C480.578,171.946 481.453,172.36 482.398,172.906C482.984,171.899 483.238,171.024 483.227,170.235C483.211,169.449 482.934,168.742 482.488,168.137C482.047,167.52 481.441,167.004 480.801,166.547C480.156,166.094 479.477,165.711 478.875,165.344C478.262,164.969 477.691,164.684 477.156,164.422C476.625,164.16 476.121,163.914 475.621,163.621C475.109,163.328 474.602,162.992 474.031,162.539C473.453,162.098 472.816,161.543 472.035,160.852C471.254,161.551 470.609,162.098 470.023,162.539C469.441,162.985 468.922,163.32 468.414,163.621C467.902,163.922 467.398,164.168 466.875,164.446C466.352,164.723 465.801,165.024 465.219,165.422C464.617,165.832 463.941,166.262 463.312,166.746C462.684,167.235 462.098,167.781 461.672,168.399C461.242,169.012 460.965,169.696 460.941,170.446C460.914,171.196 461.137,172.004 461.664,172.906Z" style="fill:white;fill-rule:nonzero;stroke:rgb(35,31,32);stroke-width:0.5px;"/>
        </g>
        <g transform="matrix(4.16667,0,0,-4.16667,-249.311,2176.13)">
            <path d="M451.289,163.387C451.289,161.207 451.605,159.523 451.906,158.226C452.211,156.922 452.512,155.984 452.699,155.242C452.887,154.5 452.961,153.969 452.918,153.488C452.871,153.008 452.707,152.586 452.453,152.101C453,152.078 453.449,152.012 453.887,151.808C454.328,151.605 454.754,151.273 455.301,150.742C455.852,150.211 456.516,149.484 457.5,148.558C458.484,147.644 459.781,146.527 461.664,145.433C461.086,144.426 460.449,143.769 459.758,143.387C459.066,143.004 458.316,142.898 457.566,142.973C456.816,143.047 456.059,143.308 455.348,143.648C454.637,143.976 453.961,144.375 453.344,144.711C452.715,145.058 452.184,145.402 451.688,145.734C451.191,146.062 450.727,146.371 450.227,146.664C449.715,146.957 449.168,147.226 448.492,147.496C447.816,147.773 447.023,148.043 446.023,148.371C446.234,149.398 446.387,150.234 446.484,150.961C446.574,151.687 446.609,152.301 446.609,152.894C446.609,153.488 446.578,154.051 446.559,154.644C446.535,155.234 446.52,155.859 446.574,156.57C446.625,157.297 446.664,158.094 446.773,158.879C446.887,159.668 447.066,160.449 447.391,161.121C447.711,161.805 448.164,162.383 448.801,162.781C449.438,163.176 450.254,163.387 451.297,163.387L451.289,163.387Z" style="fill:white;fill-rule:nonzero;stroke:rgb(35,31,32);stroke-width:0.5px;"/>
        </g>
        <g transform="matrix(4.16667,0,0,-4.16667,-249.311,2006.29)">
            <path d="M461.664,140.583C459.781,139.485 458.484,138.368 457.5,137.462C456.523,136.54 455.852,135.805 455.301,135.278C454.754,134.747 454.328,134.411 453.887,134.215C453.449,134.012 453,133.946 452.453,133.922C452.707,133.434 452.871,133.012 452.918,132.536C452.961,132.055 452.887,131.512 452.699,130.778C452.52,130.036 452.211,129.098 451.906,127.794C451.605,126.489 451.289,124.817 451.289,122.633C450.129,122.633 449.242,122.852 448.559,123.258C447.887,123.661 447.414,124.254 447.105,124.946C446.797,125.633 446.641,126.422 446.574,127.2C446.504,127.981 446.512,128.762 446.496,129.465C446.484,130.188 446.52,130.817 446.559,131.411C446.594,132.001 446.633,132.555 446.633,133.141C446.633,133.727 446.594,134.34 446.488,135.063C446.391,135.782 446.234,136.606 446.023,137.633C447.023,137.965 447.816,138.251 448.492,138.528C449.168,138.805 449.723,139.09 450.234,139.383C450.742,139.672 451.215,139.981 451.719,140.297C452.219,140.61 452.754,140.934 453.391,141.243C454.051,141.555 454.754,141.922 455.488,142.223C456.227,142.524 456.988,142.758 457.738,142.825C458.488,142.891 459.219,142.786 459.879,142.434C460.539,142.083 461.129,141.481 461.656,140.583L461.664,140.583Z" style="fill:white;fill-rule:nonzero;stroke:rgb(35,31,32);stroke-width:0.5px;"/>
        </g>
        <g transform="matrix(4.16667,0,0,-4.16667,-249.311,1890.94)">
            <path d="M482.398,112.899C481.461,113.445 480.586,113.852 479.781,114.172C478.988,114.504 478.262,114.742 477.621,114.93C476.34,115.313 475.371,115.524 474.637,115.731C473.902,115.942 473.391,116.145 473.004,116.422C472.605,116.699 472.328,117.051 472.035,117.516C471.742,117.051 471.457,116.699 471.059,116.422C470.672,116.145 470.16,115.942 469.426,115.731C468.691,115.524 467.723,115.313 466.441,114.93C465.801,114.735 465.074,114.496 464.281,114.172C463.484,113.852 462.609,113.438 461.664,112.891C461.078,113.895 460.824,114.774 460.836,115.559C460.852,116.348 461.129,117.051 461.574,117.66C462.016,118.274 462.621,118.793 463.266,119.25C463.914,119.699 464.594,120.082 465.195,120.449C465.809,120.824 466.379,121.102 466.914,121.371C467.445,121.637 467.949,121.883 468.449,122.176C468.961,122.469 469.469,122.805 470.039,123.254C470.617,123.699 471.246,124.254 472.035,124.949C472.816,124.254 473.461,123.703 474.047,123.262C474.629,122.82 475.148,122.481 475.656,122.184C476.168,121.891 476.672,121.637 477.195,121.356C477.719,121.078 478.266,120.781 478.852,120.383C479.461,119.969 480.129,119.543 480.758,119.055C481.387,118.567 481.965,118.02 482.398,117.406C482.828,116.789 483.105,116.106 483.129,115.356C483.156,114.606 482.926,113.797 482.406,112.899L482.398,112.899Z" style="fill:white;fill-rule:nonzero;stroke:rgb(35,31,32);stroke-width:0.5px;"/>
        </g>
        <g transform="matrix(4.16667,0,0,-4.16667,-249.311,2005.38)">
            <path d="M492.773,122.406C492.773,124.589 492.457,126.269 492.156,127.566C491.852,128.87 491.551,129.808 491.363,130.55C491.176,131.292 491.102,131.827 491.145,132.308C491.191,132.788 491.355,133.206 491.609,133.695C491.062,133.718 490.613,133.784 490.176,133.988C489.734,134.191 489.309,134.519 488.762,135.05C488.211,135.585 487.547,136.312 486.562,137.234C485.578,138.148 484.281,139.265 482.398,140.363C482.977,141.366 483.613,142.027 484.305,142.409C484.996,142.792 485.746,142.898 486.496,142.82C487.246,142.745 488.004,142.476 488.715,142.148C489.426,141.816 490.102,141.417 490.719,141.081C491.348,140.738 491.879,140.39 492.375,140.062C492.871,139.73 493.336,139.425 493.836,139.132C494.348,138.839 494.895,138.57 495.57,138.3C496.246,138.023 497.039,137.753 498.039,137.421C497.828,136.394 497.676,135.562 497.578,134.835C497.488,134.105 497.453,133.492 497.453,132.898C497.453,132.308 497.484,131.753 497.504,131.152C497.527,130.558 497.543,129.937 497.488,129.226C497.438,128.495 497.398,127.702 497.289,126.913C497.176,126.128 496.996,125.347 496.672,124.671C496.352,123.988 495.898,123.413 495.262,123.015C494.625,122.616 493.809,122.406 492.766,122.406L492.773,122.406Z" style="fill:white;fill-rule:nonzero;stroke:rgb(35,31,32);stroke-width:0.5px;"/>
        </g>
        <g transform="matrix(4.16667,0,0,-4.16667,-249.311,2172.52)">
            <path d="M481.914,145.219C483.711,146.27 484.949,147.332 485.895,148.211C486.832,149.094 487.469,149.793 487.996,150.305C488.52,150.813 488.934,151.137 489.352,151.324C489.773,151.52 490.199,151.578 490.727,151.602C490.484,152.066 490.328,152.469 490.281,152.93C490.238,153.387 490.312,153.902 490.492,154.609C490.664,155.313 490.957,156.215 491.25,157.465C491.535,158.711 491.836,160.316 491.844,162.406C492.953,162.406 493.801,162.207 494.453,161.809C495.105,161.418 495.547,160.856 495.84,160.188C496.141,159.527 496.281,158.777 496.352,158.027C496.418,157.277 496.41,156.527 496.426,155.859C496.441,155.172 496.402,154.563 496.363,154C496.328,153.43 496.289,152.898 496.297,152.344C496.297,151.781 496.336,151.195 496.434,150.504C496.523,149.816 496.68,149.02 496.875,148.039C495.922,147.723 495.156,147.453 494.512,147.184C493.867,146.914 493.336,146.645 492.848,146.367C492.359,146.09 491.91,145.789 491.43,145.488C490.949,145.188 490.441,144.871 489.824,144.582C489.195,144.281 488.52,143.93 487.816,143.645C487.109,143.359 486.383,143.133 485.664,143.074C484.941,143.012 484.246,143.109 483.613,143.449C482.977,143.785 482.414,144.356 481.914,145.227L481.914,145.219Z" style="fill:white;fill-rule:nonzero;stroke:rgb(35,31,32);stroke-width:0.5px;"/>
        </g>
        <g transform="matrix(4.16667,0,0,-4.16667,-249.311,2283)">
            <path d="M462.074,171.734C462.977,171.214 463.816,170.82 464.578,170.511C465.344,170.195 466.035,169.972 466.641,169.785C467.871,169.417 468.797,169.214 469.5,169.019C470.203,168.824 470.684,168.628 471.066,168.359C471.441,168.089 471.711,167.757 471.996,167.308C472.281,167.749 472.551,168.089 472.926,168.359C473.301,168.628 473.789,168.824 474.496,169.019C475.199,169.222 476.121,169.417 477.352,169.785C477.969,169.972 478.656,170.195 479.422,170.511C480.188,170.824 481.027,171.214 481.926,171.734C482.484,170.773 482.73,169.933 482.715,169.175C482.699,168.417 482.438,167.749 482.012,167.167C481.59,166.581 481.004,166.078 480.391,165.644C479.773,165.206 479.121,164.839 478.547,164.495C477.953,164.136 477.414,163.867 476.902,163.617C476.391,163.363 475.914,163.132 475.434,162.855C474.945,162.574 474.457,162.245 473.91,161.82C473.363,161.39 472.754,160.867 472.004,160.199C471.254,160.867 470.641,161.39 470.086,161.812C469.531,162.238 469.027,162.562 468.539,162.847C468.051,163.132 467.574,163.371 467.07,163.632C466.566,163.894 466.043,164.179 465.48,164.562C464.902,164.96 464.258,165.367 463.656,165.839C463.059,166.304 462.504,166.828 462.09,167.421C461.676,168.011 461.414,168.667 461.391,169.378C461.371,170.097 461.578,170.871 462.082,171.734L462.074,171.734Z" style="fill:white;fill-rule:nonzero;stroke:rgb(35,31,32);stroke-width:0.5px;"/>
        </g>
        <g transform="matrix(4.16667,0,0,-4.16667,-249.311,2173.38)">
            <path d="M452.152,162.613C452.152,160.523 452.461,158.918 452.746,157.672C453.039,156.422 453.328,155.527 453.504,154.816C453.684,154.109 453.758,153.594 453.711,153.137C453.668,152.676 453.512,152.281 453.27,151.809C453.797,151.785 454.223,151.727 454.641,151.531C455.062,151.344 455.477,151.02 456,150.512C456.523,150 457.164,149.301 458.102,148.418C459.039,147.539 460.281,146.477 462.082,145.426C461.527,144.465 460.926,143.828 460.262,143.469C459.602,143.102 458.887,143.004 458.168,143.078C457.449,143.152 456.727,143.406 456.047,143.723C455.363,144.039 454.719,144.422 454.133,144.742C453.523,145.074 453.023,145.41 452.551,145.719C452.078,146.031 451.637,146.332 451.148,146.609C450.66,146.887 450.137,147.148 449.488,147.414C448.844,147.676 448.086,147.937 447.129,148.254C447.328,149.234 447.473,150.031 447.562,150.727C447.652,151.426 447.684,152.016 447.684,152.578C447.684,153.141 447.652,153.684 447.629,154.254C447.609,154.824 447.594,155.422 447.645,156.098C447.699,156.797 447.734,157.551 447.84,158.309C447.945,159.059 448.117,159.809 448.426,160.453C448.734,161.109 449.168,161.664 449.773,162.039C450.383,162.422 451.164,162.621 452.16,162.621L452.152,162.613Z" style="fill:white;fill-rule:nonzero;stroke:rgb(35,31,32);stroke-width:0.5px;"/>
        </g>
        <g transform="matrix(4.16667,0,0,-4.16667,-249.311,2010.88)">
            <path d="M462.074,140.805C460.273,139.762 459.039,138.691 458.094,137.813C457.156,136.926 456.516,136.23 455.992,135.719C455.469,135.211 455.055,134.887 454.637,134.699C454.215,134.504 453.789,134.445 453.262,134.422C453.512,133.957 453.668,133.551 453.703,133.094C453.75,132.637 453.676,132.121 453.496,131.414C453.324,130.711 453.031,129.809 452.738,128.559C452.453,127.313 452.152,125.707 452.145,123.613C451.035,123.613 450.188,123.816 449.535,124.215C448.883,124.605 448.441,125.168 448.148,125.836C447.848,126.496 447.703,127.246 447.637,127.996C447.57,128.746 447.578,129.496 447.562,130.164C447.547,130.852 447.586,131.461 447.613,132.023C447.652,132.594 447.691,133.125 447.691,133.68C447.691,134.242 447.652,134.828 447.555,135.516C447.465,136.207 447.309,136.996 447.105,137.984C448.059,138.301 448.824,138.57 449.469,138.84C450.113,139.109 450.645,139.379 451.133,139.656C451.621,139.934 452.07,140.234 452.551,140.535C453.031,140.836 453.539,141.148 454.156,141.441C454.785,141.742 455.461,142.094 456.164,142.379C456.871,142.664 457.598,142.891 458.316,142.949C459.039,143.012 459.734,142.914 460.363,142.574C461.004,142.238 461.566,141.668 462.066,140.797L462.074,140.805Z" style="fill:white;fill-rule:nonzero;stroke:rgb(35,31,32);stroke-width:0.5px;"/>
        </g>
        <g transform="matrix(4.16667,0,0,-4.16667,-249.311,1900.38)">
            <path d="M481.914,114.285C481.012,114.804 480.172,115.199 479.406,115.507C478.641,115.824 477.953,116.046 477.336,116.234C476.109,116.601 475.184,116.804 474.48,117C473.773,117.195 473.297,117.39 472.914,117.66C472.539,117.929 472.266,118.261 471.984,118.71C471.699,118.269 471.426,117.929 471.051,117.66C470.676,117.39 470.191,117.195 469.484,117C468.781,116.796 467.859,116.601 466.629,116.234C466.012,116.046 465.324,115.824 464.566,115.507C463.801,115.191 462.961,114.804 462.059,114.285C461.504,115.246 461.258,116.085 461.266,116.843C461.281,117.601 461.543,118.269 461.969,118.851C462.398,119.437 462.977,119.941 463.59,120.375C464.203,120.808 464.859,121.179 465.434,121.523C466.027,121.882 466.566,122.152 467.078,122.402C467.586,122.656 468.066,122.886 468.547,123.164C469.035,123.441 469.523,123.773 470.07,124.199C470.617,124.628 471.227,125.152 471.977,125.82C472.727,125.152 473.34,124.628 473.895,124.207C474.449,123.789 474.953,123.457 475.441,123.179C475.926,122.894 476.406,122.656 476.91,122.394C477.414,122.128 477.938,121.839 478.5,121.464C479.078,121.066 479.723,120.66 480.324,120.187C480.922,119.722 481.477,119.199 481.891,118.605C482.301,118.011 482.566,117.359 482.586,116.64C482.609,115.921 482.398,115.148 481.898,114.285L481.914,114.285Z" style="fill:white;fill-rule:nonzero;stroke:rgb(35,31,32);stroke-width:0.5px;"/>
        </g>
        <g transform="matrix(4.16667,0,0,-4.16667,-249.311,2010)">
            <path d="M491.836,123.402C491.836,125.496 491.527,127.102 491.242,128.348C490.949,129.598 490.656,130.492 490.484,131.203C490.305,131.91 490.23,132.426 490.273,132.883C490.32,133.34 490.477,133.746 490.719,134.211C490.191,134.234 489.766,134.293 489.344,134.488C488.926,134.676 488.512,135 487.988,135.508C487.461,136.019 486.824,136.715 485.887,137.602C484.949,138.48 483.703,139.543 481.906,140.594C482.461,141.555 483.059,142.184 483.727,142.551C484.387,142.918 485.102,143.016 485.82,142.941C486.539,142.867 487.262,142.613 487.941,142.297C488.625,141.98 489.27,141.598 489.855,141.277C490.461,140.945 490.965,140.609 491.438,140.301C491.91,139.988 492.352,139.687 492.84,139.41C493.328,139.133 493.852,138.867 494.496,138.605C495.141,138.344 495.898,138.082 496.852,137.766C496.648,136.785 496.508,135.988 496.418,135.293C496.328,134.594 496.297,134 496.297,133.437C496.297,132.875 496.328,132.336 496.352,131.766C496.371,131.195 496.387,130.605 496.336,129.922C496.281,129.223 496.246,128.465 496.141,127.711C496.035,126.961 495.863,126.211 495.555,125.562C495.246,124.91 494.812,124.355 494.203,123.98C493.598,123.598 492.816,123.398 491.82,123.398L491.836,123.402Z" style="fill:white;fill-rule:nonzero;stroke:rgb(35,31,32);stroke-width:0.5px;"/>
        </g>
        <g transform="matrix(4.16667,0,0,-4.16667,-249.311,2137.78)">
            <path d="M472.305,137.551C462.586,137.551 454.703,145.426 454.703,155.137C454.703,156.652 454.898,158.129 455.258,159.531C457.215,151.941 464.102,146.34 472.305,146.34C480.512,146.34 487.395,151.941 489.352,159.531C489.711,158.129 489.906,156.652 489.906,155.137C489.906,145.426 482.023,137.551 472.305,137.551Z" style="fill:white;fill-rule:nonzero;stroke:rgb(35,31,32);stroke-width:0.5px;"/>
        </g>
    </g>
</svg>
