<?xml version="1.0" encoding="UTF-8" standalone="no"?>
<!DOCTYPE svg PUBLIC "-//W3C//DTD SVG 1.1//EN" "http://www.w3.org/Graphics/SVG/1.1/DTD/svg11.dtd">
<svg width="100%" height="100%" viewBox="0 0 6378 6378" version="1.1" xmlns="http://www.w3.org/2000/svg" xmlns:xlink="http://www.w3.org/1999/xlink" xml:space="preserve" xmlns:serif="http://www.serif.com/" style="fill-rule:evenodd;clip-rule:evenodd;stroke-miterlimit:10;">
    <g id="Layer-1" serif:id="Layer 1">
    </g>
    <g id="Layer-5" serif:id="Layer 5" transform="matrix(4.16667,0,0,4.16667,0,0)">
        <g transform="matrix(0,1,1,0,1767.59,767.716)">
            <path d="M-1004,-1004L1004,-1004" style="fill:none;fill-rule:nonzero;stroke:rgb(35,31,32);stroke-width:1px;"/>
        </g>
        <g transform="matrix(0.587785,0.809017,0.809017,-0.587785,1075.49,-187.419)">
            <path d="M-413.864,-812.253L1594.14,-812.253" style="fill:none;fill-rule:nonzero;stroke:rgb(35,31,32);stroke-width:1px;"/>
        </g>
        <g transform="matrix(0.951057,0.309017,0.309017,-0.951057,-47.0202,174.837)">
            <path d="M-49.139,-310.253L1958.86,-310.253" style="fill:none;fill-rule:nonzero;stroke:rgb(35,31,32);stroke-width:1px;"/>
        </g>
        <g transform="matrix(0.951057,-0.309017,-0.309017,-0.951057,-49.489,1354.56)">
            <path d="M-49.139,310.253L1958.86,310.253" style="fill:none;fill-rule:nonzero;stroke:rgb(35,31,32);stroke-width:1px;"/>
        </g>
        <g transform="matrix(0.587785,-0.809017,-0.809017,-0.587785,1071.65,1722.58)">
            <path d="M-413.864,812.253L1594.13,812.253" style="fill:none;fill-rule:nonzero;stroke:rgb(35,31,32);stroke-width:1px;"/>
        </g>
    </g>
    <g id="Layer-2" serif:id="Layer 2" transform="matrix(4.16667,0,0,4.16667,0,0)">
        <g transform="matrix(0,-1,-1,0,764.41,249.716)">
            <path d="M-516,-516C-800.979,-516 -1032,-284.979 -1032,0C-1032,284.979 -800.979,516 -516,516C-231.021,516 0,284.979 0,0C0,-284.979 -231.021,-516 -516,-516Z" style="fill:none;fill-rule:nonzero;stroke:rgb(35,31,32);stroke-width:1px;"/>
        </g>
        <g transform="matrix(0,-1,-1,0,763.351,-0.9984)">
            <path d="M-765.35,-765.358C-342.316,-765.358 -0,-423.043 -0,-0C-0,423.035 -342.316,765.35 -765.35,765.35C-1188.39,765.35 -1530.71,423.035 -1530.71,-0C-1530.71,-423.043 -1188.39,-765.358 -765.35,-765.358Z" style="fill:none;fill-rule:nonzero;stroke:rgb(35,31,32);stroke-width:1px;"/>
        </g>
        <g transform="matrix(0,-1,-1,0,763.35,138.018)">
            <path d="M-626.334,-626.334C-280.283,-626.334 0,-346.061 0,0C0,346.051 -280.283,626.334 -626.334,626.334C-972.395,626.334 -1252.67,346.051 -1252.67,0C-1252.67,-346.061 -972.395,-626.334 -626.334,-626.334Z" style="fill:none;fill-rule:nonzero;stroke:rgb(35,31,32);stroke-width:1px;"/>
        </g>
        <g transform="matrix(1,0,0,1,763.35,346.925)">
            <path d="M0,834.863C-230.572,834.863 -417.427,648.007 -417.427,417.426C-417.427,186.855 -230.572,0 0,0C230.58,0 417.436,186.855 417.436,417.426C417.436,648.007 230.58,834.863 0,834.863Z" style="fill:none;fill-rule:nonzero;stroke:rgb(35,31,32);stroke-width:1px;"/>
        </g>
        <g transform="matrix(1,0,0,1,763.35,485.942)">
            <path d="M0,556.82C-153.967,556.82 -278.41,432.377 -278.41,278.41C-278.41,124.443 -153.967,0 0,0C153.967,0 278.419,124.443 278.419,278.41C278.419,432.377 153.967,556.82 0,556.82Z" style="fill:none;fill-rule:nonzero;stroke:rgb(35,31,32);stroke-width:1px;"/>
        </g>
        <g transform="matrix(0,-1,-1,0,763.35,555.453)">
            <path d="M-208.899,-208.907C-93.429,-208.907 -0,-115.479 -0,-0C-0,115.47 -93.429,208.899 -208.899,208.899C-324.378,208.899 -417.806,115.47 -417.806,-0C-417.806,-115.479 -324.378,-208.907 -208.899,-208.907Z" style="fill:none;fill-rule:nonzero;stroke:rgb(35,31,32);stroke-width:1px;"/>
        </g>
        <g transform="matrix(1,0,0,1,763.35,625.335)">
            <path d="M0,278.042C-76.983,278.042 -139.016,215.999 -139.016,139.017C-139.016,62.034 -76.983,0 0,0C76.982,0 139.025,62.034 139.025,139.017C139.025,215.999 76.982,278.042 0,278.042Z" style="fill:none;fill-rule:nonzero;stroke:rgb(35,31,32);stroke-width:1px;"/>
        </g>
        <g transform="matrix(0,-1,-1,0,763.35,694.848)">
            <path d="M-69.504,-69.513C-31.017,-69.513 0,-38.495 0,0C0,38.487 -31.017,69.504 -69.504,69.504C-108,69.504 -139.017,38.487 -139.017,0C-139.017,-38.495 -108,-69.513 -69.504,-69.513Z" style="fill:none;fill-rule:nonzero;stroke:rgb(35,31,32);stroke-width:1px;"/>
        </g>
        <g transform="matrix(0,1,1,0,1144.93,1146.23)">
            <path d="M-381.522,-381.522L381.522,-381.522" style="fill:none;fill-rule:nonzero;stroke:rgb(35,31,32);stroke-width:1px;"/>
        </g>
        <g transform="matrix(0.587795,0.80901,0.80901,-0.587795,1106.77,710.322)">
            <path d="M-157.828,-309.759L607.945,-309.759" style="fill:none;fill-rule:nonzero;stroke:rgb(35,31,32);stroke-width:1px;"/>
        </g>
        <g transform="matrix(0.951114,0.30884,0.30884,-0.951114,817.71,658.06)">
            <path d="M-18.711,-118.209L746.794,-118.209" style="fill:none;fill-rule:nonzero;stroke:rgb(35,31,32);stroke-width:1px;"/>
        </g>
        <g transform="matrix(0.950994,-0.309209,-0.309209,-0.950994,817.779,871.346)">
            <path d="M-18.737,118.221L745.931,118.221" style="fill:none;fill-rule:nonzero;stroke:rgb(35,31,32);stroke-width:1px;"/>
        </g>
        <g transform="matrix(0.587288,-0.809378,-0.809378,-0.587288,1106.4,818.713)">
            <path d="M-157.729,309.325L606.624,309.325" style="fill:none;fill-rule:nonzero;stroke:rgb(35,31,32);stroke-width:1px;"/>
        </g>
        <g transform="matrix(-2.87256e-05,-1,-1,2.87256e-05,1146.33,381.756)">
            <path d="M-382.945,382.934L382.923,382.934" style="fill:none;fill-rule:nonzero;stroke:rgb(35,31,32);stroke-width:1px;"/>
        </g>
        <g transform="matrix(-0.587819,-0.808992,-0.808992,0.587819,656.996,93.1371)">
            <path d="M-605.849,308.679L157.272,308.679" style="fill:none;fill-rule:nonzero;stroke:rgb(35,31,32);stroke-width:1px;"/>
        </g>
        <g transform="matrix(-0.950916,-0.309449,-0.309449,0.950916,90.011,421.022)">
            <path d="M-746.696,118.439L18.786,118.439" style="fill:none;fill-rule:nonzero;stroke:rgb(35,31,32);stroke-width:1px;"/>
        </g>
        <g transform="matrix(-0.951119,0.308825,0.308825,0.951119,90.1944,1107.47)">
            <path d="M-746.157,-118.102L18.693,-118.102" style="fill:none;fill-rule:nonzero;stroke:rgb(35,31,32);stroke-width:1px;"/>
        </g>
        <g transform="matrix(-0.587819,0.808992,0.808992,0.587819,656.996,1436.29)">
            <path d="M-605.849,-308.679L157.272,-308.679" style="fill:none;fill-rule:nonzero;stroke:rgb(35,31,32);stroke-width:1px;"/>
        </g>
        <g transform="matrix(0,-1,-1,0,764.41,621.983)">
            <path d="M-141.732,-141.732C-220.008,-141.732 -283.465,-78.277 -283.465,-0C-283.465,78.277 -220.008,141.732 -141.732,141.732C-63.456,141.732 -0,78.277 -0,-0C-0,-78.277 -63.456,-141.732 -141.732,-141.732" style="fill:white;fill-rule:nonzero;"/>
        </g>
        <g transform="matrix(0,-1,-1,0,764.41,621.983)">
            <ellipse cx="-141.732" cy="0" rx="141.732" ry="141.732" style="fill:none;stroke:rgb(35,31,32);stroke-width:1px;"/>
        </g>
    </g>
    <g id="Layer-3" serif:id="Layer 3" transform="matrix(4.16667,0,0,4.16667,0,0)">
        <g transform="matrix(1,0,0,1,625.28,753.902)">
            <path d="M0,-91.211C-6.291,-82.539 -10.437,-75.259 -13.665,-69.497C-16.878,-63.718 -19.17,-59.425 -21.326,-56.301C-23.471,-53.173 -25.472,-51.204 -27.84,-49.941C-30.206,-48.679 -32.931,-48.123 -36.431,-47.75C-33.817,-45.392 -31.938,-43.342 -30.766,-40.93C-29.591,-38.519 -29.128,-35.749 -29.229,-31.958C-29.318,-28.163 -29.988,-23.345 -30.782,-16.777C-31.554,-10.217 -32.477,-1.888 -32.492,8.86C-40.521,8.868 -46.661,7.808 -51.397,5.846C-56.134,3.891 -59.461,1.059 -61.85,-2.239C-64.243,-5.535 -65.694,-9.281 -66.741,-13.032C-67.791,-16.787 -68.436,-20.541 -69.292,-23.932C-71.034,-30.898 -71.377,-36.11 -73.229,-41.79C-74.148,-44.641 -75.429,-47.626 -77.361,-51.123C-79.291,-54.624 -81.876,-58.632 -85.324,-63.627C-79.6,-65.643 -75.165,-67.402 -71.555,-69.141C-67.941,-70.876 -65.15,-72.584 -62.713,-74.373C-57.839,-77.924 -54.369,-81.889 -48.581,-86.101C-42.632,-90.426 -36.418,-96.197 -28.597,-98.564C-24.7,-99.749 -20.439,-100.079 -15.723,-99.008C-11.001,-97.943 -5.839,-95.47 0,-91.211Z" style="fill:none;fill-rule:nonzero;stroke:rgb(35,31,32);stroke-width:1px;"/>
        </g>
        <g transform="matrix(1,0,0,1,710.425,634.947)">
            <path d="M0,-34.179C-10.163,-30.861 -17.783,-27.397 -23.777,-24.624C-29.77,-21.83 -34.146,-19.692 -37.73,-18.426C-41.309,-17.152 -44.084,-16.728 -46.746,-17.095C-49.406,-17.458 -51.939,-18.609 -54.992,-20.362C-54.263,-16.916 -53.949,-14.154 -54.42,-11.509C-54.89,-8.865 -56.146,-6.35 -58.464,-3.337C-60.774,-0.316 -64.158,3.197 -68.674,8.042C-73.167,12.899 -78.829,19.091 -85.146,27.745C-91.644,23.025 -95.983,18.559 -98.659,14.185C-101.34,9.82 -102.36,5.57 -102.35,1.498C-102.343,-2.575 -101.308,-6.456 -99.945,-10.104C-98.582,-13.756 -96.892,-17.17 -95.589,-20.413C-92.897,-27.068 -90.111,-31.484 -88.271,-37.163C-87.338,-40.009 -86.621,-43.175 -86.132,-47.139C-85.639,-51.103 -85.379,-55.862 -85.241,-61.924C-79.429,-60.194 -74.809,-59.012 -70.865,-58.298C-66.925,-57.581 -63.665,-57.326 -60.642,-57.344C-54.612,-57.359 -49.477,-58.533 -42.32,-58.55C-34.964,-58.564 -26.547,-59.597 -18.826,-56.921C-14.974,-55.593 -11.332,-53.36 -8.145,-49.723C-4.948,-46.089 -2.227,-41.054 0,-34.179Z" style="fill:none;fill-rule:nonzero;stroke:rgb(35,31,32);stroke-width:1px;"/>
        </g>
        <g transform="matrix(1,0,0,1,815.71,528.227)">
            <path d="M0,72.541C-10.173,69.257 -18.374,67.584 -24.854,66.306C-31.346,65.048 -36.148,64.206 -39.796,63.124C-43.444,62.052 -45.946,60.762 -47.885,58.9C-49.827,57.04 -51.202,54.621 -52.643,51.406C-54.082,54.621 -55.458,57.04 -57.399,58.9C-59.339,60.762 -61.84,62.052 -65.49,63.124C-69.137,64.205 -73.938,65.048 -80.431,66.306C-86.911,67.584 -95.112,69.257 -105.284,72.541C-107.772,64.907 -108.664,58.742 -108.261,53.632C-107.867,48.524 -106.196,44.487 -103.795,41.198C-101.396,37.907 -98.276,35.376 -95.026,33.229C-91.776,31.079 -88.398,29.313 -85.435,27.459C-79.339,23.662 -74.485,21.736 -69.653,18.231C-67.224,16.482 -64.779,14.343 -62.053,11.429C-59.322,8.515 -56.313,4.824 -52.643,0C-48.972,4.824 -45.934,8.492 -43.166,11.389C-40.403,14.285 -37.917,16.407 -35.462,18.17C-30.577,21.701 -25.731,23.767 -19.93,27.958C-13.971,32.269 -6.551,36.378 -1.874,43.079C0.463,46.414 2.098,50.363 2.54,55.178C2.992,59.998 2.238,65.67 0,72.541Z" style="fill:none;fill-rule:nonzero;stroke:rgb(35,31,32);stroke-width:1px;"/>
        </g>
        <g transform="matrix(1,0,0,1,900.854,573.022)">
            <path d="M0,89.669C-6.317,81.015 -11.979,74.822 -16.472,69.966C-20.987,65.121 -24.372,61.608 -26.681,58.587C-28.999,55.573 -30.256,53.06 -30.726,50.414C-31.196,47.771 -30.883,45.008 -30.152,41.563C-33.206,43.315 -35.739,44.466 -38.399,44.829C-41.062,45.196 -43.837,44.773 -47.416,43.498C-50.998,42.232 -55.376,40.094 -61.368,37.3C-67.361,34.527 -74.982,31.064 -85.145,27.745C-82.673,20.107 -79.772,14.593 -76.444,10.693C-73.126,6.793 -69.402,4.508 -65.526,3.255C-61.651,2.003 -57.64,1.787 -53.749,1.959C-49.854,2.127 -46.085,2.682 -42.597,2.922C-35.435,3.433 -30.372,4.726 -24.4,4.73C-21.407,4.741 -18.172,4.45 -14.25,3.696C-10.326,2.948 -5.716,1.731 0.096,0C0.234,6.062 0.531,10.82 1.063,14.791C1.593,18.762 2.353,21.942 3.3,24.813C5.167,30.541 7.863,35.068 10.085,41.868C12.364,48.859 15.942,56.547 15.789,64.716C15.719,68.789 14.722,72.946 12.254,77.106C9.788,81.272 5.849,85.42 0,89.669Z" style="fill:none;fill-rule:nonzero;stroke:rgb(35,31,32);stroke-width:1px;"/>
        </g>
        <g transform="matrix(1,0,0,1,933.345,652.801)">
            <path d="M0,109.962C-0.015,99.214 -0.938,90.887 -1.711,84.324C-2.504,77.757 -3.174,72.939 -3.262,69.144C-3.363,65.353 -2.901,62.583 -1.727,60.172C-0.554,57.76 1.325,55.71 3.938,53.352C0.439,52.979 -2.286,52.423 -4.652,51.16C-7.02,49.898 -9.021,47.929 -11.166,44.801C-13.322,41.677 -15.614,37.384 -18.826,31.605C-22.054,25.843 -26.201,18.563 -32.491,9.891C-26.003,5.158 -20.417,2.401 -15.434,1.201C-10.455,-0.007 -6.099,0.328 -2.228,1.59C1.646,2.851 5.021,5.029 8.073,7.447C11.128,9.87 13.855,12.531 16.539,14.771C22.043,19.383 25.381,23.401 30.218,26.91C32.635,28.679 35.426,30.342 39.045,32.036C42.661,33.736 47.107,35.46 52.832,37.477C49.385,42.472 46.829,46.499 44.929,50.029C43.024,53.554 41.77,56.577 40.848,59.457C38.988,65.193 38.511,70.441 36.299,77.249C34.025,84.244 32.388,92.562 27.452,99.076C24.997,102.326 21.744,105.1 17.301,107.011C12.855,108.93 7.227,109.969 0,109.962Z" style="fill:none;fill-rule:nonzero;stroke:rgb(35,31,32);stroke-width:1px;"/>
        </g>
        <g transform="matrix(1,0,0,1,900.854,771.622)">
            <path d="M0,91.214C6.29,82.54 10.438,75.26 13.665,69.498C16.877,63.718 19.169,59.426 21.325,56.303C23.47,53.175 25.471,51.206 27.839,49.944C30.205,48.68 32.931,48.124 36.43,47.752C33.816,45.395 31.938,43.344 30.765,40.932C29.59,38.52 29.128,35.751 29.229,31.959C29.317,28.164 29.987,23.347 30.78,16.781C31.554,10.217 32.476,1.892 32.491,-8.859C40.521,-8.866 46.659,-7.807 51.396,-5.844C56.133,-3.89 59.46,-1.057 61.85,2.24C64.242,5.536 65.694,9.283 66.74,13.033C67.79,16.787 68.435,20.543 69.29,23.933C71.034,30.899 71.376,36.111 73.229,41.791C74.147,44.643 75.428,47.628 77.36,51.126C79.29,54.625 81.874,58.632 85.323,63.627C79.599,65.644 75.165,67.403 71.554,69.142C67.94,70.877 65.151,72.586 62.713,74.374C57.838,77.926 54.368,81.891 48.581,86.102C42.632,90.426 36.418,96.198 28.597,98.564C24.699,99.751 20.44,100.08 15.723,99.01C11.001,97.946 5.84,95.472 0,91.214Z" style="fill:none;fill-rule:nonzero;stroke:rgb(35,31,32);stroke-width:1px;"/>
        </g>
        <g transform="matrix(1,0,0,1,815.709,890.582)">
            <path d="M0,34.176C10.163,30.86 17.784,27.395 23.777,24.623C29.77,21.827 34.147,19.69 37.729,18.424C41.309,17.149 44.084,16.725 46.746,17.092C49.406,17.455 51.939,18.608 54.992,20.36C54.263,16.914 53.949,14.152 54.42,11.506C54.89,8.863 56.146,6.349 58.465,3.335C60.773,0.315 64.156,-3.199 68.674,-8.043C73.166,-12.9 78.828,-19.094 85.146,-27.746C91.644,-23.027 95.983,-18.561 98.659,-14.186C101.34,-9.822 102.359,-5.572 102.35,-1.5C102.343,2.572 101.309,6.454 99.944,10.102C98.582,13.753 96.892,17.168 95.589,20.412C92.897,27.066 90.111,31.482 88.271,37.162C87.338,40.006 86.621,43.172 86.132,47.136C85.639,51.102 85.379,55.86 85.24,61.922C79.43,60.191 74.808,59.01 70.865,58.296C66.926,57.579 63.664,57.325 60.641,57.342C54.612,57.356 49.477,58.531 42.318,58.549C34.965,58.561 26.547,59.594 18.825,56.919C14.974,55.591 11.332,53.357 8.145,49.72C4.948,46.084 2.225,41.051 0,34.176Z" style="fill:none;fill-rule:nonzero;stroke:rgb(35,31,32);stroke-width:1px;"/>
        </g>
        <g transform="matrix(1,0,0,1,710.425,997.299)">
            <path d="M0,-72.541C10.172,-69.256 18.373,-67.582 24.854,-66.305C31.345,-65.049 36.147,-64.205 39.794,-63.123C43.444,-62.053 45.943,-60.762 47.885,-58.899C49.826,-57.04 51.202,-54.621 52.641,-51.406C54.082,-54.621 55.457,-57.04 57.398,-58.899C59.338,-60.762 61.84,-62.053 65.488,-63.123C69.136,-64.205 73.938,-65.049 80.43,-66.305C86.91,-67.582 95.111,-69.256 105.283,-72.541C107.771,-64.906 108.663,-58.742 108.26,-53.631C107.865,-48.523 106.195,-44.487 103.794,-41.197C101.395,-37.908 98.275,-35.375 95.025,-33.229C91.773,-31.078 88.396,-29.314 85.434,-27.458C79.338,-23.662 74.484,-21.736 69.65,-18.23C67.222,-16.482 64.779,-14.344 62.052,-11.429C59.32,-8.514 56.312,-4.822 52.641,0C48.971,-4.822 45.933,-8.492 43.165,-11.39C40.402,-14.286 37.915,-16.407 35.461,-18.171C30.575,-21.701 25.729,-23.768 19.928,-27.957C13.969,-32.268 6.549,-36.377 1.873,-43.078C-0.465,-46.413 -2.099,-50.362 -2.541,-55.178C-2.993,-59.998 -2.239,-65.671 0,-72.541Z" style="fill:none;fill-rule:nonzero;stroke:rgb(35,31,32);stroke-width:1px;"/>
        </g>
        <g transform="matrix(1,0,0,1,625.279,952.503)">
            <path d="M0,-89.669C6.317,-81.015 11.979,-74.822 16.472,-69.966C20.988,-65.12 24.372,-61.606 26.682,-58.587C28.999,-55.573 30.256,-53.06 30.726,-50.415C31.197,-47.771 30.882,-45.008 30.154,-41.562C33.207,-43.315 35.74,-44.467 38.4,-44.829C41.061,-45.197 43.837,-44.773 47.416,-43.497C51,-42.232 55.376,-40.094 61.368,-37.3C67.362,-34.528 74.983,-31.064 85.146,-27.745C82.673,-20.106 79.773,-14.592 76.445,-10.694C73.125,-6.792 69.402,-4.507 65.527,-3.255C61.653,-2.003 57.64,-1.787 53.75,-1.958C49.855,-2.127 46.084,-2.681 42.596,-2.922C35.435,-3.433 30.373,-4.726 24.401,-4.729C21.408,-4.741 18.172,-4.45 14.25,-3.697C10.326,-2.948 5.716,-1.731 -0.095,0C-0.234,-6.062 -0.53,-10.822 -1.064,-14.791C-1.592,-18.761 -2.352,-21.941 -3.299,-24.813C-5.167,-30.542 -7.863,-35.065 -10.085,-41.867C-12.363,-48.859 -15.942,-56.546 -15.789,-64.717C-15.718,-68.79 -14.722,-72.946 -12.253,-77.105C-9.788,-81.272 -5.848,-85.421 0,-89.669Z" style="fill:none;fill-rule:nonzero;stroke:rgb(35,31,32);stroke-width:1px;"/>
        </g>
        <g transform="matrix(1,0,0,1,592.788,872.727)">
            <path d="M0,-109.964C0.015,-99.216 0.938,-90.888 1.71,-84.324C2.503,-77.759 3.173,-72.941 3.262,-69.146C3.363,-65.355 2.901,-62.587 1.726,-60.174C0.553,-57.761 -1.326,-55.712 -3.939,-53.353C-0.44,-52.981 2.286,-52.425 4.652,-51.16C7.02,-49.9 9.021,-47.931 11.166,-44.802C13.322,-41.679 15.614,-37.387 18.826,-31.607C22.055,-25.846 26.201,-18.565 32.491,-9.893C26.003,-5.16 20.417,-2.403 15.434,-1.203C10.455,0.006 6.099,-0.33 2.227,-1.593C-1.646,-2.853 -5.021,-5.03 -8.073,-7.45C-11.128,-9.871 -13.854,-12.532 -16.541,-14.773C-22.043,-19.387 -25.382,-23.402 -30.217,-26.912C-32.636,-28.681 -35.426,-30.344 -39.044,-32.037C-42.661,-33.738 -47.108,-35.461 -52.832,-37.478C-49.384,-42.474 -46.83,-46.501 -44.929,-50.03C-43.024,-53.556 -41.77,-56.577 -40.848,-59.458C-38.988,-65.195 -38.51,-70.443 -36.3,-77.25C-34.026,-84.246 -32.388,-92.565 -27.453,-99.076C-24.997,-102.327 -21.745,-105.102 -17.301,-107.013C-12.856,-108.932 -7.227,-109.97 0,-109.964Z" style="fill:none;fill-rule:nonzero;stroke:rgb(35,31,32);stroke-width:1px;"/>
        </g>
    </g>
    <g transform="matrix(4.16667,0,0,4.16667,3432.75,2690.12)">
        <g id="Layer-4" serif:id="Layer 4">
            <path d="M0,236.266L-12.67,228.952L9.245,190.993L-16.015,176.409L-58.727,250.389L-101.371,176.527L-126.426,190.993L-104.51,228.952L-117.18,236.266L-190.327,109.573L-177.657,102.256L-155.684,140.316L-130.63,125.85L-173.42,51.737L-87.834,51.737L-87.834,24.141L-131.664,24.141L-131.664,9.512L14.629,9.512L14.629,24.141L-29.316,24.141L-29.316,51.737L55.965,51.737L13.244,125.733L38.503,140.316L60.477,102.256L73.146,109.573L0,236.266ZM-58.59,-31.867C-141.434,-31.867 -208.59,35.289 -208.59,118.133C-208.59,200.976 -141.434,268.133 -58.59,268.133C24.252,268.133 91.41,200.976 91.41,118.133C91.41,35.289 24.252,-31.867 -58.59,-31.867Z" style="fill:none;fill-rule:nonzero;stroke:rgb(35,31,32);stroke-width:1px;"/>
        </g>
    </g>
    <g id="Layer-6" serif:id="Layer 6" transform="matrix(4.16667,0,0,4.16667,0,0)">
        <g transform="matrix(1,0,0,1,795.504,622.824)">
            <path d="M-20.369,60.613L86.214,60.613L68.224,40.407L0,40.407L0,20.206L42.768,20.542C42.768,20.542 4.072,0 -20.369,0L-20.369,60.613Z" style="fill:none;fill-rule:nonzero;stroke:rgb(35,31,32);stroke-width:1px;"/>
        </g>
        <g transform="matrix(1,0,0,1,735.421,622.824)">
            <path d="M-88.25,60.613L15.277,60.613L15.277,0C-9.162,0 -47.86,20.542 -47.86,20.542L-5.09,20.206L-5.09,40.407L-72.298,40.407L-88.25,60.613Z" style="fill:none;fill-rule:nonzero;stroke:rgb(35,31,32);stroke-width:1px;"/>
        </g>
        <g transform="matrix(1,0,0,1,818.517,887.673)">
            <path d="M0,-56.579L0.031,-56.559L-43.107,17.496L-16.475,12.144L17.668,-46.456L35.277,-36.373L13.596,0.203C13.596,0.203 50.877,-22.768 63.097,-43.768C27.528,-64.142 10.185,-74.075 10.185,-74.075L0,-56.579Z" style="fill:none;fill-rule:nonzero;stroke:rgb(35,31,32);stroke-width:1px;"/>
        </g>
        <g transform="matrix(1,0,0,1,884.343,731.256)">
            <path d="M0,67.549L-17.553,57.499L18.001,-3.791L8.342,-27.602L-35.191,47.396L-35.275,47.347L-45.457,64.845C-45.457,64.845 -28.117,74.78 7.454,95.151C19.676,74.153 21.089,30.638 21.089,30.638L0,67.549Z" style="fill:none;fill-rule:nonzero;stroke:rgb(35,31,32);stroke-width:1px;"/>
        </g>
        <g transform="matrix(1,0,0,1,708.403,889.836)">
            <path d="M0,-60.905L-8.922,-76.238C-8.922,-76.238 -26.265,-66.305 -61.834,-45.931C-49.615,-24.931 -12.336,-1.96 -12.336,-1.96L-34.016,-38.536L-16.344,-48.657L17.736,9.981L44.37,15.333L0.035,-60.926L0,-60.905Z" style="fill:none;fill-rule:nonzero;stroke:rgb(35,31,32);stroke-width:1px;"/>
        </g>
        <g transform="matrix(1,0,0,1,679.116,751.458)">
            <path d="M0,27.145L-0.209,27.265L-43.618,-47.804L-53.279,-23.993L-18.03,37.471L-35.277,47.347L-56.368,10.437C-56.368,10.437 -54.951,53.951 -42.73,74.949C-7.16,54.579 10.183,44.643 10.183,44.643L0,27.145Z" style="fill:none;fill-rule:nonzero;stroke:rgb(35,31,32);stroke-width:1px;"/>
        </g>
        <g transform="matrix(-1,0,0,1,695.166,725.339)">
            <path d="M-139.929,0L0,0" style="fill:none;fill-rule:nonzero;stroke:rgb(35,31,32);stroke-width:1px;"/>
        </g>
        <g transform="matrix(1,0,0,1,765.131,725.338)">
            <path d="M0,121.183L69.964,0L-69.965,0L0,121.183Z" style="fill:none;fill-rule:nonzero;stroke:rgb(35,31,32);stroke-width:1px;"/>
        </g>
    </g>
    <g id="Layer-8" serif:id="Layer 8" transform="matrix(4.16667,0,0,4.16667,0,0)">
        <g transform="matrix(0,-1,-1,0,1459.53,504.516)">
            <circle cx="-34" cy="0" r="34" style="fill:none;stroke:rgb(35,31,32);stroke-width:1px;"/>
        </g>
        <g transform="matrix(0,-1,-1,0,1458.75,956.885)">
            <circle cx="-34" cy="0" r="34" style="fill:none;stroke:rgb(35,31,32);stroke-width:1px;"/>
        </g>
        <g transform="matrix(0,-1,-1,0,1193.25,1322.83)">
            <circle cx="-34" cy="0" r="34" style="fill:none;stroke:rgb(35,31,32);stroke-width:1px;"/>
        </g>
        <g transform="matrix(0,-1,-1,0,763.824,1460.91)">
            <circle cx="-34" cy="0" r="34" style="fill:none;stroke:rgb(35,31,32);stroke-width:1px;"/>
        </g>
        <g transform="matrix(0,-1,-1,0,333.508,1321.04)">
            <circle cx="-34" cy="0" r="34" style="fill:none;stroke:rgb(35,31,32);stroke-width:1px;"/>
        </g>
        <g transform="matrix(0,-1,-1,0,72.0244,956.671)">
            <circle cx="-34" cy="0" r="34" style="fill:none;stroke:rgb(35,31,32);stroke-width:1px;"/>
        </g>
        <g transform="matrix(0,-1,-1,0,66.4097,506.716)">
            <circle cx="-34" cy="0" r="34" style="fill:none;stroke:rgb(35,31,32);stroke-width:1px;"/>
        </g>
        <g transform="matrix(0,-1,-1,0,335.066,142.354)">
            <circle cx="-34" cy="0" r="34" style="fill:none;stroke:rgb(35,31,32);stroke-width:1px;"/>
        </g>
        <g transform="matrix(0,-1,-1,0,762.711,-1.31)">
            <circle cx="-34" cy="0" r="34" style="fill:none;stroke:rgb(35,31,32);stroke-width:1px;"/>
        </g>
        <g transform="matrix(0,-1,-1,0,1192.36,139.012)">
            <circle cx="-34" cy="0" r="34" style="fill:none;stroke:rgb(35,31,32);stroke-width:1px;"/>
        </g>
    </g>
    <g id="Layer-9" serif:id="Layer 9" transform="matrix(4.16667,0,0,4.16667,0,0)">
        <g transform="matrix(0,-1,-1,0,760.41,66.7159)">
            <path d="M-182,-182C-282.516,-182 -364,-100.516 -364,0C-364,100.516 -282.516,182 -182,182C-81.484,182 0,100.516 0,0C0,-100.516 -81.484,-182 -182,-182Z" style="fill:none;fill-rule:nonzero;stroke:rgb(35,31,32);stroke-width:1px;"/>
        </g>
        <g transform="matrix(0,-1,-1,0,1066.41,166.716)">
            <path d="M-180,-180C-279.411,-180 -360,-99.411 -360,0C-360,99.411 -279.411,180 -180,180C-80.589,180 0,99.411 0,0C0,-99.411 -80.589,-180 -180,-180Z" style="fill:none;fill-rule:nonzero;stroke:rgb(35,31,32);stroke-width:1px;"/>
        </g>
        <g transform="matrix(0,-1,-1,0,1254.41,422.716)">
            <path d="M-180,-180C-279.411,-180 -360,-99.411 -360,0C-360,99.411 -279.411,180 -180,180C-80.589,180 0,99.411 0,0C0,-99.411 -80.589,-180 -180,-180Z" style="fill:none;fill-rule:nonzero;stroke:rgb(35,31,32);stroke-width:1px;"/>
        </g>
        <g transform="matrix(0,-1,-1,0,1252.41,742.716)">
            <path d="M-182,-182C-282.516,-182 -364,-100.516 -364,0C-364,100.516 -282.516,182 -182,182C-81.484,182 0,100.516 0,0C0,-100.516 -81.484,-182 -182,-182Z" style="fill:none;fill-rule:nonzero;stroke:rgb(35,31,32);stroke-width:1px;"/>
        </g>
        <g transform="matrix(0,-1,-1,0,1064.41,1000.72)">
            <path d="M-182,-182C-282.516,-182 -364,-100.516 -364,0C-364,100.516 -282.516,182 -182,182C-81.484,182 0,100.516 0,0C0,-100.516 -81.484,-182 -182,-182Z" style="fill:none;fill-rule:nonzero;stroke:rgb(35,31,32);stroke-width:1px;"/>
        </g>
        <g transform="matrix(0,-1,-1,0,760.41,1104.72)">
            <path d="M-178,-178C-276.307,-178 -356,-98.307 -356,0C-356,98.307 -276.307,178 -178,178C-79.693,178 0,98.307 0,0C0,-98.307 -79.693,-178 -178,-178Z" style="fill:none;fill-rule:nonzero;stroke:rgb(35,31,32);stroke-width:1px;"/>
        </g>
        <g transform="matrix(0,-1,-1,0,460.41,1002.72)">
            <path d="M-180,-180C-279.411,-180 -360,-99.411 -360,0C-360,99.411 -279.411,180 -180,180C-80.589,180 0,99.411 0,0C0,-99.411 -80.589,-180 -180,-180Z" style="fill:none;fill-rule:nonzero;stroke:rgb(35,31,32);stroke-width:1px;"/>
        </g>
        <g transform="matrix(0,-1,-1,0,273.41,745.716)">
            <path d="M-178,-178C-276.307,-178 -356,-98.307 -356,0C-356,98.307 -276.307,178 -178,178C-79.693,178 0,98.307 0,0C0,-98.307 -79.693,-178 -178,-178Z" style="fill:none;fill-rule:nonzero;stroke:rgb(35,31,32);stroke-width:1px;"/>
        </g>
        <g transform="matrix(0,-1,-1,0,272.41,422.716)">
            <path d="M-182,-182C-282.516,-182 -364,-100.516 -364,0C-364,100.516 -282.516,182 -182,182C-81.484,182 0,100.516 0,0C0,-100.516 -81.484,-182 -182,-182Z" style="fill:none;fill-rule:nonzero;stroke:rgb(35,31,32);stroke-width:1px;"/>
        </g>
        <g transform="matrix(0,-1,-1,0,458.41,170.716)">
            <path d="M-178,-178C-276.307,-178 -356,-98.307 -356,0C-356,98.307 -276.307,178 -178,178C-79.693,178 0,98.307 0,0C0,-98.307 -79.693,-178 -178,-178Z" style="fill:none;fill-rule:nonzero;stroke:rgb(35,31,32);stroke-width:1px;"/>
        </g>
    </g>
    <g id="Layer-11" serif:id="Layer 11" transform="matrix(4.16667,0,0,4.16667,0,0)">
        <g transform="matrix(-0.720437,0.693521,0.693521,0.720437,508.924,1395.01)">
            <path d="M-387.794,-156.323L63.015,-156.323" style="fill:none;fill-rule:nonzero;stroke:rgb(35,31,32);stroke-width:1px;"/>
        </g>
        <g transform="matrix(-0.43351,0.901149,0.901149,0.43351,592.709,1297.95)">
            <path d="M-323.238,-203.198L127.736,-203.198" style="fill:none;fill-rule:nonzero;stroke:rgb(35,31,32);stroke-width:1px;"/>
        </g>
        <g transform="matrix(0.183013,0.98311,0.98311,-0.183013,932.88,1154.92)">
            <path d="M-184.885,-222.479L267.717,-222.479" style="fill:none;fill-rule:nonzero;stroke:rgb(35,31,32);stroke-width:1px;"/>
        </g>
        <g transform="matrix(-0.180507,0.983574,0.983574,0.180507,1015.72,1316.22)">
            <path d="M-266.617,-222.14L185.082,-222.14" style="fill:none;fill-rule:nonzero;stroke:rgb(35,31,32);stroke-width:1px;"/>
        </g>
        <g transform="matrix(0.722677,0.691185,0.691185,-0.722677,999.304,943.913)">
            <path d="M-62.779,-156.467L389.971,-156.467" style="fill:none;fill-rule:nonzero;stroke:rgb(35,31,32);stroke-width:1px;"/>
        </g>
        <g transform="matrix(0.436995,0.899464,0.899464,-0.436995,1214.31,943.457)">
            <path d="M-127.802,-204.178L326.197,-204.177" style="fill:none;fill-rule:nonzero;stroke:rgb(35,31,32);stroke-width:1px;"/>
        </g>
        <g transform="matrix(0.990829,0.135123,0.135123,-0.990829,981.167,887.294)">
            <path d="M-2.084,-30.71L452.47,-30.711" style="fill:none;fill-rule:nonzero;stroke:rgb(35,31,32);stroke-width:1px;"/>
        </g>
        <g transform="matrix(-0.883122,-0.469143,-0.469143,0.883122,1099.45,683.582)">
            <path d="M-425.882,106.1L26.433,106.1" style="fill:none;fill-rule:nonzero;stroke:rgb(35,31,32);stroke-width:1px;"/>
        </g>
        <g transform="matrix(0.879062,-0.476707,-0.476707,-0.879062,1102.32,847.054)">
            <path d="M-27.498,108.391L427.251,108.391" style="fill:none;fill-rule:nonzero;stroke:rgb(35,31,32);stroke-width:1px;"/>
        </g>
        <g transform="matrix(-0.990765,0.135594,0.135594,0.990765,982.78,638.196)">
            <path d="M-451.342,-30.742L2.094,-30.741" style="fill:none;fill-rule:nonzero;stroke:rgb(35,31,32);stroke-width:1px;"/>
        </g>
        <g transform="matrix(0.723763,-0.690048,-0.690048,-0.723763,997.225,581.836)">
            <path d="M-62.458,156.022L389.748,156.022" style="fill:none;fill-rule:nonzero;stroke:rgb(35,31,32);stroke-width:1px;"/>
        </g>
        <g transform="matrix(0.433404,-0.9012,-0.9012,-0.433404,1215.68,580.326)">
            <path d="M-128.024,203.629L323.882,203.629" style="fill:none;fill-rule:nonzero;stroke:rgb(35,31,32);stroke-width:1px;"/>
        </g>
        <g transform="matrix(-0.175498,-0.98448,-0.98448,0.175498,1016.64,210.989)">
            <path d="M-266.556,223.24L186.964,223.24" style="fill:none;fill-rule:nonzero;stroke:rgb(35,31,32);stroke-width:1px;"/>
        </g>
        <g transform="matrix(0.178176,-0.983999,-0.983999,-0.178176,934.865,368.425)">
            <path d="M-186.568,223.385L267.466,223.385" style="fill:none;fill-rule:nonzero;stroke:rgb(35,31,32);stroke-width:1px;"/>
        </g>
        <g transform="matrix(-0.722781,-0.691078,-0.691078,0.722781,508.814,132.324)">
            <path d="M-387.181,155.314L62.303,155.314" style="fill:none;fill-rule:nonzero;stroke:rgb(35,31,32);stroke-width:1px;"/>
        </g>
        <g transform="matrix(-0.42891,-0.903347,-0.903347,0.42891,594.469,231.116)">
            <path d="M-321.761,203.415L128.598,203.415" style="fill:none;fill-rule:nonzero;stroke:rgb(35,31,32);stroke-width:1px;"/>
        </g>
        <g transform="matrix(-0.990356,-0.138548,-0.138548,0.990356,106.374,515.756)">
            <path d="M-450.9,31.387L2.185,31.387" style="fill:none;fill-rule:nonzero;stroke:rgb(35,31,32);stroke-width:1px;"/>
        </g>
        <g transform="matrix(0.880185,0.474632,0.474632,-0.880185,174.501,465.719)">
            <path d="M-27.201,-107.753L426.848,-107.753" style="fill:none;fill-rule:nonzero;stroke:rgb(35,31,32);stroke-width:1px;"/>
        </g>
        <g transform="matrix(-0.879925,0.475113,0.475113,0.879925,178.442,1057.62)">
            <path d="M-421.766,-106.593L26.939,-106.593" style="fill:none;fill-rule:nonzero;stroke:rgb(35,31,32);stroke-width:1px;"/>
        </g>
        <g transform="matrix(0.991377,-0.131038,-0.131038,-0.991377,110.087,1006.41)">
            <path d="M-1.934,29.399L446.768,29.399" style="fill:none;fill-rule:nonzero;stroke:rgb(35,31,32);stroke-width:1px;"/>
        </g>
    </g>
    <g id="Layer-11-copy" serif:id="Layer 11 copy" transform="matrix(4.16667,0,0,4.16667,0,0)">
        <g transform="matrix(-0.467249,0.884126,0.884126,0.467249,777.476,1205.46)">
            <path d="M-225.406,-135.824L81.844,-135.824" style="fill:none;fill-rule:nonzero;stroke:rgb(35,31,32);stroke-width:1px;"/>
        </g>
        <g transform="matrix(-0.129762,0.991545,0.991545,0.129762,786.784,1100.99)">
            <path d="M-173.624,-152.383L133.74,-152.383" style="fill:none;fill-rule:nonzero;stroke:rgb(35,31,32);stroke-width:1px;"/>
        </g>
        <g transform="matrix(0.481447,0.876475,0.876475,-0.481447,920.074,947.908)">
            <path d="M-79.979,-135.184L228.492,-135.184" style="fill:none;fill-rule:nonzero;stroke:rgb(35,31,32);stroke-width:1px;"/>
        </g>
        <g transform="matrix(0.136326,0.990664,0.990664,-0.136326,1039.11,1018.61)">
            <path d="M-132.944,-152.491L174.913,-152.491" style="fill:none;fill-rule:nonzero;stroke:rgb(35,31,32);stroke-width:1px;"/>
        </g>
        <g transform="matrix(0.902666,0.430343,0.430343,-0.902666,912.262,853.953)">
            <path d="M-15.017,-66.396L293.555,-66.396" style="fill:none;fill-rule:nonzero;stroke:rgb(35,31,32);stroke-width:1px;"/>
        </g>
        <g transform="matrix(0.696501,0.717556,0.717556,-0.696501,1045.57,774.221)">
            <path d="M-46.955,-111.015L262.469,-111.015" style="fill:none;fill-rule:nonzero;stroke:rgb(35,31,32);stroke-width:1px;"/>
        </g>
        <g transform="matrix(0.983354,-0.181702,-0.181702,-0.983354,940.888,844.842)">
            <path d="M-2.579,28.146L307.225,28.146" style="fill:none;fill-rule:nonzero;stroke:rgb(35,31,32);stroke-width:1px;"/>
        </g>
        <g transform="matrix(-0.985574,-0.169244,-0.169244,0.985574,940.569,682.584)">
            <path d="M-306.054,26.087L2.224,26.087" style="fill:none;fill-rule:nonzero;stroke:rgb(35,31,32);stroke-width:1px;"/>
        </g>
        <g transform="matrix(0.685754,-0.727834,-0.727834,-0.685754,1049.54,749.79)">
            <path d="M-48.698,112.791L261.238,112.791" style="fill:none;fill-rule:nonzero;stroke:rgb(35,31,32);stroke-width:1px;"/>
        </g>
        <g transform="matrix(-0.898583,0.438804,0.438804,0.898583,912.11,671.05)">
            <path d="M-293.369,-67.804L15.671,-67.804" style="fill:none;fill-rule:nonzero;stroke:rgb(35,31,32);stroke-width:1px;"/>
        </g>
        <g transform="matrix(0.471495,-0.881869,-0.881869,-0.471495,920.48,575.291)">
            <path d="M-81.443,135.897L226.759,135.897" style="fill:none;fill-rule:nonzero;stroke:rgb(35,31,32);stroke-width:1px;"/>
        </g>
        <g transform="matrix(0.129644,-0.991561,-0.991561,-0.129644,1037.03,503.491)">
            <path d="M-134.034,152.699L173.964,152.699" style="fill:none;fill-rule:nonzero;stroke:rgb(35,31,32);stroke-width:1px;"/>
        </g>
        <g transform="matrix(-0.47474,-0.880126,-0.880126,0.47474,773.41,318.39)">
            <path d="M-227.919,136.023L81.178,136.023" style="fill:none;fill-rule:nonzero;stroke:rgb(35,31,32);stroke-width:1px;"/>
        </g>
        <g transform="matrix(-0.138676,-0.990338,-0.990338,0.138676,784.376,422.102)">
            <path d="M-176.18,153.229L133.267,153.229" style="fill:none;fill-rule:nonzero;stroke:rgb(35,31,32);stroke-width:1px;"/>
        </g>
        <g transform="matrix(-0.902729,-0.430209,-0.430209,0.902729,421.984,433.03)">
            <path d="M-291.447,65.896L14.899,65.896" style="fill:none;fill-rule:nonzero;stroke:rgb(35,31,32);stroke-width:1px;"/>
        </g>
        <g transform="matrix(-0.690039,-0.723772,-0.723772,0.690039,492.971,444.511)">
            <path d="M-259.373,111.079L47.57,111.079" style="fill:none;fill-rule:nonzero;stroke:rgb(35,31,32);stroke-width:1px;"/>
        </g>
        <g transform="matrix(-0.983976,0.178302,0.178302,0.983976,295.011,790.811)">
            <path d="M-306.327,-27.53L2.474,-27.53" style="fill:none;fill-rule:nonzero;stroke:rgb(35,31,32);stroke-width:1px;"/>
        </g>
        <g transform="matrix(0.984502,0.175374,0.175374,-0.984502,294.737,738.685)">
            <path d="M-2.398,-27.136L307.06,-27.136" style="fill:none;fill-rule:nonzero;stroke:rgb(35,31,32);stroke-width:1px;"/>
        </g>
        <g transform="matrix(-0.68707,0.726591,0.726591,0.68707,495.732,1083.24)">
            <path d="M-257.966,-111.101L47.849,-111.101" style="fill:none;fill-rule:nonzero;stroke:rgb(35,31,32);stroke-width:1px;"/>
        </g>
        <g transform="matrix(0.900589,-0.434671,-0.434671,-0.900589,425.045,1095.45)">
            <path d="M-15.201,66.465L290.615,66.465" style="fill:none;fill-rule:nonzero;stroke:rgb(35,31,32);stroke-width:1px;"/>
        </g>
    </g>
    <g id="Layer-10" serif:id="Layer 10" transform="matrix(4.16667,0,0,4.16667,0,0)">
        <g transform="matrix(-0.676421,0.736515,0.736515,0.676421,843.127,1124.01)">
            <path d="M-170.491,-74.903L32.908,-74.903" style="fill:none;fill-rule:nonzero;stroke:rgb(35,31,32);stroke-width:1px;"/>
        </g>
        <g transform="matrix(-0.906933,-0.421275,-0.421275,0.906933,471.497,829.289)">
            <path d="M-191.173,42.234L9.33,42.234" style="fill:none;fill-rule:nonzero;stroke:rgb(35,31,32);stroke-width:1px;"/>
        </g>
        <g transform="matrix(-0.471267,-0.88199,-0.88199,0.471267,549.828,659.883)">
            <path d="M-146.739,87.967L52.734,87.967" style="fill:none;fill-rule:nonzero;stroke:rgb(35,31,32);stroke-width:1px;"/>
        </g>
        <g transform="matrix(0.117624,-0.993058,-0.993058,-0.117624,650.626,609.078)">
            <path d="M-88.411,99.501L111.982,99.501" style="fill:none;fill-rule:nonzero;stroke:rgb(35,31,32);stroke-width:1px;"/>
        </g>
        <g transform="matrix(0.982819,-0.18457,-0.18457,-0.982819,769.875,541.063)">
            <path d="M-1.729,18.573L199.528,18.573" style="fill:none;fill-rule:nonzero;stroke:rgb(35,31,32);stroke-width:1px;"/>
        </g>
        <g transform="matrix(0.902516,0.430657,0.430657,-0.902516,931.339,532.897)">
            <path d="M-9.829,-43.42L191.817,-43.42" style="fill:none;fill-rule:nonzero;stroke:rgb(35,31,32);stroke-width:1px;"/>
        </g>
        <g transform="matrix(0.467577,0.883952,0.883952,-0.467577,1090.73,690.976)">
            <path d="M-52.804,-87.668L145.55,-87.668" style="fill:none;fill-rule:nonzero;stroke:rgb(35,31,32);stroke-width:1px;"/>
        </g>
        <g transform="matrix(0.677077,0.735912,0.735912,-0.677077,704.803,921.908)">
            <path d="M-32.797,-74.743L170.331,-74.743" style="fill:none;fill-rule:nonzero;stroke:rgb(35,31,32);stroke-width:1px;"/>
        </g>
        <g transform="matrix(0.475752,-0.87958,-0.87958,-0.475752,548.707,858.377)">
            <path d="M-52.852,88.675L148.778,88.675" style="fill:none;fill-rule:nonzero;stroke:rgb(35,31,32);stroke-width:1px;"/>
        </g>
        <g transform="matrix(0.900891,-0.434045,-0.434045,-0.900891,475.525,688.651)">
            <path d="M-9.837,43.08L188.668,43.08" style="fill:none;fill-rule:nonzero;stroke:rgb(35,31,32);stroke-width:1px;"/>
        </g>
        <g transform="matrix(0.982649,0.185473,0.185473,-0.982649,570.768,467.607)">
            <path d="M-1.752,-18.723L200.149,-18.723" style="fill:none;fill-rule:nonzero;stroke:rgb(35,31,32);stroke-width:1px;"/>
        </g>
        <g transform="matrix(0.127504,0.991838,0.991838,-0.127504,1072.79,560.405)">
            <path d="M-87.305,-99.247L112.822,-99.247" style="fill:none;fill-rule:nonzero;stroke:rgb(35,31,32);stroke-width:1px;"/>
        </g>
        <g transform="matrix(-0.487807,0.872952,0.872952,0.487807,1089.83,828.072)">
            <path d="M-148.808,-87.311L51.229,-87.311" style="fill:none;fill-rule:nonzero;stroke:rgb(35,31,32);stroke-width:1px;"/>
        </g>
        <g transform="matrix(-0.898198,0.439592,0.439592,0.898198,931.633,982.493)">
            <path d="M-187.738,-43.477L10.069,-43.477" style="fill:none;fill-rule:nonzero;stroke:rgb(35,31,32);stroke-width:1px;"/>
        </g>
        <g transform="matrix(-0.983272,-0.182143,-0.182143,0.983272,769.906,975.222)">
            <path d="M-195.815,17.984L1.652,17.984" style="fill:none;fill-rule:nonzero;stroke:rgb(35,31,32);stroke-width:1px;"/>
        </g>
        <g transform="matrix(-0.145845,0.989307,0.989307,0.145845,1069.48,957.819)">
            <path d="M-114.266,-98.656L85.178,-98.656" style="fill:none;fill-rule:nonzero;stroke:rgb(35,31,32);stroke-width:1px;"/>
        </g>
        <g transform="matrix(-0.982739,0.184997,0.184997,0.982739,573.521,1047.55)">
            <path d="M-197.966,-18.471L1.723,-18.471" style="fill:none;fill-rule:nonzero;stroke:rgb(35,31,32);stroke-width:1px;"/>
        </g>
        <g transform="matrix(-0.127614,-0.991824,-0.991824,0.127614,652.301,905.347)">
            <path d="M-114.004,100.275L88.2,100.275" style="fill:none;fill-rule:nonzero;stroke:rgb(35,31,32);stroke-width:1px;"/>
        </g>
    </g>
    <g id="Layer-13" serif:id="Layer 13" transform="matrix(4.16667,0,0,4.16667,0,0)">
        <g transform="matrix(0.6885,-0.725236,-0.725236,-0.6885,700.722,594.548)">
            <path d="M-30.856,71.839L167.257,71.839" style="fill:none;fill-rule:nonzero;stroke:rgb(35,31,32);stroke-width:1px;"/>
        </g>
        <g transform="matrix(0.694243,0.719741,0.719741,-0.694243,837.804,395.779)">
            <path d="M-30.632,-72.107L169.738,-72.108" style="fill:none;fill-rule:nonzero;stroke:rgb(35,31,32);stroke-width:1px;"/>
        </g>
    </g>
</svg>
