<?xml version="1.0" encoding="UTF-8" standalone="no"?>
<!DOCTYPE svg PUBLIC "-//W3C//DTD SVG 1.1//EN" "http://www.w3.org/Graphics/SVG/1.1/DTD/svg11.dtd">
<svg width="100%" height="100%" viewBox="0 0 6378 6378" version="1.1" xmlns="http://www.w3.org/2000/svg" xmlns:xlink="http://www.w3.org/1999/xlink" xml:space="preserve" xmlns:serif="http://www.serif.com/" style="fill-rule:evenodd;clip-rule:evenodd;stroke-miterlimit:10;">
    <g id="Layer-1" serif:id="Layer 1">
    </g>
    <g transform="matrix(-1.09265,-4.02085,-4.02085,1.09265,1571.83,404.795)">
        <g id="Layer-3" serif:id="Layer 3">
            <path d="M-738.57,-966.059C-315.533,-966.058 26.784,-623.742 26.784,-200.705C26.783,222.333 -315.533,564.651 -738.57,564.65C-1161.61,564.65 -1503.92,222.335 -1503.92,-200.705C-1503.92,-623.743 -1161.61,-966.058 -738.57,-966.059Z" style="fill:none;fill-rule:nonzero;stroke:rgb(35,31,32);stroke-width:1px;"/>
        </g>
    </g>
    <g id="Layer-4" serif:id="Layer 4" transform="matrix(4.16667,0,0,4.16667,0,0)">
        <g transform="matrix(-0.262236,-0.965004,-0.965004,0.262236,436.817,198.679)">
            <path d="M-624.971,-817.47C-266.959,-817.469 22.664,-527.846 22.665,-169.834C22.664,188.179 -266.96,477.802 -624.971,477.803C-982.984,477.802 -1272.61,188.179 -1272.61,-169.834C-1272.61,-527.847 -982.983,-817.469 -624.971,-817.47Z" style="fill:none;fill-rule:nonzero;stroke:rgb(35,31,32);stroke-width:1px;"/>
        </g>
        <g transform="matrix(-0.262235,-0.965004,-0.965004,0.262235,496.398,300.206)">
            <path d="M-511.373,-668.88C-218.386,-668.881 18.545,-431.95 18.544,-138.963C18.544,154.025 -218.386,390.956 -511.373,390.956C-804.362,390.955 -1041.29,154.024 -1041.29,-138.963C-1041.29,-431.95 -804.361,-668.881 -511.373,-668.88Z" style="fill:none;fill-rule:nonzero;stroke:rgb(35,31,32);stroke-width:1px;"/>
        </g>
        <g transform="matrix(-0.262236,-0.965004,-0.965004,0.262236,555.977,401.733)">
            <path d="M-397.776,-520.293C-169.815,-520.293 14.425,-336.054 14.425,-108.093C14.425,119.869 -169.813,304.107 -397.776,304.108C-625.737,304.109 -809.975,119.869 -809.975,-108.093C-809.976,-336.054 -625.737,-520.292 -397.776,-520.293Z" style="fill:none;fill-rule:nonzero;stroke:rgb(35,31,32);stroke-width:1px;"/>
        </g>
        <g transform="matrix(-0.262235,-0.965004,-0.965004,0.262235,615.555,503.261)">
            <ellipse cx="-284.177" cy="-77.224" rx="294.482" ry="294.482" style="fill:none;stroke:rgb(35,31,32);stroke-width:1px;"/>
        </g>
        <g transform="matrix(0.965004,-0.262234,-0.262234,-0.965004,883.756,960.298)">
            <path d="M-61.739,-8.239C-191.791,-8.24 -297.176,97.145 -297.176,227.197C-297.177,357.247 -191.791,462.633 -61.739,462.633C68.31,462.633 173.697,357.247 173.697,227.197C173.697,97.147 68.311,-8.239 -61.739,-8.239Z" style="fill:none;fill-rule:nonzero;stroke:rgb(35,31,32);stroke-width:1px;"/>
        </g>
        <g transform="matrix(-0.262237,-0.965004,-0.965004,0.262237,675.134,604.791)">
            <ellipse cx="-170.577" cy="-46.355" rx="176.764" ry="176.765" style="fill:none;stroke:rgb(35,31,32);stroke-width:1px;"/>
        </g>
        <g transform="matrix(0.965003,-0.262237,-0.262237,-0.965003,824.178,858.77)">
            <ellipse cx="-30.871" cy="113.598" rx="117.718" ry="117.718" style="fill:none;stroke:rgb(35,31,32);stroke-width:1px;"/>
        </g>
        <g transform="matrix(-0.262229,-0.965006,-0.965006,0.262229,734.713,706.317)">
            <path d="M-56.979,-74.53C-24.466,-74.531 2.066,-47.996 2.067,-15.484C2.067,17.029 -24.467,43.561 -56.979,43.562C-89.492,43.561 -116.026,17.027 -116.025,-15.485C-116.026,-47.998 -89.492,-74.529 -56.979,-74.53Z" style="fill:none;fill-rule:nonzero;stroke:rgb(35,31,32);stroke-width:1px;"/>
        </g>
        <g transform="matrix(0.262237,0.965004,0.965004,-0.262237,1194.99,932.847)">
            <path d="M-282.325,-369.285L483.029,-369.285" style="fill:none;fill-rule:nonzero;stroke:rgb(35,31,32);stroke-width:1px;"/>
        </g>
        <g transform="matrix(0.709538,0.704667,0.704667,-0.709538,1033.53,644.216)">
            <path d="M-111.171,-269.703L654.307,-269.703" style="fill:none;fill-rule:nonzero;stroke:rgb(35,31,32);stroke-width:1px;"/>
        </g>
        <g transform="matrix(0.966859,0.255311,0.255311,-0.966859,801.81,666.002)">
            <path d="M-12.684,-97.718L752.793,-97.718" style="fill:none;fill-rule:nonzero;stroke:rgb(35,31,32);stroke-width:1px;"/>
        </g>
        <g transform="matrix(0.965004,-0.262235,-0.262235,-0.965004,803.836,850.57)">
            <path d="M-13.392,100.351L751.962,100.352" style="fill:none;fill-rule:nonzero;stroke:rgb(35,31,32);stroke-width:1px;"/>
        </g>
        <g transform="matrix(0.704667,-0.709538,-0.709538,-0.704667,1036.94,868.404)">
            <path d="M-113.035,271.568L652.441,271.568" style="fill:none;fill-rule:nonzero;stroke:rgb(35,31,32);stroke-width:1px;"/>
        </g>
        <g transform="matrix(0.25531,-0.966859,-0.966859,-0.25531,1195.16,576.145)">
            <path d="M-285.021,370.054L480.455,370.054" style="fill:none;fill-rule:nonzero;stroke:rgb(35,31,32);stroke-width:1px;"/>
        </g>
        <g transform="matrix(-0.262234,-0.965004,-0.965004,0.262234,994.292,194.279)">
            <path d="M-483.028,369.285L282.326,369.285" style="fill:none;fill-rule:nonzero;stroke:rgb(35,31,32);stroke-width:1px;"/>
        </g>
        <g transform="matrix(-0.70954,-0.704665,-0.704665,0.70954,490.39,104.81)">
            <path d="M-654.307,269.703L111.17,269.703" style="fill:none;fill-rule:nonzero;stroke:rgb(35,31,32);stroke-width:1px;"/>
        </g>
        <g transform="matrix(-0.96686,-0.255309,-0.255309,0.96686,61.7009,470.569)">
            <path d="M-752.792,97.717L12.684,97.717" style="fill:none;fill-rule:nonzero;stroke:rgb(35,31,32);stroke-width:1px;"/>
        </g>
        <g transform="matrix(-0.965004,0.262235,0.262235,0.965004,65.2664,1051.27)">
            <path d="M-751.962,-100.352L13.392,-100.351" style="fill:none;fill-rule:nonzero;stroke:rgb(35,31,32);stroke-width:1px;"/>
        </g>
        <g transform="matrix(-0.704664,0.709541,0.709541,0.704664,497.534,1411.54)">
            <path d="M-652.442,-271.569L113.037,-271.569" style="fill:none;fill-rule:nonzero;stroke:rgb(35,31,32);stroke-width:1px;"/>
        </g>
        <g transform="matrix(-0.25531,0.966859,0.966859,0.25531,999.723,1316.25)">
            <path d="M-480.456,-370.055L285.022,-370.055" style="fill:none;fill-rule:nonzero;stroke:rgb(35,31,32);stroke-width:1px;"/>
        </g>
    </g>
    <g id="Layer-10" serif:id="Layer 10" transform="matrix(4.16667,0,0,4.16667,0,0)">
        <g transform="matrix(0.499501,0.866313,0.866313,-0.499501,1148.1,757.442)">
            <path d="M-191.529,-331.518L573.824,-331.518" style="fill:none;fill-rule:nonzero;stroke:rgb(35,31,32);stroke-width:1px;"/>
        </g>
        <g transform="matrix(0.865689,0.500582,0.500582,-0.865689,905.644,616.985)">
            <path d="M-51.406,-191.592L714.072,-191.593" style="fill:none;fill-rule:nonzero;stroke:rgb(35,31,32);stroke-width:1px;"/>
        </g>
        <g transform="matrix(1,0.000484664,0.000484664,-1,765.235,756.926)">
            <path d="M-0,-0.185L765.478,-0.186" style="fill:none;fill-rule:nonzero;stroke:rgb(35,31,32);stroke-width:1px;"/>
        </g>
        <g transform="matrix(0.866314,-0.499501,-0.499501,-0.866314,905.033,897.151)">
            <path d="M-51.159,191.148L714.196,191.147" style="fill:none;fill-rule:nonzero;stroke:rgb(35,31,32);stroke-width:1px;"/>
        </g>
        <g transform="matrix(0.500581,-0.865689,-0.865689,-0.500581,1147.75,757.497)">
            <path d="M-191.147,331.333L574.331,331.333" style="fill:none;fill-rule:nonzero;stroke:rgb(35,31,32);stroke-width:1px;"/>
        </g>
        <g transform="matrix(-0.499499,-0.866314,-0.866314,0.499499,765.81,94.4056)">
            <path d="M-573.824,331.519L191.53,331.519" style="fill:none;fill-rule:nonzero;stroke:rgb(35,31,32);stroke-width:1px;"/>
        </g>
        <g transform="matrix(-0.865691,-0.500579,-0.500579,0.865691,242.975,233.803)">
            <path d="M-714.072,191.591L51.405,191.591" style="fill:none;fill-rule:nonzero;stroke:rgb(35,31,32);stroke-width:1px;"/>
        </g>
        <g transform="matrix(-1,-0.000484665,-0.000484665,1,-0.241965,756.555)">
            <path d="M-765.477,0.186L0,0.186" style="fill:none;fill-rule:nonzero;stroke:rgb(35,31,32);stroke-width:1px;"/>
        </g>
        <g transform="matrix(-0.866314,0.4995,0.4995,0.866314,241.995,1279.45)">
            <path d="M-714.196,-191.147L51.159,-191.147" style="fill:none;fill-rule:nonzero;stroke:rgb(35,31,32);stroke-width:1px;"/>
        </g>
        <g transform="matrix(-0.500579,0.865691,0.865691,0.500579,764.57,1420.16)">
            <path d="M-574.33,-331.333L191.148,-331.334" style="fill:none;fill-rule:nonzero;stroke:rgb(35,31,32);stroke-width:1px;"/>
        </g>
        <g transform="matrix(-0.000483358,1,1,0.000483358,1147.79,1140.22)">
            <path d="M-382.924,-382.739L382.554,-382.739" style="fill:none;fill-rule:nonzero;stroke:rgb(35,31,32);stroke-width:1px;"/>
        </g>
        <g transform="matrix(-0.00324034,-0.999995,-0.999995,0.00324034,1073.04,297.133)">
            <path d="M-309.609,308.608L307.609,308.608" style="fill:none;fill-rule:nonzero;stroke:rgb(35,31,32);stroke-width:1px;"/>
        </g>
    </g>
    <g id="Layer-5" serif:id="Layer 5" transform="matrix(4.16667,0,0,4.16667,0,0)">
        <g transform="matrix(1,0,0,1,617.863,752.059)">
            <path d="M0,-79.337C-4.445,-71.632 -7.352,-65.316 -9.639,-60.328C-11.916,-55.333 -13.57,-51.644 -15.182,-48.941C-16.787,-46.233 -18.341,-44.503 -20.235,-43.35C-22.126,-42.192 -24.349,-41.614 -27.218,-41.16C-24.958,-39.336 -23.321,-37.726 -22.259,-35.78C-21.193,-33.834 -20.708,-31.56 -20.668,-28.412C-20.621,-25.263 -21.028,-21.24 -21.552,-15.767C-22.06,-10.298 -22.698,-3.366 -22.708,5.56C-29.341,5.566 -34.407,4.69 -38.326,3.099C-42.242,1.511 -44.998,-0.776 -47,-3.43C-51.019,-8.75 -51.933,-15.438 -53.497,-20.845C-55.109,-26.413 -55.561,-30.586 -57.298,-35.087C-58.162,-37.345 -59.336,-39.698 -61.082,-42.429C-62.824,-45.163 -65.139,-48.275 -68.23,-52.123C-63.632,-53.915 -60.085,-55.483 -57.218,-57.016C-54.348,-58.544 -52.163,-60.034 -50.271,-61.578C-46.489,-64.648 -43.907,-68.005 -39.468,-71.72C-34.9,-75.539 -30.276,-80.59 -24.08,-83.071C-20.99,-84.312 -17.535,-84.903 -13.577,-84.407C-9.616,-83.917 -5.165,-82.331 0,-79.337Z" style="fill:none;fill-rule:nonzero;stroke:rgb(35,31,32);stroke-width:1px;"/>
        </g>
        <g transform="matrix(1,0,0,1,680.068,656.545)">
            <path d="M0,-46.029C-7.692,-41.563 -13.369,-37.534 -17.849,-34.348C-22.322,-31.149 -25.601,-28.773 -28.354,-27.233C-33.838,-24.12 -37.25,-24.401 -42.683,-26.506C-40.578,-21.073 -40.296,-17.661 -43.409,-12.178C-44.948,-9.425 -47.325,-6.145 -50.524,-1.671C-53.71,2.808 -57.741,8.484 -62.206,16.177C-67.949,12.861 -71.899,9.566 -74.492,6.227C-77.087,2.894 -78.327,-0.467 -78.728,-3.767C-79.537,-10.383 -76.971,-16.629 -75.612,-22.091C-74.212,-27.714 -72.511,-31.551 -71.761,-36.315C-71.375,-38.7 -71.216,-41.325 -71.359,-44.561C-71.499,-47.8 -71.945,-51.649 -72.7,-56.524C-62.961,-54.994 -57.256,-54.912 -52.433,-55.717C-47.624,-56.483 -43.712,-58.101 -38.013,-59.104C-32.15,-60.133 -25.623,-62.206 -19.015,-61.267C-15.718,-60.803 -12.427,-59.594 -9.242,-57.192C-6.053,-54.793 -2.985,-51.198 0,-46.029Z" style="fill:none;fill-rule:nonzero;stroke:rgb(35,31,32);stroke-width:1px;"/>
        </g>
        <g transform="matrix(1,0,0,1,764.965,564.995)">
            <path d="M0,22.813C-8.924,22.825 -15.855,23.461 -21.327,23.97C-26.798,24.495 -30.822,24.901 -33.97,24.854C-37.119,24.813 -39.394,24.329 -41.339,23.263C-43.285,22.2 -44.896,20.564 -46.72,18.304C-47.174,21.173 -47.752,23.395 -48.91,25.286C-50.062,27.18 -51.792,28.735 -54.5,30.34C-57.203,31.952 -60.891,33.605 -65.888,35.882C-70.876,38.17 -77.191,41.077 -84.897,45.521C-88.224,39.784 -90.005,34.959 -90.589,30.772C-91.177,26.588 -90.578,23.057 -89.28,19.997C-86.683,13.856 -81.343,9.725 -77.439,5.668C-73.418,1.491 -70.027,-0.983 -66.992,-4.734C-65.466,-6.611 -64.013,-8.801 -62.517,-11.677C-61.015,-14.552 -59.474,-18.111 -57.682,-22.708C-53.835,-19.619 -50.705,-17.326 -47.947,-15.607C-45.192,-13.882 -42.808,-12.732 -40.529,-11.863C-35.982,-10.117 -31.785,-9.554 -26.349,-7.562C-20.762,-5.511 -14.076,-4.027 -8.83,0.097C-6.211,2.153 -3.967,4.848 -2.414,8.522C-0.854,12.198 0.004,16.844 0,22.813Z" style="fill:none;fill-rule:nonzero;stroke:rgb(35,31,32);stroke-width:1px;"/>
        </g>
        <g transform="matrix(1,0,0,1,849.864,542.286)">
            <path d="M0,68.229C-7.705,63.786 -14.021,60.878 -19.01,58.59C-24.006,56.314 -27.693,54.661 -30.396,53.049C-33.105,51.444 -34.834,49.889 -35.988,47.995C-37.145,46.104 -37.723,43.882 -38.178,41.012C-40.002,43.273 -41.613,44.909 -43.559,45.972C-45.502,47.038 -47.777,47.522 -50.926,47.563C-54.076,47.61 -58.098,47.204 -63.57,46.68C-69.041,46.171 -75.973,45.534 -84.898,45.522C-84.904,38.889 -84.027,33.822 -82.436,29.905C-80.85,25.989 -78.563,23.233 -75.908,21.23C-70.588,17.211 -63.9,16.297 -58.494,14.733C-52.926,13.122 -48.752,12.668 -44.25,10.932C-41.992,10.069 -39.641,8.894 -36.908,7.149C-34.174,5.407 -31.063,3.09 -27.215,0C-25.424,4.598 -23.855,8.145 -22.322,11.012C-20.793,13.881 -19.303,16.067 -17.76,17.958C-14.689,21.741 -11.334,24.323 -7.617,28.762C-3.799,33.33 1.252,37.955 3.732,44.15C4.973,47.241 5.566,50.694 5.07,54.653C4.58,58.614 2.994,63.065 0,68.229Z" style="fill:none;fill-rule:nonzero;stroke:rgb(35,31,32);stroke-width:1px;"/>
        </g>
        <g transform="matrix(1,0,0,1,912.069,593.184)">
            <path d="M0,79.537C-4.465,71.845 -8.496,66.168 -11.68,61.689C-14.879,57.216 -17.256,53.934 -18.797,51.183C-21.91,45.698 -21.629,42.286 -19.523,36.854C-24.955,38.96 -28.367,39.241 -33.852,36.128C-36.604,34.588 -39.883,32.212 -44.357,29.013C-48.836,25.827 -54.512,21.797 -62.205,17.331C-58.889,11.588 -55.594,7.638 -52.256,5.046C-48.922,2.45 -45.563,1.21 -42.262,0.809C-35.645,0 -29.4,2.567 -23.938,3.925C-18.314,5.325 -14.477,7.025 -9.713,7.776C-7.328,8.162 -4.703,8.323 -1.469,8.179C1.77,8.038 5.619,7.591 10.496,6.837C8.965,16.575 8.885,22.281 9.689,27.104C10.455,31.913 12.072,35.824 13.076,41.524C14.104,47.387 16.176,53.915 15.238,60.522C14.775,63.819 13.566,67.11 11.162,70.295C8.764,73.483 5.17,76.553 0,79.537Z" style="fill:none;fill-rule:nonzero;stroke:rgb(35,31,32);stroke-width:1px;"/>
        </g>
        <g transform="matrix(1,0,0,1,934.776,666.445)">
            <path d="M0,91.174C-0.01,82.247 -0.648,75.316 -1.156,69.847C-1.68,64.373 -2.088,60.351 -2.039,57.201C-2,54.054 -1.516,51.779 -0.449,49.833C0.613,47.888 2.25,46.278 4.51,44.453C1.641,43.999 -0.58,43.42 -2.473,42.264C-4.367,41.111 -5.922,39.381 -7.525,36.673C-9.139,33.97 -10.791,30.28 -13.068,25.285C-15.357,20.297 -18.262,13.982 -22.707,6.276C-16.969,2.948 -12.145,1.167 -7.959,0.583C-3.775,-0.005 -0.244,0.596 2.816,1.894C8.957,4.489 13.09,9.828 17.146,13.734C21.322,17.755 23.797,21.147 27.549,24.182C29.426,25.706 31.615,27.159 34.492,28.657C37.365,30.159 40.926,31.698 45.523,33.491C42.432,37.338 40.141,40.468 38.42,43.226C36.697,45.982 35.545,48.364 34.676,50.646C32.93,55.191 32.367,59.389 30.375,64.823C28.326,70.411 26.842,77.097 22.717,82.343C20.66,84.962 17.967,87.205 14.291,88.761C10.617,90.321 5.969,91.179 0,91.174Z" style="fill:none;fill-rule:nonzero;stroke:rgb(35,31,32);stroke-width:1px;"/>
        </g>
        <g transform="matrix(1,0,0,1,912.069,763.182)">
            <path d="M0,79.335C4.445,71.631 7.35,65.315 9.639,60.327C11.916,55.33 13.568,51.642 15.182,48.937C16.785,46.23 18.34,44.502 20.234,43.347C22.127,42.192 24.348,41.611 27.217,41.157C24.957,39.334 23.32,37.722 22.258,35.778C21.191,33.833 20.707,31.557 20.668,28.41C20.619,25.261 21.027,21.238 21.551,15.765C22.059,10.295 22.697,3.363 22.707,-5.562C29.34,-5.567 34.408,-4.692 38.324,-3.1C42.24,-1.514 44.998,0.772 47,3.429C51.018,8.747 51.932,15.436 53.496,20.843C55.107,26.41 55.561,30.584 57.299,35.084C58.16,37.344 59.336,39.695 61.082,42.429C62.822,45.162 65.139,48.273 68.23,52.118C63.631,53.913 60.084,55.481 57.217,57.015C54.348,58.542 52.162,60.03 50.27,61.575C46.49,64.646 43.906,68.002 39.467,71.718C34.9,75.537 30.275,80.587 24.08,83.067C20.99,84.311 17.535,84.902 13.576,84.405C9.615,83.915 5.164,82.329 0,79.335Z" style="fill:none;fill-rule:nonzero;stroke:rgb(35,31,32);stroke-width:1px;"/>
        </g>
        <g transform="matrix(1,0,0,1,849.864,858.696)">
            <path d="M0,46.026C7.693,41.563 13.369,37.532 17.848,34.345C22.322,31.147 25.602,28.771 28.354,27.229C33.838,24.118 37.25,24.4 42.682,26.505C40.576,21.072 40.295,17.661 43.408,12.174C44.949,9.423 47.324,6.144 50.525,1.67C53.709,-2.809 57.74,-8.486 62.205,-16.179C67.949,-12.862 71.898,-9.568 74.49,-6.231C77.086,-2.897 78.326,0.464 78.727,3.767C79.537,10.382 76.971,16.626 75.613,22.088C74.211,27.713 72.512,31.549 71.76,36.314C71.375,38.7 71.215,41.322 71.359,44.559C71.498,47.798 71.945,51.646 72.701,56.521C62.961,54.992 57.256,54.911 52.432,55.714C47.623,56.482 43.713,58.1 38.012,59.103C32.15,60.132 25.623,62.205 19.014,61.264C15.719,60.8 12.426,59.592 9.242,57.19C6.053,54.791 2.984,51.197 0,46.026Z" style="fill:none;fill-rule:nonzero;stroke:rgb(35,31,32);stroke-width:1px;"/>
        </g>
        <g transform="matrix(1,0,0,1,764.965,950.244)">
            <path d="M0,-22.813C8.926,-22.824 15.857,-23.46 21.328,-23.97C26.801,-24.494 30.822,-24.901 33.973,-24.854C37.121,-24.813 39.396,-24.328 41.34,-23.262C43.285,-22.199 44.896,-20.564 46.721,-18.304C47.176,-21.172 47.754,-23.395 48.91,-25.286C50.064,-27.18 51.793,-28.736 54.5,-30.341C57.205,-31.952 60.893,-33.605 65.889,-35.882C70.877,-38.17 77.193,-41.078 84.898,-45.522C88.225,-39.783 90.006,-34.959 90.59,-30.773C91.18,-26.587 90.578,-23.057 89.281,-19.996C86.684,-13.855 81.346,-9.725 77.441,-5.667C73.42,-1.493 70.027,0.983 66.994,4.736C65.467,6.61 64.014,8.801 62.518,11.676C61.016,14.551 59.475,18.111 57.684,22.709C53.836,19.617 50.707,17.327 47.947,15.606C45.191,13.881 42.811,12.73 40.529,11.862C35.982,10.118 31.785,9.554 26.352,7.562C20.764,5.511 14.078,4.026 8.83,-0.098C6.211,-2.154 3.967,-4.849 2.414,-8.522C0.855,-12.198 -0.004,-16.843 0,-22.813Z" style="fill:none;fill-rule:nonzero;stroke:rgb(35,31,32);stroke-width:1px;"/>
        </g>
        <g transform="matrix(1,0,0,1,680.068,972.953)">
            <path d="M0,-68.231C7.706,-63.787 14.021,-60.879 19.009,-58.591C24.005,-56.314 27.694,-54.661 30.397,-53.05C33.104,-51.445 34.835,-49.89 35.987,-47.995C37.145,-46.104 37.723,-43.881 38.177,-41.013C40.001,-43.273 41.612,-44.908 43.558,-45.971C45.503,-47.037 47.778,-47.522 50.925,-47.563C54.075,-47.61 58.097,-47.203 63.57,-46.679C69.042,-46.169 75.973,-45.533 84.897,-45.522C84.903,-38.891 84.028,-33.824 82.434,-29.906C80.848,-25.991 78.561,-23.233 75.907,-21.231C70.588,-17.21 63.901,-16.298 58.493,-14.735C52.925,-13.122 48.751,-12.669 44.25,-10.931C41.992,-10.068 39.64,-8.893 36.907,-7.15C34.173,-5.407 31.062,-3.092 27.214,0C25.423,-4.598 23.854,-8.146 22.322,-11.011C20.794,-13.88 19.303,-16.069 17.76,-17.96C14.69,-21.74 11.333,-24.323 7.617,-28.762C3.798,-33.331 -1.253,-37.955 -3.733,-44.152C-4.974,-47.241 -5.565,-50.696 -5.07,-54.656C-4.579,-58.615 -2.993,-63.066 0,-68.231Z" style="fill:none;fill-rule:nonzero;stroke:rgb(35,31,32);stroke-width:1px;"/>
        </g>
        <g transform="matrix(1,0,0,1,617.863,922.053)">
            <path d="M0,-79.537C4.465,-71.844 8.495,-66.167 11.681,-61.688C14.88,-57.213 17.256,-53.934 18.796,-51.183C21.909,-45.698 21.628,-42.286 19.523,-36.854C24.955,-38.959 28.367,-39.239 33.851,-36.128C36.604,-34.587 39.884,-32.212 44.357,-29.012C48.836,-25.825 54.513,-21.795 62.206,-17.331C58.889,-11.586 55.595,-7.639 52.257,-5.044C48.923,-2.448 45.562,-1.21 42.261,-0.808C35.645,0 29.402,-2.566 23.938,-3.925C18.314,-5.324 14.477,-7.025 9.713,-7.776C7.329,-8.161 4.705,-8.32 1.468,-8.179C-1.771,-8.038 -5.62,-7.592 -10.495,-6.836C-8.964,-16.574 -8.884,-22.28 -9.688,-27.104C-10.455,-31.911 -12.072,-35.824 -13.076,-41.523C-14.104,-47.387 -16.176,-53.912 -15.238,-60.521C-14.774,-63.818 -13.565,-67.107 -11.162,-70.295C-8.764,-73.482 -5.169,-76.552 0,-79.537Z" style="fill:none;fill-rule:nonzero;stroke:rgb(35,31,32);stroke-width:1px;"/>
        </g>
        <g transform="matrix(1,0,0,1,595.154,848.793)">
            <path d="M0,-91.174C0.01,-82.248 0.649,-75.317 1.157,-69.847C1.681,-64.373 2.087,-60.351 2.041,-57.201C2,-54.055 1.516,-51.78 0.45,-49.833C-0.613,-47.89 -2.25,-46.278 -4.509,-44.454C-1.64,-44 0.582,-43.42 2.473,-42.266C4.368,-41.11 5.921,-39.382 7.527,-36.675C9.139,-33.971 10.792,-30.282 13.07,-25.284C15.357,-20.298 18.263,-13.981 22.708,-6.278C16.97,-2.951 12.146,-1.167 7.96,-0.584C3.776,0.005 0.245,-0.596 -2.815,-1.894C-8.957,-4.488 -13.088,-9.828 -17.145,-13.734C-21.321,-17.755 -23.796,-21.148 -27.547,-24.18C-29.424,-25.707 -31.614,-27.161 -34.49,-28.657C-37.365,-30.159 -40.924,-31.698 -45.522,-33.493C-42.43,-37.338 -40.139,-40.467 -38.419,-43.226C-36.696,-45.982 -35.543,-48.363 -34.675,-50.646C-32.93,-55.193 -32.366,-59.39 -30.375,-64.823C-28.325,-70.411 -26.841,-77.096 -22.716,-82.343C-20.661,-84.964 -17.966,-87.206 -14.291,-88.761C-10.616,-90.32 -5.969,-91.179 0,-91.174Z" style="fill:none;fill-rule:nonzero;stroke:rgb(35,31,32);stroke-width:1px;"/>
        </g>
    </g>
    <g id="Layer-7" serif:id="Layer 7" transform="matrix(4.16667,0,0,4.16667,0,0)">
        <g transform="matrix(0.873822,-0.486247,-0.486247,-0.873822,1045.21,903.67)">
            <path d="M-12.815,109.033C56.746,-7.793 266.732,-2.096 453.366,109.033" style="fill:none;fill-rule:nonzero;stroke:rgb(35,31,32);stroke-width:1px;"/>
        </g>
        <g transform="matrix(0.857523,0.514446,0.514446,-0.857523,913.166,887.602)">
            <path d="M-33.272,-120.136C36.675,-236.73 247.512,-231.881 433.778,-120.136" style="fill:none;fill-rule:nonzero;stroke:rgb(35,31,32);stroke-width:1px;"/>
        </g>
        <g transform="matrix(0.999859,0.0167924,0.0167924,-0.999859,924.41,911.097)">
            <path d="M-0.965,-3.923C67.001,-121.683 277.188,-112.503 465.317,-3.923" style="fill:none;fill-rule:nonzero;stroke:rgb(35,31,32);stroke-width:1px;"/>
        </g>
        <g transform="matrix(0.485397,0.874294,0.874294,-0.485397,925.7,1009.53)">
            <path d="M-137.3,-174.036C-67.117,-290.489 142.526,-286.157 328.566,-174.036" style="fill:none;fill-rule:nonzero;stroke:rgb(35,31,32);stroke-width:1px;"/>
        </g>
        <g transform="matrix(-0.0171181,0.999853,0.999853,0.0171181,780.456,1211.94)">
            <path d="M-293.32,-178.581C-223.368,-295.171 -12.593,-290.334 173.67,-178.581" style="fill:none;fill-rule:nonzero;stroke:rgb(35,31,32);stroke-width:1px;"/>
        </g>
        <g transform="matrix(-0.513172,0.858286,0.858286,0.513172,537.648,1222.12)">
            <path d="M-353.97,-200.042C-283.737,-316.463 -72.964,-312.243 113.027,-200.042" style="fill:none;fill-rule:nonzero;stroke:rgb(35,31,32);stroke-width:1px;"/>
        </g>
        <g transform="matrix(-0.875347,0.483495,0.483495,0.875347,203.693,946.903)">
            <path d="M-421.631,-48.951C-351.703,-165.558 -140.661,-160.667 45.624,-48.951" style="fill:none;fill-rule:nonzero;stroke:rgb(35,31,32);stroke-width:1px;"/>
        </g>
        <g transform="matrix(-0.856458,-0.516216,-0.516216,0.856458,396.954,214.349)">
            <path d="M-433.846,120.637C-363.658,4.188 -152.49,8.508 33.545,120.638" style="fill:none;fill-rule:nonzero;stroke:rgb(35,31,32);stroke-width:1px;"/>
        </g>
        <g transform="matrix(-0.999878,-0.0156289,-0.0156289,0.999878,139.518,477.112)">
            <path d="M-468.567,115.223C-400.738,-2.616 -189.098,6.862 -0.843,115.223" style="fill:none;fill-rule:nonzero;stroke:rgb(35,31,32);stroke-width:1px;"/>
        </g>
        <g transform="matrix(-0.486,-0.873959,-0.873959,0.486,882.269,168.373)">
            <path d="M-296.546,233.615C-226.443,117.114 -15.796,121.623 170.321,233.615" style="fill:none;fill-rule:nonzero;stroke:rgb(35,31,32);stroke-width:1px;"/>
        </g>
        <g transform="matrix(0.0172554,-0.999851,-0.999851,-0.0172554,1213.51,427.966)">
            <path d="M-175.525,288.278C-105.557,171.697 105.156,176.499 291.403,288.278" style="fill:none;fill-rule:nonzero;stroke:rgb(35,31,32);stroke-width:1px;"/>
        </g>
        <g transform="matrix(0.513172,-0.858286,-0.858286,-0.513172,1212.12,704.088)">
            <path d="M-113.465,200.776C-43.232,84.354 167.541,88.574 353.532,200.776" style="fill:none;fill-rule:nonzero;stroke:rgb(35,31,32);stroke-width:1px;"/>
        </g>
        <g transform="matrix(-0.878364,-0.477992,-0.477992,0.878364,200.8,571.824)">
            <path d="M-423.113,47.712C-352.454,163.878 -140.81,160.594 44.77,47.712" style="fill:none;fill-rule:nonzero;stroke:rgb(35,31,32);stroke-width:1px;"/>
        </g>
        <g transform="matrix(-0.854433,0.519562,0.519562,0.854433,400.627,1302.89)">
            <path d="M-432.674,-121.224C-362.031,-5.05 -151.63,-8.368 33.964,-121.224" style="fill:none;fill-rule:nonzero;stroke:rgb(35,31,32);stroke-width:1px;"/>
        </g>
        <g transform="matrix(-0.999713,0.0239603,0.0239603,0.999713,141.907,1040.59)">
            <path d="M-467.995,-113.278C-399.187,3.992 -188.569,-3.351 -1.223,-113.278" style="fill:none;fill-rule:nonzero;stroke:rgb(35,31,32);stroke-width:1px;"/>
        </g>
        <g transform="matrix(-0.480184,0.877168,0.877168,0.480184,887.403,1345.15)">
            <path d="M-295.101,-234.304C-224.226,-118.272 -13.989,-121.078 171.381,-234.304" style="fill:none;fill-rule:nonzero;stroke:rgb(35,31,32);stroke-width:1px;"/>
        </g>
        <g transform="matrix(0.0195183,0.99981,0.99981,-0.0195183,1214.77,1084.68)">
            <path d="M-175.674,-287.772C-105.443,-171.35 105.33,-175.571 291.324,-287.772" style="fill:none;fill-rule:nonzero;stroke:rgb(35,31,32);stroke-width:1px;"/>
        </g>
        <g transform="matrix(0.519103,0.854712,0.854712,-0.519103,1210.5,805.531)">
            <path d="M-112.298,-200.321C-41.26,-84.388 170.382,-86.835 355.592,-200.321" style="fill:none;fill-rule:nonzero;stroke:rgb(35,31,32);stroke-width:1px;"/>
        </g>
        <g transform="matrix(0.876128,0.482079,0.482079,-0.876128,1044.72,609.181)">
            <path d="M-12.402,-108.072C57.714,8.421 267.394,3.944 453.497,-108.072" style="fill:none;fill-rule:nonzero;stroke:rgb(35,31,32);stroke-width:1px;"/>
        </g>
        <g transform="matrix(0.853867,-0.52049,-0.52049,-0.853867,913.862,626.887)">
            <path d="M-34.127,121.554C36.642,237.651 247.476,234.611 432.947,121.554" style="fill:none;fill-rule:nonzero;stroke:rgb(35,31,32);stroke-width:1px;"/>
        </g>
        <g transform="matrix(0.999731,-0.0232072,-0.0232072,-0.999731,923.092,603.751)">
            <path d="M-1.317,5.434C67.404,122.756 278.308,115.22 465.736,5.434" style="fill:none;fill-rule:nonzero;stroke:rgb(35,31,32);stroke-width:1px;"/>
        </g>
        <g transform="matrix(0.4799,-0.877323,-0.877323,-0.4799,925.861,504.74)">
            <path d="M-139.503,175.882C-68.591,291.892 143.865,289.168 329.197,175.882" style="fill:none;fill-rule:nonzero;stroke:rgb(35,31,32);stroke-width:1px;"/>
        </g>
        <g transform="matrix(-0.0242277,-0.999706,-0.999706,0.0242277,778.311,301.463)">
            <path d="M-295.099,179.516C-224.319,295.607 -12.874,292.592 172.589,179.516" style="fill:none;fill-rule:nonzero;stroke:rgb(35,31,32);stroke-width:1px;"/>
        </g>
        <g transform="matrix(-0.520976,-0.853571,-0.853571,0.520976,533.191,292.298)">
            <path d="M-356.474,199.322C-285.182,315.099 -73.546,313.215 111.414,199.322" style="fill:none;fill-rule:nonzero;stroke:rgb(35,31,32);stroke-width:1px;"/>
        </g>
    </g>
    <g id="Layer-8" serif:id="Layer 8" transform="matrix(4.16667,0,0,4.16667,0,0)">
        <g transform="matrix(0,-1,-1,0,245.026,209.831)">
            <circle cx="-34" cy="0" r="34" style="fill:none;stroke:rgb(35,31,32);stroke-width:1px;"/>
        </g>
        <g transform="matrix(0,-1,-1,0,57.5352,538.315)">
            <circle cx="-34" cy="0" r="34" style="fill:none;stroke:rgb(35,31,32);stroke-width:1px;"/>
        </g>
        <g transform="matrix(0,-1,-1,0,60.5352,916.296)">
            <circle cx="-34" cy="0" r="34" style="fill:none;stroke:rgb(35,31,32);stroke-width:1px;"/>
        </g>
        <g transform="matrix(0,-1,-1,0,573.41,17.7159)">
            <circle cx="-34" cy="0" r="34" style="fill:none;stroke:rgb(35,31,32);stroke-width:1px;"/>
        </g>
        <g transform="matrix(0,-1,-1,0,950.41,14.7159)">
            <circle cx="-34" cy="0" r="34" style="fill:none;stroke:rgb(35,31,32);stroke-width:1px;"/>
        </g>
        <g transform="matrix(0,-1,-1,0,1280.41,205.716)">
            <circle cx="-34" cy="0" r="34" style="fill:none;stroke:rgb(35,31,32);stroke-width:1px;"/>
        </g>
        <g transform="matrix(0,-1,-1,0,1469.41,531.716)">
            <circle cx="-34" cy="0" r="34" style="fill:none;stroke:rgb(35,31,32);stroke-width:1px;"/>
        </g>
        <g transform="matrix(0,-1,-1,0,1471.41,909.716)">
            <circle cx="-34" cy="0" r="34" style="fill:none;stroke:rgb(35,31,32);stroke-width:1px;"/>
        </g>
        <g transform="matrix(0,-1,-1,0,1282.41,1238.72)">
            <circle cx="-34" cy="0" r="34" style="fill:none;stroke:rgb(35,31,32);stroke-width:1px;"/>
        </g>
        <g transform="matrix(0,-1,-1,0,956.41,1428.72)">
            <circle cx="-34" cy="0" r="34" style="fill:none;stroke:rgb(35,31,32);stroke-width:1px;"/>
        </g>
        <g transform="matrix(0,-1,-1,0,578.41,1430.72)">
            <circle cx="-34" cy="0" r="34" style="fill:none;stroke:rgb(35,31,32);stroke-width:1px;"/>
        </g>
        <g transform="matrix(0,-1,-1,0,249.41,1242.72)">
            <circle cx="-34" cy="0" r="34" style="fill:none;stroke:rgb(35,31,32);stroke-width:1px;"/>
        </g>
    </g>
    <g id="Layer-9" serif:id="Layer 9">
    </g>
    <g id="Layer-6" serif:id="Layer 6" transform="matrix(4.16667,0,0,4.16667,0,0)">
        <g transform="matrix(0,-1,-1,0,765.41,607.716)">
            <path d="M-150,-150C-232.843,-150 -300,-82.843 -300,0C-300,82.843 -232.843,150 -150,150C-67.157,150 0,82.843 0,0C0,-82.843 -67.157,-150 -150,-150" style="fill:white;fill-rule:nonzero;"/>
        </g>
        <g transform="matrix(0,-1,-1,0,765.41,607.716)">
            <circle cx="-150" cy="0" r="150" style="fill:none;stroke:rgb(35,31,32);stroke-width:1px;"/>
        </g>
        <g transform="matrix(1,0,0,1,807.052,829.67)">
            <path d="M0,-144.358L-83.306,-144.358L-124.979,-72.178L-83.306,0L0,0L41.673,-72.178L0,-144.358Z" style="fill:none;fill-rule:nonzero;stroke:rgb(35,31,32);stroke-width:1px;"/>
        </g>
        <g transform="matrix(1,0,0,1,807.052,685.313)">
            <path d="M0,144.357L-41.652,216.504L-83.306,144.357L-166.652,144.357L-124.979,72.178L-166.652,-0.001L-83.306,-0.001L-41.652,-72.147L0,-0.001L83.346,-0.001L41.673,72.178L83.346,144.357L0,144.357ZM55.913,72.178L94.025,6.165L104.706,-12.333L7.121,-12.333L-30.973,-78.314L-41.652,-96.811L-52.332,-78.314L-90.426,-12.333L-188.011,-12.333L-177.332,6.165L-139.219,72.178L-177.332,138.191L-188.011,156.689L-90.426,156.689L-52.332,222.67L-41.652,241.168L-30.973,222.67L7.121,156.689L104.706,156.689L94.025,138.191L55.913,72.178Z" style="fill:none;fill-rule:nonzero;stroke:rgb(35,31,32);stroke-width:1px;"/>
        </g>
    </g>
    <g transform="matrix(4.16667,0,0,4.16667,3611.27,2911.94)">
        <g id="Layer-2" serif:id="Layer 2">
            <path d="M0,117.508L-67.844,117.508L-101.74,176.216L-135.635,117.508L-203.479,117.508L-169.557,58.754L-203.479,0.001L-135.636,0.001L-101.74,-58.708L-67.844,0.001L0,0.001L-33.922,58.754L0,117.508ZM-101.74,-91.246C-184.583,-91.246 -251.74,-24.089 -251.74,58.754C-251.74,141.597 -184.583,208.754 -101.74,208.754C-18.896,208.754 48.26,141.597 48.26,58.754C48.26,-24.089 -18.896,-91.246 -101.74,-91.246Z" style="fill:none;fill-rule:nonzero;stroke:rgb(35,31,32);stroke-width:1px;"/>
        </g>
    </g>
</svg>
