<?xml version="1.0" encoding="UTF-8" standalone="no"?>
<!DOCTYPE svg PUBLIC "-//W3C//DTD SVG 1.1//EN" "http://www.w3.org/Graphics/SVG/1.1/DTD/svg11.dtd">
<svg width="100%" height="100%" viewBox="0 0 3544 3544" version="1.1" xmlns="http://www.w3.org/2000/svg" xmlns:xlink="http://www.w3.org/1999/xlink" xml:space="preserve" xmlns:serif="http://www.serif.com/" style="fill-rule:evenodd;clip-rule:evenodd;stroke-miterlimit:10;">
    <g id="Heart" transform="matrix(2.87895,0,0,2.87895,-240.037,-1173.44)">
        <g transform="matrix(1.09269,4.02084,-4.02084,1.09269,2441.88,-95.0021)">
            <path d="M149.302,332.808C71.177,332.812 7.967,396.018 7.967,474.143C7.966,552.26 71.177,615.478 149.302,615.478C227.427,615.482 290.639,552.268 290.637,474.143C290.641,396.019 227.428,332.807 149.302,332.808Z" style="fill:none;fill-rule:nonzero;stroke:rgb(35,31,32);stroke-width:0.5px;"/>
        </g>
        <g transform="matrix(1.09276,4.02082,-4.02082,1.09276,2441.85,-95.0291)">
            <path d="M149.302,354.545C83.195,354.548 29.705,408.024 29.708,474.139C29.709,540.255 83.183,593.737 149.302,593.738C215.419,593.734 268.897,540.259 268.898,474.14C268.895,408.032 215.418,354.545 149.302,354.545Z" style="fill:none;fill-rule:nonzero;stroke:rgb(35,31,32);stroke-width:0.5px;"/>
        </g>
        <g transform="matrix(4.16667,0,0,-4.16667,76.4766,2998.97)">
            <path d="M243.734,499.801C229.547,552.016 175.852,582.758 123.645,568.575C71.43,554.387 40.688,500.692 54.871,448.477C69.059,396.262 122.754,365.52 174.969,379.704C227.184,393.891 257.926,447.587 243.742,499.801L243.734,499.801Z" style="fill:none;fill-rule:nonzero;stroke:rgb(35,31,32);stroke-width:0.5px;"/>
        </g>
        <g transform="matrix(4.16667,0,0,-4.16667,76.4766,2998.94)">
            <path d="M222.758,494.093C211.719,534.71 169.965,558.621 129.344,547.589C88.727,536.55 64.816,494.796 75.848,454.175C86.887,413.558 128.641,389.648 169.262,400.679C209.887,411.718 233.789,453.472 222.758,494.097L222.758,494.093Z" style="fill:none;fill-rule:nonzero;stroke:rgb(35,31,32);stroke-width:0.5px;"/>
        </g>
        <g transform="matrix(1.09231,4.02094,-4.02094,1.09231,2441.95,-94.8595)">
            <circle cx="149.303" cy="474.135" r="54.38" style="fill:none;stroke:rgb(35,31,32);stroke-width:0.5px;"/>
        </g>
        <g transform="matrix(-4.02086,1.0926,-1.0926,-4.02086,1816.94,2766.68)">
            <ellipse cx="149.302" cy="474.135" rx="43.48" ry="43.481" style="fill:none;stroke:rgb(35,31,32);stroke-width:0.5px;"/>
        </g>
        <g transform="matrix(1.09223,4.02096,-4.02096,1.09223,2441.98,-94.8289)">
            <circle cx="149.305" cy="474.137" r="32.641" style="fill:none;stroke:rgb(35,31,32);stroke-width:0.5px;"/>
        </g>
        <g transform="matrix(-4.02084,1.09268,-1.09268,-4.02084,1816.97,2766.66)">
            <circle cx="149.303" cy="474.135" r="21.739" style="fill:none;stroke:rgb(35,31,32);stroke-width:0.5px;"/>
        </g>
        <g transform="matrix(1.09205,4.02101,-4.02101,1.09205,2442.03,-94.736)">
            <circle cx="149.301" cy="474.136" r="10.906" style="fill:none;stroke:rgb(35,31,32);stroke-width:0.5px;"/>
        </g>
        <g transform="matrix(1.09253,4.02088,-4.02088,1.09253,2773.05,40.1884)">
            <path d="M97.165,542.33L238.495,542.33" style="fill:none;fill-rule:nonzero;stroke:rgb(35,31,32);stroke-width:0.5px;"/>
        </g>
        <g transform="matrix(2.9564,2.93612,-2.93612,2.9564,1856.23,-903.686)">
            <path d="M128.771,523.943L270.132,523.943" style="fill:none;fill-rule:nonzero;stroke:rgb(35,31,32);stroke-width:0.5px;"/>
        </g>
        <g transform="matrix(4.02859,1.06377,-1.06377,4.02859,630.096,-1115.74)">
            <path d="M146.959,492.182L288.319,492.182" style="fill:none;fill-rule:nonzero;stroke:rgb(35,31,32);stroke-width:0.5px;"/>
        </g>
        <g transform="matrix(4.02088,-1.09253,1.09253,4.02088,-389.58,-648.142)">
            <path d="M146.828,455.608L288.164,455.608" style="fill:none;fill-rule:nonzero;stroke:rgb(35,31,32);stroke-width:0.5px;"/>
        </g>
        <g transform="matrix(2.93606,-2.95646,2.95646,2.93606,-932.002,158.224)">
            <path d="M128.426,423.987L269.785,423.987" style="fill:none;fill-rule:nonzero;stroke:rgb(35,31,32);stroke-width:0.5px;"/>
        </g>
        <g transform="matrix(1.06377,-4.02859,4.02859,1.06377,-1039.06,981.137)">
            <path d="M96.666,405.799L238.026,405.799" style="fill:none;fill-rule:nonzero;stroke:rgb(35,31,32);stroke-width:0.5px;"/>
        </g>
        <g transform="matrix(-1.09263,-4.02085,4.02085,-1.09263,-867.999,1708.59)">
            <path d="M60.101,405.942L201.438,405.942" style="fill:none;fill-rule:nonzero;stroke:rgb(35,31,32);stroke-width:0.5px;"/>
        </g>
        <g transform="matrix(-2.95639,-2.93614,2.93614,-2.95639,-463.151,2361.48)">
            <path d="M28.474,424.332L169.831,424.332" style="fill:none;fill-rule:nonzero;stroke:rgb(35,31,32);stroke-width:0.5px;"/>
        </g>
        <g transform="matrix(-4.02858,-1.0638,1.0638,-4.02858,254.815,2871.73)">
            <path d="M10.287,456.092L151.643,456.092" style="fill:none;fill-rule:nonzero;stroke:rgb(35,31,32);stroke-width:0.5px;"/>
        </g>
        <g transform="matrix(-4.02085,1.09263,-1.09263,-4.02085,1278.85,2992.93)">
            <path d="M10.441,492.668L151.774,492.668" style="fill:none;fill-rule:nonzero;stroke:rgb(35,31,32);stroke-width:0.5px;"/>
        </g>
        <g transform="matrix(-2.93597,2.95655,-2.95655,-2.93597,2333.26,2477.48)">
            <path d="M28.819,524.289L170.177,524.289" style="fill:none;fill-rule:nonzero;stroke:rgb(35,31,32);stroke-width:0.5px;"/>
        </g>
        <g transform="matrix(-1.0638,4.02858,-4.02858,-1.0638,2948.4,1356.43)">
            <path d="M60.578,542.473L201.934,542.473" style="fill:none;fill-rule:nonzero;stroke:rgb(35,31,32);stroke-width:0.5px;"/>
        </g>
        <g transform="matrix(2.08131,3.60961,-3.60961,2.08131,2394.01,-502.565)">
            <path d="M114.046,535.332L255.38,535.332" style="fill:none;fill-rule:nonzero;stroke:rgb(35,31,32);stroke-width:0.5px;"/>
        </g>
        <g transform="matrix(3.60708,2.08569,-2.08569,3.60708,1256.97,-1106.33)">
            <path d="M139.921,509.494L281.286,509.494" style="fill:none;fill-rule:nonzero;stroke:rgb(35,31,32);stroke-width:0.5px;"/>
        </g>
        <g transform="matrix(4.16667,0.00197488,-0.00197488,4.16667,77.4131,-952.618)">
            <path d="M149.414,474.147L290.773,474.147" style="fill:none;fill-rule:nonzero;stroke:rgb(35,31,32);stroke-width:0.5px;"/>
        </g>
        <g transform="matrix(3.60967,-2.0812,2.0812,3.60967,-719.459,-269.39)">
            <path d="M139.967,438.814L281.306,438.815" style="fill:none;fill-rule:nonzero;stroke:rgb(35,31,32);stroke-width:0.5px;"/>
        </g>
        <g transform="matrix(2.08579,-3.60702,3.60702,2.08579,-1028.43,573.628)">
            <path d="M114.116,412.928L255.474,412.928" style="fill:none;fill-rule:nonzero;stroke:rgb(35,31,32);stroke-width:0.5px;"/>
        </g>
        <g transform="matrix(-2.08114,-3.6097,3.6097,-2.08114,-700.956,2039.44)">
            <path d="M43.455,412.895L184.783,412.895" style="fill:none;fill-rule:nonzero;stroke:rgb(35,31,32);stroke-width:0.5px;"/>
        </g>
        <g transform="matrix(-3.607,-2.08582,2.08582,-3.607,-152.764,2642.41)">
            <path d="M17.554,438.732L158.907,438.732" style="fill:none;fill-rule:nonzero;stroke:rgb(35,31,32);stroke-width:0.5px;"/>
        </g>
        <g transform="matrix(-4.16667,-0.0019455,0.0019455,-4.16667,731.704,2998.64)">
            <path d="M8.062,474.08L149.414,474.08" style="fill:none;fill-rule:nonzero;stroke:rgb(35,31,32);stroke-width:0.5px;"/>
        </g>
        <g transform="matrix(-3.6096,2.08132,-2.08132,-3.6096,1822.56,2825.58)">
            <path d="M17.529,509.412L158.862,509.412" style="fill:none;fill-rule:nonzero;stroke:rgb(35,31,32);stroke-width:0.5px;"/>
        </g>
        <g transform="matrix(-2.08561,3.60712,-3.60712,-2.08561,2720.36,1983.31)">
            <path d="M43.36,535.299L184.714,535.299" style="fill:none;fill-rule:nonzero;stroke:rgb(35,31,32);stroke-width:0.5px;"/>
        </g>
        <g transform="matrix(-0.00194539,4.16667,-4.16667,-0.00194539,2969.16,696.426)">
            <path d="M78.701,544.793L220.061,544.793" style="fill:none;fill-rule:nonzero;stroke:rgb(35,31,32);stroke-width:0.5px;"/>
        </g>
        <g transform="matrix(-0.0134165,-4.16665,4.16665,-0.0134165,-922.635,1298.08)">
            <path d="M92.281,389.539L206.258,389.539" style="fill:none;fill-rule:nonzero;stroke:rgb(35,31,32);stroke-width:0.5px;"/>
        </g>
        <g transform="matrix(4.16667,0,0,-4.16667,76.4766,2929.78)">
            <path d="M122.203,473.145C121.387,471.719 120.848,470.559 120.426,469.633C120.008,468.711 119.699,468.031 119.398,467.535C119.102,467.031 118.816,466.719 118.469,466.5C118.117,466.281 117.711,466.176 117.18,466.094C117.602,465.758 117.898,465.457 118.094,465.106C118.289,464.746 118.379,464.324 118.387,463.746C118.395,463.16 118.32,462.418 118.223,461.414C118.133,460.402 118.012,459.125 118.004,457.477C116.781,457.477 115.844,457.633 115.117,457.934C114.398,458.227 113.887,458.649 113.512,459.141C112.77,460.125 112.605,461.363 112.312,462.36C112.012,463.387 111.93,464.16 111.609,464.992C111.449,465.41 111.234,465.848 110.91,466.348C110.586,466.852 110.16,467.43 109.59,468.141C110.438,468.473 111.098,468.766 111.621,469.051C112.156,469.336 112.551,469.606 112.906,469.891C113.602,470.461 114.082,471.074 114.898,471.766C115.738,472.469 116.594,473.399 117.742,473.856C118.312,474.09 118.949,474.195 119.684,474.106C120.422,474.016 121.238,473.723 122.191,473.168L122.203,473.145Z" style="fill:none;fill-rule:nonzero;stroke:rgb(35,31,32);stroke-width:0.5px;"/>
        </g>
        <g transform="matrix(4.16667,0,0,-4.16667,76.4766,2808.65)">
            <path d="M133.695,455.554C132.277,454.73 131.227,453.988 130.395,453.398C129.57,452.804 128.961,452.367 128.453,452.085C127.441,451.507 126.809,451.558 125.805,451.949C126.195,450.945 126.246,450.312 125.672,449.3C125.387,448.792 124.949,448.191 124.359,447.359C123.766,446.535 123.023,445.484 122.199,444.066C121.141,444.679 120.406,445.289 119.926,445.902C119.445,446.519 119.219,447.14 119.145,447.749C118.996,448.972 119.469,450.124 119.723,451.132C119.977,452.167 120.293,452.878 120.434,453.757C120.512,454.199 120.531,454.679 120.512,455.277C120.48,455.878 120.406,456.585 120.262,457.492C122.062,457.206 123.113,457.191 124.004,457.339C124.891,457.484 125.617,457.785 126.668,457.964C127.746,458.152 128.953,458.535 130.176,458.363C130.785,458.273 131.391,458.054 131.984,457.613C132.578,457.167 133.141,456.499 133.695,455.55L133.695,455.554Z" style="fill:none;fill-rule:nonzero;stroke:rgb(35,31,32);stroke-width:0.5px;"/>
        </g>
        <g transform="matrix(4.16667,0,0,-4.16667,76.4766,2720.7)">
            <path d="M149.371,438.64C147.719,438.64 146.445,438.519 145.434,438.43C144.422,438.332 143.676,438.258 143.102,438.265C142.516,438.265 142.094,438.363 141.742,438.558C141.383,438.754 141.082,439.051 140.746,439.472C140.664,438.941 140.559,438.535 140.34,438.183C140.129,437.828 139.809,437.543 139.305,437.246C138.801,436.945 138.129,436.644 137.203,436.226C136.281,435.804 135.121,435.265 133.695,434.445C133.078,435.504 132.75,436.398 132.645,437.168C132.539,437.941 132.645,438.594 132.887,439.156C133.363,440.289 134.348,441.054 135.074,441.804C135.816,442.578 136.441,443.035 137.004,443.726C137.289,444.07 137.551,444.476 137.828,445.008C138.105,445.539 138.391,446.191 138.719,447.047C139.434,446.476 140.012,446.051 140.52,445.734C141.031,445.418 141.465,445.203 141.891,445.043C142.734,444.722 143.504,444.617 144.512,444.25C145.547,443.875 146.773,443.597 147.742,442.832C148.223,442.449 148.641,441.953 148.926,441.281C149.211,440.597 149.379,439.742 149.371,438.64Z" style="fill:none;fill-rule:nonzero;stroke:rgb(35,31,32);stroke-width:0.5px;"/>
        </g>
        <g transform="matrix(4.16667,0,0,-4.16667,76.4766,2720.64)">
            <path d="M165.047,434.43C163.621,435.25 162.457,435.789 161.535,436.211C160.613,436.629 159.93,436.938 159.434,437.231C158.934,437.528 158.617,437.813 158.398,438.168C158.184,438.512 158.078,438.926 157.996,439.457C157.656,439.036 157.359,438.739 157.004,438.543C156.645,438.348 156.227,438.258 155.648,438.25C155.062,438.243 154.32,438.317 153.316,438.415C152.301,438.512 151.027,438.625 149.379,438.633C149.379,439.856 149.535,440.793 149.836,441.52C150.129,442.239 150.547,442.75 151.043,443.125C152.023,443.868 153.262,444.032 154.262,444.325C155.289,444.625 156.059,444.707 156.891,445.028C157.312,445.188 157.738,445.403 158.25,445.727C158.754,446.051 159.328,446.477 160.043,447.047C160.371,446.2 160.664,445.539 160.949,445.016C161.234,444.481 161.504,444.086 161.789,443.731C162.359,443.036 162.977,442.555 163.664,441.739C164.371,440.899 165.301,440.043 165.758,438.895C165.988,438.325 166.094,437.688 166.004,436.954C165.914,436.223 165.621,435.399 165.066,434.446L165.047,434.43Z" style="fill:none;fill-rule:nonzero;stroke:rgb(35,31,32);stroke-width:0.5px;"/>
        </g>
        <g transform="matrix(4.16667,0,0,-4.16667,76.4766,2807.76)">
            <path d="M176.535,443.86C175.711,445.278 174.969,446.328 174.375,447.153C173.781,447.977 173.348,448.586 173.062,449.094C172.484,450.106 172.539,450.739 172.926,451.742C171.922,451.352 171.293,451.301 170.281,451.875C169.77,452.16 169.172,452.598 168.336,453.188C167.512,453.782 166.461,454.524 165.047,455.348C165.66,456.407 166.266,457.141 166.883,457.614C167.496,458.094 168.121,458.321 168.727,458.395C169.949,458.543 171.105,458.071 172.109,457.817C173.145,457.563 173.859,457.246 174.734,457.106C175.176,457.035 175.656,457.008 176.258,457.028C176.859,457.051 177.57,457.133 178.469,457.278C178.184,455.477 178.172,454.426 178.32,453.535C178.461,452.649 178.762,451.922 178.941,450.871C179.129,449.793 179.512,448.586 179.34,447.364C179.25,446.754 179.031,446.149 178.59,445.555C178.148,444.961 177.48,444.399 176.527,443.844L176.535,443.86Z" style="fill:none;fill-rule:nonzero;stroke:rgb(35,31,32);stroke-width:0.5px;"/>
        </g>
        <g transform="matrix(4.16667,0,0,-4.16667,76.4766,2929.51)">
            <path d="M180.727,457.395C180.727,459.047 180.609,460.329 180.516,461.333C180.422,462.344 180.344,463.09 180.352,463.665C180.352,464.251 180.449,464.672 180.645,465.024C180.84,465.383 181.141,465.684 181.559,466.012C181.027,466.094 180.621,466.2 180.27,466.418C179.918,466.629 179.633,466.95 179.34,467.454C179.039,467.958 178.738,468.629 178.312,469.555C177.891,470.477 177.352,471.637 176.535,473.063C177.594,473.68 178.484,474.008 179.258,474.114C180.031,474.227 180.684,474.114 181.246,473.872C182.379,473.395 183.141,472.411 183.891,471.684C184.664,470.942 185.121,470.309 185.812,469.754C186.156,469.469 186.562,469.208 187.094,468.93C187.629,468.653 188.281,468.368 189.137,468.04C188.566,467.325 188.137,466.747 187.824,466.239C187.508,465.727 187.289,465.286 187.133,464.868C186.809,464.028 186.703,463.254 186.336,462.247C185.961,461.215 185.684,459.985 184.922,459.016C184.539,458.536 184.043,458.118 183.367,457.833C182.691,457.547 181.828,457.379 180.727,457.387L180.727,457.395Z" style="fill:none;fill-rule:nonzero;stroke:rgb(35,31,32);stroke-width:0.5px;"/>
        </g>
        <g transform="matrix(4.16667,0,0,-4.16667,76.4766,3069.25)">
            <path d="M176.535,475.258C177.352,476.684 177.891,477.848 178.312,478.77C178.734,479.692 179.039,480.375 179.34,480.872C179.633,481.372 179.926,481.688 180.27,481.907C180.613,482.122 181.027,482.227 181.559,482.309C181.141,482.649 180.84,482.946 180.645,483.301C180.449,483.661 180.359,484.079 180.352,484.657C180.344,485.243 180.422,485.985 180.516,486.989C180.609,488.004 180.727,489.278 180.727,490.926C181.949,490.926 182.887,490.77 183.613,490.469C184.336,490.176 184.844,489.758 185.219,489.262C185.961,488.282 186.129,487.043 186.422,486.043C186.719,485.016 186.801,484.247 187.125,483.411C187.281,482.993 187.5,482.567 187.824,482.055C188.145,481.551 188.574,480.973 189.141,480.27C188.297,479.942 187.637,479.649 187.109,479.364C186.578,479.079 186.172,478.809 185.828,478.524C185.129,477.954 184.648,477.336 183.832,476.649C182.992,475.942 182.137,475.012 180.988,474.555C180.422,474.321 179.781,474.219 179.047,474.309C178.32,474.399 177.496,474.692 176.543,475.247L176.535,475.258Z" style="fill:none;fill-rule:nonzero;stroke:rgb(35,31,32);stroke-width:0.5px;"/>
        </g>
        <g transform="matrix(4.16667,0,0,-4.16667,76.4766,3190.48)">
            <path d="M165.047,492.864C166.461,493.688 167.512,494.43 168.336,495.024C169.164,495.618 169.77,496.051 170.281,496.337C171.293,496.915 171.922,496.86 172.926,496.473C172.539,497.477 172.484,498.106 173.062,499.118C173.348,499.63 173.781,500.235 174.375,501.063C174.969,501.887 175.711,502.938 176.535,504.352C177.594,503.739 178.328,503.13 178.801,502.516C179.281,501.903 179.504,501.278 179.578,500.673C179.73,499.45 179.258,498.294 179.004,497.29C178.738,496.247 178.434,495.54 178.289,494.665C178.223,494.223 178.191,493.743 178.215,493.141C178.238,492.54 178.32,491.829 178.461,490.93C176.664,491.216 175.613,491.227 174.719,491.079C173.836,490.938 173.109,490.637 172.059,490.458C170.977,490.27 169.77,489.887 168.547,490.059C167.941,490.141 167.332,490.368 166.738,490.809C166.148,491.251 165.586,491.919 165.031,492.872L165.047,492.864Z" style="fill:none;fill-rule:nonzero;stroke:rgb(35,31,32);stroke-width:0.5px;"/>
        </g>
        <g transform="matrix(4.16667,0,0,-4.16667,76.4766,3278.45)">
            <path d="M149.371,509.786C151.02,509.786 152.297,509.903 153.309,510C154.32,510.098 155.062,510.176 155.641,510.168C156.227,510.168 156.645,510.071 156.996,509.875C157.359,509.68 157.656,509.372 157.988,508.961C158.07,509.493 158.176,509.899 158.391,510.25C158.602,510.602 158.926,510.887 159.426,511.18C159.93,511.481 160.605,511.778 161.527,512.2C162.449,512.618 163.621,513.161 165.039,513.977C165.652,512.918 165.984,512.028 166.086,511.254C166.199,510.481 166.086,509.829 165.848,509.266C165.367,508.133 164.387,507.368 163.656,506.618C162.914,505.848 162.285,505.391 161.73,504.7C161.445,504.356 161.184,503.95 160.906,503.418C160.629,502.883 160.344,502.231 160.012,501.375C159.301,501.946 158.723,502.375 158.211,502.688C157.703,503.004 157.266,503.223 156.84,503.379C156,503.704 155.227,503.805 154.223,504.176C153.188,504.551 151.957,504.829 150.988,505.586C150.512,505.965 150.09,506.461 149.805,507.145C149.52,507.829 149.363,508.68 149.363,509.786L149.371,509.786Z" style="fill:none;fill-rule:nonzero;stroke:rgb(35,31,32);stroke-width:0.5px;"/>
        </g>
        <g transform="matrix(4.16667,0,0,-4.16667,76.4766,3278.45)">
            <path d="M133.695,513.977C135.121,513.161 136.281,512.618 137.203,512.2C138.129,511.778 138.809,511.473 139.305,511.18C139.809,510.879 140.121,510.594 140.34,510.25C140.559,509.899 140.664,509.493 140.746,508.961C141.082,509.379 141.383,509.68 141.742,509.875C142.102,510.071 142.523,510.161 143.102,510.168C143.684,510.176 144.426,510.098 145.434,510C146.445,509.903 147.719,509.793 149.371,509.786C149.371,508.563 149.211,507.625 148.914,506.899C148.621,506.176 148.191,505.668 147.703,505.301C146.723,504.555 145.484,504.391 144.488,504.098C143.461,503.801 142.688,503.715 141.855,503.395C141.434,503.239 141.008,503.02 140.496,502.696C139.996,502.375 139.418,501.946 138.703,501.375C138.375,502.223 138.082,502.883 137.805,503.411C137.52,503.942 137.25,504.348 136.965,504.692C136.395,505.391 135.781,505.868 135.09,506.688C134.387,507.528 133.453,508.383 132.996,509.528C132.766,510.098 132.66,510.739 132.75,511.473C132.84,512.207 133.133,513.024 133.688,513.977L133.695,513.977Z" style="fill:none;fill-rule:nonzero;stroke:rgb(35,31,32);stroke-width:0.5px;"/>
        </g>
        <g transform="matrix(4.16667,0,0,-4.16667,76.4766,3191.45)">
            <path d="M122.203,504.586C123.031,503.172 123.773,502.121 124.363,501.289C124.957,500.461 125.391,499.856 125.676,499.344C126.254,498.332 126.203,497.703 125.812,496.7C126.816,497.086 127.449,497.141 128.461,496.563C128.969,496.278 129.578,495.844 130.402,495.25C131.227,494.664 132.277,493.914 133.703,493.09C133.086,492.024 132.48,491.297 131.863,490.817C131.25,490.336 130.629,490.114 130.02,490.039C128.797,489.887 127.641,490.36 126.637,490.614C125.602,490.871 124.891,491.184 124.012,491.328C123.57,491.403 123.09,491.426 122.488,491.403C121.891,491.371 121.176,491.297 120.277,491.157C120.562,492.957 120.578,494.004 120.426,494.899C120.285,495.782 119.984,496.512 119.797,497.559C119.609,498.641 119.227,499.848 119.398,501.071C119.484,501.676 119.707,502.285 120.148,502.879C120.594,503.469 121.262,504.032 122.211,504.586L122.203,504.586Z" style="fill:none;fill-rule:nonzero;stroke:rgb(35,31,32);stroke-width:0.5px;"/>
        </g>
        <g transform="matrix(4.16667,0,0,-4.16667,76.4766,3069.59)">
            <path d="M118.012,491.015C118.012,489.367 118.133,488.089 118.23,487.078C118.328,486.066 118.402,485.324 118.395,484.746C118.395,484.167 118.297,483.749 118.102,483.39C117.906,483.027 117.602,482.73 117.188,482.398C117.711,482.316 118.125,482.21 118.477,481.992C118.828,481.785 119.113,481.46 119.406,480.96C119.707,480.456 120.008,479.781 120.434,478.859C120.855,477.937 121.395,476.773 122.211,475.347C121.156,474.734 120.262,474.402 119.488,474.3C118.719,474.195 118.066,474.3 117.504,474.538C116.371,475.019 115.605,475.999 114.855,476.73C114.082,477.472 113.625,478.093 112.934,478.656C112.59,478.941 112.184,479.203 111.652,479.48C111.121,479.757 110.469,480.042 109.613,480.374C110.184,481.085 110.609,481.664 110.926,482.175C111.238,482.683 111.457,483.117 111.613,483.546C111.938,484.386 112.043,485.16 112.41,486.164C112.785,487.199 113.062,488.429 113.82,489.398C114.203,489.874 114.699,490.296 115.379,490.581C116.062,490.867 116.918,491.031 118.02,491.023L118.012,491.015Z" style="fill:none;fill-rule:nonzero;stroke:rgb(35,31,32);stroke-width:0.5px;"/>
        </g>
        <g transform="matrix(3.64095,-2.02598,2.02598,3.64095,-756.68,-245.395)">
            <path d="M186.896,464.6C199.741,486.174 238.522,485.119 272.984,464.6" style="fill:none;fill-rule:nonzero;stroke:rgb(35,31,32);stroke-width:0.5px;"/>
        </g>
        <g transform="matrix(3.57304,2.14348,-2.14348,3.57304,1342.9,-1056.19)">
            <path d="M153.915,536.257C166.833,557.79 205.764,556.891 240.16,536.258" style="fill:none;fill-rule:nonzero;stroke:rgb(35,31,32);stroke-width:0.5px;"/>
        </g>
        <g transform="matrix(4.16608,0.069975,-0.069975,4.16608,112.591,-967.392)">
            <path d="M178.443,503.997C190.99,525.744 229.807,524.049 264.545,503.997" style="fill:none;fill-rule:nonzero;stroke:rgb(35,31,32);stroke-width:0.5px;"/>
        </g>
        <g transform="matrix(2.02258,3.64284,-3.64284,2.02258,2415.09,-327.499)">
            <path d="M113.292,546.296C126.253,567.799 164.97,567 199.323,546.296" style="fill:none;fill-rule:nonzero;stroke:rgb(35,31,32);stroke-width:0.5px;"/>
        </g>
        <g transform="matrix(-0.0713687,4.16606,-4.16606,-0.0713687,2816.48,908.482)">
            <path d="M66.024,536.361C78.942,557.893 117.861,557 152.255,536.361" style="fill:none;fill-rule:nonzero;stroke:rgb(35,31,32);stroke-width:0.5px;"/>
        </g>
        <g transform="matrix(-2.13824,3.57617,-3.57617,-2.13824,2491.68,2027.36)">
            <path d="M43.862,521.868C56.831,543.369 95.759,542.586 130.103,521.868" style="fill:none;fill-rule:nonzero;stroke:rgb(35,31,32);stroke-width:0.5px;"/>
        </g>
        <g transform="matrix(-3.64737,2.0144,-2.0144,-3.64737,1600.28,2639.64)">
            <path d="M31.648,472.639C44.557,494.173 83.537,493.268 117.933,472.639" style="fill:none;fill-rule:nonzero;stroke:rgb(35,31,32);stroke-width:0.5px;"/>
        </g>
        <g transform="matrix(-3.56847,-2.15108,2.15108,-3.56847,-24.2552,2453.51)">
            <path d="M58.409,412.045C71.372,433.549 110.367,432.752 144.719,412.045" style="fill:none;fill-rule:nonzero;stroke:rgb(35,31,32);stroke-width:0.5px;"/>
        </g>
        <g transform="matrix(-4.16616,-0.0651746,0.0651746,-4.16616,688.739,2669.76)">
            <path d="M33.525,423.759C46.054,445.518 85.133,443.766 119.895,423.759" style="fill:none;fill-rule:nonzero;stroke:rgb(35,31,32);stroke-width:0.5px;"/>
        </g>
        <g transform="matrix(-2.02515,-3.64141,3.64141,-2.02515,-468.167,2032.07)">
            <path d="M105.182,391.081C118.128,412.594 157.029,411.763 191.394,391.081" style="fill:none;fill-rule:nonzero;stroke:rgb(35,31,32);stroke-width:0.5px;"/>
        </g>
        <g transform="matrix(0.0717609,-4.16605,4.16605,0.0717609,-821.998,1481.39)">
            <path d="M145.999,391.588C158.918,413.118 197.827,412.229 232.222,391.588" style="fill:none;fill-rule:nonzero;stroke:rgb(35,31,32);stroke-width:0.5px;"/>
        </g>
        <g transform="matrix(2.13837,-3.5761,3.5761,2.13837,-1018.79,669.038)">
            <path d="M168.415,426.207C181.385,447.708 220.309,446.925 254.653,426.207" style="fill:none;fill-rule:nonzero;stroke:rgb(35,31,32);stroke-width:0.5px;"/>
        </g>
        <g transform="matrix(-3.65978,-1.99177,1.99177,-3.65978,-300.101,2873.97)">
            <path d="M31.468,476.175C44.515,454.723 83.598,455.329 117.874,476.175" style="fill:none;fill-rule:nonzero;stroke:rgb(35,31,32);stroke-width:0.5px;"/>
        </g>
        <g transform="matrix(-3.56007,2.16496,-2.16496,-3.56007,2025.76,2973.72)">
            <path d="M58.83,536.649C71.876,515.195 110.73,515.808 144.999,536.649" style="fill:none;fill-rule:nonzero;stroke:rgb(35,31,32);stroke-width:0.5px;"/>
        </g>
        <g transform="matrix(-4.16547,0.0997281,-0.0997281,-4.16547,770.416,3326.67)">
            <path d="M33.793,524.4C46.503,502.748 85.391,504.097 119.985,524.4" style="fill:none;fill-rule:nonzero;stroke:rgb(35,31,32);stroke-width:0.5px;"/>
        </g>
        <g transform="matrix(-2.00069,3.65491,-3.65491,-2.00069,2992.63,1918.86)">
            <path d="M105.698,557.394C118.789,535.964 157.607,536.483 191.841,557.394" style="fill:none;fill-rule:nonzero;stroke:rgb(35,31,32);stroke-width:0.5px;"/>
        </g>
        <g transform="matrix(0.0811694,4.16588,-4.16588,0.0811694,3126.72,490.187)">
            <path d="M146.224,556.348C159.196,534.846 198.118,535.628 232.463,556.348" style="fill:none;fill-rule:nonzero;stroke:rgb(35,31,32);stroke-width:0.5px;"/>
        </g>
        <g transform="matrix(2.16284,3.56135,-3.56135,2.16284,2357.91,-661.448)">
            <path d="M168.523,521.524C181.64,500.114 220.72,500.566 254.927,521.524" style="fill:none;fill-rule:nonzero;stroke:rgb(35,31,32);stroke-width:0.5px;"/>
        </g>
        <g transform="matrix(3.6505,2.00873,-2.00873,3.6505,1153.09,-1161.82)">
            <path d="M187.116,483.133C200.06,461.622 238.781,462.453 273.149,483.133" style="fill:none;fill-rule:nonzero;stroke:rgb(35,31,32);stroke-width:0.5px;"/>
        </g>
        <g transform="matrix(3.5578,-2.16868,2.16868,3.5578,-696.728,-275.07)">
            <path d="M153.499,411.736C166.568,390.296 205.507,390.86 239.755,411.737" style="fill:none;fill-rule:nonzero;stroke:rgb(35,31,32);stroke-width:0.5px;"/>
        </g>
        <g transform="matrix(4.16554,-0.0968124,0.0968124,4.16554,34.7264,-930.259)">
            <path d="M178.062,443.792C190.755,422.128 229.695,423.518 264.311,443.792" style="fill:none;fill-rule:nonzero;stroke:rgb(35,31,32);stroke-width:0.5px;"/>
        </g>
        <g transform="matrix(1.99946,-3.65558,3.65558,1.99946,-1042.13,465.575)">
            <path d="M112.463,402.04C125.562,380.614 164.793,381.119 199.018,402.04" style="fill:none;fill-rule:nonzero;stroke:rgb(35,31,32);stroke-width:0.5px;"/>
        </g>
        <g transform="matrix(-0.101024,-4.16544,4.16544,-0.101024,-1133.44,1217.59)">
            <path d="M65.52,412.105C78.594,390.665 117.635,391.221 151.885,412.105" style="fill:none;fill-rule:nonzero;stroke:rgb(35,31,32);stroke-width:0.5px;"/>
        </g>
        <g transform="matrix(-2.17088,-3.55646,3.55646,-2.17088,-890.819,2061.4)">
            <path d="M43.619,426.837C56.784,405.45 95.868,405.802 130.019,426.837" style="fill:none;fill-rule:nonzero;stroke:rgb(35,31,32);stroke-width:0.5px;"/>
        </g>
        <g transform="matrix(0,4.16667,-4.16667,0,1879.32,406.035)">
            <ellipse cx="53.356" cy="379.328" rx="6.277" ry="6.278" style="fill:none;stroke:rgb(35,31,32);stroke-width:0.5px;"/>
        </g>
        <g transform="matrix(0,4.16667,-4.16667,0,1987.82,803.042)">
            <circle cx="18.735" cy="439.988" r="6.278" style="fill:none;stroke:rgb(35,31,32);stroke-width:0.5px;"/>
        </g>
        <g transform="matrix(0,4.16667,-4.16667,0,2280.94,1091.6)">
            <ellipse cx="19.281" cy="509.789" rx="6.277" ry="6.278" style="fill:none;stroke:rgb(35,31,32);stroke-width:0.5px;"/>
        </g>
        <g transform="matrix(0,4.16667,-4.16667,0,1984.16,5.56242)">
            <circle cx="113.993" cy="343.852" r="6.278" style="fill:none;stroke:rgb(35,31,32);stroke-width:0.5px;"/>
        </g>
        <g transform="matrix(0,4.16667,-4.16667,0,2271.94,-286.835)">
            <ellipse cx="183.613" cy="343.297" rx="6.277" ry="6.278" style="fill:none;stroke:rgb(35,31,32);stroke-width:0.5px;"/>
        </g>
        <g transform="matrix(0,4.16667,-4.16667,0,2672.81,-393.767)">
            <circle cx="244.551" cy="378.571" r="6.278" style="fill:none;stroke:rgb(35,31,32);stroke-width:0.5px;"/>
        </g>
        <g transform="matrix(0,4.16667,-4.16667,0,3069.1,-288.365)">
            <ellipse cx="279.457" cy="438.773" rx="6.278" ry="6.277" style="fill:none;stroke:rgb(35,31,32);stroke-width:0.5px;"/>
        </g>
        <g transform="matrix(0,4.16667,-4.16667,0,3361.47,0.941583)">
            <circle cx="279.825" cy="508.574" r="6.277" style="fill:none;stroke:rgb(35,31,32);stroke-width:0.5px;"/>
        </g>
        <g transform="matrix(0,4.16667,-4.16667,0,3469.16,399.502)">
            <ellipse cx="244.92" cy="569.324" rx="6.278" ry="6.279" style="fill:none;stroke:rgb(35,31,32);stroke-width:0.5px;"/>
        </g>
        <g transform="matrix(0,4.16667,-4.16667,0,2677.44,1197.41)">
            <ellipse cx="54.164" cy="570.067" rx="6.277" ry="6.277" style="fill:none;stroke:rgb(35,31,32);stroke-width:0.5px;"/>
        </g>
        <g transform="matrix(0,4.16667,-4.16667,0,2675.12,401.04)">
            <ellipse cx="149.451" cy="474.224" rx="27.697" ry="27.697" style="fill:white;stroke:rgb(35,31,32);stroke-width:0.5px;"/>
        </g>
        <g transform="matrix(4.16667,0,0,-4.16667,76.4766,2999.35)">
            <path d="M157.141,487.516L141.758,487.516L134.062,474.18L141.758,460.852L157.141,460.852L164.836,474.18L157.141,487.516Z" style="fill:none;fill-rule:nonzero;stroke:rgb(35,31,32);stroke-width:0.5px;"/>
        </g>
        <g transform="matrix(4.16667,0,0,-4.16667,76.4766,2999.38)">
            <path d="M167.469,474.187L174.504,486.375L176.477,489.789L158.453,489.789L151.418,501.977L149.445,505.387L147.473,501.977L140.438,489.789L122.414,489.789L124.387,486.375L131.422,474.187L124.387,462L122.414,458.586L140.438,458.586L147.473,446.398L149.445,442.988L151.418,446.398L158.453,458.586L176.477,458.586L174.504,462L167.469,474.187ZM157.141,460.859L149.445,447.539L141.75,460.859L126.359,460.859L134.055,474.187L126.359,487.516L141.75,487.516L149.445,500.836L157.141,487.516L172.531,487.516L164.836,474.187L172.531,460.859L157.141,460.859Z" style="fill:none;fill-rule:nonzero;stroke:rgb(35,31,32);stroke-width:0.5px;"/>
        </g>
        <g transform="matrix(4.16667,0,0,-4.16667,76.4766,2999.49)">
            <path d="M149.371,501.898C134.07,501.898 121.672,489.492 121.672,474.199C121.672,458.906 134.07,446.504 149.371,446.504C164.672,446.504 177.066,458.906 177.066,474.199C177.066,489.492 164.664,501.898 149.371,501.898ZM168.156,463.347L155.633,463.347L149.371,452.511L143.109,463.347L130.582,463.347L136.844,474.199L130.582,485.05L143.109,485.05L149.371,495.89L155.633,485.05L168.156,485.05L161.895,474.199L168.156,463.347Z" style="fill:none;fill-rule:nonzero;stroke:rgb(35,31,32);stroke-width:0.5px;"/>
        </g>
    </g>
</svg>
