<?xml version="1.0" encoding="UTF-8" standalone="no"?>
<!DOCTYPE svg PUBLIC "-//W3C//DTD SVG 1.1//EN" "http://www.w3.org/Graphics/SVG/1.1/DTD/svg11.dtd">
<svg width="100%" height="100%" viewBox="0 0 6378 6378" version="1.1" xmlns="http://www.w3.org/2000/svg" xmlns:xlink="http://www.w3.org/1999/xlink" xml:space="preserve" xmlns:serif="http://www.serif.com/" style="fill-rule:evenodd;clip-rule:evenodd;stroke-miterlimit:10;">
    <g transform="matrix(-3.60283,-2.09303,-2.09303,3.60283,2489.28,3572.99)">
        <g id="Layer-11" serif:id="Layer 11">
            <path d="M-96.118,-356.785C9.643,-356.785 95.222,-271.206 95.223,-165.447C95.223,-59.688 9.643,25.892 -96.118,25.892C-201.876,25.892 -287.454,-59.687 -287.455,-165.445C-287.455,-271.205 -201.876,-356.785 -96.118,-356.785Z" style="fill:none;fill-rule:nonzero;stroke:rgb(35,31,32);stroke-width:1px;"/>
        </g>
    </g>
    <g transform="matrix(-3.60282,-2.09303,-2.09303,3.60282,1104.15,4362.8)">
        <g id="Layer-12" serif:id="Layer 12">
            <path d="M-288.344,-1070.35C28.934,-1070.35 285.671,-813.617 285.672,-496.339C285.672,-179.061 28.934,77.677 -288.344,77.678C-605.622,77.678 -862.359,-179.06 -862.36,-496.337C-862.36,-813.616 -605.623,-1070.35 -288.344,-1070.35Z" style="fill:none;fill-rule:nonzero;stroke:rgb(35,31,32);stroke-width:1px;"/>
        </g>
    </g>
    <g transform="matrix(-0.810713,-4.08704,-4.08704,0.810713,2458.23,1420.25)">
        <g id="Layer-20" serif:id="Layer 20">
            <path d="M-450.51,-548.65C-196.763,-548.65 8.778,-343.112 8.778,-89.364C8.778,164.384 -196.762,369.924 -450.51,369.924C-704.256,369.924 -909.797,164.385 -909.797,-89.362C-909.797,-343.111 -704.257,-548.65 -450.51,-548.65Z" style="fill:none;fill-rule:nonzero;stroke:rgb(35,31,32);stroke-width:1px;"/>
        </g>
    </g>
    <g id="Layer-23" serif:id="Layer 23" transform="matrix(4.16667,0,0,4.16667,0,0)">
        <g transform="matrix(0,1,1,0,973.032,973.033)">
            <path d="M-207.677,-207.677L207.677,-207.677" style="fill:none;fill-rule:nonzero;stroke:rgb(35,31,32);stroke-width:1px;"/>
        </g>
        <g transform="matrix(0.382813,0.923826,0.923826,-0.382813,991.665,810.322)">
            <path d="M-128.176,-191.857L287.179,-191.857" style="fill:none;fill-rule:nonzero;stroke:rgb(35,31,32);stroke-width:1px;"/>
        </g>
        <g transform="matrix(0.707107,0.707107,0.707107,-0.707107,912.189,704.535)">
            <path d="M-60.821,-146.834L354.489,-146.834" style="fill:none;fill-rule:nonzero;stroke:rgb(35,31,32);stroke-width:1px;"/>
        </g>
        <g transform="matrix(0.923827,0.38281,0.38281,-0.923827,810.403,697.967)">
            <path d="M-15.819,-79.501L399.535,-79.501" style="fill:none;fill-rule:nonzero;stroke:rgb(35,31,32);stroke-width:1px;"/>
        </g>
        <g transform="matrix(1,0,0,1,765.355,765.356)">
            <path d="M0,0L415.354,0" style="fill:none;fill-rule:nonzero;stroke:rgb(35,31,32);stroke-width:1px;"/>
        </g>
        <g transform="matrix(0.923826,-0.382812,-0.382812,-0.923826,810.404,832.746)">
            <path d="M-15.82,79.501L399.536,79.501" style="fill:none;fill-rule:nonzero;stroke:rgb(35,31,32);stroke-width:1px;"/>
        </g>
        <g transform="matrix(0.707106,-0.707108,-0.707108,-0.707106,912.19,826.176)">
            <path d="M-60.821,146.835L354.489,146.835" style="fill:none;fill-rule:nonzero;stroke:rgb(35,31,32);stroke-width:1px;"/>
        </g>
        <g transform="matrix(0.382812,-0.923826,-0.923826,-0.382812,991.666,720.389)">
            <path d="M-128.176,191.858L287.179,191.858" style="fill:none;fill-rule:nonzero;stroke:rgb(35,31,32);stroke-width:1px;"/>
        </g>
        <g transform="matrix(0,-1,-1,0,973.032,557.679)">
            <path d="M-207.677,207.677L207.677,207.677" style="fill:none;fill-rule:nonzero;stroke:rgb(35,31,32);stroke-width:1px;"/>
        </g>
        <g transform="matrix(-0.382812,-0.923826,-0.923826,0.382812,832.663,426.607)">
            <path d="M-287.179,191.858L128.176,191.858" style="fill:none;fill-rule:nonzero;stroke:rgb(35,31,32);stroke-width:1px;"/>
        </g>
        <g transform="matrix(-0.707107,-0.707107,-0.707107,0.707107,618.52,410.866)">
            <path d="M-354.49,146.835L60.821,146.835" style="fill:none;fill-rule:nonzero;stroke:rgb(35,31,32);stroke-width:1px;"/>
        </g>
        <g transform="matrix(-0.923826,-0.382812,-0.382812,0.923826,426.688,538.963)">
            <path d="M-399.536,79.501L15.82,79.501" style="fill:none;fill-rule:nonzero;stroke:rgb(35,31,32);stroke-width:1px;"/>
        </g>
        <g transform="matrix(-1,0,0,1,350.001,765.356)">
            <path d="M-415.354,0L0,0" style="fill:none;fill-rule:nonzero;stroke:rgb(35,31,32);stroke-width:1px;"/>
        </g>
        <g transform="matrix(-0.923827,0.38281,0.38281,0.923827,426.687,991.747)">
            <path d="M-399.535,-79.501L15.819,-79.501" style="fill:none;fill-rule:nonzero;stroke:rgb(35,31,32);stroke-width:1px;"/>
        </g>
        <g transform="matrix(-0.707108,0.707106,0.707106,0.707108,618.52,1119.84)">
            <path d="M-354.489,-146.834L60.82,-146.834" style="fill:none;fill-rule:nonzero;stroke:rgb(35,31,32);stroke-width:1px;"/>
        </g>
        <g transform="matrix(-0.382813,0.923826,0.923826,0.382813,832.662,1104.1)">
            <path d="M-287.179,-191.857L128.176,-191.857" style="fill:none;fill-rule:nonzero;stroke:rgb(35,31,32);stroke-width:1px;"/>
        </g>
    </g>
    <g id="spokes-16" serif:id="spokes 16" transform="matrix(4.16667,0,0,4.16667,0,0)">
        <g transform="matrix(0.194569,0.980889,0.980889,-0.194569,1193.45,994.669)">
            <path d="M-308.22,-375.364L457.134,-375.364" style="fill:none;fill-rule:nonzero;stroke:rgb(35,31,32);stroke-width:1px;"/>
        </g>
        <g transform="matrix(0.555244,0.831687,0.831687,-0.555244,1124.49,730.208)">
            <path d="M-170.198,-318.268L595.157,-318.268" style="fill:none;fill-rule:nonzero;stroke:rgb(35,31,32);stroke-width:1px;"/>
        </g>
        <g transform="matrix(0.831174,0.556013,0.556013,-0.831174,937.272,624.458)">
            <path d="M-64.599,-212.75L700.673,-212.751" style="fill:none;fill-rule:nonzero;stroke:rgb(35,31,32);stroke-width:1px;"/>
        </g>
        <g transform="matrix(0.980655,0.195746,0.195746,-0.980655,787.209,693.364)">
            <path d="M-7.403,-74.907L757.953,-74.908" style="fill:none;fill-rule:nonzero;stroke:rgb(35,31,32);stroke-width:1px;"/>
        </g>
        <g transform="matrix(0.980889,-0.19457,-0.19457,-0.980889,786.948,836.985)">
            <path d="M-7.313,74.458L758.04,74.458" style="fill:none;fill-rule:nonzero;stroke:rgb(35,31,32);stroke-width:1px;"/>
        </g>
        <g transform="matrix(0.831687,-0.555244,-0.555244,-0.831687,936.833,906.327)">
            <path d="M-64.409,212.48L700.945,212.479" style="fill:none;fill-rule:nonzero;stroke:rgb(35,31,32);stroke-width:1px;"/>
        </g>
        <g transform="matrix(0.556011,-0.831175,-0.831175,-0.556011,1124.09,801)">
            <path d="M-169.886,318.038L595.386,318.038" style="fill:none;fill-rule:nonzero;stroke:rgb(35,31,32);stroke-width:1px;"/>
        </g>
        <g transform="matrix(0.195747,-0.980654,-0.980654,-0.195747,1193.55,537.016)">
            <path d="M-307.77,375.275L457.586,375.275" style="fill:none;fill-rule:nonzero;stroke:rgb(35,31,32);stroke-width:1px;"/>
        </g>
        <g transform="matrix(-0.194571,-0.980888,-0.980888,0.194571,1044.53,243.939)">
            <path d="M-457.136,375.364L308.22,375.364" style="fill:none;fill-rule:nonzero;stroke:rgb(35,31,32);stroke-width:1px;"/>
        </g>
        <g transform="matrix(-0.555245,-0.831687,-0.831687,0.555245,699.527,93.6715)">
            <path d="M-595.158,318.268L170.198,318.268" style="fill:none;fill-rule:nonzero;stroke:rgb(35,31,32);stroke-width:1px;"/>
        </g>
        <g transform="matrix(-0.831175,-0.556011,-0.556011,0.831175,301.195,198.958)">
            <path d="M-700.675,212.75L64.599,212.75" style="fill:none;fill-rule:nonzero;stroke:rgb(35,31,32);stroke-width:1px;"/>
        </g>
        <g transform="matrix(-0.980655,-0.195746,-0.195746,0.980655,36.6592,543.549)">
            <path d="M-757.953,74.908L7.403,74.907" style="fill:none;fill-rule:nonzero;stroke:rgb(35,31,32);stroke-width:1px;"/>
        </g>
        <g transform="matrix(-0.980889,0.19457,0.19457,0.980889,36.2185,985.9)">
            <path d="M-758.042,-74.458L7.313,-74.458" style="fill:none;fill-rule:nonzero;stroke:rgb(35,31,32);stroke-width:1px;"/>
        </g>
        <g transform="matrix(-0.831687,0.555245,0.555245,0.831687,300.298,1331.29)">
            <path d="M-700.946,-212.48L64.41,-212.48" style="fill:none;fill-rule:nonzero;stroke:rgb(35,31,32);stroke-width:1px;"/>
        </g>
        <g transform="matrix(-0.556012,0.831175,0.831175,0.556012,698.589,1437.08)">
            <path d="M-595.387,-318.038L169.886,-318.038" style="fill:none;fill-rule:nonzero;stroke:rgb(35,31,32);stroke-width:1px;"/>
        </g>
        <g transform="matrix(-0.195747,0.980654,0.980654,0.195747,1043.73,1287.57)">
            <path d="M-457.586,-375.275L307.77,-375.275" style="fill:none;fill-rule:nonzero;stroke:rgb(35,31,32);stroke-width:1px;"/>
        </g>
    </g>
    <g id="Layer-3" serif:id="Layer 3" transform="matrix(4.16667,0,0,4.16667,0,0)">
        <g transform="matrix(1,0,0,1,611.386,759.237)">
            <path d="M0,-60.077C-2.527,-53.969 -4.163,-49.072 -5.529,-45.223C-6.889,-41.372 -7.975,-38.559 -9.189,-36.502C-11.605,-32.379 -14.591,-31.294 -20.321,-30.641C-15.27,-27.856 -12.923,-25.718 -12.261,-20.982C-11.92,-18.613 -11.988,-15.598 -12.202,-11.509C-12.408,-7.423 -12.762,-2.259 -12.768,4.381C-19.62,4.385 -24.857,3.734 -28.912,2.541C-32.968,1.358 -35.841,-0.356 -37.965,-2.343C-42.223,-6.327 -43.439,-11.344 -45.39,-15.414C-47.391,-19.606 -48.193,-22.758 -50.38,-26.168C-51.472,-27.881 -52.902,-29.665 -54.971,-31.746C-57.039,-33.83 -59.743,-36.206 -63.354,-39.154C-58.893,-40.506 -55.503,-41.693 -52.81,-42.858C-50.116,-44.019 -48.121,-45.154 -46.449,-46.336C-43.103,-48.685 -41.051,-51.267 -37.287,-54.142C-33.407,-57.098 -29.83,-61.045 -24.293,-63.008C-21.531,-63.988 -18.295,-64.462 -14.335,-64.076C-10.375,-63.692 -5.695,-62.441 0,-60.077Z" style="fill:none;fill-rule:nonzero;stroke:rgb(35,31,32);stroke-width:1px;"/>
        </g>
        <g transform="matrix(1,0,0,1,647.947,686.86)">
            <path d="M0,-42.33C-4.679,-37.642 -8.077,-33.736 -10.82,-30.701C-13.559,-27.657 -15.643,-25.472 -17.558,-24.038C-21.377,-21.15 -24.549,-21.297 -30.091,-22.896C-26.502,-18.383 -25.154,-15.504 -26.368,-10.878C-26.965,-8.559 -28.19,-5.802 -29.957,-2.114C-31.715,1.575 -34.021,6.197 -36.561,12.3C-42.895,9.68 -47.48,7.073 -50.77,4.421C-54.063,1.774 -56.061,-0.909 -57.259,-3.559C-59.663,-8.873 -58.854,-13.973 -59.09,-18.481C-59.323,-23.12 -58.854,-26.338 -59.56,-30.327C-59.908,-32.327 -60.543,-34.527 -61.652,-37.244C-62.759,-39.961 -64.343,-43.193 -66.543,-47.301C-61.906,-46.833 -58.321,-46.623 -55.388,-46.663C-52.457,-46.7 -50.18,-46.98 -48.181,-47.428C-44.191,-48.311 -41.307,-49.904 -36.729,-51.115C-32.014,-52.355 -27.195,-54.63 -21.331,-54.325C-18.404,-54.172 -15.232,-53.374 -11.721,-51.503C-8.205,-49.638 -4.358,-46.692 0,-42.33Z" style="fill:none;fill-rule:nonzero;stroke:rgb(35,31,32);stroke-width:1px;"/>
        </g>
        <g transform="matrix(1,0,0,1,702.576,614.55)">
            <path d="M0,-6.579C-6.102,-4.039 -10.726,-1.732 -14.415,0.025C-18.103,1.792 -20.859,3.018 -23.177,3.614C-27.803,4.828 -30.684,3.481 -35.197,-0.108C-33.598,5.434 -33.451,8.606 -36.336,12.423C-37.771,14.34 -39.957,16.424 -43.001,19.162C-46.037,21.906 -49.94,25.304 -54.629,29.981C-59.478,25.139 -62.721,20.975 -64.747,17.267C-66.775,13.562 -67.596,10.319 -67.692,7.411C-67.883,1.584 -65.193,-2.822 -63.69,-7.079C-62.139,-11.457 -60.477,-14.251 -59.611,-18.207C-59.172,-20.188 -58.92,-22.464 -58.912,-25.399C-58.899,-28.332 -59.132,-31.926 -59.602,-36.56C-55.492,-34.362 -52.258,-32.804 -49.529,-31.723C-46.806,-30.639 -44.594,-30.031 -42.574,-29.683C-38.549,-28.977 -35.272,-29.353 -30.577,-28.728C-25.746,-28.072 -20.426,-28.342 -15.121,-25.817C-12.475,-24.558 -9.85,-22.608 -7.318,-19.537C-4.785,-16.468 -2.359,-12.278 0,-6.579Z" style="fill:none;fill-rule:nonzero;stroke:rgb(35,31,32);stroke-width:1px;"/>
        </g>
        <g transform="matrix(1,0,0,1,767.033,557.388)">
            <path d="M0,37.813C-6.64,37.822 -11.802,38.177 -15.89,38.382C-19.978,38.595 -22.994,38.664 -25.361,38.323C-30.099,37.662 -32.236,35.314 -35.022,30.262C-35.674,35.994 -36.758,38.978 -40.883,41.393C-42.94,42.61 -45.752,43.693 -49.604,45.052C-53.451,46.42 -58.35,48.056 -64.457,50.583C-67.087,44.253 -68.492,39.169 -68.945,34.967C-69.404,30.768 -68.922,27.459 -67.899,24.736C-65.844,19.279 -61.671,16.238 -58.649,12.883C-55.534,9.437 -52.926,7.494 -50.604,4.17C-49.438,2.51 -48.329,0.507 -47.193,-2.2C-46.054,-4.904 -44.887,-8.309 -43.535,-12.77C-40.585,-9.16 -38.196,-6.476 -36.096,-4.43C-33.996,-2.382 -32.188,-0.97 -30.457,0.125C-27.013,2.326 -23.845,3.24 -19.753,5.624C-15.546,8.084 -10.532,9.885 -6.602,14.25C-4.641,16.426 -2.963,19.236 -1.8,23.041C-0.635,26.845 0.004,31.647 0,37.813Z" style="fill:none;fill-rule:nonzero;stroke:rgb(35,31,32);stroke-width:1px;"/>
        </g>
        <g transform="matrix(1,0,0,1,831.49,544.618)">
            <path d="M0,63.353C-6.107,60.827 -11.004,59.191 -14.852,57.823C-18.703,56.463 -21.517,55.38 -23.574,54.164C-27.697,51.749 -28.781,48.764 -29.435,43.033C-32.221,48.084 -34.357,50.432 -39.093,51.093C-41.463,51.434 -44.479,51.366 -48.567,51.153C-52.652,50.948 -57.817,50.592 -64.457,50.583C-64.461,43.733 -63.81,38.497 -62.617,34.441C-61.434,30.386 -59.722,27.512 -57.733,25.387C-53.748,21.131 -48.732,19.913 -44.662,17.964C-40.47,15.963 -37.318,15.161 -33.907,12.974C-32.195,11.882 -30.41,10.452 -28.328,8.383C-26.246,6.315 -23.869,3.611 -20.922,0C-19.57,4.46 -18.383,7.851 -17.218,10.543C-16.057,13.238 -14.922,15.231 -13.739,16.904C-11.391,20.25 -8.808,22.303 -5.934,26.066C-2.979,29.946 0.969,33.524 2.932,39.058C3.912,41.822 4.386,45.059 4,49.018C3.617,52.979 2.368,57.658 0,63.353Z" style="fill:none;fill-rule:nonzero;stroke:rgb(35,31,32);stroke-width:1px;"/>
        </g>
        <g transform="matrix(1,0,0,1,886.122,577.987)">
            <path d="M0,66.543C-4.689,61.864 -8.595,58.468 -11.628,55.725C-14.673,52.986 -16.858,50.902 -18.293,48.985C-21.181,45.168 -21.033,41.996 -19.433,36.454C-23.948,40.043 -26.827,41.391 -31.452,40.177C-33.771,39.58 -36.529,38.355 -40.217,36.588C-43.906,34.83 -48.528,32.522 -54.632,29.983C-52.011,23.65 -49.404,19.064 -46.751,15.773C-44.104,12.481 -41.421,10.484 -38.771,9.286C-33.458,6.881 -28.358,7.69 -23.85,7.455C-19.211,7.221 -15.993,7.69 -12.003,6.983C-10.003,6.636 -7.805,6.001 -5.087,4.893C-2.37,3.784 0.862,2.2 4.97,0C4.502,4.637 4.293,8.224 4.333,11.156C4.37,14.088 4.649,16.365 5.097,18.362C5.979,22.354 7.575,25.238 8.784,29.816C10.024,34.53 12.3,39.348 11.994,45.214C11.842,48.141 11.043,51.313 9.173,54.824C7.308,58.338 4.362,62.185 0,66.543Z" style="fill:none;fill-rule:nonzero;stroke:rgb(35,31,32);stroke-width:1px;"/>
        </g>
        <g transform="matrix(1,0,0,1,922.679,631.276)">
            <path d="M0,67.884C-2.537,61.781 -4.846,57.158 -6.604,53.47C-8.37,49.782 -9.596,47.025 -10.192,44.706C-11.406,40.08 -10.059,37.2 -6.47,32.686C-12.012,34.287 -15.184,34.434 -19,31.546C-20.918,30.112 -23.002,27.926 -25.74,24.883C-28.483,21.848 -31.879,17.943 -36.558,13.254C-31.716,8.405 -27.553,5.163 -23.845,3.137C-20.139,1.108 -16.896,0.286 -13.989,0.193C-8.162,0 -3.754,2.691 0.501,4.194C4.88,5.745 7.673,7.406 11.631,8.274C13.61,8.712 15.888,8.965 18.821,8.973C21.756,8.985 25.348,8.751 29.984,8.283C27.784,12.391 26.226,15.627 25.145,18.354C24.061,21.079 23.453,23.291 23.105,25.309C22.402,29.336 22.777,32.613 22.15,37.306C21.494,42.139 21.765,47.459 19.24,52.762C17.98,55.41 16.03,58.035 12.959,60.565C9.89,63.098 5.699,65.526 0,67.884Z" style="fill:none;fill-rule:nonzero;stroke:rgb(35,31,32);stroke-width:1px;"/>
        </g>
        <g transform="matrix(1,0,0,1,935.448,694.216)">
            <path d="M0,69.402C-0.007,62.762 -0.362,57.599 -0.565,53.512C-0.78,49.423 -0.849,46.408 -0.507,44.039C0.155,39.303 2.501,37.165 7.553,34.38C1.822,33.727 -1.163,32.642 -3.579,28.519C-4.794,26.462 -5.877,23.648 -7.237,19.798C-8.605,15.949 -10.241,11.052 -12.769,4.944C-6.438,2.315 -1.354,0.91 2.849,0.455C7.048,-0.004 10.356,0.479 13.079,1.503C18.535,3.555 21.577,7.731 24.932,10.753C28.378,13.867 30.323,16.474 33.644,18.797C35.306,19.964 37.308,21.072 40.013,22.209C42.718,23.348 46.124,24.515 50.585,25.867C46.976,28.817 44.291,31.205 42.246,33.306C40.197,35.406 38.785,37.214 37.689,38.944C35.489,42.389 34.576,45.557 32.191,49.649C29.731,53.856 27.931,58.87 23.565,62.8C21.39,64.763 18.579,66.439 14.772,67.6C10.968,68.765 6.166,69.406 0,69.402Z" style="fill:none;fill-rule:nonzero;stroke:rgb(35,31,32);stroke-width:1px;"/>
        </g>
        <g transform="matrix(1,0,0,1,922.679,767.998)">
            <path d="M0,60.077C2.527,53.97 4.163,49.073 5.531,45.225C6.892,41.374 7.973,38.56 9.189,36.503C11.605,32.378 14.589,31.294 20.321,30.642C15.27,27.856 12.924,25.719 12.262,20.981C11.92,18.616 11.988,15.598 12.203,11.512C12.406,7.425 12.762,2.258 12.769,-4.38C19.621,-4.384 24.857,-3.733 28.911,-2.542C32.968,-1.357 35.842,0.355 37.965,2.344C42.222,6.328 43.441,11.347 45.39,15.415C47.391,19.607 48.193,22.757 50.381,26.167C51.472,27.879 52.903,29.666 54.971,31.747C57.039,33.829 59.744,36.205 63.354,39.155C58.893,40.507 55.503,41.692 52.811,42.859C50.116,44.02 48.122,45.155 46.45,46.337C43.104,48.686 41.051,51.267 37.288,54.143C33.407,57.097 29.831,61.048 24.296,63.007C21.532,63.987 18.295,64.461 14.338,64.077C10.375,63.696 5.695,62.445 0,60.077Z" style="fill:none;fill-rule:nonzero;stroke:rgb(35,31,32);stroke-width:1px;"/>
        </g>
        <g transform="matrix(1,0,0,1,886.122,840.376)">
            <path d="M0,42.33C4.679,37.642 8.074,33.736 10.817,30.703C13.556,27.658 15.64,25.473 17.558,24.038C21.374,21.15 24.546,21.297 30.088,22.898C26.499,18.383 25.151,15.504 26.365,10.878C26.962,8.559 28.188,5.802 29.954,2.114C31.712,-1.573 34.021,-6.197 36.558,-12.301C42.892,-9.68 47.478,-7.075 50.768,-4.423C54.061,-1.774 56.058,0.909 57.256,3.559C59.661,8.873 58.853,13.971 59.087,18.481C59.321,23.12 58.851,26.338 59.559,30.328C59.906,32.328 60.541,34.526 61.649,37.241C62.758,39.959 64.342,43.193 66.54,47.301C61.905,46.831 58.318,46.623 55.388,46.661C52.454,46.699 50.177,46.979 48.18,47.426C44.19,48.31 41.304,49.904 36.726,51.117C32.012,52.355 27.194,54.631 21.328,54.323C18.401,54.173 15.229,53.374 11.718,51.503C8.204,49.637 4.357,46.693 0,42.33Z" style="fill:none;fill-rule:nonzero;stroke:rgb(35,31,32);stroke-width:1px;"/>
        </g>
        <g transform="matrix(1,0,0,1,831.49,912.69)">
            <path d="M0,6.575C6.104,4.038 10.726,1.729 14.415,-0.029C18.103,-1.797 20.861,-3.021 23.18,-3.617C27.805,-4.831 30.684,-3.484 35.199,0.108C33.599,-5.437 33.451,-8.609 36.339,-12.425C37.773,-14.341 39.959,-16.427 43.004,-19.165C46.037,-21.908 49.942,-25.304 54.632,-29.984C59.479,-25.141 62.723,-20.98 64.747,-17.272C66.777,-13.564 67.599,-10.32 67.692,-7.414C67.883,-1.587 65.193,2.819 63.691,7.076C62.141,11.455 60.479,14.248 59.611,18.206C59.172,20.185 58.92,22.461 58.912,25.396C58.899,28.331 59.134,31.921 59.602,36.559C55.494,34.359 52.258,32.801 49.532,31.72C46.807,30.634 44.594,30.026 42.576,29.68C38.549,28.976 35.272,29.349 30.579,28.725C25.748,28.069 20.426,28.34 15.123,25.813C12.475,24.554 9.85,22.605 7.32,19.536C4.788,16.465 2.359,12.276 0,6.575Z" style="fill:none;fill-rule:nonzero;stroke:rgb(35,31,32);stroke-width:1px;"/>
        </g>
        <g transform="matrix(1,0,0,1,767.033,969.85)">
            <path d="M0,-37.818C6.64,-37.826 11.805,-38.179 15.89,-38.383C19.978,-38.597 22.994,-38.666 25.364,-38.324C30.1,-37.665 32.236,-35.316 35.022,-30.264C35.676,-35.997 36.76,-38.982 40.883,-41.396C42.94,-42.611 45.754,-43.694 49.605,-45.056C53.453,-46.422 58.35,-48.058 64.457,-50.586C67.087,-44.256 68.492,-39.171 68.947,-34.968C69.406,-30.769 68.924,-27.459 67.899,-24.74C65.847,-19.282 61.671,-16.24 58.649,-12.885C55.536,-9.439 52.928,-7.497 50.604,-4.172C49.438,-2.512 48.331,-0.507 47.193,2.196C46.054,4.901 44.887,8.307 43.535,12.768C40.585,9.159 38.197,6.474 36.098,4.427C33.998,2.38 32.188,0.968 30.459,-0.128C27.013,-2.33 23.845,-3.241 19.753,-5.626C15.546,-8.086 10.532,-9.886 6.602,-14.252C4.641,-16.43 2.963,-19.238 1.802,-23.045C0.635,-26.847 -0.002,-31.649 0,-37.818Z" style="fill:none;fill-rule:nonzero;stroke:rgb(35,31,32);stroke-width:1px;"/>
        </g>
        <g transform="matrix(1,0,0,1,702.576,982.619)">
            <path d="M0,-63.354C6.107,-60.827 11.006,-59.191 14.853,-57.825C18.705,-56.462 21.517,-55.381 23.574,-54.165C27.699,-51.75 28.783,-48.765 29.435,-43.033C32.221,-48.084 34.358,-50.433 39.096,-51.092C41.463,-51.434 44.479,-51.366 48.567,-51.152C52.655,-50.948 57.817,-50.594 64.457,-50.586C64.461,-43.733 63.81,-38.497 62.619,-34.443C61.434,-30.386 59.723,-27.512 57.733,-25.389C53.749,-21.13 48.732,-19.915 44.662,-17.964C40.47,-15.965 37.32,-15.161 33.91,-12.973C32.198,-11.882 30.411,-10.452 28.33,-8.383C26.246,-6.315 23.872,-3.61 20.922,0C19.57,-4.461 18.383,-7.851 17.22,-10.543C16.057,-13.238 14.922,-15.23 13.74,-16.904C11.391,-20.25 8.81,-22.303 5.934,-26.069C2.979,-29.947 -0.969,-33.525 -2.93,-39.06C-3.91,-41.824 -4.383,-45.059 -3.998,-49.018C-3.616,-52.981 -2.365,-57.657 0,-63.354Z" style="fill:none;fill-rule:nonzero;stroke:rgb(35,31,32);stroke-width:1px;"/>
        </g>
        <g transform="matrix(1,0,0,1,647.947,949.247)">
            <path d="M0,-66.543C4.687,-61.861 8.592,-58.468 11.628,-55.726C14.67,-52.986 16.857,-50.9 18.293,-48.985C21.178,-45.166 21.031,-41.994 19.432,-36.452C23.945,-40.041 26.824,-41.389 31.452,-40.175C33.77,-39.58 36.526,-38.355 40.214,-36.588C43.903,-34.828 48.527,-32.52 54.629,-29.982C52.008,-23.65 49.401,-19.063 46.749,-15.772C44.103,-12.48 41.419,-10.484 38.771,-9.284C33.455,-6.881 28.357,-7.689 23.847,-7.453C19.208,-7.221 15.99,-7.689 12.001,-6.983C10.002,-6.636 7.802,-5.999 5.087,-4.893C2.367,-3.784 -0.863,-2.198 -4.973,0C-4.503,-4.637 -4.295,-8.222 -4.335,-11.155C-4.371,-14.086 -4.651,-16.365 -5.1,-18.362C-5.982,-22.354 -7.576,-25.236 -8.787,-29.816C-10.025,-34.528 -12.301,-39.346 -11.995,-45.212C-11.844,-48.139 -11.046,-51.311 -9.175,-54.822C-7.309,-58.336 -4.364,-62.185 0,-66.543Z" style="fill:none;fill-rule:nonzero;stroke:rgb(35,31,32);stroke-width:1px;"/>
        </g>
        <g transform="matrix(1,0,0,1,611.386,895.958)">
            <path d="M0,-67.883C2.539,-61.779 4.846,-57.157 6.604,-53.468C8.37,-49.78 9.596,-47.024 10.192,-44.706C11.406,-40.08 10.059,-37.199 6.47,-32.684C12.012,-34.285 15.184,-34.434 19.003,-31.546C20.918,-30.112 23.002,-27.926 25.74,-24.882C28.483,-21.848 31.882,-17.943 36.561,-13.254C31.719,-8.404 27.553,-5.162 23.845,-3.136C20.141,-1.106 16.897,-0.287 13.989,-0.191C8.162,0 3.756,-2.69 -0.501,-4.192C-4.878,-5.744 -7.673,-7.406 -11.631,-8.272C-13.61,-8.711 -15.886,-8.963 -18.818,-8.973C-21.754,-8.984 -25.346,-8.751 -29.982,-8.281C-27.784,-12.389 -26.226,-15.627 -25.143,-18.354C-24.061,-21.079 -23.452,-23.289 -23.104,-25.307C-22.399,-29.334 -22.774,-32.611 -22.149,-37.304C-21.494,-42.137 -21.764,-47.457 -19.238,-52.762C-17.98,-55.408 -16.03,-58.035 -12.959,-60.563C-9.89,-63.098 -5.701,-65.524 0,-67.883Z" style="fill:none;fill-rule:nonzero;stroke:rgb(35,31,32);stroke-width:1px;"/>
        </g>
        <g transform="matrix(1,0,0,1,598.619,833.018)">
            <path d="M0,-69.4C0.006,-62.762 0.359,-57.595 0.565,-53.508C0.779,-49.422 0.848,-46.404 0.507,-44.039C-0.155,-39.301 -2.502,-37.164 -7.554,-34.378C-1.823,-33.726 1.162,-32.642 3.578,-28.517C4.793,-26.46 5.877,-23.646 7.238,-19.795C8.604,-15.949 10.24,-11.05 12.768,-4.943C6.438,-2.313 1.354,-0.908 -2.848,-0.453C-7.048,0.004 -10.357,-0.478 -13.08,-1.503C-18.536,-3.555 -21.577,-7.729 -24.932,-10.753C-28.381,-13.864 -30.322,-16.474 -33.645,-18.796C-35.306,-19.961 -37.309,-21.069 -40.015,-22.207C-42.719,-23.348 -46.125,-24.515 -50.586,-25.865C-46.976,-28.815 -44.293,-31.203 -42.246,-33.302C-40.198,-35.404 -38.786,-37.212 -37.69,-38.941C-35.49,-42.385 -34.576,-45.552 -32.192,-49.647C-29.732,-53.856 -27.931,-58.868 -23.566,-62.798C-21.39,-64.759 -18.58,-66.439 -14.774,-67.598C-10.97,-68.765 -6.168,-69.404 0,-69.4Z" style="fill:none;fill-rule:nonzero;stroke:rgb(35,31,32);stroke-width:1px;"/>
        </g>
    </g>
    <g id="Layer-7" serif:id="Layer 7" transform="matrix(4.16667,0,0,4.16667,0,0)">
        <g transform="matrix(1,0,0,1,765.033,827.081)">
            <path d="M0,-127.242C-35.137,-127.242 -63.621,-98.758 -63.621,-63.621C-63.621,-28.485 -35.137,0 0,0C35.137,0 63.621,-28.485 63.621,-63.621C63.621,-98.758 35.137,-127.242 0,-127.242M0,-97.242C18.539,-97.242 33.621,-82.16 33.621,-63.621C33.621,-45.082 18.539,-30 0,-30C-18.539,-30 -33.621,-45.082 -33.621,-63.621C-33.621,-82.16 -18.539,-97.242 0,-97.242" style="fill:white;fill-rule:nonzero;"/>
        </g>
        <g transform="matrix(1,0,0,1,765.033,827.081)">
            <path d="M0,-127.242C-35.137,-127.242 -63.621,-98.758 -63.621,-63.621C-63.621,-28.485 -35.137,0 0,0C35.137,0 63.621,-28.485 63.621,-63.621C63.621,-98.758 35.137,-127.242 0,-127.242ZM0,-97.242C18.539,-97.242 33.621,-82.16 33.621,-63.621C33.621,-45.082 18.539,-30 0,-30C-18.539,-30 -33.621,-45.082 -33.621,-63.621C-33.621,-82.16 -18.539,-97.242 0,-97.242" style="fill:none;fill-rule:nonzero;stroke:rgb(35,31,32);stroke-width:1px;"/>
        </g>
        <g transform="matrix(0,-1,-1,0,765.41,763.716)">
            <path d="M-194,-194C-301.144,-194 -388,-107.144 -388,0C-388,107.143 -301.144,194 -194,194C-86.856,194 0,107.143 0,0C0,-107.144 -86.856,-194 -194,-194Z" style="fill:none;fill-rule:nonzero;stroke:rgb(35,31,32);stroke-width:1px;"/>
        </g>
        <g transform="matrix(0,-1,-1,0,766.41,374.716)">
            <path d="M-194,-194C-301.144,-194 -388,-107.144 -388,0C-388,107.143 -301.144,194 -194,194C-86.856,194 0,107.143 0,0C0,-107.144 -86.856,-194 -194,-194Z" style="fill:none;fill-rule:nonzero;stroke:rgb(35,31,32);stroke-width:1px;"/>
        </g>
        <g transform="matrix(-1,0,0,1,957.41,957.716)">
            <path d="M0,-388C-107.144,-388 -194,-301.144 -194,-194C-194,-86.857 -107.144,0 0,0C107.144,0 194,-86.857 194,-194C194,-301.144 107.144,-388 0,-388Z" style="fill:none;fill-rule:nonzero;stroke:rgb(35,31,32);stroke-width:1px;"/>
        </g>
        <g transform="matrix(-1,0,0,1,569.41,956.716)">
            <path d="M0,-388C-107.144,-388 -194,-301.144 -194,-194C-194,-86.857 -107.144,0 0,0C107.144,0 194,-86.857 194,-194C194,-301.144 107.144,-388 0,-388Z" style="fill:none;fill-rule:nonzero;stroke:rgb(35,31,32);stroke-width:1px;"/>
        </g>
        <g transform="matrix(1,0,0,1,719.744,807.228)">
            <path d="M0,-89.974C-24.846,-65.129 -24.846,-24.846 0,-0.001C24.845,24.845 65.129,24.845 89.974,-0.001C114.818,-24.846 114.818,-65.129 89.974,-89.974C65.129,-114.819 24.846,-114.819 0,-89.974M21.213,-68.761C34.322,-81.87 55.652,-81.87 68.761,-68.761C81.869,-55.652 81.869,-34.322 68.761,-21.214C55.652,-8.104 34.322,-8.104 21.213,-21.214C8.104,-34.322 8.104,-55.652 21.213,-68.761" style="fill:white;fill-rule:nonzero;"/>
        </g>
        <g transform="matrix(1,0,0,1,719.744,807.228)">
            <path d="M0,-89.974C-24.846,-65.129 -24.846,-24.846 0,-0.001C24.845,24.845 65.129,24.845 89.974,-0.001C114.818,-24.846 114.818,-65.129 89.974,-89.974C65.129,-114.819 24.846,-114.819 0,-89.974ZM21.213,-68.761C34.322,-81.87 55.652,-81.87 68.761,-68.761C81.869,-55.652 81.869,-34.322 68.761,-21.214C55.652,-8.104 34.322,-8.104 21.213,-21.214C8.104,-34.322 8.104,-55.652 21.213,-68.761" style="fill:none;fill-rule:nonzero;stroke:rgb(35,31,32);stroke-width:1px;"/>
        </g>
        <g transform="matrix(-0.707107,-0.707107,-0.707107,0.707107,708.357,899.334)">
            <path d="M-137.179,-331.179C-244.322,-331.179 -331.179,-244.323 -331.179,-137.179C-331.179,-30.035 -244.322,56.822 -137.179,56.821C-30.035,56.822 56.821,-30.036 56.82,-137.179C56.821,-244.322 -30.035,-331.178 -137.179,-331.179Z" style="fill:none;fill-rule:nonzero;stroke:rgb(35,31,32);stroke-width:1px;"/>
        </g>
        <g transform="matrix(-0.707107,-0.707107,-0.707107,0.707107,434,623.563)">
            <path d="M-137.178,-331.178C-244.322,-331.179 -331.178,-244.321 -331.177,-137.178C-331.177,-30.034 -244.321,56.822 -137.178,56.822C-30.035,56.822 56.822,-30.034 56.822,-137.178C56.823,-244.321 -30.034,-331.178 -137.178,-331.178Z" style="fill:none;fill-rule:nonzero;stroke:rgb(35,31,32);stroke-width:1px;"/>
        </g>
        <g transform="matrix(-0.707107,0.707107,0.707107,0.707107,1094.94,626.392)">
            <path d="M137.177,-331.179C30.034,-331.179 -56.822,-244.323 -56.822,-137.179C-56.822,-30.037 30.034,56.821 137.177,56.821C244.322,56.821 331.178,-30.036 331.177,-137.179C331.178,-244.323 244.322,-331.179 137.177,-331.179Z" style="fill:none;fill-rule:nonzero;stroke:rgb(35,31,32);stroke-width:1px;"/>
        </g>
        <g transform="matrix(-0.707107,0.707107,0.707107,0.707107,819.877,900.041)">
            <path d="M137.179,-331.178C30.035,-331.178 -56.822,-244.321 -56.821,-137.179C-56.821,-30.035 30.036,56.822 137.179,56.821C244.321,56.822 331.178,-30.035 331.178,-137.179C331.179,-244.321 244.322,-331.178 137.179,-331.178Z" style="fill:none;fill-rule:nonzero;stroke:rgb(35,31,32);stroke-width:1px;"/>
        </g>
    </g>
    <g id="Layer-7-copy" serif:id="Layer 7 copy" transform="matrix(4.16667,0,0,4.16667,0,0)">
        <g transform="matrix(1,0,0,1,765.96,863.576)">
            <path d="M0,-199.952C-55.215,-199.952 -99.976,-155.191 -99.976,-99.976C-99.976,-44.763 -55.215,0 0,0C55.215,0 99.976,-44.763 99.976,-99.976C99.976,-155.191 55.215,-199.952 0,-199.952M0,-152.809C29.133,-152.809 52.833,-129.109 52.833,-99.976C52.833,-70.843 29.133,-47.143 0,-47.143C-29.133,-47.143 -52.833,-70.843 -52.833,-99.976C-52.833,-129.109 -29.133,-152.809 0,-152.809" style="fill:white;fill-rule:nonzero;"/>
        </g>
        <g transform="matrix(1,0,0,1,765.96,863.576)">
            <path d="M0,-199.952C-55.215,-199.952 -99.976,-155.191 -99.976,-99.976C-99.976,-44.763 -55.215,0 0,0C55.215,0 99.976,-44.763 99.976,-99.976C99.976,-155.191 55.215,-199.952 0,-199.952ZM0,-152.809C29.133,-152.809 52.833,-129.109 52.833,-99.976C52.833,-70.843 29.133,-47.143 0,-47.143C-29.133,-47.143 -52.833,-70.843 -52.833,-99.976C-52.833,-129.109 -29.133,-152.809 0,-152.809" style="fill:none;fill-rule:nonzero;stroke:rgb(35,31,32);stroke-width:1px;"/>
        </g>
        <g transform="matrix(0,-1,-1,0,766.553,764.001)">
            <path d="M-304.857,-304.857C-473.226,-304.857 -609.714,-168.369 -609.714,0C-609.714,168.368 -473.226,304.857 -304.857,304.857C-136.488,304.857 0,168.368 0,0C0,-168.369 -136.488,-304.857 -304.857,-304.857Z" style="fill:none;fill-rule:nonzero;stroke:rgb(35,31,32);stroke-width:1px;"/>
        </g>
        <g transform="matrix(0,-1,-1,0,768.124,152.716)">
            <path d="M-304.858,-304.858C-473.226,-304.858 -609.715,-168.369 -609.715,-0C-609.715,168.368 -473.226,304.858 -304.858,304.858C-136.489,304.858 -0,168.368 -0,-0C-0,-168.369 -136.489,-304.858 -304.858,-304.858Z" style="fill:none;fill-rule:nonzero;stroke:rgb(35,31,32);stroke-width:1px;"/>
        </g>
        <g transform="matrix(-1,0,0,1,1068.27,1068.86)">
            <path d="M0,-609.714C-168.367,-609.714 -304.857,-473.225 -304.857,-304.857C-304.857,-136.489 -168.367,0 0,0C168.369,0 304.857,-136.489 304.857,-304.857C304.857,-473.225 168.369,-609.714 0,-609.714Z" style="fill:none;fill-rule:nonzero;stroke:rgb(35,31,32);stroke-width:1px;"/>
        </g>
        <g transform="matrix(-1,0,0,1,458.552,1067.29)">
            <path d="M0,-609.714C-168.369,-609.714 -304.857,-473.225 -304.857,-304.857C-304.857,-136.49 -168.369,0 0,0C168.368,0 304.857,-136.49 304.857,-304.857C304.857,-473.225 168.368,-609.714 0,-609.714Z" style="fill:none;fill-rule:nonzero;stroke:rgb(35,31,32);stroke-width:1px;"/>
        </g>
        <g transform="matrix(1,0,0,1,719.744,807.228)">
            <path d="M0,-89.974C-24.846,-65.129 -24.846,-24.846 0,-0.001C24.845,24.845 65.129,24.845 89.974,-0.001C114.818,-24.846 114.818,-65.129 89.974,-89.974C65.129,-114.819 24.846,-114.819 0,-89.974M21.213,-68.761C34.322,-81.87 55.652,-81.87 68.761,-68.761C81.869,-55.652 81.869,-34.322 68.761,-21.214C55.652,-8.104 34.322,-8.104 21.213,-21.214C8.104,-34.322 8.104,-55.652 21.213,-68.761" style="fill:white;fill-rule:nonzero;"/>
        </g>
        <g transform="matrix(1,0,0,1,719.744,807.228)">
            <path d="M0,-89.974C-24.846,-65.129 -24.846,-24.846 0,-0.001C24.845,24.845 65.129,24.845 89.974,-0.001C114.818,-24.846 114.818,-65.129 89.974,-89.974C65.129,-114.819 24.846,-114.819 0,-89.974ZM21.213,-68.761C34.322,-81.87 55.652,-81.87 68.761,-68.761C81.869,-55.652 81.869,-34.322 68.761,-21.214C55.652,-8.104 34.322,-8.104 21.213,-21.214C8.104,-34.322 8.104,-55.652 21.213,-68.761" style="fill:none;fill-rule:nonzero;stroke:rgb(35,31,32);stroke-width:1px;"/>
        </g>
        <g transform="matrix(-0.707107,-0.707107,-0.707107,0.707107,708.357,899.334)">
            <path d="M-137.179,-331.179C-244.322,-331.179 -331.179,-244.323 -331.179,-137.179C-331.179,-30.035 -244.322,56.822 -137.179,56.821C-30.035,56.822 56.821,-30.036 56.82,-137.179C56.821,-244.322 -30.035,-331.178 -137.179,-331.179Z" style="fill:none;fill-rule:nonzero;stroke:rgb(35,31,32);stroke-width:1px;"/>
        </g>
        <g transform="matrix(-0.707107,-0.707107,-0.707107,0.707107,434,623.563)">
            <path d="M-137.178,-331.178C-244.322,-331.179 -331.178,-244.321 -331.177,-137.178C-331.177,-30.034 -244.321,56.822 -137.178,56.822C-30.035,56.822 56.822,-30.034 56.822,-137.178C56.823,-244.321 -30.034,-331.178 -137.178,-331.178Z" style="fill:none;fill-rule:nonzero;stroke:rgb(35,31,32);stroke-width:1px;"/>
        </g>
        <g transform="matrix(-0.707107,0.707107,0.707107,0.707107,1094.94,626.392)">
            <path d="M137.177,-331.179C30.034,-331.179 -56.822,-244.323 -56.822,-137.179C-56.822,-30.037 30.034,56.821 137.177,56.821C244.322,56.821 331.178,-30.036 331.177,-137.179C331.178,-244.323 244.322,-331.179 137.177,-331.179Z" style="fill:none;fill-rule:nonzero;stroke:rgb(35,31,32);stroke-width:1px;"/>
        </g>
        <g transform="matrix(-0.707107,0.707107,0.707107,0.707107,819.877,900.041)">
            <path d="M137.179,-331.178C30.035,-331.178 -56.822,-244.321 -56.821,-137.179C-56.821,-30.035 30.036,56.822 137.179,56.821C244.321,56.822 331.178,-30.035 331.178,-137.179C331.179,-244.321 244.322,-331.178 137.179,-331.178Z" style="fill:none;fill-rule:nonzero;stroke:rgb(35,31,32);stroke-width:1px;"/>
        </g>
    </g>
    <g id="Layer-8" serif:id="Layer 8" transform="matrix(4.16667,0,0,4.16667,0,0)">
        <g transform="matrix(1,0,0,1,740.656,821.599)">
            <path d="M0,-117.557C-32.463,-104.111 -47.878,-66.894 -34.432,-34.432C-20.985,-1.971 16.231,13.446 48.693,0C81.155,-13.447 96.57,-50.664 83.124,-83.125C69.679,-115.587 32.462,-131.003 0,-117.557M11.48,-89.84C28.608,-96.935 48.313,-88.773 55.408,-71.645C62.503,-54.517 54.341,-34.811 37.213,-27.717C20.085,-20.622 0.379,-28.785 -6.716,-45.912C-13.81,-63.04 -5.647,-82.745 11.48,-89.84" style="fill:white;fill-rule:nonzero;"/>
        </g>
        <g transform="matrix(1,0,0,1,740.656,821.599)">
            <path d="M0,-117.557C-32.463,-104.111 -47.878,-66.894 -34.432,-34.432C-20.985,-1.971 16.231,13.446 48.693,0C81.155,-13.447 96.57,-50.664 83.124,-83.125C69.679,-115.587 32.462,-131.003 0,-117.557ZM11.48,-89.84C28.608,-96.935 48.313,-88.773 55.408,-71.645C62.503,-54.517 54.341,-34.811 37.213,-27.717C20.085,-20.622 0.379,-28.785 -6.716,-45.912C-13.81,-63.04 -5.647,-82.745 11.48,-89.84" style="fill:none;fill-rule:nonzero;stroke:rgb(35,31,32);stroke-width:1px;"/>
        </g>
        <g transform="matrix(-0.382682,-0.92388,-0.92388,0.382682,702.509,804.966)">
            <path d="M-179.233,-268.242C-286.376,-268.241 -373.234,-181.385 -373.234,-74.241C-373.234,32.901 -286.377,119.76 -179.233,119.759C-72.089,119.759 14.766,32.902 14.767,-74.241C14.767,-181.385 -72.09,-268.241 -179.233,-268.242Z" style="fill:none;fill-rule:nonzero;stroke:rgb(35,31,32);stroke-width:1px;"/>
        </g>
        <g transform="matrix(-0.382683,-0.92388,-0.92388,0.382683,554.569,445.195)">
            <path d="M-179.232,-268.241C-286.376,-268.241 -373.233,-181.385 -373.233,-74.242C-373.233,32.902 -286.376,119.759 -179.232,119.759C-72.088,119.759 14.768,32.902 14.768,-74.241C14.767,-181.386 -72.088,-268.241 -179.232,-268.241Z" style="fill:none;fill-rule:nonzero;stroke:rgb(35,31,32);stroke-width:1px;"/>
        </g>
        <g transform="matrix(-0.92388,0.382683,0.382683,0.92388,1080.01,826.616)">
            <path d="M74.241,-373.233C-32.902,-373.232 -119.759,-286.376 -119.759,-179.231C-119.76,-72.089 -32.902,14.767 74.241,14.767C181.384,14.767 268.241,-72.09 268.24,-179.232C268.242,-286.376 181.384,-373.232 74.241,-373.233Z" style="fill:none;fill-rule:nonzero;stroke:rgb(35,31,32);stroke-width:1px;"/>
        </g>
        <g transform="matrix(-0.92388,0.382682,0.382682,0.92388,721.164,974.174)">
            <path d="M74.24,-373.233C-32.903,-373.233 -119.76,-286.376 -119.76,-179.233C-119.76,-72.091 -32.903,14.767 74.24,14.767C181.384,14.767 268.24,-72.09 268.241,-179.232C268.24,-286.377 181.384,-373.233 74.24,-373.233Z" style="fill:none;fill-rule:nonzero;stroke:rgb(35,31,32);stroke-width:1px;"/>
        </g>
        <g transform="matrix(1,0,0,1,705.479,786.156)">
            <path d="M0,-48.692C-13.447,-16.23 1.969,20.987 34.431,34.432C66.893,47.878 104.11,32.462 117.556,0C131.001,-32.461 115.585,-69.678 83.125,-83.124C50.663,-96.57 13.446,-81.154 0,-48.692M27.715,-37.212C34.811,-54.34 54.517,-62.503 71.645,-55.408C88.771,-48.313 96.934,-28.607 89.84,-11.48C82.746,5.648 63.039,13.811 45.911,6.716C28.783,-0.378 20.621,-20.085 27.715,-37.212" style="fill:white;fill-rule:nonzero;"/>
        </g>
        <g transform="matrix(1,0,0,1,705.479,786.156)">
            <path d="M0,-48.692C-13.447,-16.23 1.969,20.987 34.431,34.432C66.893,47.878 104.11,32.462 117.556,0C131.001,-32.461 115.585,-69.678 83.125,-83.124C50.663,-96.57 13.446,-81.154 0,-48.692ZM27.715,-37.212C34.811,-54.34 54.517,-62.503 71.645,-55.408C88.771,-48.313 96.934,-28.607 89.84,-11.48C82.746,5.648 63.039,13.811 45.911,6.716C28.783,-0.378 20.621,-20.085 27.715,-37.212" style="fill:none;fill-rule:nonzero;stroke:rgb(35,31,32);stroke-width:1px;"/>
        </g>
        <g transform="matrix(-0.923879,-0.382684,-0.382684,0.923879,806.69,972.978)">
            <path d="M-74.242,-373.232C-181.385,-373.233 -268.242,-286.375 -268.241,-179.233C-268.241,-72.089 -181.385,14.767 -74.242,14.767C32.902,14.769 119.758,-72.088 119.758,-179.231C119.758,-286.375 32.902,-373.231 -74.242,-373.232Z" style="fill:none;fill-rule:nonzero;stroke:rgb(35,31,32);stroke-width:1px;"/>
        </g>
        <g transform="matrix(-0.92388,-0.382683,-0.382683,0.92388,447.684,823.191)">
            <path d="M-74.24,-373.232C-181.385,-373.233 -268.24,-286.376 -268.24,-179.232C-268.24,-72.089 -181.384,14.767 -74.24,14.767C32.902,14.767 119.76,-72.09 119.759,-179.232C119.76,-286.376 32.902,-373.233 -74.24,-373.232Z" style="fill:none;fill-rule:nonzero;stroke:rgb(35,31,32);stroke-width:1px;"/>
        </g>
        <g transform="matrix(-0.382681,0.92388,0.92388,0.382681,975.291,446.995)">
            <path d="M179.233,-268.241C72.089,-268.24 -14.767,-181.384 -14.767,-74.239C-14.767,32.903 72.09,119.76 179.233,119.761C286.378,119.76 373.233,32.902 373.233,-74.241C373.233,-181.385 286.377,-268.241 179.233,-268.241Z" style="fill:none;fill-rule:nonzero;stroke:rgb(35,31,32);stroke-width:1px;"/>
        </g>
        <g transform="matrix(-0.382682,0.92388,0.92388,0.382682,825.886,805.079)">
            <path d="M179.233,-268.242C72.09,-268.241 -14.767,-181.385 -14.768,-74.241C-14.767,32.902 72.09,119.759 179.233,119.759C286.376,119.759 373.234,32.901 373.234,-74.241C373.233,-181.384 286.375,-268.242 179.233,-268.242Z" style="fill:none;fill-rule:nonzero;stroke:rgb(35,31,32);stroke-width:1px;"/>
        </g>
    </g>
    <g id="Layer-6" serif:id="Layer 6" transform="matrix(4.16667,0,0,4.16667,0,0)">
        <g transform="matrix(1,0,0,1,765.035,627.429)">
            <path d="M0,276L-120.072,68.031L120.068,68.031L0,276ZM-0.002,-12C-82.846,-12 -150.002,55.156 -150.002,138C-150.002,220.842 -82.846,288 -0.002,288C82.84,288 149.998,220.842 149.998,138C149.998,55.156 82.84,-12 -0.002,-12" style="fill:white;fill-rule:nonzero;"/>
        </g>
        <g transform="matrix(1,0,0,1,765.035,627.429)">
            <path d="M0,276L-120.072,68.031L120.068,68.031L0,276ZM-0.002,-12C-82.846,-12 -150.002,55.156 -150.002,138C-150.002,220.842 -82.846,288 -0.002,288C82.84,288 149.998,220.842 149.998,138C149.998,55.156 82.84,-12 -0.002,-12Z" style="fill:none;fill-rule:nonzero;stroke:rgb(35,31,32);stroke-width:1px;"/>
        </g>
    </g>
    <g id="Layer-5" serif:id="Layer 5" transform="matrix(4.16667,0,0,4.16667,0,0)">
        <g transform="matrix(0,-1,-1,0,1374.41,326.716)">
            <circle cx="-34" cy="0" r="34" style="fill:none;stroke:rgb(35,31,32);stroke-width:1px;"/>
        </g>
        <g transform="matrix(0,-1,-1,0,1478.41,590.716)">
            <circle cx="-34" cy="0" r="34" style="fill:none;stroke:rgb(35,31,32);stroke-width:1px;"/>
        </g>
        <g transform="matrix(0,-1,-1,0,1170.41,122.716)">
            <circle cx="-34" cy="0" r="34" style="fill:none;stroke:rgb(35,31,32);stroke-width:1px;"/>
        </g>
        <g transform="matrix(0,-1,-1,0,906.41,14.7159)">
            <circle cx="-34" cy="0" r="34" style="fill:none;stroke:rgb(35,31,32);stroke-width:1px;"/>
        </g>
        <g transform="matrix(0,-1,-1,0,624.41,16.7159)">
            <circle cx="-34" cy="0" r="34" style="fill:none;stroke:rgb(35,31,32);stroke-width:1px;"/>
        </g>
        <g transform="matrix(0,-1,-1,0,358.41,124.716)">
            <circle cx="-34" cy="0" r="34" style="fill:none;stroke:rgb(35,31,32);stroke-width:1px;"/>
        </g>
        <g transform="matrix(0,-1,-1,0,156.41,328.716)">
            <circle cx="-34" cy="0" r="34" style="fill:none;stroke:rgb(35,31,32);stroke-width:1px;"/>
        </g>
        <g transform="matrix(0,-1,-1,0,46.4097,590.716)">
            <circle cx="-34" cy="0" r="34" style="fill:none;stroke:rgb(35,31,32);stroke-width:1px;"/>
        </g>
        <g transform="matrix(0,-1,-1,0,48.4097,872.716)">
            <circle cx="-34" cy="0" r="34" style="fill:none;stroke:rgb(35,31,32);stroke-width:1px;"/>
        </g>
        <g transform="matrix(0,-1,-1,0,156.41,1134.72)">
            <circle cx="-34" cy="0" r="34" style="fill:none;stroke:rgb(35,31,32);stroke-width:1px;"/>
        </g>
        <g transform="matrix(0,-1,-1,0,362.41,1338.72)">
            <circle cx="-34" cy="0" r="34" style="fill:none;stroke:rgb(35,31,32);stroke-width:1px;"/>
        </g>
        <g transform="matrix(0,-1,-1,0,622.41,1448.72)">
            <circle cx="-34" cy="0" r="34" style="fill:none;stroke:rgb(35,31,32);stroke-width:1px;"/>
        </g>
        <g transform="matrix(0,-1,-1,0,904.41,1444.72)">
            <circle cx="-34" cy="0" r="34" style="fill:none;stroke:rgb(35,31,32);stroke-width:1px;"/>
        </g>
        <g transform="matrix(0,-1,-1,0,1168.41,1336.72)">
            <circle cx="-34" cy="0" r="34" style="fill:none;stroke:rgb(35,31,32);stroke-width:1px;"/>
        </g>
        <g transform="matrix(0,-1,-1,0,1368.41,1132.72)">
            <circle cx="-34" cy="0" r="34" style="fill:none;stroke:rgb(35,31,32);stroke-width:1px;"/>
        </g>
        <g transform="matrix(0,-1,-1,0,1478.41,872.716)">
            <circle cx="-34" cy="0" r="34" style="fill:none;stroke:rgb(35,31,32);stroke-width:1px;"/>
        </g>
    </g>
    <g id="Layer-14" serif:id="Layer 14" transform="matrix(4.16667,0,0,4.16667,0,0)">
        <g transform="matrix(0,-1,-1,0,1221.21,436.612)">
            <circle cx="-25.489" cy="0" r="25.489" style="fill:none;stroke:rgb(35,31,32);stroke-width:1px;"/>
        </g>
        <g transform="matrix(0,-1,-1,0,1299.17,634.524)">
            <ellipse cx="-25.489" cy="-0.001" rx="25.488" ry="25.489" style="fill:none;stroke:rgb(35,31,32);stroke-width:1px;"/>
        </g>
        <g transform="matrix(0,-1,-1,0,1068.27,283.68)">
            <ellipse cx="-25.489" cy="-0.001" rx="25.488" ry="25.489" style="fill:none;stroke:rgb(35,31,32);stroke-width:1px;"/>
        </g>
        <g transform="matrix(0,-1,-1,0,870.362,202.716)">
            <ellipse cx="-25.488" cy="0" rx="25.489" ry="25.488" style="fill:none;stroke:rgb(35,31,32);stroke-width:1px;"/>
        </g>
        <g transform="matrix(0,-1,-1,0,658.955,204.215)">
            <circle cx="-25.489" cy="0" r="25.489" style="fill:none;stroke:rgb(35,31,32);stroke-width:1px;"/>
        </g>
        <g transform="matrix(0,-1,-1,0,459.544,285.18)">
            <ellipse cx="-25.488" cy="0" rx="25.489" ry="25.488" style="fill:none;stroke:rgb(35,31,32);stroke-width:1px;"/>
        </g>
        <g transform="matrix(0,-1,-1,0,308.111,438.111)">
            <circle cx="-25.489" cy="0" r="25.489" style="fill:none;stroke:rgb(35,31,32);stroke-width:1px;"/>
        </g>
        <g transform="matrix(0,-1,-1,0,225.648,634.525)">
            <circle cx="-25.488" cy="-0.001" r="25.488" style="fill:none;stroke:rgb(35,31,32);stroke-width:1px;"/>
        </g>
        <g transform="matrix(0,-1,-1,0,227.147,845.93)">
            <ellipse cx="-25.489" cy="0" rx="25.488" ry="25.489" style="fill:none;stroke:rgb(35,31,32);stroke-width:1px;"/>
        </g>
        <g transform="matrix(0,-1,-1,0,308.111,1042.34)">
            <ellipse cx="-25.489" cy="-0.001" rx="25.488" ry="25.489" style="fill:none;stroke:rgb(35,31,32);stroke-width:1px;"/>
        </g>
        <g transform="matrix(0,-1,-1,0,462.543,1195.28)">
            <ellipse cx="-25.488" cy="0" rx="25.488" ry="25.488" style="fill:none;stroke:rgb(35,31,32);stroke-width:1px;"/>
        </g>
        <g transform="matrix(0,-1,-1,0,657.456,1277.74)">
            <circle cx="-25.488" cy="-0.001" r="25.488" style="fill:none;stroke:rgb(35,31,32);stroke-width:1px;"/>
        </g>
        <g transform="matrix(0,-1,-1,0,868.862,1274.74)">
            <ellipse cx="-25.489" cy="0" rx="25.488" ry="25.489" style="fill:none;stroke:rgb(35,31,32);stroke-width:1px;"/>
        </g>
        <g transform="matrix(0,-1,-1,0,1066.77,1193.78)">
            <ellipse cx="-25.489" cy="0" rx="25.488" ry="25.489" style="fill:none;stroke:rgb(35,31,32);stroke-width:1px;"/>
        </g>
        <g transform="matrix(0,-1,-1,0,1216.71,1040.84)">
            <ellipse cx="-25.489" cy="0" rx="25.488" ry="25.489" style="fill:none;stroke:rgb(35,31,32);stroke-width:1px;"/>
        </g>
        <g transform="matrix(0,-1,-1,0,1299.17,845.93)">
            <ellipse cx="-25.489" cy="0" rx="25.488" ry="25.489" style="fill:none;stroke:rgb(35,31,32);stroke-width:1px;"/>
        </g>
    </g>
    <g id="Layer-15" serif:id="Layer 15" transform="matrix(4.16667,0,0,4.16667,0,0)">
        <g transform="matrix(0,-1,-1,0,1320,366.465)">
            <ellipse cx="-30.922" cy="-0" rx="30.921" ry="30.922" style="fill:none;stroke:rgb(35,31,32);stroke-width:1px;"/>
        </g>
        <g transform="matrix(0,-1,-1,0,1414.58,606.562)">
            <circle cx="-30.921" cy="-0" r="30.921" style="fill:none;stroke:rgb(35,31,32);stroke-width:1px;"/>
        </g>
        <g transform="matrix(0,-1,-1,0,1134.47,180.937)">
            <circle cx="-30.921" cy="-0" r="30.921" style="fill:none;stroke:rgb(35,31,32);stroke-width:1px;"/>
        </g>
        <g transform="matrix(0,-1,-1,0,894.37,82.7162)">
            <circle cx="-30.921" cy="-0" r="30.921" style="fill:none;stroke:rgb(35,31,32);stroke-width:1px;"/>
        </g>
        <g transform="matrix(0,-1,-1,0,637.905,84.5351)">
            <circle cx="-30.921" cy="-0" r="30.921" style="fill:none;stroke:rgb(35,31,32);stroke-width:1px;"/>
        </g>
        <g transform="matrix(0,-1,-1,0,395.99,182.756)">
            <circle cx="-30.921" cy="-0" r="30.921" style="fill:none;stroke:rgb(35,31,32);stroke-width:1px;"/>
        </g>
        <g transform="matrix(0,-1,-1,0,212.281,368.285)">
            <ellipse cx="-30.921" cy="0" rx="30.922" ry="30.921" style="fill:none;stroke:rgb(35,31,32);stroke-width:1px;"/>
        </g>
        <g transform="matrix(0,-1,-1,0,112.24,606.562)">
            <circle cx="-30.921" cy="-0" r="30.921" style="fill:none;stroke:rgb(35,31,32);stroke-width:1px;"/>
        </g>
        <g transform="matrix(0,-1,-1,0,114.06,863.027)">
            <circle cx="-30.921" cy="0" r="30.921" style="fill:none;stroke:rgb(35,31,32);stroke-width:1px;"/>
        </g>
        <g transform="matrix(0,-1,-1,0,212.28,1101.3)">
            <circle cx="-30.921" cy="-0" r="30.921" style="fill:none;stroke:rgb(35,31,32);stroke-width:1px;"/>
        </g>
        <g transform="matrix(0,-1,-1,0,399.628,1286.83)">
            <circle cx="-30.921" cy="0" r="30.921" style="fill:none;stroke:rgb(35,31,32);stroke-width:1px;"/>
        </g>
        <g transform="matrix(0,-1,-1,0,636.085,1386.87)">
            <circle cx="-30.921" cy="-0" r="30.921" style="fill:none;stroke:rgb(35,31,32);stroke-width:1px;"/>
        </g>
        <g transform="matrix(0,-1,-1,0,892.551,1383.24)">
            <circle cx="-30.921" cy="-0" r="30.921" style="fill:none;stroke:rgb(35,31,32);stroke-width:1px;"/>
        </g>
        <g transform="matrix(0,-1,-1,0,1132.65,1285.01)">
            <ellipse cx="-30.922" cy="0" rx="30.921" ry="30.922" style="fill:none;stroke:rgb(35,31,32);stroke-width:1px;"/>
        </g>
        <g transform="matrix(0,-1,-1,0,1314.54,1099.49)">
            <circle cx="-30.921" cy="0" r="30.921" style="fill:none;stroke:rgb(35,31,32);stroke-width:1px;"/>
        </g>
        <g transform="matrix(0,-1,-1,0,1414.58,863.027)">
            <circle cx="-30.921" cy="0" r="30.921" style="fill:none;stroke:rgb(35,31,32);stroke-width:1px;"/>
        </g>
    </g>
    <g id="Layer-16" serif:id="Layer 16" transform="matrix(4.16667,0,0,4.16667,0,0)">
        <g transform="matrix(0,-1,-1,0,1131.82,502.169)">
            <circle cx="-20.412" cy="0" r="20.412" style="fill:none;stroke:rgb(35,31,32);stroke-width:1px;"/>
        </g>
        <g transform="matrix(0,-1,-1,0,1194.25,660.658)">
            <circle cx="-20.412" cy="-0" r="20.412" style="fill:none;stroke:rgb(35,31,32);stroke-width:1px;"/>
        </g>
        <g transform="matrix(0,-1,-1,0,1009.35,379.701)">
            <circle cx="-20.412" cy="-0" r="20.412" style="fill:none;stroke:rgb(35,31,32);stroke-width:1px;"/>
        </g>
        <g transform="matrix(0,-1,-1,0,850.858,314.865)">
            <ellipse cx="-20.411" cy="0" rx="20.412" ry="20.411" style="fill:none;stroke:rgb(35,31,32);stroke-width:1px;"/>
        </g>
        <g transform="matrix(0,-1,-1,0,681.563,316.066)">
            <circle cx="-20.412" cy="-0" r="20.412" style="fill:none;stroke:rgb(35,31,32);stroke-width:1px;"/>
        </g>
        <g transform="matrix(0,-1,-1,0,521.874,380.902)">
            <circle cx="-20.412" cy="-0" r="20.412" style="fill:none;stroke:rgb(35,31,32);stroke-width:1px;"/>
        </g>
        <g transform="matrix(0,-1,-1,0,400.608,503.37)">
            <ellipse cx="-20.411" cy="0" rx="20.412" ry="20.412" style="fill:none;stroke:rgb(35,31,32);stroke-width:1px;"/>
        </g>
        <g transform="matrix(0,-1,-1,0,334.57,660.658)">
            <ellipse cx="-20.411" cy="-0" rx="20.412" ry="20.411" style="fill:none;stroke:rgb(35,31,32);stroke-width:1px;"/>
        </g>
        <g transform="matrix(0,-1,-1,0,335.772,829.951)">
            <ellipse cx="-20.412" cy="0.001" rx="20.411" ry="20.412" style="fill:none;stroke:rgb(35,31,32);stroke-width:1px;"/>
        </g>
        <g transform="matrix(0,-1,-1,0,400.608,987.238)">
            <circle cx="-20.412" cy="0" r="20.412" style="fill:none;stroke:rgb(35,31,32);stroke-width:1px;"/>
        </g>
        <g transform="matrix(0,-1,-1,0,524.276,1109.71)">
            <circle cx="-20.411" cy="0" r="20.411" style="fill:none;stroke:rgb(35,31,32);stroke-width:1px;"/>
        </g>
        <g transform="matrix(0,-1,-1,0,680.362,1175.74)">
            <circle cx="-20.411" cy="-0.001" r="20.411" style="fill:none;stroke:rgb(35,31,32);stroke-width:1px;"/>
        </g>
        <g transform="matrix(0,-1,-1,0,849.657,1173.34)">
            <circle cx="-20.411" cy="0" r="20.411" style="fill:none;stroke:rgb(35,31,32);stroke-width:1px;"/>
        </g>
        <g transform="matrix(0,-1,-1,0,1008.15,1108.51)">
            <circle cx="-20.412" cy="0" r="20.412" style="fill:none;stroke:rgb(35,31,32);stroke-width:1px;"/>
        </g>
        <g transform="matrix(0,-1,-1,0,1128.21,986.038)">
            <ellipse cx="-20.412" cy="0.001" rx="20.411" ry="20.412" style="fill:none;stroke:rgb(35,31,32);stroke-width:1px;"/>
        </g>
        <g transform="matrix(0,-1,-1,0,1194.25,829.951)">
            <ellipse cx="-20.412" cy="0.001" rx="20.411" ry="20.412" style="fill:none;stroke:rgb(35,31,32);stroke-width:1px;"/>
        </g>
    </g>
    <g id="Layer-17" serif:id="Layer 17" transform="matrix(4.16667,0,0,4.16667,0,0)">
        <g transform="matrix(0,-1,-1,0,1007.95,591.021)">
            <ellipse cx="-13.531" cy="0" rx="13.53" ry="13.531" style="fill:none;stroke:rgb(35,31,32);stroke-width:1px;"/>
        </g>
        <g transform="matrix(0,-1,-1,0,1049.33,696.077)">
            <ellipse cx="-13.53" cy="-0.001" rx="13.53" ry="13.53" style="fill:none;stroke:rgb(35,31,32);stroke-width:1px;"/>
        </g>
        <g transform="matrix(0,-1,-1,0,926.768,509.842)">
            <ellipse cx="-13.531" cy="0" rx="13.53" ry="13.531" style="fill:none;stroke:rgb(35,31,32);stroke-width:1px;"/>
        </g>
        <g transform="matrix(0,-1,-1,0,821.713,466.865)">
            <circle cx="-13.53" cy="0" r="13.53" style="fill:none;stroke:rgb(35,31,32);stroke-width:1px;"/>
        </g>
        <g transform="matrix(0,-1,-1,0,709.493,467.661)">
            <circle cx="-13.53" cy="-0.001" r="13.53" style="fill:none;stroke:rgb(35,31,32);stroke-width:1px;"/>
        </g>
        <g transform="matrix(0,-1,-1,0,603.643,510.638)">
            <circle cx="-13.53" cy="0" r="13.53" style="fill:none;stroke:rgb(35,31,32);stroke-width:1px;"/>
        </g>
        <g transform="matrix(0,-1,-1,0,523.26,591.817)">
            <circle cx="-13.53" cy="0" r="13.53" style="fill:none;stroke:rgb(35,31,32);stroke-width:1px;"/>
        </g>
        <g transform="matrix(0,-1,-1,0,479.486,696.077)">
            <ellipse cx="-13.53" cy="-0.001" rx="13.53" ry="13.53" style="fill:none;stroke:rgb(35,31,32);stroke-width:1px;"/>
        </g>
        <g transform="matrix(0,-1,-1,0,480.283,808.295)">
            <ellipse cx="-13.53" cy="0" rx="13.53" ry="13.53" style="fill:none;stroke:rgb(35,31,32);stroke-width:1px;"/>
        </g>
        <g transform="matrix(0,-1,-1,0,523.26,912.554)">
            <circle cx="-13.53" cy="0" r="13.53" style="fill:none;stroke:rgb(35,31,32);stroke-width:1px;"/>
        </g>
        <g transform="matrix(0,-1,-1,0,605.236,993.734)">
            <circle cx="-13.529" cy="0" r="13.529" style="fill:none;stroke:rgb(35,31,32);stroke-width:1px;"/>
        </g>
        <g transform="matrix(0,-1,-1,0,708.698,1037.51)">
            <ellipse cx="-13.53" cy="-0.001" rx="13.53" ry="13.53" style="fill:none;stroke:rgb(35,31,32);stroke-width:1px;"/>
        </g>
        <g transform="matrix(0,-1,-1,0,820.917,1035.91)">
            <ellipse cx="-13.53" cy="0" rx="13.53" ry="13.53" style="fill:none;stroke:rgb(35,31,32);stroke-width:1px;"/>
        </g>
        <g transform="matrix(0,-1,-1,0,925.973,992.937)">
            <ellipse cx="-13.53" cy="0" rx="13.53" ry="13.53" style="fill:none;stroke:rgb(35,31,32);stroke-width:1px;"/>
        </g>
        <g transform="matrix(0,-1,-1,0,1005.56,911.759)">
            <ellipse cx="-13.53" cy="0" rx="13.53" ry="13.53" style="fill:none;stroke:rgb(35,31,32);stroke-width:1px;"/>
        </g>
        <g transform="matrix(0,-1,-1,0,1049.33,808.295)">
            <ellipse cx="-13.53" cy="0" rx="13.53" ry="13.53" style="fill:none;stroke:rgb(35,31,32);stroke-width:1px;"/>
        </g>
    </g>
</svg>
