<?xml version="1.0" encoding="UTF-8" standalone="no"?>
<!DOCTYPE svg PUBLIC "-//W3C//DTD SVG 1.1//EN" "http://www.w3.org/Graphics/SVG/1.1/DTD/svg11.dtd">
<svg width="100%" height="100%" viewBox="0 0 6378 6378" version="1.1" xmlns="http://www.w3.org/2000/svg" xmlns:xlink="http://www.w3.org/1999/xlink" xml:space="preserve" xmlns:serif="http://www.serif.com/" style="fill-rule:evenodd;clip-rule:evenodd;stroke-miterlimit:10;">
    <g id="Layer-1" serif:id="Layer 1">
    </g>
    <g transform="matrix(0.00483708,-4.16666,-4.16666,-0.00483708,3193.22,0.00727512)">
        <g id="Layer-2" serif:id="Layer 2">
            <path d="M-765.354,-764.469C-342.317,-764.466 -0.001,-422.151 -0.001,0.885C-0.002,423.923 -342.317,766.242 -765.354,766.241C-1188.39,766.241 -1530.71,423.926 -1530.71,0.887C-1530.71,-422.153 -1188.39,-764.467 -765.354,-764.469Z" style="fill:none;fill-rule:nonzero;stroke:rgb(35,31,32);stroke-width:1px;"/>
        </g>
    </g>
    <g id="Layer-10" serif:id="Layer 10" transform="matrix(4.16667,0,0,4.16667,0,0)">
        <g transform="matrix(0,-1,-1,0,764.354,24.3)">
            <path d="M-741.055,-741.055C-331.448,-741.055 0,-409.607 0,-0C0,409.607 -331.448,741.055 -741.055,741.055C-1150.66,741.055 -1482.11,409.607 -1482.11,-0C-1482.11,-409.607 -1150.66,-741.055 -741.055,-741.055Z" style="fill:none;fill-rule:nonzero;stroke:rgb(35,31,32);stroke-width:1px;"/>
        </g>
        <g transform="matrix(1,0,0,1,764.354,130.32)">
            <path d="M0,1270.07C-350.988,1270.07 -635.036,986.024 -635.036,635.036C-635.036,284.048 -350.988,0 0,0C350.988,0 635.036,284.048 635.036,635.036C635.036,986.024 350.988,1270.07 0,1270.07Z" style="fill:none;fill-rule:nonzero;stroke:rgb(35,31,32);stroke-width:1px;"/>
        </g>
        <g transform="matrix(0,-1,-1,0,764.354,235.979)">
            <path d="M-529.377,-529.377C-236.646,-529.377 0,-292.731 0,-0.001C0,292.731 -236.646,529.377 -529.377,529.377C-822.107,529.377 -1058.75,292.731 -1058.75,-0.001C-1058.75,-292.731 -822.107,-529.377 -529.377,-529.377Z" style="fill:none;fill-rule:nonzero;stroke:rgb(35,31,32);stroke-width:1px;"/>
        </g>
        <g transform="matrix(1,0,0,1,764.354,341.998)">
            <path d="M0,846.714C-234.113,846.714 -423.357,657.47 -423.357,423.358C-423.357,189.245 -234.113,0 0,0C234.113,0 423.357,189.245 423.357,423.358C423.357,657.47 234.113,846.714 0,846.714Z" style="fill:none;fill-rule:nonzero;stroke:rgb(35,31,32);stroke-width:1px;"/>
        </g>
        <g transform="matrix(0,-1,-1,0,764.355,447.656)">
            <path d="M-317.7,-317.699C-142.205,-317.699 -0,-175.495 -0,0C-0,175.494 -142.205,317.7 -317.7,317.7C-493.193,317.7 -635.398,175.494 -635.398,0C-635.398,-175.495 -493.193,-317.699 -317.7,-317.699Z" style="fill:none;fill-rule:nonzero;stroke:rgb(35,31,32);stroke-width:1px;"/>
        </g>
        <g transform="matrix(1,0,0,1,764.354,553.677)">
            <path d="M0,423.357C-116.875,423.357 -211.678,328.554 -211.678,211.678C-211.678,94.803 -116.875,0 0,0C116.875,0 211.679,94.803 211.679,211.678C211.679,328.554 116.875,423.357 0,423.357Z" style="fill:none;fill-rule:nonzero;stroke:rgb(35,31,32);stroke-width:1px;"/>
        </g>
        <g transform="matrix(0,-1,-1,0,764.355,659.335)">
            <path d="M-106.021,-106.02C-47.402,-106.02 0,-58.618 0,0C0,58.619 -47.402,106.021 -106.021,106.021C-164.639,106.021 -212.041,58.619 -212.041,0C-212.041,-58.618 -164.639,-106.02 -106.021,-106.02Z" style="fill:none;fill-rule:nonzero;stroke:rgb(35,31,32);stroke-width:1px;"/>
        </g>
        <g transform="matrix(0,1,1,0,1134.88,1135.88)">
            <path d="M-370.528,-370.528L370.528,-370.528" style="fill:none;fill-rule:nonzero;stroke:rgb(35,31,32);stroke-width:1px;"/>
        </g>
        <g transform="matrix(0.707107,0.707106,0.707106,-0.707107,1026.33,656.842)">
            <path d="M-108.513,-261.974L632.463,-261.974" style="fill:none;fill-rule:nonzero;stroke:rgb(35,31,32);stroke-width:1px;"/>
        </g>
        <g transform="matrix(1,0,0,1,764.354,765.356)">
            <path d="M0,0L741.055,0" style="fill:none;fill-rule:nonzero;stroke:rgb(35,31,32);stroke-width:1px;"/>
        </g>
        <g transform="matrix(0.707107,-0.707107,-0.707107,-0.707107,1026.33,873.869)">
            <path d="M-108.514,261.975L632.464,261.975" style="fill:none;fill-rule:nonzero;stroke:rgb(35,31,32);stroke-width:1px;"/>
        </g>
        <g transform="matrix(0,-1,-1,0,1134.88,394.828)">
            <path d="M-370.528,370.528L370.528,370.528" style="fill:none;fill-rule:nonzero;stroke:rgb(35,31,32);stroke-width:1px;"/>
        </g>
        <g transform="matrix(-0.707107,-0.707107,-0.707107,0.707107,502.38,132.892)">
            <path d="M-632.464,261.975L108.514,261.975" style="fill:none;fill-rule:nonzero;stroke:rgb(35,31,32);stroke-width:1px;"/>
        </g>
        <g transform="matrix(-1,0,0,1,23.2985,765.356)">
            <path d="M-741.056,0L0,0" style="fill:none;fill-rule:nonzero;stroke:rgb(35,31,32);stroke-width:1px;"/>
        </g>
        <g transform="matrix(-0.707107,0.707106,0.707106,0.707107,502.379,1397.82)">
            <path d="M-632.463,-261.974L108.513,-261.974" style="fill:none;fill-rule:nonzero;stroke:rgb(35,31,32);stroke-width:1px;"/>
        </g>
    </g>
    <g id="Layer-11" serif:id="Layer 11" transform="matrix(4.16667,0,0,4.16667,0,0)">
        <g transform="matrix(0,-1,-1,0,1131.41,502.304)">
            <circle cx="-20.412" cy="0" r="20.412" style="fill:none;stroke:rgb(35,31,32);stroke-width:1px;"/>
        </g>
        <g transform="matrix(0,-1,-1,0,1193.84,660.793)">
            <circle cx="-20.412" cy="-0" r="20.412" style="fill:none;stroke:rgb(35,31,32);stroke-width:1px;"/>
        </g>
        <g transform="matrix(0,-1,-1,0,1008.94,379.837)">
            <circle cx="-20.412" cy="-0" r="20.412" style="fill:none;stroke:rgb(35,31,32);stroke-width:1px;"/>
        </g>
        <g transform="matrix(0,-1,-1,0,850.454,315.001)">
            <ellipse cx="-20.411" cy="0" rx="20.412" ry="20.411" style="fill:none;stroke:rgb(35,31,32);stroke-width:1px;"/>
        </g>
        <g transform="matrix(0,-1,-1,0,681.159,316.201)">
            <circle cx="-20.412" cy="-0" r="20.412" style="fill:none;stroke:rgb(35,31,32);stroke-width:1px;"/>
        </g>
        <g transform="matrix(0,-1,-1,0,521.47,381.037)">
            <circle cx="-20.412" cy="-0" r="20.412" style="fill:none;stroke:rgb(35,31,32);stroke-width:1px;"/>
        </g>
        <g transform="matrix(0,-1,-1,0,400.203,503.505)">
            <ellipse cx="-20.411" cy="0" rx="20.412" ry="20.412" style="fill:none;stroke:rgb(35,31,32);stroke-width:1px;"/>
        </g>
        <g transform="matrix(0,-1,-1,0,334.166,660.794)">
            <ellipse cx="-20.411" cy="-0" rx="20.412" ry="20.411" style="fill:none;stroke:rgb(35,31,32);stroke-width:1px;"/>
        </g>
        <g transform="matrix(0,-1,-1,0,335.368,830.087)">
            <ellipse cx="-20.412" cy="0.001" rx="20.411" ry="20.412" style="fill:none;stroke:rgb(35,31,32);stroke-width:1px;"/>
        </g>
        <g transform="matrix(0,-1,-1,0,400.204,987.374)">
            <ellipse cx="-20.412" cy="0.001" rx="20.411" ry="20.412" style="fill:none;stroke:rgb(35,31,32);stroke-width:1px;"/>
        </g>
        <g transform="matrix(0,-1,-1,0,523.871,1109.84)">
            <circle cx="-20.411" cy="-0.001" r="20.411" style="fill:none;stroke:rgb(35,31,32);stroke-width:1px;"/>
        </g>
        <g transform="matrix(0,-1,-1,0,679.959,1175.88)">
            <circle cx="-20.411" cy="-0.001" r="20.411" style="fill:none;stroke:rgb(35,31,32);stroke-width:1px;"/>
        </g>
        <g transform="matrix(0,-1,-1,0,849.254,1173.48)">
            <circle cx="-20.411" cy="0.001" r="20.411" style="fill:none;stroke:rgb(35,31,32);stroke-width:1px;"/>
        </g>
        <g transform="matrix(0,-1,-1,0,1007.74,1108.64)">
            <ellipse cx="-20.412" cy="0.001" rx="20.411" ry="20.412" style="fill:none;stroke:rgb(35,31,32);stroke-width:1px;"/>
        </g>
        <g transform="matrix(0,-1,-1,0,1127.81,986.173)">
            <ellipse cx="-20.412" cy="0.001" rx="20.411" ry="20.412" style="fill:none;stroke:rgb(35,31,32);stroke-width:1px;"/>
        </g>
        <g transform="matrix(0,-1,-1,0,1193.85,830.087)">
            <ellipse cx="-20.412" cy="0.001" rx="20.411" ry="20.412" style="fill:none;stroke:rgb(35,31,32);stroke-width:1px;"/>
        </g>
    </g>
    <g id="Layer-12" serif:id="Layer 12" transform="matrix(4.16667,0,0,4.16667,0,0)">
        <g transform="matrix(0,-1,-1,0,766.41,56.7159)">
            <circle cx="-34" cy="0" r="34" style="fill:none;stroke:rgb(35,31,32);stroke-width:1px;"/>
        </g>
        <g transform="matrix(0,-1,-1,0,94.4097,728.716)">
            <circle cx="-34" cy="0" r="34" style="fill:none;stroke:rgb(35,31,32);stroke-width:1px;"/>
        </g>
        <g transform="matrix(0,-1,-1,0,1438.41,726.716)">
            <circle cx="-34" cy="0" r="34" style="fill:none;stroke:rgb(35,31,32);stroke-width:1px;"/>
        </g>
        <g transform="matrix(0,-1,-1,0,764.41,1402.72)">
            <circle cx="-34" cy="0" r="34" style="fill:none;stroke:rgb(35,31,32);stroke-width:1px;"/>
        </g>
    </g>
    <g id="Layer-9" serif:id="Layer 9" transform="matrix(4.16667,0,0,4.16667,0,0)">
        <g transform="matrix(0.89927,-0.437394,-0.437394,-0.89927,947.789,689.27)">
            <path d="M-74.543,-45.217C37.564,6.616 -8.35,98.395 -27.998,142.304C-44.283,178.693 -70.976,219.787 -74.543,264.442C-111.875,239.68 -160.684,235.308 -199.362,225.653C-246.035,214.002 -346.577,193.457 -318.145,73.269" style="fill:none;fill-rule:nonzero;stroke:rgb(35,31,32);stroke-width:1px;"/>
        </g>
        <g transform="matrix(-0.89927,-0.437394,-0.437394,0.89927,582.391,967.981)">
            <path d="M-196.341,-323.684C-308.448,-271.851 -262.534,-180.072 -242.886,-136.163C-226.601,-99.774 -199.908,-58.68 -196.341,-14.025C-159.009,-38.787 -110.2,-43.159 -71.522,-52.814C-24.849,-64.465 75.693,-85.01 47.261,-205.198" style="fill:none;fill-rule:nonzero;stroke:rgb(35,31,32);stroke-width:1px;"/>
        </g>
        <g transform="matrix(0.934376,-0.356288,-0.356288,-0.934376,955.932,702.264)">
            <path d="M-72.538,-36.747C64.809,42.163 30.827,140.779 0.754,194.649C-24.17,239.291 -62.923,288.767 -72.538,345.411C-117.425,309.549 -179.285,298.438 -227.602,281.723C-285.907,261.553 -376.409,211.188 -326.476,60.866" style="fill:none;fill-rule:nonzero;stroke:rgb(35,31,32);stroke-width:1px;"/>
        </g>
        <g transform="matrix(-0.934519,-0.355913,-0.355913,0.934519,573.707,1059.69)">
            <path d="M-200.298,-394.36C-337.613,-315.394 -303.744,-216.39 -273.65,-162.533C-248.708,-117.901 -209.935,-68.439 -200.298,-11.8C-155.425,-47.679 -93.569,-58.816 -45.259,-75.55C13.038,-95.743 104.686,-146.944 54.692,-297.246" style="fill:none;fill-rule:nonzero;stroke:rgb(35,31,32);stroke-width:1px;"/>
        </g>
        <g transform="matrix(0.953842,-0.300309,-0.300309,-0.953842,960.985,713.012)">
            <path d="M-71.566,-30.826C89.126,74.632 68.348,184.572 28.05,247.662C-5.351,299.945 -55.848,357.088 -71.566,425.009C-123.359,378.344 -197.489,360.438 -254.815,336.72C-323.989,308.096 -401.541,232.182 -330.253,53.688" style="fill:none;fill-rule:nonzero;stroke:rgb(35,31,32);stroke-width:1px;"/>
        </g>
        <g transform="matrix(-0.953027,-0.302884,-0.302884,0.953027,570.91,1143.28)">
            <path d="M-201.087,-462.75C-362.064,-357.728 -340.351,-249.191 -300.223,-185.993C-266.964,-133.621 -216.622,-76.34 -201.087,-8.378C-149.168,-54.902 -74.989,-72.609 -17.6,-96.172C51.651,-124.608 130.203,-202.815 59.397,-381.502" style="fill:none;fill-rule:nonzero;stroke:rgb(35,31,32);stroke-width:1px;"/>
        </g>
        <g transform="matrix(0.968748,-0.248047,-0.248047,-0.968748,965.062,721.305)">
            <path d="M-70.97,-25.804C120.406,115.237 117.984,241.473 63.974,316.683C19.211,379.009 -46.995,446.19 -70.97,529.017C-131.801,467.904 -222.15,440.81 -291.355,407.665C-374.864,367.666 -437.263,261.803 -337.227,46.147" style="fill:none;fill-rule:nonzero;stroke:rgb(35,31,32);stroke-width:1px;"/>
        </g>
        <g transform="matrix(-0.968149,-0.250375,-0.250375,0.968149,565.084,1255.85)">
            <path d="M-204.41,-560.991C-396.125,-420.41 -392.673,-296.402 -338.845,-221.062C-294.232,-158.629 -228.187,-91.288 -204.41,-8.403C-143.433,-69.37 -53.018,-96.248 16.265,-129.226C99.871,-169.024 162.106,-276.045 62.589,-491.942" style="fill:none;fill-rule:nonzero;stroke:rgb(35,31,32);stroke-width:1px;"/>
        </g>
        <g transform="matrix(0.976875,-0.213813,-0.213813,-0.976875,966.75,725.769)">
            <path d="M-70.4,-22.134C148.118,151.096 162.964,292.247 96.55,378.183C41.504,449.397 -38.876,525.418 -70.4,621.522C-139.187,547.373 -243.98,511.883 -323.737,470.173C-419.98,419.839 -464.943,286.779 -338.778,38.106" style="fill:none;fill-rule:nonzero;stroke:rgb(35,31,32);stroke-width:1px;"/>
        </g>
        <g transform="matrix(-0.976615,-0.214996,-0.214996,0.976615,562.61,1354.57)">
            <path d="M-205.714,-650.844C-424.442,-477.879 -438.68,-336.884 -372.369,-250.868C-317.41,-179.587 -237.121,-103.468 -205.714,-7.327C-136.838,-81.392 -32,-116.756 47.806,-158.369C144.109,-208.587 189.727,-340.426 63.863,-589.252" style="fill:none;fill-rule:nonzero;stroke:rgb(35,31,32);stroke-width:1px;"/>
        </g>
        <g transform="matrix(0.982738,-0.185004,-0.185004,-0.982738,970.114,731.067)">
            <path d="M-70.743,-19.355C179.665,191.435 214.423,354.157 133.533,452.693C66.493,534.348 -30.441,620.768 -70.743,732.438C-148.891,643.067 -270.619,597.811 -362.757,546.122C-473.941,483.744 -498.239,319.798 -341.63,32.386" style="fill:none;fill-rule:nonzero;stroke:rgb(35,31,32);stroke-width:1px;"/>
        </g>
        <g transform="matrix(-0.982867,-0.184314,-0.184314,0.982867,561.111,1469.14)">
            <path d="M-206.347,-756.964C-456.606,-545.998 -491.778,-384.402 -410.819,-285.923C-343.721,-204.315 -246.727,-117.963 -206.347,-6.32C-128.262,-95.747 -6.565,-141.09 85.537,-192.843C196.676,-255.298 222.556,-416.406 65.745,-703.707" style="fill:none;fill-rule:nonzero;stroke:rgb(35,31,32);stroke-width:1px;"/>
        </g>
    </g>
    <g id="Layer-8" serif:id="Layer 8" transform="matrix(4.16667,0,0,4.16667,0,0)">
        <g transform="matrix(0.356288,0.934376,0.934376,-0.356288,753.169,644.399)">
            <path d="M242.025,-79.263C379.372,-0.353 345.39,98.263 315.317,152.133C290.393,196.775 251.64,246.251 242.025,302.895C197.138,267.033 135.278,255.922 86.961,239.207C28.656,219.037 -61.846,168.672 -11.913,18.35" style="fill:none;fill-rule:nonzero;stroke:rgb(35,31,32);stroke-width:1px;"/>
        </g>
        <g transform="matrix(0.355913,-0.934519,-0.934519,-0.355913,777.698,643.863)">
            <path d="M-242.626,-79.179C-379.942,-0.213 -346.073,98.79 -315.979,152.648C-291.036,197.28 -252.263,246.74 -242.626,303.38C-197.753,267.501 -135.898,256.364 -87.588,239.631C-29.29,219.437 62.357,168.236 12.364,17.934" style="fill:none;fill-rule:nonzero;stroke:rgb(35,31,32);stroke-width:1px;"/>
        </g>
        <g transform="matrix(0.300309,0.953842,0.953842,-0.300309,786.206,596.952)">
            <path d="M281.891,-112.162C442.584,-6.705 421.806,103.236 381.507,166.326C348.107,218.609 297.609,275.752 281.891,343.672C230.098,297.007 155.969,279.101 98.643,255.383C29.469,226.759 -48.084,150.845 23.205,-27.648" style="fill:none;fill-rule:nonzero;stroke:rgb(35,31,32);stroke-width:1px;"/>
        </g>
        <g transform="matrix(0.302884,-0.953027,-0.953027,-0.302884,744.199,599.495)">
            <path d="M-280.443,-110.542C-441.42,-5.519 -419.707,103.017 -379.579,166.215C-346.321,218.588 -295.978,275.868 -280.443,343.83C-228.524,297.306 -154.346,279.6 -96.957,256.036C-27.705,227.6 50.846,149.393 -19.96,-29.293" style="fill:none;fill-rule:nonzero;stroke:rgb(35,31,32);stroke-width:1px;"/>
        </g>
        <g transform="matrix(0.248047,0.968748,0.968748,-0.248047,832.377,536.219)">
            <path d="M335.659,-156.657C527.035,-15.616 524.613,110.62 470.603,185.83C425.84,248.156 359.634,315.337 335.659,398.164C274.828,337.051 184.479,309.957 115.274,276.812C31.765,236.813 -30.634,130.95 69.402,-84.706" style="fill:none;fill-rule:nonzero;stroke:rgb(35,31,32);stroke-width:1px;"/>
        </g>
        <g transform="matrix(0.250375,-0.968149,-0.968149,-0.250375,696.852,538.64)">
            <path d="M-334.016,-155.609C-525.73,-15.029 -522.279,108.979 -468.45,184.319C-423.837,246.752 -357.793,314.093 -334.016,396.978C-273.038,336.012 -182.624,309.133 -113.34,276.155C-29.735,236.357 32.501,129.335 -67.017,-86.56" style="fill:none;fill-rule:nonzero;stroke:rgb(35,31,32);stroke-width:1px;"/>
        </g>
        <g transform="matrix(0.213813,0.976875,0.976875,-0.213813,878.163,485.013)">
            <path d="M381.507,-198.998C600.025,-25.768 614.871,115.383 548.457,201.319C493.411,272.533 413.031,348.554 381.507,444.658C312.72,370.509 207.927,335.019 128.17,293.309C31.927,242.975 -13.036,109.915 113.129,-138.758" style="fill:none;fill-rule:nonzero;stroke:rgb(35,31,32);stroke-width:1px;"/>
        </g>
        <g transform="matrix(0.214996,-0.976615,-0.976615,-0.214996,652.952,485.562)">
            <path d="M-381.695,-198.357C-600.423,-25.392 -614.661,115.603 -548.351,201.619C-493.392,272.9 -413.102,349.019 -381.695,445.161C-312.82,371.096 -207.982,335.731 -128.175,294.119C-31.872,243.901 13.746,112.061 -112.118,-136.765" style="fill:none;fill-rule:nonzero;stroke:rgb(35,31,32);stroke-width:1px;"/>
        </g>
        <g transform="matrix(0.185004,0.982738,0.982738,-0.185004,928.988,425.324)">
            <path d="M437.75,-249.677C688.158,-38.887 722.916,123.835 642.026,222.371C574.986,304.026 478.052,390.446 437.75,502.116C359.602,412.745 237.874,367.489 145.736,315.8C34.552,253.422 10.254,89.476 166.863,-197.936" style="fill:none;fill-rule:nonzero;stroke:rgb(35,31,32);stroke-width:1px;"/>
        </g>
        <g transform="matrix(0.184314,-0.982867,-0.982867,-0.184314,599.691,425.552)">
            <path d="M-436.884,-249.718C-687.143,-38.752 -722.315,122.844 -641.356,221.323C-574.258,302.931 -477.265,389.284 -436.884,500.926C-358.8,411.5 -237.102,366.156 -145,314.403C-33.861,251.948 -7.981,90.84 -164.792,-196.461" style="fill:none;fill-rule:nonzero;stroke:rgb(35,31,32);stroke-width:1px;"/>
        </g>
    </g>
    <g id="Layer-5" serif:id="Layer 5" transform="matrix(4.16667,0,0,4.16667,0,0)">
        <g transform="matrix(1,0,0,1,765.124,655.187)">
            <path d="M0,214.185L-92.501,53.97L92.499,53.97L0,214.185ZM0,-6.223C-62.584,-6.223 -113.316,44.511 -113.316,107.093C-113.316,169.675 -62.584,220.408 0,220.408C62.581,220.408 113.315,169.675 113.315,107.093C113.315,44.511 62.581,-6.223 0,-6.223" style="fill:white;fill-rule:nonzero;"/>
        </g>
        <g transform="matrix(1,0,0,1,765.124,648.464)">
            <path d="M0,227.631C-62.759,227.631 -113.816,176.574 -113.816,113.817C-113.816,51.058 -62.759,0 0,0C62.758,0 113.815,51.058 113.815,113.817C113.815,176.574 62.758,227.631 0,227.631Z" style="fill:none;fill-rule:nonzero;stroke:rgb(35,31,32);stroke-width:1px;"/>
        </g>
    </g>
    <g transform="matrix(4.16667,0,0,4.16667,2806.2,3618.22)">
        <g id="Layer-6" serif:id="Layer 6">
            <path d="M0,-158.715L91.635,0L183.268,-158.715L0,-158.715Z" style="fill:white;fill-rule:nonzero;stroke:rgb(35,31,32);stroke-width:1px;"/>
        </g>
    </g>
    <g transform="matrix(4.16667,0,0,4.16667,3188.01,3038.79)">
        <g id="Layer-4" serif:id="Layer 4">
            <path d="M0,98.966L57.137,0L-57.138,0L0,98.966Z" style="fill:white;fill-rule:nonzero;stroke:rgb(35,31,32);stroke-width:1px;"/>
        </g>
    </g>
    <g id="Layer-3" serif:id="Layer 3" transform="matrix(4.16667,0,0,4.16667,0,0)">
        <g transform="matrix(1,0,0,1,954.236,857.905)">
            <path d="M0,-190.56C-30.893,-227.435 -93.344,-308.865 -188.99,-230.726C-167.514,-230.665 -149.055,-225.849 -133.679,-219.052C-118.277,-212.226 -105.943,-203.535 -96.002,-194.833C-86.061,-186.087 -78.427,-177.343 -72.161,-169.333C-65.895,-161.304 -60.949,-153.999 -56.455,-147.544C-47.578,-134.566 -40.302,-125.031 -30.988,-117.22C-21.755,-109.349 -10.599,-102.835 3.915,-95.281C-10.599,-87.726 -21.755,-81.212 -30.988,-73.341C-40.302,-65.533 -47.578,-55.996 -56.455,-43.015C-60.949,-36.56 -65.895,-29.257 -72.161,-21.228C-78.427,-13.218 -86.061,-4.472 -96.002,4.272C-105.943,12.973 -118.277,21.663 -133.679,28.489C-149.055,35.288 -167.514,40.104 -188.99,40.163C-93.344,118.305 -30.893,36.874 0,-0.001C25.6,-30.562 50.88,-72.54 89.477,-95.281C50.88,-118.021 25.6,-160.001 0,-190.56" style="fill:white;fill-rule:nonzero;"/>
        </g>
        <g transform="matrix(1,0,0,1,954.236,857.905)">
            <path d="M0,-190.56C-30.893,-227.435 -93.344,-308.865 -188.99,-230.726C-167.514,-230.665 -149.055,-225.849 -133.679,-219.052C-118.277,-212.226 -105.943,-203.535 -96.002,-194.833C-86.061,-186.087 -78.427,-177.343 -72.161,-169.333C-65.895,-161.304 -60.949,-153.999 -56.455,-147.544C-47.578,-134.566 -40.302,-125.031 -30.988,-117.22C-21.755,-109.349 -10.599,-102.835 3.915,-95.281C-10.599,-87.726 -21.755,-81.212 -30.988,-73.341C-40.302,-65.533 -47.578,-55.996 -56.455,-43.015C-60.949,-36.56 -65.895,-29.257 -72.161,-21.228C-78.427,-13.218 -86.061,-4.472 -96.002,4.272C-105.943,12.973 -118.277,21.663 -133.679,28.489C-149.055,35.288 -167.514,40.104 -188.99,40.163C-93.344,118.305 -30.893,36.874 0,-0.001C25.6,-30.562 50.88,-72.54 89.477,-95.281C50.88,-118.021 25.6,-160.001 0,-190.56Z" style="fill:none;fill-rule:nonzero;stroke:rgb(35,31,32);stroke-width:1px;"/>
        </g>
        <g transform="matrix(1,0,0,1,576.011,857.905)">
            <path d="M0,-190.56C30.893,-227.435 93.344,-308.865 188.99,-230.726C167.514,-230.665 149.054,-225.849 133.679,-219.052C118.277,-212.226 105.942,-203.535 96.002,-194.833C86.061,-186.087 78.427,-177.343 72.161,-169.333C65.895,-161.304 60.949,-153.999 56.455,-147.544C47.578,-134.566 40.302,-125.031 30.988,-117.22C21.755,-109.349 10.597,-102.835 -3.915,-95.281C10.597,-87.726 21.755,-81.212 30.988,-73.341C40.302,-65.533 47.578,-55.996 56.455,-43.015C60.949,-36.56 65.895,-29.257 72.161,-21.228C78.427,-13.218 86.061,-4.472 96.002,4.272C105.942,12.973 118.277,21.663 133.679,28.489C149.054,35.288 167.514,40.104 188.99,40.163C93.344,118.305 30.893,36.874 0,-0.001C-25.6,-30.562 -50.88,-72.54 -89.477,-95.281C-50.88,-118.021 -25.6,-160.001 0,-190.56" style="fill:white;fill-rule:nonzero;"/>
        </g>
        <g transform="matrix(1,0,0,1,576.011,857.905)">
            <path d="M0,-190.56C30.893,-227.435 93.344,-308.865 188.99,-230.726C167.514,-230.665 149.054,-225.849 133.679,-219.052C118.277,-212.226 105.942,-203.535 96.002,-194.833C86.061,-186.087 78.427,-177.343 72.161,-169.333C65.895,-161.304 60.949,-153.999 56.455,-147.544C47.578,-134.566 40.302,-125.031 30.988,-117.22C21.755,-109.349 10.597,-102.835 -3.915,-95.281C10.597,-87.726 21.755,-81.212 30.988,-73.341C40.302,-65.533 47.578,-55.996 56.455,-43.015C60.949,-36.56 65.895,-29.257 72.161,-21.228C78.427,-13.218 86.061,-4.472 96.002,4.272C105.942,12.973 118.277,21.663 133.679,28.489C149.054,35.288 167.514,40.104 188.99,40.163C93.344,118.305 30.893,36.874 0,-0.001C-25.6,-30.562 -50.88,-72.54 -89.477,-95.281C-50.88,-118.021 -25.6,-160.001 0,-190.56Z" style="fill:none;fill-rule:nonzero;stroke:rgb(35,31,32);stroke-width:1px;"/>
        </g>
    </g>
</svg>
