<?xml version="1.0" encoding="UTF-8" standalone="no"?>
<!DOCTYPE svg PUBLIC "-//W3C//DTD SVG 1.1//EN" "http://www.w3.org/Graphics/SVG/1.1/DTD/svg11.dtd">
<svg width="100%" height="100%" viewBox="0 0 3544 3544" version="1.1" xmlns="http://www.w3.org/2000/svg" xmlns:xlink="http://www.w3.org/1999/xlink" xml:space="preserve" xmlns:serif="http://www.serif.com/" style="fill-rule:evenodd;clip-rule:evenodd;stroke-miterlimit:10;">
    <g id="_6" serif:id="6" transform="matrix(2.87895,0,0,2.87895,-1835.19,-888.392)">
        <g transform="matrix(-0.00478044,4.16666,-4.16666,-0.00478044,3218.28,-2405.69)">
            <path d="M799.656,327.847C720.644,327.849 656.714,391.777 656.715,470.789C656.716,549.804 720.644,613.735 799.656,613.734C878.668,613.733 942.599,549.805 942.601,470.793C942.6,391.781 878.672,327.846 799.656,327.847Z" style="fill:none;fill-rule:nonzero;stroke:rgb(35,31,32);stroke-width:0.5px;"/>
        </g>
        <g transform="matrix(0,4.16667,-4.16667,0,3214.23,-2407.78)">
            <path d="M799.609,332.379C723.109,332.379 661.207,394.282 661.207,470.782C661.207,547.282 723.109,609.188 799.609,609.188C876.109,609.188 938.016,547.282 938.016,470.782C938.016,394.282 876.109,332.379 799.609,332.379Z" style="fill:none;fill-rule:nonzero;stroke:rgb(35,31,32);stroke-width:0.5px;"/>
        </g>
        <g transform="matrix(-4.16667,0,0,-4.16667,4584.37,2885.51)">
            <path d="M799.614,352.176C865.165,352.176 918.219,405.223 918.219,470.782C918.219,536.336 865.172,589.387 799.614,589.387C734.055,589.387 681.008,536.336 681.008,470.782C681.008,405.223 734.055,352.176 799.614,352.176Z" style="fill:none;fill-rule:nonzero;stroke:rgb(35,31,32);stroke-width:0.5px;"/>
        </g>
        <g transform="matrix(0,4.16667,-4.16667,0,3214.23,-2407.78)">
            <path d="M799.609,371.91C744.937,371.91 700.738,416.105 700.738,470.781C700.738,525.456 744.937,569.656 799.609,569.656C854.285,569.656 898.484,525.456 898.484,470.781C898.484,416.105 854.285,371.91 799.609,371.91Z" style="fill:none;fill-rule:nonzero;stroke:rgb(35,31,32);stroke-width:0.5px;"/>
        </g>
        <g transform="matrix(-4.16667,0,0,-4.16667,4584.35,2885.56)">
            <path d="M799.61,391.719C843.336,391.719 878.684,427.058 878.684,470.785C878.684,514.508 843.336,549.855 799.61,549.855C755.887,549.855 720.539,514.508 720.539,470.785C720.539,427.058 755.887,391.719 799.61,391.719Z" style="fill:none;fill-rule:nonzero;stroke:rgb(35,31,32);stroke-width:0.5px;"/>
        </g>
        <g transform="matrix(0,4.16667,-4.16667,0,3214.21,-2407.78)">
            <ellipse cx="799.609" cy="470.781" rx="59.332" ry="59.336" style="fill:none;stroke:rgb(35,31,32);stroke-width:0.5px;"/>
        </g>
        <g transform="matrix(-4.16667,0,0,-4.16667,4584.35,2885.59)">
            <ellipse cx="799.612" cy="470.791" rx="39.533" ry="39.533" style="fill:none;stroke:rgb(35,31,32);stroke-width:0.5px;"/>
        </g>
        <g transform="matrix(0,4.16667,-4.16667,0,3214.24,-2407.79)">
            <ellipse cx="799.613" cy="470.783" rx="19.799" ry="19.801" style="fill:none;stroke:rgb(35,31,32);stroke-width:0.5px;"/>
        </g>
        <g transform="matrix(0,4.16667,-4.16667,0,3502.58,-2119.45)">
            <path d="M730.41,539.985L868.817,539.985" style="fill:none;fill-rule:nonzero;stroke:rgb(35,31,32);stroke-width:0.5px;"/>
        </g>
        <g transform="matrix(2.94616,2.9464,-2.9464,2.94616,487.847,-2903.49)">
            <path d="M779.344,519.711L917.734,519.711" style="fill:none;fill-rule:nonzero;stroke:rgb(35,31,32);stroke-width:0.5px;"/>
        </g>
        <g transform="matrix(4.16667,0,0,-4.16667,-2079.08,2885.51)">
            <path d="M799.613,470.781L938.016,470.781" style="fill:none;fill-rule:nonzero;stroke:rgb(35,31,32);stroke-width:0.5px;"/>
        </g>
        <g transform="matrix(2.94629,-2.94626,2.94626,2.94629,-2286.44,1977.17)">
            <path d="M779.348,421.855L917.73,421.855" style="fill:none;fill-rule:nonzero;stroke:rgb(35,31,32);stroke-width:0.5px;"/>
        </g>
        <g transform="matrix(0,-4.16667,4.16667,0,-420.607,3967.3)">
            <path d="M730.412,401.58L868.814,401.58" style="fill:none;fill-rule:nonzero;stroke:rgb(35,31,32);stroke-width:0.5px;"/>
        </g>
        <g transform="matrix(-2.9464,-2.94616,2.94616,-2.9464,2017.73,4174.65)">
            <path d="M681.49,421.855L819.877,421.855" style="fill:none;fill-rule:nonzero;stroke:rgb(35,31,32);stroke-width:0.5px;"/>
        </g>
        <g transform="matrix(-4.16667,0,0,-4.16667,4007.67,2885.51)">
            <path d="M661.207,470.781L799.613,470.781" style="fill:none;fill-rule:nonzero;stroke:rgb(35,31,32);stroke-width:0.5px;"/>
        </g>
        <g transform="matrix(-2.94626,2.94629,-2.94629,-2.94626,4791.7,447.268)">
            <path d="M681.486,519.711L819.881,519.711" style="fill:none;fill-rule:nonzero;stroke:rgb(35,31,32);stroke-width:0.5px;"/>
        </g>
        <g transform="matrix(0,4.16667,-4.16667,0,3311.07,-2882.26)">
            <circle cx="868.17" cy="425.467" r="3.811" style="fill:none;stroke:rgb(35,31,32);stroke-width:0.5px;"/>
        </g>
        <g transform="matrix(0,4.16667,-4.16667,0,3482.99,-2807.48)">
            <ellipse cx="879.826" cy="455.071" rx="3.809" ry="3.81" style="fill:none;stroke:rgb(35,31,32);stroke-width:0.5px;"/>
        </g>
        <g transform="matrix(0,4.16667,-4.16667,0,3120.45,-2882.26)">
            <circle cx="845.295" cy="402.591" r="3.811" style="fill:none;stroke:rgb(35,31,32);stroke-width:0.5px;"/>
        </g>
        <g transform="matrix(0,4.16667,-4.16667,0,2946.67,-2809.36)">
            <circle cx="815.694" cy="390.487" r="3.811" style="fill:none;stroke:rgb(35,31,32);stroke-width:0.5px;"/>
        </g>
        <g transform="matrix(0,4.16667,-4.16667,0,2815.86,-2676.67)">
            <circle cx="784.073" cy="390.712" r="3.811" style="fill:none;stroke:rgb(35,31,32);stroke-width:0.5px;"/>
        </g>
        <g transform="matrix(0,4.16667,-4.16667,0,2742.05,-2501.97)">
            <circle cx="754.251" cy="402.818" r="3.811" style="fill:none;stroke:rgb(35,31,32);stroke-width:0.5px;"/>
        </g>
        <g transform="matrix(0,4.16667,-4.16667,0,2742.99,-2312.29)">
            <circle cx="731.604" cy="425.693" r="3.81" style="fill:none;stroke:rgb(35,31,32);stroke-width:0.5px;"/>
        </g>
        <g transform="matrix(0,4.16667,-4.16667,0,2814.01,-2138.5)">
            <ellipse cx="719.271" cy="455.071" rx="3.808" ry="3.811" style="fill:none;stroke:rgb(35,31,32);stroke-width:0.5px;"/>
        </g>
        <g transform="matrix(0,4.16667,-4.16667,0,2946.67,-2007.67)">
            <circle cx="719.491" cy="486.69" r="3.81" style="fill:none;stroke:rgb(35,31,32);stroke-width:0.5px;"/>
        </g>
        <g transform="matrix(0,4.16667,-4.16667,0,3119.56,-1935.73)">
            <circle cx="731.603" cy="516.068" r="3.81" style="fill:none;stroke:rgb(35,31,32);stroke-width:0.5px;"/>
        </g>
        <g transform="matrix(0,4.16667,-4.16667,0,3311.08,-1936.69)">
            <circle cx="754.701" cy="538.936" r="3.81" style="fill:none;stroke:rgb(35,31,32);stroke-width:0.5px;"/>
        </g>
        <g transform="matrix(0,4.16667,-4.16667,0,3483.92,-2006.73)">
            <ellipse cx="783.848" cy="551.271" rx="3.811" ry="3.808" style="fill:none;stroke:rgb(35,31,32);stroke-width:0.5px;"/>
        </g>
        <g transform="matrix(0,4.16667,-4.16667,0,3613.79,-2140.35)">
            <circle cx="815.467" cy="550.823" r="3.811" style="fill:none;stroke:rgb(35,31,32);stroke-width:0.5px;"/>
        </g>
        <g transform="matrix(0,4.16667,-4.16667,0,3686.67,-2314.17)">
            <ellipse cx="845.071" cy="538.709" rx="3.811" ry="3.809" style="fill:none;stroke:rgb(35,31,32);stroke-width:0.5px;"/>
        </g>
        <g transform="matrix(0,4.16667,-4.16667,0,3684.82,-2502.89)">
            <circle cx="867.495" cy="515.842" r="3.81" style="fill:none;stroke:rgb(35,31,32);stroke-width:0.5px;"/>
        </g>
        <g transform="matrix(0,4.16667,-4.16667,0,3614.74,-2675.74)">
            <circle cx="879.826" cy="486.689" r="3.811" style="fill:none;stroke:rgb(35,31,32);stroke-width:0.5px;"/>
        </g>
        <g transform="matrix(0,4.16667,-4.16667,0,2690.83,-2934.38)">
            <circle cx="799.995" cy="344.784" r="6.353" style="fill:none;stroke:rgb(35,31,32);stroke-width:0.5px;"/>
        </g>
        <g transform="matrix(0,4.16667,-4.16667,0,2690.83,-1888.45)">
            <circle cx="674.483" cy="470.295" r="6.354" style="fill:none;stroke:rgb(35,31,32);stroke-width:0.5px;"/>
        </g>
        <g transform="matrix(0,4.16667,-4.16667,0,3735.17,-2935.92)">
            <ellipse cx="925.5" cy="469.92" rx="6.353" ry="6.352" style="fill:none;stroke:rgb(35,31,32);stroke-width:0.5px;"/>
        </g>
        <g transform="matrix(0,4.16667,-4.16667,0,3736.73,-1885.35)">
            <ellipse cx="799.62" cy="596.176" rx="6.351" ry="6.354" style="fill:none;stroke:rgb(35,31,32);stroke-width:0.5px;"/>
        </g>
        <g transform="matrix(-3.74676,1.82288,-1.82288,-3.74676,5059.5,1020.08)">
            <path d="M788.374,409.806C767.434,419.488 776.011,436.629 779.676,444.827C782.718,451.629 787.702,459.297 788.374,467.638C795.342,463.014 804.465,462.2 811.687,460.401C820.4,458.225 839.183,454.387 833.873,431.942" style="fill:none;fill-rule:nonzero;stroke:rgb(35,31,32);stroke-width:0.5px;"/>
        </g>
        <g transform="matrix(3.74682,1.82276,-1.82276,3.74682,-838.659,-2287.04)">
            <path d="M811.122,461.854C832.062,471.536 823.484,488.676 819.819,496.875C816.773,503.669 811.795,511.348 811.122,519.69C804.155,515.065 795.03,514.247 787.808,512.448C779.094,510.27 760.312,506.432 765.622,483.989" style="fill:none;fill-rule:nonzero;stroke:rgb(35,31,32);stroke-width:0.5px;"/>
        </g>
        <g transform="matrix(-3.89316,1.48474,-1.48474,-3.89316,5015.63,1296.19)">
            <path d="M787.916,396.686C762.262,411.426 768.608,429.842 774.229,439.9C778.882,448.241 786.125,457.48 787.916,468.063C796.3,461.36 807.851,459.289 816.877,456.165C827.771,452.396 844.671,442.997 835.346,414.917" style="fill:none;fill-rule:nonzero;stroke:rgb(35,31,32);stroke-width:0.5px;"/>
        </g>
        <g transform="matrix(3.89377,1.48312,-1.48312,3.89377,-1113.9,-2086.28)">
            <path d="M811.627,463.358C837.275,478.109 830.951,496.599 825.325,506.654C820.669,514.994 813.423,524.23 811.627,534.812C803.246,528.106 791.696,526.03 782.671,522.901C771.779,519.129 754.663,509.575 764.004,481.498" style="fill:none;fill-rule:nonzero;stroke:rgb(35,31,32);stroke-width:0.5px;"/>
        </g>
        <g transform="matrix(-3.97443,1.25099,-1.25099,-3.97443,4970.86,1461.57)">
            <path d="M787.864,383.546C757.857,403.247 761.73,423.779 769.26,435.56C775.495,445.324 784.929,455.996 787.864,468.685C797.534,459.964 811.378,456.626 822.084,452.187C835.002,446.842 849.483,432.66 836.167,399.323" style="fill:none;fill-rule:nonzero;stroke:rgb(35,31,32);stroke-width:0.5px;"/>
        </g>
        <g transform="matrix(3.97097,1.26196,-1.26196,3.97097,-1278.06,-1947.26)">
            <path d="M812.045,464.556C842.11,484.173 838.055,504.443 830.559,516.244C824.351,526.025 814.946,536.727 812.045,549.421C802.353,540.729 788.497,537.419 777.781,533.016C764.846,527.708 750.177,513.097 763.404,479.731" style="fill:none;fill-rule:nonzero;stroke:rgb(35,31,32);stroke-width:0.5px;"/>
        </g>
        <g transform="matrix(-4.03646,1.03349,-1.03349,-4.03646,4915.35,1583.78)">
            <path d="M787.205,365.307C751.455,391.65 751.915,415.227 762,429.273C770.362,440.914 782.726,453.463 787.205,468.932C798.563,457.517 815.436,452.454 828.363,446.264C843.965,438.796 855.615,419.025 836.933,378.745" style="fill:none;fill-rule:nonzero;stroke:rgb(35,31,32);stroke-width:0.5px;"/>
        </g>
        <g transform="matrix(4.03394,1.04327,-1.04327,4.03394,-1429.93,-1803.04)">
            <path d="M812.265,465.655C848.074,491.912 847.427,515.074 837.375,529.141C829.04,540.798 816.707,553.377 812.265,568.857C800.876,557.471 783.99,552.449 771.053,546.293C755.432,538.857 743.811,518.869 762.402,478.551" style="fill:none;fill-rule:nonzero;stroke:rgb(35,31,32);stroke-width:0.5px;"/>
        </g>
        <g transform="matrix(-4.07031,0.890884,-0.890884,-4.07031,4875.21,1639.56)">
            <path d="M787.234,348.676C746.423,381.034 743.648,407.39 756.051,423.44C766.332,436.739 781.341,450.941 787.234,468.889C800.082,455.043 819.654,448.418 834.548,440.621C852.521,431.22 860.915,406.369 837.356,359.921" style="fill:none;fill-rule:nonzero;stroke:rgb(35,31,32);stroke-width:0.5px;"/>
        </g>
        <g transform="matrix(4.06924,0.895778,-0.895778,4.06924,-1527.23,-1702.53)">
            <path d="M812.372,466.199C853.218,498.506 855.882,524.838 843.5,540.902C833.235,554.213 818.242,568.433 812.372,586.393C799.507,572.557 779.927,565.956 765.023,558.178C747.039,548.798 738.514,524.171 762.023,477.703" style="fill:none;fill-rule:nonzero;stroke:rgb(35,31,32);stroke-width:0.5px;"/>
        </g>
        <g transform="matrix(-4.09472,0.770972,-0.770972,-4.09472,4837.44,1661.74)">
            <path d="M786.992,328.776C740.221,368.142 733.727,398.539 748.841,416.938C761.361,432.186 779.463,448.331 786.992,469.189C801.59,452.497 824.319,444.048 841.532,434.391C862.293,422.738 866.838,392.121 837.585,338.441" style="fill:none;fill-rule:nonzero;stroke:rgb(35,31,32);stroke-width:0.5px;"/>
        </g>
        <g transform="matrix(4.09528,0.768,-0.768,4.09528,-1607.82,-1613.38)">
            <path d="M812.453,466.797C859.192,506.197 865.761,536.378 850.641,554.765C838.11,570.004 819.997,586.138 812.453,606.988C797.867,590.288 775.142,581.813 757.937,572.15C737.185,560.482 732.345,530.394 761.632,476.737" style="fill:none;fill-rule:nonzero;stroke:rgb(35,31,32);stroke-width:0.5px;"/>
        </g>
        <g transform="matrix(-1.48453,-3.89323,3.89323,-1.48453,798.169,4863.69)">
            <path d="M821.282,430.091C795.625,444.826 801.975,463.247 807.597,473.304C812.251,481.647 819.489,490.882 821.282,501.466C829.666,494.763 841.219,492.693 850.246,489.567C861.14,485.799 878.042,476.391 868.712,448.319" style="fill:none;fill-rule:nonzero;stroke:rgb(35,31,32);stroke-width:0.5px;"/>
        </g>
        <g transform="matrix(-1.48294,3.89384,-3.89384,-1.48294,4081.8,-1365.35)">
            <path d="M778.334,429.956C803.987,444.706 797.657,463.197 792.033,473.256C787.374,481.593 780.133,490.829 778.334,501.408C769.955,494.705 758.401,492.627 749.377,489.501C738.483,485.725 721.372,476.169 730.71,448.093" style="fill:none;fill-rule:nonzero;stroke:rgb(35,31,32);stroke-width:0.5px;"/>
        </g>
        <g transform="matrix(-1.25096,-3.97445,3.97445,-1.25096,602.692,4850)">
            <path d="M828.081,424.077C798.071,443.777 801.955,464.312 809.477,476.091C815.712,485.855 825.146,496.527 828.081,509.208C837.754,500.487 851.598,497.149 862.301,492.718C875.221,487.373 889.702,473.191 876.385,439.854" style="fill:none;fill-rule:nonzero;stroke:rgb(35,31,32);stroke-width:0.5px;"/>
        </g>
        <g transform="matrix(-1.26196,3.97097,-3.97097,-1.26196,3911.51,-1498.84)">
            <path d="M771.428,424.375C801.489,443.993 797.434,464.262 789.938,476.064C783.729,485.844 774.326,496.547 771.428,509.24C761.732,500.549 747.878,497.246 737.16,492.836C724.225,487.527 709.556,472.917 722.783,439.551" style="fill:none;fill-rule:nonzero;stroke:rgb(35,31,32);stroke-width:0.5px;"/>
        </g>
        <g transform="matrix(-1.03349,-4.03646,4.03646,-1.03349,441.524,4837.44)">
            <path d="M837.216,415.215C801.478,441.561 801.93,465.137 812.015,479.182C820.373,490.822 832.741,503.372 837.216,518.84C848.578,507.427 865.45,502.364 878.378,496.174C893.972,488.704 905.626,468.933 886.946,428.658" style="fill:none;fill-rule:nonzero;stroke:rgb(35,31,32);stroke-width:0.5px;"/>
        </g>
        <g transform="matrix(-1.04312,4.03398,-4.03398,-1.04312,3723.44,-1610.9)">
            <path d="M761.991,415.552C797.799,441.81 797.151,464.972 787.098,479.039C778.767,490.695 766.429,503.274 761.991,518.753C750.602,507.367 733.717,502.343 720.775,496.188C705.162,488.75 693.536,468.767 712.127,428.446" style="fill:none;fill-rule:nonzero;stroke:rgb(35,31,32);stroke-width:0.5px;"/>
        </g>
        <g transform="matrix(-0.890877,-4.07031,4.07031,-0.890877,348.626,4835.28)">
            <path d="M845.969,407.443C805.161,439.802 802.388,466.159 814.79,482.209C825.067,495.507 840.088,509.711 845.969,527.657C858.82,513.811 878.389,507.185 893.287,499.389C911.259,489.988 919.662,465.139 896.095,418.69" style="fill:none;fill-rule:nonzero;stroke:rgb(35,31,32);stroke-width:0.5px;"/>
        </g>
        <g transform="matrix(-0.895646,4.06927,-4.06927,-0.895646,3585.67,-1672.07)">
            <path d="M753.567,407.424C794.416,439.731 797.076,466.064 784.693,482.128C774.431,495.438 759.426,509.66 753.567,527.617C740.7,513.782 721.123,507.179 706.216,499.401C688.232,490.02 679.709,465.402 703.219,418.926" style="fill:none;fill-rule:nonzero;stroke:rgb(35,31,32);stroke-width:0.5px;"/>
        </g>
        <g transform="matrix(-0.770988,-4.09471,4.09471,-0.770988,284.372,4841.25)">
            <path d="M855.883,397.665C809.115,437.031 802.622,467.42 817.731,485.827C830.254,501.076 848.354,517.219 855.883,538.075C870.48,521.386 893.214,512.938 910.423,503.28C931.192,491.629 935.728,461.01 906.48,407.331" style="fill:none;fill-rule:nonzero;stroke:rgb(35,31,32);stroke-width:0.5px;"/>
        </g>
        <g transform="matrix(-0.767885,4.0953,-4.0953,-0.767885,3452.82,-1709.75)">
            <path d="M743.464,397.799C790.206,437.199 796.771,467.381 781.654,485.767C769.118,501.006 751.008,517.139 743.464,537.989C728.878,521.289 706.15,512.813 688.949,503.15C668.186,491.484 663.355,461.393 692.644,407.737" style="fill:none;fill-rule:nonzero;stroke:rgb(35,31,32);stroke-width:0.5px;"/>
        </g>
        <g transform="matrix(4.16667,0,0,-4.16667,-2079.08,2880.78)">
            <path d="M799.754,491.379C788.07,491.379 778.59,481.906 778.59,470.215C778.59,458.52 788.062,449.047 799.754,449.047C811.449,449.047 820.922,458.52 820.922,470.215C820.922,481.906 811.449,491.379 799.754,491.379ZM799.754,450.211L782.484,480.137L817.035,480.137L799.754,450.211Z" style="fill:white;fill-rule:nonzero;stroke:black;stroke-width:0.5px;stroke-linejoin:round;stroke-miterlimit:2;"/>
        </g>
        <g transform="matrix(4.16667,0,0,-4.16667,-2079.08,2880.78)">
            <path d="M799.754,448.957C788.031,448.957 778.5,458.492 778.5,470.215C778.5,481.938 788.031,491.469 799.754,491.469C811.477,491.469 821.012,481.93 821.012,470.215C821.012,458.5 811.477,448.957 799.754,448.957ZM816.871,480.047L799.754,450.399" style="fill:none;fill-rule:nonzero;stroke:rgb(35,31,32);stroke-width:0.5px;"/>
        </g>
        <g transform="matrix(4.16667,0,0,-4.16667,-2079.08,2922.36)">
            <path d="M782.641,490.027L799.754,460.379L816.871,490.027L782.641,490.027Z" style="fill:white;fill-rule:nonzero;stroke:rgb(35,31,32);stroke-width:0.5px;"/>
        </g>
        <g transform="matrix(4.16667,0,0,-4.16667,-2079.08,2906.46)">
            <path d="M799.754,464.055L810.426,482.535L789.082,482.535L799.754,464.055Z" style="fill:white;fill-rule:nonzero;stroke:rgb(35,31,32);stroke-width:0.5px;"/>
        </g>
        <g transform="matrix(4.16667,0,0,-4.16667,-2079.08,2881.33)">
            <path d="M835.074,488.075C829.305,494.961 817.641,510.172 799.777,495.575C803.789,495.563 807.234,494.668 810.105,493.395C812.984,492.118 815.289,490.5 817.141,488.871C819,487.235 820.426,485.602 821.594,484.11C822.766,482.61 823.688,481.243 824.527,480.036C826.184,477.614 827.543,475.829 829.281,474.375C831.008,472.903 833.094,471.688 835.801,470.278C833.094,468.868 831.008,467.653 829.281,466.184C827.543,464.731 826.184,462.946 824.527,460.52C823.688,459.313 822.766,457.95 821.594,456.45C820.426,454.957 819,453.321 817.141,451.688C815.281,450.059 812.977,448.438 810.105,447.164C807.234,445.895 803.781,444.997 799.777,444.981C817.641,430.387 829.305,445.598 835.074,452.481C839.852,458.188 844.574,466.028 851.781,470.278C844.574,474.524 839.852,482.368 835.074,488.075Z" style="fill:white;fill-rule:nonzero;stroke:rgb(35,31,32);stroke-width:0.5px;"/>
        </g>
        <g transform="matrix(4.16667,0,0,-4.16667,-2079.08,2881.33)">
            <path d="M764.438,488.075C770.203,494.961 781.875,510.172 799.734,495.575C795.719,495.563 792.27,494.668 789.406,493.395C786.531,492.118 784.223,490.5 782.371,488.871C780.512,487.235 779.086,485.602 777.914,484.11C776.746,482.61 775.824,481.243 774.984,480.036C773.324,477.614 771.969,475.829 770.227,474.375C768.504,472.903 766.418,471.688 763.711,470.278C766.418,468.868 768.504,467.653 770.227,466.184C771.969,464.731 773.324,462.946 774.984,460.52C775.824,459.313 776.746,457.95 777.914,456.45C779.086,454.957 780.512,453.321 782.371,451.688C784.223,450.059 786.531,448.438 789.406,447.164C792.277,445.895 795.727,444.997 799.734,444.981C781.867,430.387 770.203,445.598 764.438,452.481C759.66,458.188 754.934,466.028 747.727,470.278C754.934,474.524 759.66,482.368 764.438,488.075Z" style="fill:white;fill-rule:nonzero;stroke:rgb(35,31,32);stroke-width:0.5px;"/>
        </g>
    </g>
</svg>
