<?xml version="1.0" encoding="UTF-8" standalone="no"?>
<!DOCTYPE svg PUBLIC "-//W3C//DTD SVG 1.1//EN" "http://www.w3.org/Graphics/SVG/1.1/DTD/svg11.dtd">
<svg width="100%" height="100%" viewBox="0 0 6378 6378" version="1.1" xmlns="http://www.w3.org/2000/svg" xmlns:xlink="http://www.w3.org/1999/xlink" xml:space="preserve" xmlns:serif="http://www.serif.com/" style="fill-rule:evenodd;clip-rule:evenodd;stroke-miterlimit:10;">
    <g transform="matrix(0.00483708,-4.16666,-4.16666,-0.00483708,3193.22,0.00727512)">
        <g id="Layer-1" serif:id="Layer 1">
            <path d="M-765.354,-764.469C-342.317,-764.466 -0.001,-422.151 -0.001,0.885C-0.002,423.923 -342.317,766.242 -765.354,766.241C-1188.39,766.241 -1530.71,423.926 -1530.71,0.887C-1530.71,-422.153 -1188.39,-764.467 -765.354,-764.469Z" style="fill:none;fill-rule:nonzero;stroke:rgb(35,31,32);stroke-width:1px;"/>
        </g>
    </g>
    <g id="Layer-3" serif:id="Layer 3" transform="matrix(4.16667,0,0,4.16667,0,0)">
        <g transform="matrix(-0.864677,-0.502328,-0.502328,0.864677,264.995,1047.07)">
            <path d="M-288.344,-1070.35C28.934,-1070.35 285.671,-813.617 285.672,-496.339C285.672,-179.061 28.934,77.677 -288.344,77.678C-605.622,77.678 -862.359,-179.06 -862.36,-496.337C-862.36,-813.616 -605.623,-1070.35 -288.344,-1070.35Z" style="fill:none;fill-rule:nonzero;stroke:rgb(35,31,32);stroke-width:1px;"/>
        </g>
        <g transform="matrix(0.502329,-0.864676,-0.864676,-0.502329,1096.08,573.19)">
            <path d="M-330.892,-190.447C-542.412,-190.447 -713.569,-19.289 -713.569,192.229C-713.57,403.749 -542.412,574.907 -330.892,574.908C-119.375,574.907 51.785,403.75 51.785,192.229C51.786,-19.288 -119.374,-190.447 -330.892,-190.447Z" style="fill:none;fill-rule:nonzero;stroke:rgb(35,31,32);stroke-width:1px;"/>
        </g>
        <g transform="matrix(-0.864678,-0.502326,-0.502326,0.864678,597.426,857.518)">
            <path d="M-96.118,-356.785C9.643,-356.785 95.222,-271.206 95.223,-165.447C95.223,-59.688 9.643,25.892 -96.118,25.892C-201.876,25.892 -287.454,-59.687 -287.455,-165.445C-287.455,-271.205 -201.876,-356.785 -96.118,-356.785Z" style="fill:none;fill-rule:nonzero;stroke:rgb(35,31,32);stroke-width:1px;"/>
        </g>
        <g transform="matrix(0.864677,0.502329,0.502329,-0.864677,904.984,622.539)">
            <path d="M-51.785,-192.229L713.568,-192.23" style="fill:none;fill-rule:nonzero;stroke:rgb(35,31,32);stroke-width:1px;"/>
        </g>
        <g transform="matrix(0.00278388,-0.999996,-0.999996,-0.00278388,1147.44,382.136)">
            <path d="M-381.673,382.738L383.804,382.738" style="fill:none;fill-rule:nonzero;stroke:rgb(35,31,32);stroke-width:1px;"/>
        </g>
        <g transform="matrix(-0.867322,0.497748,0.497748,0.867322,238.597,1283.71)">
            <path d="M-714.696,-190.508L50.781,-190.508" style="fill:none;fill-rule:nonzero;stroke:rgb(35,31,32);stroke-width:1px;"/>
        </g>
    </g>
    <g id="Layer-2" serif:id="Layer 2" transform="matrix(4.16667,0,0,4.16667,0,0)">
        <g transform="matrix(0,-1,-1,0,764.495,631.718)">
            <ellipse cx="-130.108" cy="0" rx="130.108" ry="130.108" style="fill:none;stroke:rgb(35,31,32);stroke-width:1px;"/>
        </g>
        <g transform="matrix(1,0,0,1,634.325,946.789)">
            <path d="M0,-259.645C-8.371,-245.157 -13.376,-231.014 -16.365,-218.149C-19.346,-205.253 -20.34,-193.587 -20.451,-183.301C-20.576,-162.704 -17.514,-148.084 -15.634,-137.157C-13.619,-126.229 -12.555,-118.88 -13.382,-112.902C-14.167,-106.931 -16.733,-102.381 -20.809,-97.396C-14.461,-98.441 -9.225,-98.409 -3.665,-96.102C1.936,-93.835 7.783,-89.238 16.27,-81.999C24.806,-74.887 36.013,-64.839 53.814,-54.666C62.718,-49.65 73.295,-44.681 85.954,-40.839C98.596,-37.008 113.34,-34.303 130.17,-34.287C122.364,-16.258 107.238,-4.835 88.705,-1.316C70.252,2.32 48.931,-2.262 30.986,-12.754C12.901,-23.185 -2.944,-36.304 -18.778,-46.853C-34.711,-57.418 -51.064,-65.658 -72.83,-67.297C-63.4,-86.988 -62.406,-105.283 -63.597,-124.377C-64.821,-143.377 -68.197,-163.677 -68.164,-184.539C-68.261,-205.311 -61.604,-226.073 -49.246,-240.252C-36.948,-254.557 -19.496,-261.965 0,-259.645Z" style="fill:none;fill-rule:nonzero;stroke:rgb(35,31,32);stroke-width:1px;"/>
        </g>
        <g transform="matrix(1,0,0,1,894.665,527.855)">
            <path d="M0,159.289C-8.383,144.809 -18.193,133.359 -27.86,124.29C-37.566,115.225 -47.154,108.494 -55.945,103.288C-73.627,92.926 -87.851,88.271 -98.258,84.46C-108.739,80.75 -115.655,77.997 -120.434,74.291C-125.225,70.627 -127.89,66.127 -130.17,60.101C-132.447,66.127 -135.113,70.627 -139.904,74.291C-144.684,77.997 -151.6,80.75 -162.08,84.46C-172.489,88.271 -186.713,92.926 -204.393,103.288C-213.186,108.494 -222.772,115.225 -232.479,124.29C-242.145,133.359 -251.955,144.809 -260.34,159.289C-272.07,143.539 -274.33,124.709 -268.088,106.906C-261.981,89.113 -247.391,72.938 -229.352,62.606C-211.297,52.125 -192.013,44.933 -174.938,36.516C-157.8,28.014 -142.439,18.029 -130.17,0C-117.898,18.029 -102.539,28.014 -85.401,36.516C-68.326,44.933 -49.041,52.125 -30.986,62.606C-12.947,72.938 1.643,89.113 7.748,106.906C13.992,124.709 11.732,143.541 0,159.289Z" style="fill:none;fill-rule:nonzero;stroke:rgb(35,31,32);stroke-width:1px;"/>
        </g>
        <g transform="matrix(1,0,0,1,764.495,721.429)">
            <path d="M0,191.073C16.83,191.056 31.574,188.351 44.217,184.52C56.875,180.678 67.452,175.712 76.355,170.695C94.157,160.522 105.365,150.472 113.9,143.36C122.387,136.124 128.234,131.526 133.834,129.259C139.395,126.951 144.633,126.919 150.979,127.964C146.903,122.979 144.337,118.429 143.552,112.458C142.725,106.482 143.789,99.131 145.804,88.203C147.684,77.275 150.746,62.656 150.62,42.059C150.509,31.772 149.516,20.107 146.535,7.213C143.548,-5.655 138.541,-19.797 130.17,-34.285C149.666,-36.606 167.119,-29.198 179.417,-14.893C191.774,-0.713 198.431,20.051 198.335,40.821C198.367,61.685 194.991,81.983 193.766,100.985C192.576,120.077 193.572,138.372 203,158.062C181.234,159.704 164.881,167.941 148.949,178.507C133.116,189.057 117.269,202.177 99.184,212.607C81.239,223.098 59.918,227.679 41.465,224.044C22.932,220.524 7.807,209.101 0,191.073Z" style="fill:none;fill-rule:nonzero;stroke:rgb(35,31,32);stroke-width:1px;"/>
        </g>
        <g transform="matrix(1,0,0,1,763.177,823.318)">
            <path d="M0,-181.226L104.631,0L-104.631,0L0,-181.226Z" style="fill:white;fill-rule:nonzero;stroke:rgb(35,31,32);stroke-width:1px;"/>
        </g>
        <g transform="matrix(1,0,0,1,867.808,883.695)">
            <path d="M0,-181.226L-209.262,-181.226L-104.631,0L0,-181.226ZM-1.732,-180.226L-104.631,-2L-207.53,-180.226L-1.732,-180.226Z" style="fill:rgb(35,31,32);fill-rule:nonzero;"/>
        </g>
        <g transform="matrix(1,0,0,1,763.278,775.327)">
            <path d="M0,14.117C-26.313,14.117 -48.422,-3.877 -54.689,-28.235C-55.852,-23.722 -56.469,-18.992 -56.469,-14.118C-56.469,17.07 -31.188,42.352 0,42.352C31.188,42.352 56.469,17.07 56.469,-14.118C56.469,-18.992 55.852,-23.722 54.689,-28.235C48.422,-3.877 26.311,14.117 0,14.117Z" style="fill:none;fill-rule:nonzero;stroke:rgb(35,31,32);stroke-width:1px;"/>
        </g>
    </g>
    <g id="Layer-4" serif:id="Layer 4" transform="matrix(4.16667,0,0,4.16667,0,0)">
        <g transform="matrix(0,-1,-1,0,1260.41,1018.72)">
            <circle cx="-34" cy="0" r="34" style="fill:none;stroke:rgb(35,31,32);stroke-width:1px;"/>
        </g>
        <g transform="matrix(0,-1,-1,0,765.41,153.716)">
            <circle cx="-34" cy="0" r="34" style="fill:none;stroke:rgb(35,31,32);stroke-width:1px;"/>
        </g>
        <g transform="matrix(0,-1,-1,0,264.41,1014.72)">
            <circle cx="-34" cy="0" r="34" style="fill:none;stroke:rgb(35,31,32);stroke-width:1px;"/>
        </g>
    </g>
</svg>
