<?xml version="1.0" encoding="UTF-8" standalone="no"?><!DOCTYPE svg PUBLIC "-//W3C//DTD SVG 1.1//EN" "http://www.w3.org/Graphics/SVG/1.1/DTD/svg11.dtd"><svg width="100%" height="100%" viewBox="0 0 2972 2973" version="1.1" xmlns="http://www.w3.org/2000/svg" xmlns:xlink="http://www.w3.org/1999/xlink" xml:space="preserve" xmlns:serif="http://www.serif.com/" style="fill-rule:evenodd;clip-rule:evenodd;stroke-miterlimit:10;"><rect x="795.022" y="793.36" width="1383.789" height="1383.789" style="fill:none;stroke:#ed1c24;stroke-width:6.51px;"/><path d="M2175.01,1483.358c0,-380.818 -309.176,-689.993 -689.993,-689.993c-380.818,0 -689.993,309.176 -689.993,689.993c0,380.818 309.176,689.993 689.993,689.993c380.818,0 689.993,-309.176 689.993,-689.993Z" style="fill:none;stroke:#ed1c24;stroke-width:6.51px;"/><rect x="1001.988" y="997.475" width="969.87" height="969.857" style="fill:none;stroke:#ed1c24;stroke-width:6.51px;"/><path d="M799.448,1483.586l685.781,685.794l685.807,-685.794l-685.781,-685.794l-685.807,685.794Z" style="fill:none;stroke:#ed1c24;stroke-width:6.51px;"/><path d="M1568.86,504.652c0,-44.606 -36.217,-80.82 -80.827,-80.82c-44.61,0 -80.827,36.214 -80.827,80.82c0,44.606 36.217,80.82 80.827,80.82c44.61,0 80.827,-36.214 80.827,-80.82Z" style="fill:none;stroke:#ed1c24;stroke-width:6.51px;"/><path d="M1566.954,2463.341c0,-44.61 -36.214,-80.827 -80.82,-80.827c-44.606,0 -80.82,36.217 -80.82,80.827c0,44.61 36.214,80.827 80.82,80.827c44.606,0 80.82,-36.217 80.82,-80.827Z" style="fill:none;stroke:#ed1c24;stroke-width:6.51px;"/><path d="M2549.632,1483.517c0,-44.61 -36.214,-80.827 -80.82,-80.827c-44.606,0 -80.82,36.217 -80.82,80.827c0,44.61 36.214,80.827 80.82,80.827c44.606,0 80.82,-36.217 80.82,-80.827Z" style="fill:none;stroke:#ed1c24;stroke-width:6.51px;"/><path d="M586.188,1484.47c0,-44.613 -36.214,-80.833 -80.82,-80.833c-44.606,0 -80.82,36.22 -80.82,80.833c0,44.613 36.214,80.833 80.82,80.833c44.606,0 80.82,-36.22 80.82,-80.833Z" style="fill:none;stroke:#ed1c24;stroke-width:6.51px;"/><path d="M852.41,733.674c-31.541,-31.541 -82.756,-31.541 -114.297,0c-31.541,31.541 -31.541,82.756 0,114.297c31.541,31.541 82.756,31.541 114.297,0c31.541,-31.541 31.541,-82.756 0,-114.297Z" style="fill:none;stroke:#ed1c24;stroke-width:6.51px;"/><path d="M2236.073,2120.029c-31.542,-31.546 -82.76,-31.55 -114.304,-0.01c-31.544,31.54 -31.545,82.758 -0.003,114.304c31.542,31.546 82.76,31.55 114.304,0.01c31.544,-31.54 31.545,-82.758 0.003,-114.304Z" style="fill:none;stroke:#ed1c24;stroke-width:6.51px;"/><path d="M2238.089,732.33c-31.543,-31.543 -82.761,-31.543 -114.303,0c-31.543,31.543 -31.543,82.761 0,114.303c31.543,31.543 82.761,31.543 114.303,0c31.543,-31.543 31.543,-82.761 0,-114.303Z" style="fill:none;stroke:#ed1c24;stroke-width:6.51px;"/><path d="M850.392,2121.36c-31.546,-31.542 -82.765,-31.54 -114.308,0.006c-31.542,31.546 -31.539,82.765 0.007,114.308c31.546,31.542 82.765,31.54 114.308,-0.006c31.542,-31.546 31.539,-82.765 -0.007,-114.308Z" style="fill:none;stroke:#ed1c24;stroke-width:6.51px;"/><path d="M1543.296,737.368c-31.545,-31.545 -82.764,-31.546 -114.307,-0.003c-31.543,31.543 -31.541,82.762 0.003,114.307c31.545,31.545 82.764,31.546 114.307,0.003c31.543,-31.543 31.541,-82.762 -0.003,-114.307Z" style="fill:none;stroke:#ed1c24;stroke-width:6.51px;"/><path d="M1540.448,2115.376c-31.545,-31.545 -82.767,-31.543 -114.313,0.003c-31.546,31.546 -31.548,82.768 -0.003,114.313c31.545,31.545 82.767,31.543 114.313,-0.003c31.546,-31.546 31.548,-82.768 0.003,-114.313Z" style="fill:none;stroke:#ed1c24;stroke-width:6.51px;"/><path d="M2229.449,1425.413c-31.547,-31.543 -82.769,-31.54 -114.313,0.007c-31.544,31.547 -31.541,82.769 0.006,114.313c31.547,31.543 82.769,31.54 114.313,-0.007c31.544,-31.547 31.541,-82.769 -0.006,-114.313Z" style="fill:none;stroke:#ed1c24;stroke-width:6.51px;"/><path d="M859.038,1428.27c-31.543,-31.543 -82.761,-31.543 -114.303,0c-31.543,31.543 -31.543,82.761 0,114.303c31.543,31.543 82.761,31.543 114.303,0c31.543,-31.543 31.543,-82.761 0,-114.303Z" style="fill:none;stroke:#ed1c24;stroke-width:6.51px;"/><path d="M793.326,789.763l692.813,-285.104" style="fill:none;fill-rule:nonzero;stroke:#ed1c24;stroke-width:6.51px;"/><path d="M1486.139,504.652l692.813,287.956" style="fill:none;fill-rule:nonzero;stroke:#ed1c24;stroke-width:6.51px;"/><path d="M2178.958,792.61l287.956,689.961" style="fill:none;fill-rule:nonzero;stroke:#ed1c24;stroke-width:6.51px;"/><path d="M2466.911,1482.575l-287.956,692.799" style="fill:none;fill-rule:nonzero;stroke:#ed1c24;stroke-width:6.51px;"/><path d="M2178.958,2172.533l-695.664,293.659" style="fill:none;fill-rule:nonzero;stroke:#ed1c24;stroke-width:6.51px;"/><path d="M1483.291,2466.195l-689.961,-293.659" style="fill:none;fill-rule:nonzero;stroke:#ed1c24;stroke-width:6.51px;"/><path d="M787.623,2166.824l-285.104,-684.245" style="fill:none;fill-rule:nonzero;stroke:#ed1c24;stroke-width:6.51px;"/><path d="M502.519,1482.575l287.956,-689.961" style="fill:none;fill-rule:nonzero;stroke:#ed1c24;stroke-width:6.51px;"/><path d="M1143.248,1485.429l342.891,342.891l342.891,-342.891l-342.891,-342.891l-342.891,342.891Z" style="fill:none;stroke:#ed1c24;stroke-width:6.51px;"/><path d="M1370.899,1481.622l114.297,114.297l114.297,-114.297l-114.297,-114.297l-114.297,114.297Z" style="fill:none;stroke:#ed1c24;stroke-width:6.51px;"/><path d="M1975.298,1484.24c0,-270.647 -219.734,-490.378 -490.384,-490.378c-270.65,0 -490.384,219.731 -490.384,490.378c0,270.647 219.734,490.378 490.384,490.378c270.65,0 490.384,-219.731 490.384,-490.378Z" style="fill:none;stroke:#ed1c24;stroke-width:6.51px;"/><path d="M2066.527,1481.393c0,-321.002 -260.613,-581.615 -581.615,-581.615c-321.002,0 -581.615,260.613 -581.615,581.615c0,321.002 260.613,581.615 581.615,581.615c321.002,0 581.615,-260.613 581.615,-581.615Z" style="fill:none;stroke:#ed1c24;stroke-width:6.51px;"/><path d="M2300.316,1481.393c0,-451.607 -366.648,-818.255 -818.255,-818.255c-451.607,0 -818.255,366.648 -818.255,818.255c0,451.607 366.648,818.255 818.255,818.255c451.607,0 818.255,-366.648 818.255,-818.255Z" style="fill:none;stroke:#ed1c24;stroke-width:6.51px;"/><path d="M2930.403,1484.24c0,-797.79 -647.702,-1445.495 -1445.488,-1445.495c-797.787,-0 -1445.488,647.704 -1445.488,1445.495c0,797.79 647.702,1445.495 1445.488,1445.495c797.787,0 1445.488,-647.704 1445.488,-1445.495Z" style="fill:none;stroke:#ed1c24;stroke-width:6.51px;"/><rect x="457.574" y="457.852" width="333.581" height="333.581" style="fill:none;stroke:#ed1c24;stroke-width:6.51px;"/><rect x="2179.149" y="459.285" width="333.568" height="333.581" style="fill:none;stroke:#ed1c24;stroke-width:6.51px;"/><rect x="2182.001" y="2175.626" width="333.581" height="333.581" style="fill:none;stroke:#ed1c24;stroke-width:6.51px;"/><rect x="457.105" y="2181.329" width="333.568" height="333.581" style="fill:none;stroke:#ed1c24;stroke-width:6.51px;"/><path d="M504.459,1483.608l-235.56,-236.185l-236.185,235.56l235.56,236.185l236.185,-235.56Z" style="fill:none;stroke:#ed1c24;stroke-width:6.51px;"/><path d="M1724.425,268.906l-235.553,-236.191l-236.204,235.566l235.553,236.191l236.204,-235.566Z" style="fill:none;stroke:#ed1c24;stroke-width:6.51px;"/><path d="M2938.458,1482.139l-235.56,-236.185l-236.185,235.56l235.56,236.185l236.185,-235.56Z" style="fill:none;stroke:#ed1c24;stroke-width:6.51px;"/><path d="M1721.175,2704.24l-235.547,-236.185l-236.198,235.56l235.547,236.185l236.198,-235.56Z" style="fill:none;stroke:#ed1c24;stroke-width:6.51px;"/><path d="M1483.806,1802.336c25.065,-0.026 47.174,-2.865 66.536,-6.888c19.375,-4.049 36.029,-9.232 50.482,-14.544c28.893,-10.716 49.102,-21.354 65.299,-28.542c16.172,-7.331 28.398,-11.445 40.247,-12.409c11.836,-1.003 23.216,1.081 37.188,4.87c-3.789,-13.971 -5.859,-25.339 -4.87,-37.174c0.951,-11.862 5.078,-24.076 12.396,-40.26c7.201,-16.198 17.839,-36.406 28.555,-65.299c5.299,-14.44 10.495,-31.12 14.544,-50.469c4.023,-19.375 6.849,-41.484 6.875,-66.549c50.091,12.383 74.909,37.695 83.125,67.448c4.115,14.844 4.141,30.664 1.523,46.432c-2.63,15.768 -7.904,31.497 -14.232,46.706c-6.315,15.234 -12.812,28.099 -18.477,40.273c-5.677,12.188 -10.56,23.672 -14.284,36.302c-3.763,12.617 -6.341,26.38 -8.125,43.216c-1.823,16.836 -2.799,36.784 -4.388,62.031c-25.247,1.576 -45.221,2.5 -62.148,4.206c-16.914,1.68 -30.755,4.141 -43.451,7.747c-12.695,3.594 -24.258,8.32 -36.471,13.867c-12.201,5.534 -25.078,11.914 -40.26,18.229c-15.156,6.302 -30.781,11.628 -46.497,14.375c-15.69,2.734 -31.432,2.865 -46.224,-1.107c-29.674,-7.904 -54.961,-32.37 -67.344,-82.461Z" style="fill:none;fill-rule:nonzero;stroke:#ed1c24;stroke-width:6.51px;"/><path d="M1166.557,1485.067c0.013,25.065 2.839,47.188 6.875,66.549c4.023,19.362 9.232,36.029 14.531,50.469c10.716,28.893 21.354,49.102 28.555,65.299c7.318,16.185 11.432,28.398 12.409,40.26c0.99,11.836 -1.081,23.203 -4.883,37.174c13.971,-3.789 25.339,-5.872 37.188,-4.857c11.849,0.951 24.076,5.065 40.247,12.396c16.198,7.201 36.406,17.826 65.299,28.555c14.453,5.299 31.107,10.482 50.482,14.531c19.362,4.023 41.471,6.862 66.549,6.888c-12.383,50.091 -37.695,74.909 -67.461,83.125c-14.831,4.115 -30.651,4.141 -46.419,1.523c-15.781,-2.643 -31.497,-7.917 -46.706,-14.232c-15.234,-6.328 -28.099,-12.812 -40.286,-18.477c-12.188,-5.677 -23.672,-10.56 -36.302,-14.284c-12.63,-3.75 -26.367,-6.341 -43.216,-8.138c-16.836,-1.823 -36.771,-2.799 -62.018,-4.375c-1.589,-25.247 -2.5,-45.234 -4.219,-62.161c-1.693,-16.901 -4.128,-30.742 -7.747,-43.437c-3.581,-12.708 -8.307,-24.258 -13.854,-36.484c-5.547,-12.188 -11.94,-25.065 -18.216,-40.247c-6.328,-15.156 -11.641,-30.794 -14.401,-46.51c-2.721,-15.69 -2.865,-31.419 1.12,-46.224c7.891,-29.661 32.37,-54.961 82.474,-67.344Z" style="fill:none;fill-rule:nonzero;stroke:#ed1c24;stroke-width:6.51px;"/><path d="M1483.806,1167.812c-25.065,0.026 -47.188,2.865 -66.536,6.888c-19.375,4.036 -36.029,9.232 -50.482,14.531c-28.906,10.716 -49.102,21.354 -65.299,28.555c-16.185,7.318 -28.411,11.432 -40.26,12.396c-11.836,1.003 -23.203,-1.081 -37.188,-4.87c3.802,13.971 5.872,25.339 4.883,37.188c-0.964,11.849 -5.078,24.076 -12.396,40.247c-7.214,16.211 -17.839,36.406 -28.568,65.299c-5.299,14.453 -10.482,31.107 -14.518,50.482c-4.036,19.362 -6.862,41.471 -6.888,66.536c-50.104,-12.37 -74.909,-37.682 -83.125,-67.435c-4.128,-14.857 -4.167,-30.664 -1.536,-46.432c2.643,-15.781 7.917,-31.51 14.245,-46.706c6.315,-15.234 12.799,-28.112 18.464,-40.286c5.677,-12.188 10.56,-23.672 14.297,-36.302c3.75,-12.63 6.328,-26.38 8.112,-43.216c1.823,-16.836 2.799,-36.771 4.388,-62.018c25.247,-1.589 45.234,-2.5 62.161,-4.219c16.901,-1.693 30.742,-4.141 43.438,-7.747c12.708,-3.581 24.258,-8.307 36.484,-13.867c12.188,-5.534 25.065,-11.914 40.247,-18.216c15.156,-6.315 30.794,-11.628 46.51,-14.375c15.677,-2.747 31.432,-2.878 46.237,1.107c29.635,7.891 54.948,32.37 67.331,82.461Z" style="fill:none;fill-rule:nonzero;stroke:#ed1c24;stroke-width:6.51px;"/><path d="M1801.062,1485.067c-0.026,-25.065 -2.852,-47.188 -6.875,-66.536c-4.049,-19.375 -9.245,-36.029 -14.544,-50.482c-10.716,-28.893 -21.354,-49.089 -28.555,-65.299c-7.318,-16.185 -11.445,-28.398 -12.396,-40.247c-0.99,-11.849 1.068,-23.216 4.87,-37.188c-13.971,3.789 -25.339,5.872 -37.188,4.87c-11.849,-0.951 -24.076,-5.078 -40.247,-12.396c-16.198,-7.201 -36.406,-17.839 -65.299,-28.568c-14.453,-5.286 -31.107,-10.482 -50.482,-14.518c-19.375,-4.036 -41.471,-6.862 -66.536,-6.888c12.37,-50.091 37.682,-74.909 67.448,-83.125c14.831,-4.115 30.651,-4.154 46.419,-1.523c15.781,2.643 31.51,7.904 46.706,14.232c15.234,6.315 28.099,12.799 40.286,18.477c12.188,5.677 23.685,10.56 36.302,14.284c12.63,3.75 26.38,6.341 43.203,8.125c16.862,1.823 36.784,2.799 62.031,4.388c1.589,25.247 2.5,45.234 4.232,62.161c1.68,16.901 4.128,30.742 7.734,43.438c3.581,12.695 8.307,24.258 13.854,36.471c5.547,12.201 11.94,25.065 18.229,40.247c6.315,15.156 11.628,30.794 14.388,46.51c2.721,15.69 2.865,31.432 -1.12,46.237c-7.891,29.635 -32.37,54.948 -82.461,67.331Z" style="fill:none;fill-rule:nonzero;stroke:#ed1c24;stroke-width:6.51px;"/><path d="M1614.104,1400.692l-124.271,215.273l-124.284,-215.273l248.555,0Zm45.951,-91.862l-349.128,0l0,349.115l349.128,0l0,-349.115Z" style="fill:none;fill-rule:nonzero;stroke:#ed1c24;stroke-width:6.51px;"/><path d="M1662.429,1272.074c-47.865,-40.13 -109.583,-64.31 -176.94,-64.31c-67.357,0 -129.062,24.18 -176.94,64.31l353.88,0Z" style="fill:none;fill-rule:nonzero;stroke:#ed1c24;stroke-width:6.51px;"/><path d="M1274.182,1306.444c-40.143,47.878 -64.31,109.583 -64.31,176.94c0,67.357 24.167,129.062 64.31,176.94l0,-353.88Z" style="fill:none;fill-rule:nonzero;stroke:#ed1c24;stroke-width:6.51px;"/><path d="M1308.546,1694.691c47.878,40.143 109.583,64.31 176.94,64.31c67.37,0 129.076,-24.167 176.94,-64.31l-353.88,0Z" style="fill:none;fill-rule:nonzero;stroke:#ed1c24;stroke-width:6.51px;"/><path d="M1696.793,1306.444l0,353.88c40.143,-47.878 64.323,-109.583 64.323,-176.94c0,-67.357 -24.18,-129.062 -64.323,-176.94Z" style="fill:none;fill-rule:nonzero;stroke:#ed1c24;stroke-width:6.51px;"/><path d="M502.519,1482.575l1964.388,0" style="fill:none;fill-rule:nonzero;stroke:#ed1c24;stroke-width:6.51px;"/><path d="M1486.139,501.804l0,1961.536" style="fill:none;fill-rule:nonzero;stroke:#ed1c24;stroke-width:6.51px;"/><path d="M2930.403,1484.24c0,-797.79 -647.702,-1445.495 -1445.488,-1445.495c-797.787,-0 -1445.488,647.704 -1445.488,1445.495c0,797.79 647.702,1445.495 1445.488,1445.495c797.787,0 1445.488,-647.704 1445.488,-1445.495Z" style="fill:none;stroke:#ed1c24;stroke-width:6.51px;"/><path d="M2467.743,1485.252c0,-541.326 -439.491,-980.814 -980.82,-980.814c-541.329,0 -980.82,439.488 -980.82,980.814c0,541.326 439.491,980.814 980.82,980.814c541.329,0 980.82,-439.488 980.82,-980.814Z" style="fill:none;stroke:#ed1c24;stroke-width:6.51px;"/><path d="M787.623,2166.824l-285.104,-684.245l287.956,-689.974l2.852,-2.839l692.813,-285.117l692.812,287.956l287.956,689.974l-287.956,692.799l0,-2.852l-695.664,293.672l-689.961,-293.672" style="fill:none;fill-rule:nonzero;stroke:#ed1c24;stroke-width:6.51px;"/><path d="M2300.316,1481.393c0,-451.607 -366.648,-818.255 -818.255,-818.255c-451.607,0 -818.255,366.648 -818.255,818.255c0,451.607 366.648,818.255 818.255,818.255c451.607,0 818.255,-366.648 818.255,-818.255Z" style="fill:none;stroke:#ed1c24;stroke-width:6.51px;"/><path d="M2175.01,1483.358c0,-380.818 -309.176,-689.993 -689.993,-689.993c-380.818,0 -689.993,309.176 -689.993,689.993c0,380.818 309.176,689.993 689.993,689.993c380.818,0 689.993,-309.176 689.993,-689.993Z" style="fill:none;stroke:#ed1c24;stroke-width:6.51px;"/><path d="M2066.527,1481.393c0,-321.002 -260.613,-581.615 -581.615,-581.615c-321.002,0 -581.615,260.613 -581.615,581.615c0,321.002 260.613,581.615 581.615,581.615c321.002,0 581.615,-260.613 581.615,-581.615Z" style="fill:none;stroke:#ed1c24;stroke-width:6.51px;"/><rect x="1001.988" y="997.475" width="969.87" height="969.857" style="fill:none;stroke:#ed1c24;stroke-width:6.51px;"/><path d="M1143.248,1485.429l342.891,342.891l342.891,-342.891l-342.891,-342.891l-342.891,342.891Z" style="fill:none;stroke:#ed1c24;stroke-width:6.51px;"/><path d="M502.519,1482.575l1964.388,0" style="fill:none;fill-rule:nonzero;stroke:#ed1c24;stroke-width:6.51px;"/><path d="M1486.139,501.804l0,1961.536" style="fill:none;fill-rule:nonzero;stroke:#ed1c24;stroke-width:6.51px;"/><path d="M799.448,1483.586l685.781,685.794l685.807,-685.794l-685.781,-685.794l-685.807,685.794Z" style="fill:none;stroke:#ed1c24;stroke-width:6.51px;"/><rect x="795.022" y="793.36" width="1383.789" height="1383.789" style="fill:none;stroke:#ed1c24;stroke-width:6.51px;"/><path d="M1568.86,504.652c0,-44.606 -36.217,-80.82 -80.827,-80.82c-44.61,0 -80.827,36.214 -80.827,80.82c0,44.606 36.217,80.82 80.827,80.82c44.61,0 80.827,-36.214 80.827,-80.82Z" style="fill:none;stroke:#ed1c24;stroke-width:6.51px;"/><path d="M1566.954,2463.341c0,-44.61 -36.214,-80.827 -80.82,-80.827c-44.606,0 -80.82,36.217 -80.82,80.827c0,44.61 36.214,80.827 80.82,80.827c44.606,0 80.82,-36.217 80.82,-80.827Z" style="fill:none;stroke:#ed1c24;stroke-width:6.51px;"/><path d="M2549.632,1483.517c0,-44.61 -36.214,-80.827 -80.82,-80.827c-44.606,0 -80.82,36.217 -80.82,80.827c0,44.61 36.214,80.827 80.82,80.827c44.606,0 80.82,-36.217 80.82,-80.827Z" style="fill:none;stroke:#ed1c24;stroke-width:6.51px;"/><path d="M586.188,1484.47c0,-44.613 -36.214,-80.833 -80.82,-80.833c-44.606,0 -80.82,36.22 -80.82,80.833c0,44.613 36.214,80.833 80.82,80.833c44.606,0 80.82,-36.22 80.82,-80.833Z" style="fill:none;stroke:#ed1c24;stroke-width:6.51px;"/><path d="M852.41,733.674c-31.541,-31.541 -82.756,-31.541 -114.297,0c-31.541,31.541 -31.541,82.756 0,114.297c31.541,31.541 82.756,31.541 114.297,0c31.541,-31.541 31.541,-82.756 0,-114.297Z" style="fill:none;stroke:#ed1c24;stroke-width:6.51px;"/><path d="M2236.073,2120.029c-31.542,-31.546 -82.76,-31.55 -114.304,-0.01c-31.544,31.54 -31.545,82.758 -0.003,114.304c31.542,31.546 82.76,31.55 114.304,0.01c31.544,-31.54 31.545,-82.758 0.003,-114.304Z" style="fill:none;stroke:#ed1c24;stroke-width:6.51px;"/><path d="M2238.089,732.33c-31.543,-31.543 -82.761,-31.543 -114.303,0c-31.543,31.543 -31.543,82.761 0,114.303c31.543,31.543 82.761,31.543 114.303,0c31.543,-31.543 31.543,-82.761 0,-114.303Z" style="fill:none;stroke:#ed1c24;stroke-width:6.51px;"/><path d="M850.392,2121.36c-31.546,-31.542 -82.765,-31.54 -114.308,0.006c-31.542,31.546 -31.539,82.765 0.007,114.308c31.546,31.542 82.765,31.54 114.308,-0.006c31.542,-31.546 31.539,-82.765 -0.007,-114.308Z" style="fill:none;stroke:#ed1c24;stroke-width:6.51px;"/><path d="M1543.296,737.368c-31.545,-31.545 -82.764,-31.546 -114.307,-0.003c-31.543,31.543 -31.541,82.762 0.003,114.307c31.545,31.545 82.764,31.546 114.307,0.003c31.543,-31.543 31.541,-82.762 -0.003,-114.307Z" style="fill:none;stroke:#ed1c24;stroke-width:6.51px;"/><path d="M1540.448,2115.376c-31.545,-31.545 -82.767,-31.543 -114.313,0.003c-31.546,31.546 -31.548,82.768 -0.003,114.313c31.545,31.545 82.767,31.543 114.313,-0.003c31.546,-31.546 31.548,-82.768 0.003,-114.313Z" style="fill:none;stroke:#ed1c24;stroke-width:6.51px;"/><path d="M2229.449,1425.413c-31.547,-31.543 -82.769,-31.54 -114.313,0.007c-31.544,31.547 -31.541,82.769 0.006,114.313c31.547,31.543 82.769,31.54 114.313,-0.007c31.544,-31.547 31.541,-82.769 -0.006,-114.313Z" style="fill:none;stroke:#ed1c24;stroke-width:6.51px;"/><path d="M859.038,1428.27c-31.543,-31.543 -82.761,-31.543 -114.303,0c-31.543,31.543 -31.543,82.761 0,114.303c31.543,31.543 82.761,31.543 114.303,0c31.543,-31.543 31.543,-82.761 0,-114.303Z" style="fill:none;stroke:#ed1c24;stroke-width:6.51px;"/><rect x="457.574" y="457.852" width="333.581" height="333.581" style="fill:none;stroke:#ed1c24;stroke-width:6.51px;"/><rect x="2179.149" y="459.285" width="333.568" height="333.581" style="fill:none;stroke:#ed1c24;stroke-width:6.51px;"/><rect x="2182.001" y="2175.626" width="333.581" height="333.581" style="fill:none;stroke:#ed1c24;stroke-width:6.51px;"/><rect x="457.105" y="2181.329" width="333.568" height="333.581" style="fill:none;stroke:#ed1c24;stroke-width:6.51px;"/><path d="M504.459,1483.608l-235.56,-236.185l-236.185,235.56l235.56,236.185l236.185,-235.56Z" style="fill:none;stroke:#ed1c24;stroke-width:6.51px;"/><path d="M1724.425,268.906l-235.553,-236.191l-236.204,235.566l235.553,236.191l236.204,-235.566Z" style="fill:none;stroke:#ed1c24;stroke-width:6.51px;"/><path d="M2938.458,1482.139l-235.56,-236.185l-236.185,235.56l235.56,236.185l236.185,-235.56Z" style="fill:none;stroke:#ed1c24;stroke-width:6.51px;"/><path d="M1721.175,2704.24l-235.547,-236.185l-236.198,235.56l235.547,236.185l236.198,-235.56Z" style="fill:none;stroke:#ed1c24;stroke-width:6.51px;"/><path d="M1975.298,1484.24c0,-270.647 -219.734,-490.378 -490.384,-490.378c-270.65,0 -490.384,219.731 -490.384,490.378c0,270.647 219.734,490.378 490.384,490.378c270.65,0 490.384,-219.731 490.384,-490.378Z" style="fill:none;stroke:#ed1c24;stroke-width:6.51px;"/><path d="M1487.608,1554.285l77.292,-133.88l-154.583,0l77.292,133.88l77.292,-133.88l-154.583,0l77.292,133.88Z" style="fill:none;fill-rule:nonzero;stroke:#ed1c24;stroke-width:6.51px;"/><path d="M1614.104,1400.692l-124.271,215.273l-124.284,-215.273l248.555,0Zm45.951,-91.862l-349.128,0l0,349.115l349.128,0l0,-349.115Z" style="fill:none;fill-rule:nonzero;stroke:#ed1c24;stroke-width:6.51px;"/><path d="M1662.429,1272.074c-47.865,-40.13 -109.583,-64.31 -176.94,-64.31c-67.357,0 -129.062,24.18 -176.94,64.31l353.88,0Z" style="fill:none;fill-rule:nonzero;stroke:#ed1c24;stroke-width:6.51px;"/><path d="M1274.182,1306.444c-40.143,47.878 -64.31,109.583 -64.31,176.94c0,67.357 24.167,129.062 64.31,176.94l0,-353.88Z" style="fill:none;fill-rule:nonzero;stroke:#ed1c24;stroke-width:6.51px;"/><path d="M1308.546,1694.691c47.878,40.143 109.583,64.31 176.94,64.31c67.37,0 129.076,-24.167 176.94,-64.31l-353.88,0Z" style="fill:none;fill-rule:nonzero;stroke:#ed1c24;stroke-width:6.51px;"/><path d="M1696.793,1306.444l0,353.88c40.143,-47.878 64.323,-109.583 64.323,-176.94c0,-67.357 -24.18,-129.062 -64.323,-176.94Z" style="fill:none;fill-rule:nonzero;stroke:#ed1c24;stroke-width:6.51px;"/><path d="M1370.899,1481.622l114.297,114.297l114.297,-114.297l-114.297,-114.297l-114.297,114.297Z" style="fill:none;stroke:#ed1c24;stroke-width:6.51px;"/><path d="M1483.806,1802.336c25.065,-0.026 47.174,-2.865 66.536,-6.888c19.375,-4.049 36.029,-9.232 50.482,-14.544c28.893,-10.716 49.102,-21.354 65.299,-28.542c16.172,-7.331 28.398,-11.445 40.247,-12.409c11.836,-1.003 23.216,1.081 37.188,4.87c-3.789,-13.971 -5.859,-25.339 -4.87,-37.174c0.951,-11.862 5.078,-24.076 12.396,-40.26c7.201,-16.198 17.839,-36.406 28.555,-65.299c5.299,-14.44 10.495,-31.12 14.544,-50.469c4.023,-19.375 6.849,-41.484 6.875,-66.549c50.091,12.383 74.909,37.695 83.125,67.448c4.115,14.844 4.141,30.664 1.523,46.432c-2.63,15.768 -7.904,31.497 -14.232,46.706c-6.315,15.234 -12.812,28.099 -18.477,40.273c-5.677,12.188 -10.56,23.672 -14.284,36.302c-3.763,12.617 -6.341,26.38 -8.125,43.216c-1.823,16.836 -2.799,36.784 -4.388,62.031c-25.247,1.576 -45.221,2.5 -62.148,4.206c-16.914,1.68 -30.755,4.141 -43.451,7.747c-12.695,3.594 -24.258,8.32 -36.471,13.867c-12.201,5.534 -25.078,11.914 -40.26,18.229c-15.156,6.302 -30.781,11.628 -46.497,14.375c-15.69,2.734 -31.432,2.865 -46.224,-1.107c-29.674,-7.904 -54.961,-32.37 -67.344,-82.461Z" style="fill:none;fill-rule:nonzero;stroke:#ed1c24;stroke-width:6.51px;"/><path d="M1166.557,1485.067c0.013,25.065 2.839,47.188 6.875,66.549c4.023,19.362 9.232,36.029 14.531,50.469c10.716,28.893 21.354,49.102 28.555,65.299c7.318,16.185 11.432,28.398 12.409,40.26c0.99,11.836 -1.081,23.203 -4.883,37.174c13.971,-3.789 25.339,-5.872 37.188,-4.857c11.849,0.951 24.076,5.065 40.247,12.396c16.198,7.201 36.406,17.826 65.299,28.555c14.453,5.299 31.107,10.482 50.482,14.531c19.362,4.023 41.471,6.862 66.549,6.888c-12.383,50.091 -37.695,74.909 -67.461,83.125c-14.831,4.115 -30.651,4.141 -46.419,1.523c-15.781,-2.643 -31.497,-7.917 -46.706,-14.232c-15.234,-6.328 -28.099,-12.812 -40.286,-18.477c-12.188,-5.677 -23.672,-10.56 -36.302,-14.284c-12.63,-3.75 -26.367,-6.341 -43.216,-8.138c-16.836,-1.823 -36.771,-2.799 -62.018,-4.375c-1.589,-25.247 -2.5,-45.234 -4.219,-62.161c-1.693,-16.901 -4.128,-30.742 -7.747,-43.437c-3.581,-12.708 -8.307,-24.258 -13.854,-36.484c-5.547,-12.188 -11.94,-25.065 -18.216,-40.247c-6.328,-15.156 -11.641,-30.794 -14.401,-46.51c-2.721,-15.69 -2.865,-31.419 1.12,-46.224c7.891,-29.661 32.37,-54.961 82.474,-67.344Z" style="fill:none;fill-rule:nonzero;stroke:#ed1c24;stroke-width:6.51px;"/><path d="M1483.806,1167.812c-25.065,0.026 -47.188,2.865 -66.536,6.888c-19.375,4.036 -36.029,9.232 -50.482,14.531c-28.906,10.716 -49.102,21.354 -65.299,28.555c-16.185,7.318 -28.411,11.432 -40.26,12.396c-11.836,1.003 -23.203,-1.081 -37.188,-4.87c3.802,13.971 5.872,25.339 4.883,37.188c-0.964,11.849 -5.078,24.076 -12.396,40.247c-7.214,16.211 -17.839,36.406 -28.568,65.299c-5.299,14.453 -10.482,31.107 -14.518,50.482c-4.036,19.362 -6.862,41.471 -6.888,66.536c-50.104,-12.37 -74.909,-37.682 -83.125,-67.435c-4.128,-14.857 -4.167,-30.664 -1.536,-46.432c2.643,-15.781 7.917,-31.51 14.245,-46.706c6.315,-15.234 12.799,-28.112 18.464,-40.286c5.677,-12.188 10.56,-23.672 14.297,-36.302c3.75,-12.63 6.328,-26.38 8.112,-43.216c1.823,-16.836 2.799,-36.771 4.388,-62.018c25.247,-1.589 45.234,-2.5 62.161,-4.219c16.901,-1.693 30.742,-4.141 43.438,-7.747c12.708,-3.581 24.258,-8.307 36.484,-13.867c12.188,-5.534 25.065,-11.914 40.247,-18.216c15.156,-6.315 30.794,-11.628 46.51,-14.375c15.677,-2.747 31.432,-2.878 46.237,1.107c29.635,7.891 54.948,32.37 67.331,82.461Z" style="fill:none;fill-rule:nonzero;stroke:#ed1c24;stroke-width:6.51px;"/><path d="M1801.062,1485.067c-0.026,-25.065 -2.852,-47.188 -6.875,-66.536c-4.049,-19.375 -9.245,-36.029 -14.544,-50.482c-10.716,-28.893 -21.354,-49.089 -28.555,-65.299c-7.318,-16.185 -11.445,-28.398 -12.396,-40.247c-0.99,-11.849 1.068,-23.216 4.87,-37.188c-13.971,3.789 -25.339,5.872 -37.188,4.87c-11.849,-0.951 -24.076,-5.078 -40.247,-12.396c-16.198,-7.201 -36.406,-17.839 -65.299,-28.568c-14.453,-5.286 -31.107,-10.482 -50.482,-14.518c-19.375,-4.036 -41.471,-6.862 -66.536,-6.888c12.37,-50.091 37.682,-74.909 67.448,-83.125c14.831,-4.115 30.651,-4.154 46.419,-1.523c15.781,2.643 31.51,7.904 46.706,14.232c15.234,6.315 28.099,12.799 40.286,18.477c12.188,5.677 23.685,10.56 36.302,14.284c12.63,3.75 26.38,6.341 43.203,8.125c16.862,1.823 36.784,2.799 62.031,4.388c1.589,25.247 2.5,45.234 4.232,62.161c1.68,16.901 4.128,30.742 7.734,43.438c3.581,12.695 8.307,24.258 13.854,36.471c5.547,12.201 11.94,25.065 18.229,40.247c6.315,15.156 11.628,30.794 14.388,46.51c2.721,15.69 2.865,31.432 -1.12,46.237c-7.891,29.635 -32.37,54.948 -82.461,67.331Z" style="fill:none;fill-rule:nonzero;stroke:#ed1c24;stroke-width:6.51px;"/></svg>