<?xml version="1.0" encoding="UTF-8" standalone="no"?><!DOCTYPE svg PUBLIC "-//W3C//DTD SVG 1.1//EN" "http://www.w3.org/Graphics/SVG/1.1/DTD/svg11.dtd"><svg width="100%" height="100%" viewBox="0 0 3293 3783" version="1.1" xmlns="http://www.w3.org/2000/svg" xmlns:xlink="http://www.w3.org/1999/xlink" xml:space="preserve" xmlns:serif="http://www.serif.com/" style="fill-rule:evenodd;clip-rule:evenodd;stroke-miterlimit:10;"><rect x="485.819" y="733.214" width="2320.495" height="2320.495" style="fill:none;stroke:#f8a73c;stroke-width:6.51px;"/><path d="M2797.202,1890.595c-0.974,-636.27 -518.332,-1152.05 -1154.597,-1151.076c-636.266,0.974 -1152.043,518.335 -1151.069,1154.605c0.974,636.27 518.332,1152.05 1154.597,1151.076c636.266,-0.974 1152.043,-518.335 1151.069,-1154.605Z" style="fill:none;stroke:#f8a73c;stroke-width:6.51px;"/><path d="M2797.202,1890.595c-0.974,-636.27 -518.332,-1152.05 -1154.597,-1151.076c-636.266,0.974 -1152.043,518.335 -1151.069,1154.605c0.974,636.27 518.332,1152.05 1154.597,1151.076c636.266,-0.974 1152.043,-518.335 1151.069,-1154.605Z" style="fill:none;stroke:#f8a73c;stroke-width:6.51px;"/><path d="M735.063,1346.739c0,-28.444 -23.096,-51.536 -51.543,-51.536c-28.447,0 -51.543,23.093 -51.543,51.536c0,28.444 23.096,51.536 51.543,51.536c28.447,0 51.543,-23.093 51.543,-51.536Z" style="fill:none;stroke:#f8a73c;stroke-width:6.51px;"/><path d="M744.161,2444.298c0,-28.444 -23.096,-51.536 -51.543,-51.536c-28.447,0 -51.543,23.093 -51.543,51.536c0,28.444 23.096,51.536 51.543,51.536c28.447,0 51.543,-23.093 51.543,-51.536Z" style="fill:none;stroke:#f8a73c;stroke-width:6.51px;"/><path d="M1702.255,2993.074c0,-28.447 -23.096,-51.543 -51.543,-51.543c-28.447,0 -51.543,23.096 -51.543,51.543c0,28.447 23.096,51.543 51.543,51.543c28.447,0 51.543,-23.096 51.543,-51.543Z" style="fill:none;stroke:#f8a73c;stroke-width:6.51px;"/><path d="M2651.25,2444.298c0,-28.444 -23.096,-51.536 -51.543,-51.536c-28.447,0 -51.543,23.093 -51.543,51.536c0,28.444 23.096,51.536 51.543,51.536c28.447,0 51.543,-23.093 51.543,-51.536Z" style="fill:none;stroke:#f8a73c;stroke-width:6.51px;"/><path d="M2645.184,1337.64c0,-28.447 -23.096,-51.543 -51.543,-51.543c-28.447,0 -51.543,23.096 -51.543,51.543c0,28.447 23.096,51.543 51.543,51.543c28.447,0 51.543,-23.096 51.543,-51.543Z" style="fill:none;stroke:#f8a73c;stroke-width:6.51px;"/><path d="M1693.149,791.898c0,-28.447 -23.096,-51.543 -51.543,-51.543c-28.447,0 -51.543,23.096 -51.543,51.543c0,28.447 23.096,51.543 51.543,51.543c28.447,0 51.543,-23.096 51.543,-51.543Z" style="fill:none;stroke:#f8a73c;stroke-width:6.51px;"/><path d="M2426.881,1894.002c0,-431.73 -350.51,-782.24 -782.24,-782.24c-431.73,0 -782.24,350.51 -782.24,782.24c0,431.73 350.51,782.24 782.24,782.24c431.73,0 782.24,-350.51 782.24,-782.24Z" style="fill:none;stroke:#f8a73c;stroke-width:6.51px;"/><path d="M2293.354,1890.919c0,-360.175 -292.413,-652.591 -652.585,-652.591c-360.171,0 -652.585,292.416 -652.585,652.591c0,360.175 292.413,652.591 652.585,652.591c360.171,0 652.585,-292.416 652.585,-652.591Z" style="fill:none;stroke:#f8a73c;stroke-width:6.51px;"/><path d="M2414.076,1106.527c58.151,209.779 -64.766,426.966 -274.544,485.117c-209.766,58.151 -426.966,-64.753 -485.117,-274.531c-58.138,-209.766 64.779,-426.966 274.544,-485.13" style="fill:none;fill-rule:nonzero;stroke:#f8a73c;stroke-width:6.51px;"/><path d="M1328.369,828.233c212.695,46.354 347.539,256.354 301.159,469.036c-46.354,212.695 -256.354,347.539 -469.036,301.172c-212.695,-46.354 -347.526,-256.367 -301.172,-469.049" style="fill:none;fill-rule:nonzero;stroke:#f8a73c;stroke-width:6.51px;"/><path d="M584.027,1609.222c158.958,-148.737 408.385,-140.43 557.109,18.529c148.711,158.958 140.417,408.385 -18.555,557.109c-158.945,148.711 -408.359,140.417 -557.083,-18.529" style="fill:none;fill-rule:nonzero;stroke:#f8a73c;stroke-width:6.51px;"/><path d="M867.885,2659.153c-44.987,-212.982 91.198,-422.109 304.18,-467.096c212.995,-44.987 422.122,91.211 467.109,304.193c44.987,212.969 -91.224,422.109 -304.193,467.096" style="fill:none;fill-rule:nonzero;stroke:#f8a73c;stroke-width:6.51px;"/><path d="M1926.139,2945.395c-208.086,-63.88 -324.987,-284.375 -261.107,-492.474c63.893,-208.099 284.388,-325 492.474,-261.107c208.086,63.893 325,284.375 261.107,492.474" style="fill:none;fill-rule:nonzero;stroke:#f8a73c;stroke-width:6.51px;"/><path d="M2718.414,2169.239c-154.896,152.982 -404.44,151.432 -557.422,-3.451c-152.969,-154.87 -151.406,-404.427 3.451,-557.396c154.883,-152.982 404.453,-151.432 557.409,3.451" style="fill:none;fill-rule:nonzero;stroke:#f8a73c;stroke-width:6.51px;"/><path d="M2534.041,1384.492c-157.711,-274.138 -684.958,-267.042 -1176.667,15.837c-491.709,282.879 -762.873,735.106 -605.162,1009.244c157.711,274.138 684.958,267.042 1176.667,-15.837c491.709,-282.879 762.873,-735.106 605.162,-1009.244Z" style="fill:none;stroke:#f8a73c;stroke-width:6.51px;"/><ellipse cx="1646.158" cy="1895.522" rx="573.04" ry="1027.826" style="fill:none;stroke:#f8a73c;stroke-width:6.51px;"/><path d="M2538.879,2407.941c156.742,-274.697 -116.018,-725.965 -608.724,-1007.104c-492.706,-281.139 -1019.977,-286.369 -1176.719,-11.672c-156.742,274.697 116.018,725.965 608.724,1007.104c492.706,281.139 1019.977,286.369 1176.719,11.672Z" style="fill:none;stroke:#f8a73c;stroke-width:6.51px;"/><path d="M39.11,2824.979l3214.661,-1867.057" style="fill:none;fill-rule:nonzero;stroke:#f8a73c;stroke-width:6.51px;"/><path d="M32.714,970.54l3227.448,1844.857" style="fill:none;fill-rule:nonzero;stroke:#f8a73c;stroke-width:6.51px;"/><path d="M1652.829,3750.201l-12.773,-3717.487" style="fill:none;fill-rule:nonzero;stroke:#f8a73c;stroke-width:6.51px;"/><path d="M2005.407,1741.977c-82.995,-199.263 -312.154,-293.657 -511.418,-210.662c-199.264,82.996 -293.66,312.154 -210.665,511.417c82.995,199.263 312.154,293.657 511.418,210.662c199.264,-82.996 293.66,-312.154 210.665,-511.417Z" style="fill:none;stroke:#f8a73c;stroke-width:6.51px;"/><path d="M1779.591,2124.333c24.453,-14.206 41.354,-28.737 54.115,-40.625c12.747,-11.979 21.406,-21.497 28.555,-28.398c7.135,-6.927 12.721,-11.276 18.438,-13.867c5.69,-2.617 11.484,-3.464 18.633,-3.776c-3.307,-6.341 -5.469,-11.784 -6.042,-18.008c-0.586,-6.25 0.417,-13.242 2.839,-22.852c2.409,-9.622 6.315,-21.849 10.312,-38.815c3.893,-16.953 7.969,-38.75 8.034,-67.135c15.091,-0.026 26.641,2.799 35.469,8.099c8.841,5.273 14.883,12.982 18.906,21.953c4.036,8.984 6.003,19.18 6.914,29.362c0.938,10.182 0.833,20.339 1.042,29.479c0.221,9.375 -0.26,17.591 -0.742,25.286c-0.508,7.721 -0.99,14.948 -0.977,22.552c0,7.604 0.534,15.573 1.797,24.935c1.276,9.388 3.346,20.117 6.055,33.503c-12.956,4.297 -23.307,7.956 -32.096,11.628c-8.776,3.633 -15.977,7.292 -22.656,11.107c-6.667,3.828 -12.76,7.839 -19.284,11.953c-6.536,4.102 -13.49,8.32 -21.784,12.305c-8.581,4.102 -17.76,8.867 -27.344,12.76c-9.544,3.906 -19.518,6.927 -29.232,7.76c-9.74,0.833 -19.219,-0.508 -27.852,-5.091c-8.633,-4.57 -16.315,-12.357 -23.099,-24.115Z" style="fill:none;fill-rule:nonzero;stroke:#f8a73c;stroke-width:6.51px;"/><path d="M1509.942,2124.333c12.227,7.07 23.633,12.409 34.01,16.641c10.391,4.245 19.74,7.357 28.086,9.883c16.706,5.026 29.284,7.708 38.815,10.443c9.57,2.695 16.172,5.339 21.289,8.971c5.117,3.62 8.776,8.19 12.63,14.245c3.841,-6.055 7.5,-10.625 12.617,-14.245c5.143,-3.633 11.719,-6.276 21.302,-8.971c9.531,-2.734 22.096,-5.417 38.815,-10.443c8.32,-2.526 17.695,-5.638 28.086,-9.883c10.378,-4.232 21.784,-9.57 33.997,-16.641c7.591,13.047 10.938,24.44 10.768,34.74c-0.169,10.273 -3.802,19.375 -9.57,27.331c-5.768,7.982 -13.633,14.753 -22.005,20.638c-8.359,5.898 -17.214,10.859 -25.052,15.599c-8.021,4.883 -15.378,8.542 -22.292,11.979c-6.953,3.411 -13.477,6.602 -20.026,10.417c-6.602,3.802 -13.242,8.229 -20.703,14.01c-7.487,5.807 -15.742,12.943 -25.938,22.018c-10.182,-9.076 -18.542,-16.185 -26.107,-21.953c-7.565,-5.755 -14.336,-10.156 -21.003,-13.997c-6.628,-3.854 -13.177,-7.109 -20.026,-10.703c-6.836,-3.594 -13.984,-7.487 -21.576,-12.682c-7.865,-5.365 -16.576,-10.911 -24.74,-17.266c-8.164,-6.341 -15.742,-13.411 -21.315,-21.458c-5.586,-8.008 -9.154,-16.901 -9.479,-26.628c-0.326,-9.766 2.604,-20.299 9.414,-32.044Z" style="fill:none;fill-rule:nonzero;stroke:#f8a73c;stroke-width:6.51px;"/><path d="M1375.067,1890.855c0.052,28.385 4.141,50.182 8.034,67.135c3.984,16.966 7.93,29.193 10.299,38.815c2.448,9.609 3.451,16.615 2.852,22.852c-0.586,6.224 -2.734,11.667 -6.042,18.008c7.148,0.312 12.943,1.146 18.633,3.776c5.729,2.591 11.302,6.953 18.438,13.867c7.161,6.901 15.833,16.419 28.555,28.411c12.773,11.875 29.661,26.406 54.102,40.612c-7.526,13.073 -15.742,21.654 -24.766,26.628c-8.984,5 -18.685,6.367 -28.477,5.339c-9.792,-1.016 -19.609,-4.44 -28.88,-8.737c-9.284,-4.297 -18.021,-9.492 -26.055,-13.88c-8.229,-4.479 -15.078,-9.01 -21.523,-13.281c-6.445,-4.284 -12.461,-8.307 -19.036,-12.07c-6.602,-3.789 -13.776,-7.318 -22.539,-10.859c-8.75,-3.581 -19.115,-7.148 -32.07,-11.445c2.734,-13.385 4.714,-24.167 5.911,-33.62c1.198,-9.427 1.654,-17.5 1.654,-25.182c0,-7.682 -0.404,-14.974 -0.716,-22.695c-0.299,-7.695 -0.482,-15.833 0.208,-25.013c0.729,-9.479 1.211,-19.818 2.643,-30.052c1.419,-10.221 3.789,-20.326 7.956,-29.167c4.167,-8.841 10.078,-16.367 18.359,-21.523c8.294,-5.182 18.893,-7.943 32.461,-7.917Z" style="fill:none;fill-rule:nonzero;stroke:#f8a73c;stroke-width:6.51px;"/><path d="M1509.942,1657.369c-24.44,14.206 -41.341,28.737 -54.102,40.612c-12.734,12.005 -21.406,21.523 -28.555,28.411c-7.135,6.927 -12.721,11.276 -18.438,13.867c-5.69,2.63 -11.484,3.464 -18.633,3.776c3.307,6.354 5.456,11.784 6.042,18.021c0.586,6.237 -0.417,13.242 -2.852,22.839c-2.383,9.635 -6.315,21.862 -10.312,38.815c-3.893,16.953 -7.969,38.75 -8.021,67.148c-15.091,0.026 -26.641,-2.799 -35.482,-8.099c-8.815,-5.286 -14.883,-12.995 -18.906,-21.966c-4.023,-8.984 -5.99,-19.18 -6.914,-29.349c-0.924,-10.195 -0.82,-20.339 -1.042,-29.492c-0.221,-9.375 0.273,-17.578 0.768,-25.286c0.495,-7.721 0.977,-14.948 0.951,-22.539c0,-7.617 -0.521,-15.586 -1.797,-24.948c-1.276,-9.375 -3.333,-20.117 -6.055,-33.49c12.956,-4.31 23.32,-7.969 32.096,-11.641c8.789,-3.633 15.99,-7.292 22.656,-11.107c6.68,-3.815 12.76,-7.839 19.31,-11.94c6.523,-4.102 13.477,-8.333 21.771,-12.318c8.581,-4.102 17.76,-8.867 27.331,-12.747c9.557,-3.919 19.518,-6.927 29.258,-7.773c9.727,-0.833 19.219,0.521 27.826,5.091c8.646,4.57 16.328,12.357 23.099,24.115Z" style="fill:none;fill-rule:nonzero;stroke:#f8a73c;stroke-width:6.51px;"/><path d="M1779.591,1657.369c-12.214,-7.07 -23.62,-12.409 -33.997,-16.628c-10.391,-4.245 -19.766,-7.37 -28.086,-9.896c-16.719,-5.013 -29.284,-7.708 -38.815,-10.443c-9.583,-2.682 -16.159,-5.339 -21.302,-8.958c-5.117,-3.62 -8.776,-8.203 -12.617,-14.245c-3.854,6.042 -7.513,10.625 -12.63,14.245c-5.117,3.62 -11.706,6.276 -21.276,8.958c-9.544,2.734 -22.122,5.43 -38.828,10.443c-8.346,2.526 -17.695,5.651 -28.086,9.896c-10.378,4.232 -21.784,9.557 -34.01,16.628c-7.578,-13.034 -10.924,-24.44 -10.755,-34.74c0.156,-10.26 3.802,-19.362 9.57,-27.331c5.768,-7.969 13.633,-14.753 22.005,-20.638c8.372,-5.898 17.214,-10.859 25.039,-15.599c8.034,-4.883 15.391,-8.542 22.318,-11.979c6.94,-3.411 13.451,-6.602 20.013,-10.417c6.589,-3.802 13.255,-8.229 20.703,-14.01c7.487,-5.794 15.755,-12.93 25.938,-22.005c10.195,9.076 18.529,16.172 26.107,21.927c7.552,5.768 14.336,10.182 21.003,14.023c6.628,3.854 13.177,7.109 20.026,10.69c6.81,3.594 13.971,7.487 21.589,12.682c7.839,5.365 16.562,10.911 24.727,17.266c8.151,6.341 15.755,13.424 21.315,21.458c5.586,8.008 9.141,16.901 9.479,26.628c0.326,9.766 -2.604,20.299 -9.427,32.044Z" style="fill:none;fill-rule:nonzero;stroke:#f8a73c;stroke-width:6.51px;"/><path d="M1914.479,1890.855c-0.065,-28.398 -4.141,-50.195 -8.034,-67.148c-4.01,-16.953 -7.917,-29.18 -10.312,-38.802c-2.435,-9.609 -3.438,-16.615 -2.839,-22.852c0.573,-6.237 2.734,-11.667 6.042,-18.021c-7.148,-0.299 -12.943,-1.146 -18.646,-3.763c-5.703,-2.591 -11.289,-6.953 -18.438,-13.867c-7.148,-6.901 -15.807,-16.432 -28.542,-28.424c-12.773,-11.875 -29.661,-26.406 -54.115,-40.612c7.539,-13.06 15.768,-21.654 24.766,-26.628c8.984,-4.987 18.698,-6.367 28.49,-5.339c9.792,1.029 19.609,4.44 28.88,8.75c9.284,4.297 18.021,9.492 26.055,13.867c8.229,4.505 15.078,9.01 21.523,13.294c6.445,4.271 12.461,8.307 19.049,12.07c6.589,3.789 13.763,7.318 22.539,10.859c8.737,3.581 19.089,7.135 32.044,11.445c-2.708,13.372 -4.701,24.167 -5.885,33.62c-1.198,9.427 -1.68,17.5 -1.68,25.182c0,7.669 0.417,14.974 0.729,22.695c0.312,7.695 0.482,15.833 -0.221,25.013c-0.729,9.466 -1.224,19.805 -2.617,30.039c-1.432,10.221 -3.802,20.339 -7.982,29.167c-4.154,8.841 -10.078,16.38 -18.359,21.536c-8.294,5.182 -18.867,7.943 -32.448,7.917Z" style="fill:none;fill-rule:nonzero;stroke:#f8a73c;stroke-width:6.51px;"/><path d="M1773.259,2115.846c23.372,-13.607 39.544,-27.5 51.745,-38.88c12.174,-11.471 20.482,-20.586 27.331,-27.201c6.81,-6.615 12.174,-10.794 17.63,-13.281c5.443,-2.5 10.99,-3.307 17.826,-3.607c-3.177,-6.068 -5.221,-11.276 -5.768,-17.24c-0.586,-5.964 0.378,-12.682 2.721,-21.875c2.266,-9.206 6.016,-20.911 9.844,-37.148c3.724,-16.224 7.63,-37.096 7.682,-64.271c14.44,-0.026 25.495,2.669 33.945,7.76c8.424,5.039 14.219,12.422 18.073,21.016c3.867,8.594 5.742,18.359 6.615,28.099c0.885,9.753 0.794,19.466 0.99,28.216c0.208,8.984 -0.247,16.836 -0.703,24.206c-0.482,7.396 -0.951,14.323 -0.938,21.589c0,7.279 0.508,14.922 1.732,23.88c1.224,8.971 3.177,19.258 5.781,32.057c-12.383,4.128 -22.292,7.63 -30.703,11.133c-8.398,3.49 -15.286,6.979 -21.667,10.625c-6.38,3.659 -12.214,7.513 -18.464,11.445c-6.237,3.932 -12.904,7.969 -20.846,11.784c-8.177,3.932 -16.966,8.49 -26.133,12.227c-9.141,3.724 -18.672,6.615 -27.982,7.409c-9.323,0.807 -18.385,-0.482 -26.628,-4.87c-8.255,-4.362 -15.599,-11.823 -22.083,-23.073Z" style="fill:none;fill-rule:nonzero;stroke:#f8a73c;stroke-width:6.51px;"/><path d="M1515.308,2115.846c11.68,6.771 22.604,11.862 32.526,15.924c9.935,4.062 18.893,7.044 26.875,9.466c15.977,4.792 27.995,7.383 37.135,10c9.154,2.565 15.456,5.104 20.352,8.581c4.909,3.464 8.398,7.839 12.083,13.62c3.685,-5.781 7.174,-10.156 12.083,-13.62c4.896,-3.477 11.185,-6.016 20.352,-8.581c9.141,-2.617 21.159,-5.208 37.135,-10c7.969,-2.422 16.94,-5.404 26.875,-9.466c9.922,-4.062 20.833,-9.154 32.539,-15.924c7.24,12.474 10.443,23.398 10.286,33.255c-0.156,9.831 -3.659,18.542 -9.167,26.159c-5.508,7.63 -13.034,14.128 -21.029,19.753c-8.008,5.651 -16.484,10.391 -23.984,14.948c-7.656,4.661 -14.701,8.164 -21.315,11.458c-6.667,3.268 -12.891,6.315 -19.18,9.974c-6.289,3.633 -12.656,7.878 -19.792,13.411c-7.148,5.547 -15.065,12.37 -24.805,21.055c-9.753,-8.685 -17.734,-15.469 -24.974,-20.99c-7.24,-5.508 -13.711,-9.74 -20.091,-13.411c-6.354,-3.698 -12.604,-6.797 -19.154,-10.247c-6.523,-3.438 -13.372,-7.161 -20.651,-12.135c-7.513,-5.13 -15.859,-10.456 -23.659,-16.523c-7.799,-6.068 -15.065,-12.852 -20.391,-20.547c-5.352,-7.669 -8.737,-16.172 -9.049,-25.495c-0.326,-9.336 2.474,-19.427 8.997,-30.664Z" style="fill:none;fill-rule:nonzero;stroke:#f8a73c;stroke-width:6.51px;"/><path d="M1386.27,1892.342c0.065,27.174 3.971,48.047 7.695,64.271c3.815,16.237 7.578,27.943 9.857,37.148c2.318,9.193 3.294,15.911 2.721,21.875c-0.547,5.964 -2.604,11.172 -5.768,17.24c6.836,0.299 12.37,1.094 17.812,3.607c5.482,2.474 10.82,6.667 17.643,13.281c6.836,6.615 15.13,15.729 27.318,27.201c12.214,11.38 28.372,25.273 51.758,38.88c-7.214,12.5 -15.078,20.729 -23.698,25.482c-8.594,4.792 -17.878,6.107 -27.24,5.117c-9.375,-0.977 -18.763,-4.245 -27.63,-8.359c-8.893,-4.128 -17.227,-9.089 -24.922,-13.281c-7.865,-4.31 -14.427,-8.646 -20.586,-12.721c-6.159,-4.102 -11.914,-7.956 -18.229,-11.576c-6.315,-3.62 -13.164,-6.992 -21.549,-10.391c-8.372,-3.411 -18.281,-6.823 -30.664,-10.951c2.591,-12.799 4.492,-23.138 5.638,-32.188c1.146,-9.01 1.589,-16.758 1.589,-24.102c0,-7.357 -0.391,-14.336 -0.69,-21.732c-0.299,-7.357 -0.456,-15.156 0.208,-23.945c0.69,-9.062 1.159,-18.958 2.526,-28.737c1.354,-9.792 3.62,-19.479 7.604,-27.93c3.997,-8.464 9.648,-15.677 17.565,-20.612c7.93,-4.961 18.06,-7.604 31.042,-7.578Z" style="fill:none;fill-rule:nonzero;stroke:#f8a73c;stroke-width:6.51px;"/><path d="M1515.308,1668.826c-23.385,13.607 -39.557,27.513 -51.771,38.893c-12.174,11.471 -20.469,20.586 -27.305,27.188c-6.823,6.628 -12.161,10.794 -17.643,13.294c-5.443,2.5 -10.977,3.307 -17.812,3.594c3.164,6.081 5.208,11.276 5.755,17.253c0.573,5.964 -0.391,12.669 -2.721,21.862c-2.266,9.219 -6.029,20.911 -9.844,37.161c-3.724,16.224 -7.63,37.096 -7.695,64.271c-14.427,0.026 -25.482,-2.682 -33.932,-7.76c-8.438,-5.052 -14.232,-12.435 -18.073,-21.016c-3.867,-8.607 -5.742,-18.359 -6.628,-28.112c-0.872,-9.74 -0.768,-19.453 -0.977,-28.216c-0.221,-8.971 0.247,-16.836 0.716,-24.206c0.469,-7.396 0.938,-14.31 0.924,-21.589c0,-7.279 -0.508,-14.909 -1.732,-23.88c-1.211,-8.971 -3.19,-19.245 -5.781,-32.057c12.383,-4.115 22.292,-7.617 30.69,-11.133c8.411,-3.49 15.299,-6.979 21.68,-10.625c6.38,-3.659 12.214,-7.5 18.464,-11.432c6.237,-3.932 12.917,-7.982 20.846,-11.797c8.19,-3.919 16.966,-8.49 26.133,-12.214c9.154,-3.737 18.672,-6.615 27.982,-7.422c9.31,-0.807 18.385,0.495 26.628,4.87c8.255,4.362 15.599,11.823 22.096,23.073Z" style="fill:none;fill-rule:nonzero;stroke:#f8a73c;stroke-width:6.51px;"/><path d="M1773.259,1668.826c-11.693,-6.771 -22.604,-11.862 -32.539,-15.924c-9.935,-4.062 -18.893,-7.044 -26.875,-9.466c-15.977,-4.792 -27.995,-7.383 -37.122,-9.987c-9.167,-2.578 -15.469,-5.104 -20.365,-8.581c-4.896,-3.477 -8.385,-7.852 -12.07,-13.633c-3.685,5.781 -7.188,10.156 -12.096,13.633c-4.896,3.477 -11.198,6.003 -20.352,8.581c-9.128,2.604 -21.146,5.195 -37.135,9.987c-7.969,2.422 -16.927,5.404 -26.875,9.466c-9.909,4.062 -20.833,9.154 -32.526,15.924c-7.253,-12.474 -10.456,-23.385 -10.286,-33.242c0.143,-9.831 3.633,-18.555 9.167,-26.159c5.495,-7.643 13.034,-14.128 21.029,-19.766c8.008,-5.651 16.484,-10.391 23.971,-14.935c7.656,-4.674 14.714,-8.177 21.328,-11.458c6.641,-3.281 12.878,-6.328 19.154,-9.974c6.302,-3.646 12.669,-7.878 19.805,-13.424c7.148,-5.547 15.065,-12.37 24.818,-21.055c9.74,8.685 17.734,15.469 24.974,21.003c7.227,5.508 13.698,9.727 20.078,13.411c6.341,3.685 12.604,6.797 19.141,10.234c6.549,3.438 13.385,7.161 20.664,12.135c7.513,5.13 15.846,10.456 23.659,16.523c7.799,6.068 15.078,12.865 20.404,20.547c5.326,7.669 8.737,16.185 9.036,25.508c0.339,9.323 -2.448,19.427 -8.984,30.651Z" style="fill:none;fill-rule:nonzero;stroke:#f8a73c;stroke-width:6.51px;"/><path d="M1902.272,1892.342c-0.052,-27.174 -3.958,-48.047 -7.682,-64.271c-3.828,-16.25 -7.578,-27.943 -9.857,-37.161c-2.331,-9.193 -3.307,-15.898 -2.721,-21.862c0.547,-5.977 2.604,-11.185 5.781,-17.253c-6.849,-0.299 -12.383,-1.094 -17.826,-3.594c-5.456,-2.5 -10.833,-6.667 -17.63,-13.294c-6.849,-6.602 -15.156,-15.716 -27.344,-27.188c-12.188,-11.38 -28.359,-25.286 -51.732,-38.893c7.201,-12.5 15.052,-20.716 23.685,-25.482c8.594,-4.779 17.878,-6.094 27.253,-5.117c9.362,0.99 18.75,4.258 27.617,8.372c8.893,4.115 17.24,9.089 24.935,13.268c7.865,4.323 14.414,8.659 20.573,12.734c6.159,4.089 11.914,7.943 18.242,11.549c6.315,3.633 13.151,7.018 21.536,10.417c8.359,3.411 18.281,6.823 30.664,10.938c-2.604,12.812 -4.492,23.138 -5.638,32.188c-1.146,9.023 -1.576,16.745 -1.576,24.102c0,7.357 0.391,14.336 0.677,21.732c0.286,7.37 0.456,15.169 -0.208,23.945c-0.69,9.076 -1.159,18.958 -2.526,28.75c-1.354,9.792 -3.633,19.479 -7.604,27.93c-3.984,8.464 -9.648,15.664 -17.565,20.599c-7.93,4.974 -18.06,7.604 -31.055,7.591Z" style="fill:none;fill-rule:nonzero;stroke:#f8a73c;stroke-width:6.51px;"/><path d="M1648.339,2107.155c-126.419,0 -228.906,-102.396 -228.906,-228.737c0,-19.74 2.513,-38.906 7.227,-57.174c25.404,98.659 115.026,171.549 221.68,171.549c106.641,0 196.263,-72.891 221.68,-171.549c4.701,18.268 7.214,37.435 7.214,57.174c0,126.341 -102.487,228.737 -228.893,228.737Z" style="fill:none;fill-rule:nonzero;stroke:#f8a73c;stroke-width:6.51px;"/></svg>