<?xml version="1.0" encoding="UTF-8" standalone="no"?><!DOCTYPE svg PUBLIC "-//W3C//DTD SVG 1.1//EN" "http://www.w3.org/Graphics/SVG/1.1/DTD/svg11.dtd"><svg width="100%" height="100%" viewBox="0 0 3102 3102" version="1.1" xmlns="http://www.w3.org/2000/svg" xmlns:xlink="http://www.w3.org/1999/xlink" xml:space="preserve" xmlns:serif="http://www.serif.com/" style="fill-rule:evenodd;clip-rule:evenodd;stroke-miterlimit:10;"><path d="M3069.018,1552.624c0.964,-839.128 -677.266,-1518.945 -1516.393,-1519.909c-839.128,-0.977 -1518.945,677.253 -1519.909,1516.38c-0.977,839.141 677.24,1518.945 1516.393,1519.909c839.128,0.99 1518.945,-677.24 1519.909,-1516.38Z" style="fill:none;fill-rule:nonzero;stroke:#951b52;stroke-width:6.51px;"/><path d="M3020.33,1550.863c0,-812.5 -657.461,-1469.961 -1469.948,-1469.961c-812.487,0 -1469.961,657.461 -1469.961,1469.961c0,812.5 657.474,1469.961 1469.961,1469.961c812.487,0 1469.948,-657.461 1469.948,-1469.961Z" style="fill:none;fill-rule:nonzero;stroke:#951b52;stroke-width:6.51px;"/><path d="M1550.387,2810.514c-696.224,0 -1259.661,-563.424 -1259.661,-1259.648c0,-696.224 563.438,-1259.661 1259.661,-1259.661c696.224,0 1259.635,563.438 1259.635,1259.661c0,696.224 -563.411,1259.648 -1259.635,1259.648Z" style="fill:none;fill-rule:nonzero;stroke:#951b52;stroke-width:6.51px;"/><path d="M2600.446,1550.863c0,-580.664 -469.401,-1050.078 -1050.065,-1050.078c-580.651,-0 -1050.065,469.414 -1050.065,1050.078c0,580.664 469.414,1050.078 1050.065,1050.078c580.664,0 1050.065,-469.414 1050.065,-1050.078Z" style="fill:none;fill-rule:nonzero;stroke:#951b52;stroke-width:6.51px;"/><path d="M1550.387,2390.631c-464.388,0 -839.779,-375.391 -839.779,-839.766c0,-464.388 375.391,-839.779 839.779,-839.779c464.375,0 839.766,375.391 839.766,839.779c0,464.375 -375.391,839.766 -839.766,839.766Z" style="fill:none;fill-rule:nonzero;stroke:#951b52;stroke-width:6.51px;"/><path d="M2180.562,1550.863c0,-347.807 -282.375,-630.182 -630.182,-630.182c-347.807,0 -630.182,282.375 -630.182,630.182c0,347.807 282.375,630.182 630.182,630.182c347.807,0 630.182,-282.375 630.182,-630.182Z" style="fill:none;stroke:#951b52;stroke-width:6.51px;"/><path d="M1550.387,1970.747c-231.849,0 -419.896,-188.047 -419.896,-419.883c0,-231.836 188.047,-419.883 419.896,-419.883c231.823,0 419.883,188.047 419.883,419.883c0,231.836 -188.06,419.883 -419.883,419.883Z" style="fill:none;fill-rule:nonzero;stroke:#951b52;stroke-width:6.51px;"/><path d="M1760.679,1550.863c0,-116.067 -94.232,-210.299 -210.299,-210.299c-116.067,0 -210.299,94.232 -210.299,210.299c0,116.067 94.232,210.299 210.299,210.299c116.067,0 210.299,-94.232 210.299,-210.299Z" style="fill:none;stroke:#951b52;stroke-width:6.51px;"/><path d="M1550.387,1550.863l0,1469.961" style="fill:none;fill-rule:nonzero;stroke:#951b52;stroke-width:6.51px;"/><path d="M1550.387,1550.863l1039.297,1039.31" style="fill:none;fill-rule:nonzero;stroke:#951b52;stroke-width:6.51px;"/><path d="M1550.387,1550.863l1469.948,0" style="fill:none;fill-rule:nonzero;stroke:#951b52;stroke-width:6.51px;"/><path d="M1550.387,1550.863l1039.297,-1039.31" style="fill:none;fill-rule:nonzero;stroke:#951b52;stroke-width:6.51px;"/><path d="M1550.387,1550.863l0,-1469.961" style="fill:none;fill-rule:nonzero;stroke:#951b52;stroke-width:6.51px;"/><path d="M1550.387,1550.863l-1039.31,-1039.31" style="fill:none;fill-rule:nonzero;stroke:#951b52;stroke-width:6.51px;"/><path d="M1550.387,1550.863l-1469.974,0" style="fill:none;fill-rule:nonzero;stroke:#951b52;stroke-width:6.51px;"/><path d="M1550.387,1550.863l-1039.31,1039.31" style="fill:none;fill-rule:nonzero;stroke:#951b52;stroke-width:6.51px;"/><path d="M2318.96,1069.563c0,-22.342 -18.142,-40.482 -40.488,-40.482c-22.346,0 -40.488,18.139 -40.488,40.482c0,22.342 18.142,40.482 40.488,40.482c22.346,0 40.488,-18.139 40.488,-40.482Z" style="fill:none;stroke:#951b52;stroke-width:6.51px;"/><path d="M2442.811,1383.945c0,-22.346 -18.142,-40.488 -40.488,-40.488c-22.346,0 -40.488,18.142 -40.488,40.488c0,22.346 18.142,40.488 40.488,40.488c22.346,0 40.488,-18.142 40.488,-40.488Z" style="fill:none;stroke:#951b52;stroke-width:6.51px;"/><path d="M2076.027,826.636c0,-22.346 -18.142,-40.488 -40.488,-40.488c-22.346,0 -40.488,18.142 -40.488,40.488c0,22.346 18.142,40.488 40.488,40.488c22.346,0 40.488,-18.142 40.488,-40.488Z" style="fill:none;stroke:#951b52;stroke-width:6.51px;"/><path d="M1761.658,698.031c0,-22.346 -18.145,-40.488 -40.495,-40.488c-22.35,0 -40.495,18.142 -40.495,40.488c0,22.346 18.145,40.488 40.495,40.488c22.35,0 40.495,-18.142 40.495,-40.488Z" style="fill:none;stroke:#951b52;stroke-width:6.51px;"/><path d="M1425.838,700.408c0,-22.35 -18.139,-40.495 -40.482,-40.495c-22.342,0 -40.482,18.145 -40.482,40.495c0,22.35 18.139,40.495 40.482,40.495c22.342,0 40.482,-18.145 40.482,-40.495Z" style="fill:none;stroke:#951b52;stroke-width:6.51px;"/><path d="M1109.09,829.02c0,-22.346 -18.142,-40.488 -40.488,-40.488c-22.346,0 -40.488,18.142 -40.488,40.488c0,22.346 18.142,40.488 40.488,40.488c22.346,0 40.488,-18.142 40.488,-40.488Z" style="fill:none;stroke:#951b52;stroke-width:6.51px;"/><path d="M868.536,1071.941c0,-22.346 -18.142,-40.488 -40.488,-40.488c-22.346,0 -40.488,18.142 -40.488,40.488c0,22.346 18.142,40.488 40.488,40.488c22.346,0 40.488,-18.142 40.488,-40.488Z" style="fill:none;stroke:#951b52;stroke-width:6.51px;"/><path d="M737.564,1383.945c0,-22.346 -18.148,-40.488 -40.501,-40.488c-22.353,0 -40.501,18.142 -40.501,40.488c0,22.346 18.148,40.488 40.501,40.488c22.353,0 40.501,-18.142 40.501,-40.488Z" style="fill:none;stroke:#951b52;stroke-width:6.51px;"/><path d="M739.929,1719.752c0,-22.342 -18.142,-40.482 -40.488,-40.482c-22.346,0 -40.488,18.139 -40.488,40.482c0,22.342 18.142,40.482 40.488,40.482c22.346,0 40.488,-18.139 40.488,-40.482Z" style="fill:none;stroke:#951b52;stroke-width:6.51px;"/><path d="M868.536,2031.751c0,-22.339 -18.142,-40.475 -40.488,-40.475c-22.346,0 -40.488,18.136 -40.488,40.475c0,22.339 18.142,40.475 40.488,40.475c22.346,0 40.488,-18.136 40.488,-40.475Z" style="fill:none;stroke:#951b52;stroke-width:6.51px;"/><path d="M1113.846,2274.67c0,-22.346 -18.142,-40.488 -40.488,-40.488c-22.346,0 -40.488,18.142 -40.488,40.488c0,22.346 18.142,40.488 40.488,40.488c22.346,0 40.488,-18.142 40.488,-40.488Z" style="fill:none;stroke:#951b52;stroke-width:6.51px;"/><path d="M1423.459,2405.661c0,-22.342 -18.142,-40.482 -40.488,-40.482c-22.346,0 -40.488,18.139 -40.488,40.482c0,22.342 18.142,40.482 40.488,40.482c22.346,0 40.488,-18.139 40.488,-40.482Z" style="fill:none;stroke:#951b52;stroke-width:6.51px;"/><path d="M1759.268,2400.899c0,-22.339 -18.142,-40.475 -40.488,-40.475c-22.346,0 -40.488,18.136 -40.488,40.475c0,22.339 18.142,40.475 40.488,40.475c22.346,0 40.488,-18.136 40.488,-40.475Z" style="fill:none;stroke:#951b52;stroke-width:6.51px;"/><path d="M2073.649,2272.292c0,-22.346 -18.142,-40.488 -40.488,-40.488c-22.346,0 -40.488,18.142 -40.488,40.488c0,22.346 18.142,40.488 40.488,40.488c22.346,0 40.488,-18.142 40.488,-40.488Z" style="fill:none;stroke:#951b52;stroke-width:6.51px;"/><path d="M2311.813,2029.36c0,-22.339 -18.142,-40.475 -40.488,-40.475c-22.346,0 -40.488,18.136 -40.488,40.475c0,22.339 18.142,40.475 40.488,40.475c22.346,0 40.488,-18.136 40.488,-40.475Z" style="fill:none;stroke:#951b52;stroke-width:6.51px;"/><path d="M2442.811,1719.752c0,-22.342 -18.142,-40.482 -40.488,-40.482c-22.346,0 -40.488,18.139 -40.488,40.482c0,22.342 18.142,40.482 40.488,40.482c22.346,0 40.488,-18.139 40.488,-40.482Z" style="fill:none;stroke:#951b52;stroke-width:6.51px;"/><path d="M1621.9,212.648c0,-37.226 -30.217,-67.448 -67.435,-67.448c-37.218,0 -67.435,30.222 -67.435,67.448c0,37.226 30.217,67.448 67.435,67.448c37.218,0 67.435,-30.222 67.435,-67.448Z" style="fill:none;stroke:#951b52;stroke-width:6.51px;"/><path d="M288.917,1545.631c0,-37.222 -30.219,-67.441 -67.441,-67.441c-37.222,0 -67.441,30.219 -67.441,67.441c0,37.222 30.219,67.441 67.441,67.441c37.222,0 67.441,-30.219 67.441,-67.441Z" style="fill:none;stroke:#951b52;stroke-width:6.51px;"/><path d="M2954.869,1541.663c0,-37.222 -30.217,-67.441 -67.435,-67.441c-37.218,0 -67.435,30.219 -67.435,67.441c0,37.222 30.217,67.441 67.435,67.441c37.218,0 67.435,-30.219 67.435,-67.441Z" style="fill:none;stroke:#951b52;stroke-width:6.51px;"/><path d="M1617.946,2882.574c0,-37.226 -30.222,-67.448 -67.448,-67.448c-37.226,0 -67.448,30.222 -67.448,67.448c0,37.226 30.222,67.448 67.448,67.448c37.226,0 67.448,-30.222 67.448,-67.448Z" style="fill:none;stroke:#951b52;stroke-width:6.51px;"/><path d="M1820.506,1545.274c155,-189.74 -6.523,-313.607 -79.674,-374.896c-60.612,-50.768 -143.893,-100.911 -188.997,-177.474c-45.104,76.563 -128.372,126.706 -188.984,177.474c-73.164,61.289 -234.687,185.156 -79.674,374.896" style="fill:none;fill-rule:nonzero;stroke:#951b52;stroke-width:6.51px;"/><path d="M1820.506,1545.757c155,189.714 -6.523,313.594 -79.674,374.883c-60.612,50.781 -143.893,100.924 -188.997,177.487c-45.104,-76.562 -128.372,-126.706 -188.984,-177.487c-73.164,-61.289 -234.688,-185.169 -79.674,-374.883" style="fill:none;fill-rule:nonzero;stroke:#951b52;stroke-width:6.51px;"/><path d="M1821.917,1545.084c198.802,-243.32 66.12,-402.083 -27.695,-480.677c-77.747,-65.117 -184.531,-129.427 -242.383,-227.617c-57.865,98.19 -164.648,162.5 -242.383,227.617c-93.828,78.594 -225.951,235.911 -27.174,479.232" style="fill:none;fill-rule:nonzero;stroke:#951b52;stroke-width:6.51px;"/><path d="M1821.917,1545.084c198.802,243.333 66.12,402.943 -27.695,481.523c-77.747,65.13 -184.531,129.44 -242.383,227.617c-57.865,-98.177 -164.648,-162.487 -242.383,-227.617c-93.828,-78.581 -227.552,-238.203 -28.776,-481.523" style="fill:none;fill-rule:nonzero;stroke:#951b52;stroke-width:6.51px;"/><path d="M1823.367,1547.982c241.224,-295.247 136.419,-490.885 22.578,-586.237c-94.336,-79.036 -223.906,-157.07 -294.115,-276.211c-70.195,119.141 -199.779,197.174 -294.102,276.211c-113.841,95.352 -215.339,285.182 25.859,580.43" style="fill:none;fill-rule:nonzero;stroke:#951b52;stroke-width:6.51px;"/><path d="M1824.829,1546.533c241.211,295.247 134.948,487.383 21.12,582.747c-94.336,79.023 -223.906,157.07 -294.115,276.211c-70.195,-119.141 -199.792,-197.188 -294.115,-276.211c-113.828,-95.365 -215.339,-290.391 25.872,-585.651" style="fill:none;fill-rule:nonzero;stroke:#951b52;stroke-width:6.51px;"/><path d="M1824.829,1547.982c298.346,-365.182 231.576,-606.562 90.794,-724.518c-116.68,-97.734 -276.966,-194.271 -363.789,-341.628c-86.823,147.357 -247.109,243.893 -363.776,341.628c-140.794,117.956 -208.62,352.07 89.714,717.266" style="fill:none;fill-rule:nonzero;stroke:#951b52;stroke-width:6.51px;"/><path d="M1826.279,1547.982c298.346,365.195 230.13,601.628 89.336,719.583c-116.68,97.721 -276.953,194.245 -363.776,341.615c-86.823,-147.37 -247.122,-243.893 -363.789,-341.615c-140.781,-117.956 -207.148,-354.388 91.172,-719.583" style="fill:none;fill-rule:nonzero;stroke:#951b52;stroke-width:6.51px;"/><path d="M1824.829,1545.084c349.948,-428.346 318.854,-708.151 153.737,-846.51c-136.875,-114.648 -324.896,-227.865 -426.732,-400.716c-101.823,172.852 -289.857,286.068 -426.706,400.716c-165.143,138.359 -195.833,415.26 154.102,843.607" style="fill:none;fill-rule:nonzero;stroke:#951b52;stroke-width:6.51px;"/><path d="M1826.279,1546.533c349.948,428.346 317.409,707.565 152.279,845.898c-136.862,114.661 -324.883,227.878 -426.719,400.742c-101.823,-172.865 -289.857,-286.081 -426.719,-400.742c-165.13,-138.333 -197.279,-413.19 152.656,-841.549" style="fill:none;fill-rule:nonzero;stroke:#951b52;stroke-width:6.51px;"/><path d="M1827.729,1546.533c410.794,-502.799 418.815,-832.76 224.961,-995.143c-160.651,-134.583 -381.315,-267.474 -500.846,-470.365c-119.544,202.891 -340.234,335.781 -500.872,470.365c-193.841,162.383 -181.055,490.898 229.701,993.698" style="fill:none;fill-rule:nonzero;stroke:#951b52;stroke-width:6.51px;"/><path d="M1826.279,1546.533c410.781,502.799 420.26,830.703 226.419,993.099c-160.651,134.583 -381.315,267.474 -500.859,470.365c-119.544,-202.891 -340.234,-335.781 -500.872,-470.365c-193.841,-162.396 -185.391,-485.938 225.365,-988.75" style="fill:none;fill-rule:nonzero;stroke:#951b52;stroke-width:6.51px;"/><path d="M1552.333,1815.527c243.333,198.802 402.083,66.12 480.677,-27.682c65.13,-77.76 129.427,-184.544 227.617,-242.396c-98.19,-57.865 -162.487,-164.661 -227.617,-242.396c-78.594,-93.815 -235.898,-225.951 -479.232,-27.174" style="fill:none;fill-rule:nonzero;stroke:#951b52;stroke-width:6.51px;"/><path d="M1552.333,1815.527c-243.32,198.802 -402.93,66.12 -481.523,-27.682c-65.117,-77.76 -129.44,-184.544 -227.63,-242.396c98.19,-57.865 162.513,-164.661 227.63,-242.396c78.594,-93.815 238.203,-227.552 481.523,-28.763" style="fill:none;fill-rule:nonzero;stroke:#951b52;stroke-width:6.51px;"/><path d="M1549.433,1816.976c295.247,241.224 490.885,136.432 586.237,22.578c79.036,-94.323 157.07,-223.906 276.224,-294.115c-119.154,-70.195 -197.188,-199.792 -276.224,-294.115c-95.352,-113.841 -285.182,-215.339 -580.443,25.859" style="fill:none;fill-rule:nonzero;stroke:#951b52;stroke-width:6.51px;"/><path d="M1550.883,1818.433c-295.26,241.211 -487.396,134.974 -582.747,21.133c-79.023,-94.336 -157.07,-223.919 -276.211,-294.115c119.141,-70.208 197.188,-199.805 276.211,-294.128c95.352,-113.828 290.417,-215.339 585.651,25.872" style="fill:none;fill-rule:nonzero;stroke:#951b52;stroke-width:6.51px;"/><path d="M1549.433,1818.433c365.195,298.359 606.562,231.589 724.518,90.794c97.734,-116.68 194.271,-276.953 341.628,-363.776c-147.357,-86.836 -243.893,-247.122 -341.628,-363.802c-117.956,-140.781 -352.083,-208.594 -717.266,89.74" style="fill:none;fill-rule:nonzero;stroke:#951b52;stroke-width:6.51px;"/><path d="M1549.433,1819.876c-365.182,298.359 -601.628,230.143 -719.57,89.349c-97.747,-116.68 -194.271,-276.953 -341.641,-363.776c147.37,-86.836 243.893,-247.122 341.641,-363.802c117.943,-140.781 354.388,-207.148 719.583,91.198" style="fill:none;fill-rule:nonzero;stroke:#951b52;stroke-width:6.51px;"/><path d="M1552.333,1818.433c428.346,349.948 708.164,318.867 846.51,153.724c114.635,-136.875 227.878,-324.87 400.716,-426.706c-172.839,-101.849 -286.081,-289.857 -400.716,-426.706c-138.346,-165.143 -415.26,-195.846 -843.607,154.102" style="fill:none;fill-rule:nonzero;stroke:#951b52;stroke-width:6.51px;"/><path d="M1550.883,1819.876c-428.346,349.974 -707.565,317.422 -845.911,152.279c-114.648,-136.875 -227.878,-324.87 -400.716,-426.706c172.839,-101.836 286.068,-289.857 400.716,-426.706c138.346,-165.143 413.203,-197.292 841.562,152.643" style="fill:none;fill-rule:nonzero;stroke:#951b52;stroke-width:6.51px;"/><path d="M1550.883,1821.331c502.799,410.781 832.747,418.828 995.156,224.974c134.583,-160.651 267.461,-381.315 470.365,-500.859c-202.904,-119.544 -335.781,-340.234 -470.365,-500.872c-162.409,-193.841 -490.898,-181.055 -993.711,229.714" style="fill:none;fill-rule:nonzero;stroke:#951b52;stroke-width:6.51px;"/><path d="M1550.883,1819.876c-502.786,410.794 -830.716,420.273 -993.112,226.432c-134.557,-160.651 -267.461,-381.328 -470.352,-500.859c202.891,-119.544 335.794,-340.234 470.352,-500.872c162.396,-193.841 485.964,-185.404 988.763,225.365" style="fill:none;fill-rule:nonzero;stroke:#951b52;stroke-width:6.51px;"/><path d="M1551.9,1757.193l-183.477,-317.812l366.979,0l-183.503,317.812Zm0,-437.214c-124.128,0 -224.779,100.638 -224.779,224.792c0,124.128 100.651,224.766 224.779,224.766c124.128,0 224.779,-100.638 224.779,-224.766c0,-124.154 -100.651,-224.792 -224.779,-224.792Z" style="fill:none;fill-rule:nonzero;stroke:#951b52;stroke-width:6.51px;"/><path d="M1551.9,1770.52c-124.479,0 -225.755,-101.276 -225.755,-225.755c0,-124.492 101.276,-225.768 225.755,-225.768c124.492,0 225.781,101.276 225.781,225.768c0,124.479 -101.289,225.755 -225.781,225.755Z" style="fill:none;fill-rule:nonzero;stroke:#951b52;stroke-width:6.51px;"/><path d="M1370.13,1440.377l181.771,314.831l181.771,-314.831l-363.542,0Z" style="fill:none;fill-rule:nonzero;stroke:#951b52;stroke-width:6.51px;"/><path d="M1551.9,1675.667l113.346,-196.315l-226.68,0l113.333,196.315Z" style="fill:none;fill-rule:nonzero;stroke:#951b52;stroke-width:6.51px;"/><path d="M1927.025,1356.454c-61.276,-73.151 -185.156,-234.674 -374.87,-79.674c42.591,0.117 79.219,9.674 109.714,23.151c30.547,13.542 55,30.781 74.727,48.047c19.74,17.344 34.87,34.688 47.305,50.573c12.422,15.938 22.24,30.417 31.146,43.229c17.617,25.742 32.031,44.648 50.521,60.143c18.32,15.612 40.443,28.542 69.232,43.529c-28.789,14.987 -50.911,27.904 -69.232,43.503c-18.49,15.495 -32.904,34.414 -50.521,60.169c-8.906,12.799 -18.724,27.292 -31.146,43.216c-12.435,15.885 -27.565,33.242 -47.305,50.573c-19.727,17.266 -44.18,34.505 -74.727,48.034c-30.495,13.49 -67.122,23.047 -109.714,23.164c189.714,155.013 313.594,-6.536 374.87,-79.674c50.781,-60.612 100.924,-143.88 177.5,-188.984c-76.576,-45.117 -126.719,-128.385 -177.5,-188.997Z" style="fill:none;fill-rule:nonzero;stroke:#fff;stroke-width:6.51px;"/><path d="M1176.775,1356.454c61.276,-73.151 185.169,-234.674 374.896,-79.674c-42.604,0.117 -79.219,9.674 -109.727,23.151c-30.534,13.542 -55.013,30.781 -74.74,48.047c-19.714,17.344 -34.857,34.688 -47.292,50.573c-12.422,15.938 -22.24,30.417 -31.133,43.229c-17.617,25.742 -32.057,44.648 -50.521,60.143c-18.333,15.612 -40.456,28.542 -69.245,43.529c28.789,14.987 50.911,27.904 69.245,43.503c18.464,15.495 32.904,34.414 50.521,60.169c8.893,12.799 18.711,27.292 31.133,43.216c12.435,15.885 27.578,33.242 47.292,50.573c19.727,17.266 44.206,34.505 74.74,48.034c30.508,13.49 67.122,23.047 109.727,23.164c-189.727,155.013 -313.62,-6.536 -374.896,-79.674c-50.755,-60.612 -100.911,-143.88 -177.474,-188.984c76.562,-45.117 126.719,-128.385 177.474,-188.997Z" style="fill:none;fill-rule:nonzero;stroke:#fff;stroke-width:6.51px;"/></svg>