<?xml version="1.0" encoding="UTF-8" standalone="no"?><!DOCTYPE svg PUBLIC "-//W3C//DTD SVG 1.1//EN" "http://www.w3.org/Graphics/SVG/1.1/DTD/svg11.dtd"><svg width="100%" height="100%" viewBox="0 0 2984 2985" version="1.1" xmlns="http://www.w3.org/2000/svg" xmlns:xlink="http://www.w3.org/1999/xlink" xml:space="preserve" xmlns:serif="http://www.serif.com/" style="fill-rule:evenodd;clip-rule:evenodd;stroke-miterlimit:10;"><path d="M2898.136,1110.961c-211.328,-777.669 -1011.628,-1235.951 -1789.297,-1024.622c-777.669,211.328 -1235.964,1011.615 -1024.635,1789.284c211.341,777.695 1011.628,1235.964 1789.31,1024.635c777.669,-211.328 1235.951,-1011.615 1024.622,-1789.297Z" style="fill:none;fill-rule:nonzero;stroke:#6fbe44;stroke-width:6.51px;"/><path d="M2681.729,1169.764c-178.841,-658.138 -855.951,-1045.885 -1514.089,-867.018c-658.138,178.841 -1045.872,855.938 -867.031,1514.062c178.854,658.151 855.951,1045.898 1514.089,867.044c658.151,-178.828 1045.885,-855.951 867.031,-1514.089Z" style="fill:none;fill-rule:nonzero;stroke:#6fbe44;stroke-width:6.51px;"/><path d="M2465.333,1228.58c-146.367,-538.607 -700.286,-855.807 -1238.88,-709.44c-538.607,146.354 -855.807,700.273 -709.44,1238.88c146.367,538.607 700.286,855.781 1238.88,709.44c538.607,-146.367 855.794,-700.273 709.44,-1238.88Z" style="fill:none;fill-rule:nonzero;stroke:#6fbe44;stroke-width:6.51px;"/><path d="M2248.925,1287.384c-113.867,-419.076 -544.609,-665.716 -963.659,-551.836c-419.076,113.867 -665.729,544.609 -551.849,963.672c113.867,419.062 544.609,665.729 963.672,551.823c419.062,-113.867 665.716,-544.596 551.836,-963.659Z" style="fill:none;fill-rule:nonzero;stroke:#6fbe44;stroke-width:6.51px;"/><path d="M2032.524,1346.188c-81.192,-298.782 -389.682,-475.438 -688.464,-394.246c-298.781,81.192 -475.437,389.683 -394.244,688.465c81.192,298.782 389.682,475.438 688.464,394.246c298.781,-81.192 475.437,-389.683 394.244,-688.465Z" style="fill:none;stroke:#6fbe44;stroke-width:6.51px;"/><path d="M1608.78,1926.109c238.876,-64.912 380.112,-311.55 315.2,-550.426c-64.912,-238.876 -311.55,-380.113 -550.425,-315.201c-238.876,64.912 -380.112,311.55 -315.2,550.426c64.912,238.876 311.55,380.113 550.425,315.201Z" style="fill:none;stroke:#6fbe44;stroke-width:6.51px;"/><path d="M1816.125,1404.995c-48.736,-179.347 -233.909,-285.387 -413.254,-236.651c-179.345,48.736 -285.382,233.91 -236.645,413.257c48.736,179.347 233.909,285.387 413.254,236.651c179.345,-48.736 285.382,-233.91 236.645,-413.257Z" style="fill:none;stroke:#6fbe44;stroke-width:6.51px;"/><path d="M1549.984,1709.702c119.439,-32.458 190.057,-155.78 157.599,-275.22c-32.458,-119.44 -155.779,-190.059 -275.218,-157.601c-119.439,32.458 -190.057,155.78 -157.599,275.22c32.458,119.44 155.779,190.059 275.218,157.601Z" style="fill:none;stroke:#6fbe44;stroke-width:6.51px;"/><path d="M1599.72,1463.796c-16.282,-59.91 -78.139,-95.33 -138.048,-79.049c-59.909,16.282 -95.328,78.139 -79.046,138.049c16.282,59.91 78.139,95.33 138.048,79.049c59.909,-16.282 95.328,-78.139 79.046,-138.049Z" style="fill:none;stroke:#6fbe44;stroke-width:6.51px;"/><path d="M1491.174,1493.3l382.331,1406.966" style="fill:none;fill-rule:nonzero;stroke:#6fbe44;stroke-width:6.51px;"/><path d="M1491.174,1493.3l1034.661,1027.552" style="fill:none;fill-rule:nonzero;stroke:#6fbe44;stroke-width:6.51px;"/><path d="M1491.174,1493.3l1409.883,372.305" style="fill:none;fill-rule:nonzero;stroke:#6fbe44;stroke-width:6.51px;"/><path d="M1491.174,1493.3l1406.966,-382.344" style="fill:none;fill-rule:nonzero;stroke:#6fbe44;stroke-width:6.51px;"/><path d="M1491.174,1493.3l1027.565,-1034.661" style="fill:none;fill-rule:nonzero;stroke:#6fbe44;stroke-width:6.51px;"/><path d="M1491.174,1493.3l372.292,-1409.896" style="fill:none;fill-rule:nonzero;stroke:#6fbe44;stroke-width:6.51px;"/><path d="M1491.174,1493.3l-382.331,-1406.966" style="fill:none;fill-rule:nonzero;stroke:#6fbe44;stroke-width:6.51px;"/><path d="M1491.174,1493.3l-1034.661,-1027.565" style="fill:none;fill-rule:nonzero;stroke:#6fbe44;stroke-width:6.51px;"/><path d="M1491.174,1493.3l-1409.896,-372.305" style="fill:none;fill-rule:nonzero;stroke:#6fbe44;stroke-width:6.51px;"/><path d="M1491.174,1493.3l-1406.966,382.318" style="fill:none;fill-rule:nonzero;stroke:#6fbe44;stroke-width:6.51px;"/><path d="M1491.174,1493.3l-1027.565,1034.674" style="fill:none;fill-rule:nonzero;stroke:#6fbe44;stroke-width:6.51px;"/><path d="M1491.174,1493.3l-372.292,1409.883" style="fill:none;fill-rule:nonzero;stroke:#6fbe44;stroke-width:6.51px;"/><path d="M1488.955,1168.079l0,-1135.365" style="fill:none;fill-rule:nonzero;stroke:#6fbe44;stroke-width:6.51px;"/><path d="M1492.382,1493.046l728.268,1263.073" style="fill:none;fill-rule:nonzero;stroke:#6fbe44;stroke-width:6.51px;"/><path d="M1492.382,1493.046l1262.37,729.961" style="fill:none;fill-rule:nonzero;stroke:#6fbe44;stroke-width:6.51px;"/><path d="M1492.382,1493.046l1458.229,0.716" style="fill:none;fill-rule:nonzero;stroke:#6fbe44;stroke-width:6.51px;"/><path d="M1492.382,1493.046l1263.073,-728.268" style="fill:none;fill-rule:nonzero;stroke:#6fbe44;stroke-width:6.51px;"/><path d="M1492.382,1493.046l729.961,-1262.37" style="fill:none;fill-rule:nonzero;stroke:#6fbe44;stroke-width:6.51px;"/><path d="M1492.382,1493.046l-728.255,-1263.073" style="fill:none;fill-rule:nonzero;stroke:#6fbe44;stroke-width:6.51px;"/><path d="M1492.382,1493.046l-1262.37,-729.961" style="fill:none;fill-rule:nonzero;stroke:#6fbe44;stroke-width:6.51px;"/><path d="M1492.382,1493.046l-1458.216,-0.703" style="fill:none;fill-rule:nonzero;stroke:#6fbe44;stroke-width:6.51px;"/><path d="M1492.382,1493.046l-1263.073,728.281" style="fill:none;fill-rule:nonzero;stroke:#6fbe44;stroke-width:6.51px;"/><path d="M1492.382,1493.046l-729.948,1262.37" style="fill:none;fill-rule:nonzero;stroke:#6fbe44;stroke-width:6.51px;"/><path d="M1492.382,1493.046l-0.69,1458.229" style="fill:none;fill-rule:nonzero;stroke:#6fbe44;stroke-width:6.51px;"/><path d="M1492.757,1208.496l-3.802,-1175.781" style="fill:none;fill-rule:nonzero;stroke:#6fbe44;stroke-width:6.51px;"/><path d="M1380.02,1082.559c0,-259.023 -348.789,-459.622 -762.565,-459.622l-1.784,1.302c-1.628,413.789 205.339,759.779 464.349,760.794l0.638,-0.404c-224.023,-130.039 -571.419,72.5 -779.167,430.365l0.625,2.292c361.81,200.807 763.242,205.169 888.945,-21.302l-0.26,-1.003c-224.349,129.453 -222.005,531.055 -15.234,889.466l1.263,0.859c358.763,-206.185 555.755,-554.922 426.706,-779.505l-1.432,-0.534c0,259.023 349.167,457.721 762.956,457.721l1.016,-0.638c1.641,-413.776 -203.672,-760.794 -462.682,-761.81l0.026,2.07c224.01,130.039 568.268,-73.958 776.003,-431.823l0.417,-0.833c-361.797,-200.781 -763.789,-205.82 -889.492,20.651l1.146,0.273c224.349,-129.44 222.135,-530.938 15.339,-889.362l-1.445,-0.208c-358.776,206.172 -557.552,558.763 -428.49,783.333l-295.208,520.547c-224.01,130.026 -575.156,-68.19 -782.891,-426.042l-0.208,0c361.797,-200.794 765.195,-212.552 890.885,13.919l-0.43,2.253c-224.349,-129.427 -228.372,-532.253 -21.589,-890.664l1.25,-0.417c358.763,206.172 561.302,552.695 432.24,777.266l-1.471,-0.417c0,-259.01 345.964,-463.112 759.753,-463.112l1.797,-0.247c1.628,413.789 -197.526,762.526 -456.536,763.555l0.365,-1.055c224.01,-130.039 569.844,69.987 777.578,427.865l-0.638,0.651c-361.81,200.794 -762.461,211.549 -888.138,-14.922l0.456,-0.651c224.349,129.453 224.154,531.042 17.37,889.466l0.547,-0.586c-358.763,-206.172 -559.831,-551.328 -430.768,-775.898l0.833,1.029c0,259.036 -345.755,461.862 -759.544,461.862l-1.276,-0.924c-1.628,-413.776 197.513,-762.526 456.536,-763.542" style="fill:none;fill-rule:nonzero;stroke:#6fbe44;stroke-width:6.51px;"/><path d="M566.167,515.257c0,-35.749 -29.023,-64.772 -64.772,-64.772c-35.749,0 -64.772,29.023 -64.772,64.772c0,35.749 29.023,64.772 64.772,64.772c35.749,0 64.772,-29.023 64.772,-64.772Z" style="fill:none;stroke:#6fbe44;stroke-width:6.51px;"/><path d="M208.997,1141.007c0,-35.749 -29.021,-64.772 -64.766,-64.772c-35.745,0 -64.766,29.023 -64.766,64.772c0,35.749 29.021,64.772 64.766,64.772c35.745,0 64.766,-29.023 64.766,-64.772Z" style="fill:none;stroke:#6fbe44;stroke-width:6.51px;"/><path d="M214.706,1861.07c0,-35.756 -29.021,-64.785 -64.766,-64.785c-35.745,0 -64.766,29.029 -64.766,64.785c0,35.756 29.021,64.785 64.766,64.785c35.745,0 64.766,-29.029 64.766,-64.785Z" style="fill:none;stroke:#6fbe44;stroke-width:6.51px;"/><path d="M1191.732,149.281c0,-35.749 -29.023,-64.772 -64.772,-64.772c-35.749,0 -64.772,29.023 -64.772,64.772c0,35.749 29.023,64.772 64.772,64.772c35.749,0 64.772,-29.023 64.772,-64.772Z" style="fill:none;stroke:#6fbe44;stroke-width:6.51px;"/><path d="M1909.913,143.566c0,-35.745 -29.023,-64.766 -64.772,-64.766c-35.749,0 -64.772,29.021 -64.772,64.766c0,35.745 29.023,64.766 64.772,64.766c35.749,0 64.772,-29.021 64.772,-64.766Z" style="fill:none;stroke:#6fbe44;stroke-width:6.51px;"/><path d="M2538.557,507.418c0,-35.745 -29.023,-64.766 -64.772,-64.766c-35.749,0 -64.772,29.021 -64.772,64.766c0,35.745 29.023,64.766 64.772,64.766c35.749,0 64.772,-29.021 64.772,-64.766Z" style="fill:none;stroke:#6fbe44;stroke-width:6.51px;"/><path d="M2898.594,1128.437c0,-35.749 -29.023,-64.772 -64.772,-64.772c-35.749,0 -64.772,29.023 -64.772,64.772c0,35.749 29.023,64.772 64.772,64.772c35.749,0 64.772,-29.023 64.772,-64.772Z" style="fill:none;stroke:#6fbe44;stroke-width:6.51px;"/><path d="M2902.408,1848.526c0,-35.745 -29.023,-64.766 -64.772,-64.766c-35.749,0 -64.772,29.021 -64.772,64.766c0,35.745 29.023,64.766 64.772,64.766c35.749,0 64.772,-29.021 64.772,-64.766Z" style="fill:none;stroke:#6fbe44;stroke-width:6.51px;"/><path d="M2542.359,2475.268c0,-35.752 -29.021,-64.779 -64.766,-64.779c-35.745,0 -64.766,29.026 -64.766,64.779c0,35.752 29.021,64.779 64.766,64.779c35.745,0 64.766,-29.026 64.766,-64.779Z" style="fill:none;stroke:#6fbe44;stroke-width:6.51px;"/><path d="M1921.338,2837.212c0,-35.742 -29.023,-64.759 -64.772,-64.759c-35.749,0 -64.772,29.018 -64.772,64.759c0,35.742 29.023,64.759 64.772,64.759c35.749,0 64.772,-29.018 64.772,-64.759Z" style="fill:none;stroke:#6fbe44;stroke-width:6.51px;"/><path d="M1201.251,2841.02c0,-35.752 -29.021,-64.779 -64.766,-64.779c-35.745,0 -64.766,29.026 -64.766,64.779c0,35.752 29.021,64.779 64.766,64.779c35.745,0 64.766,-29.026 64.766,-64.779Z" style="fill:none;stroke:#6fbe44;stroke-width:6.51px;"/><path d="M574.522,2482.884c0,-35.752 -29.023,-64.779 -64.772,-64.779c-35.749,0 -64.772,29.026 -64.772,64.779c0,35.752 29.023,64.779 64.772,64.779c35.749,0 64.772,-29.026 64.772,-64.779Z" style="fill:none;stroke:#6fbe44;stroke-width:6.51px;"/><path d="M1778.466,1494.204c0,-157.705 -128.04,-285.742 -285.749,-285.742c-157.709,0 -285.749,128.037 -285.749,285.742c0,157.705 128.04,285.742 285.749,285.742c157.709,0 285.749,-128.037 285.749,-285.742Z" style="fill:none;stroke:#6fbe44;stroke-width:6.51px;"/><path d="M1572.051,1356.27l-158.698,0l-79.388,137.5l79.388,137.5l158.698,0l79.388,-137.5l-79.388,-137.5Z" style="fill:none;fill-rule:nonzero;stroke:#6fbe44;stroke-width:6.51px;"/><path d="M1572.051,1631.265l-79.362,137.448l-79.336,-137.448l-158.789,0l79.401,-137.5l-79.401,-137.5l158.789,0l79.336,-137.435l79.362,137.435l158.763,0l-79.375,137.5l79.375,137.5l-158.763,0Zm106.51,-137.5l72.591,-125.742l20.352,-35.247l-185.898,0l-72.552,-125.69l-20.365,-35.234l-20.326,35.234l-72.578,125.69l-185.885,0l20.339,35.247l72.591,125.742l-72.591,125.755l-20.339,35.247l185.885,0l72.578,125.69l20.326,35.234l20.365,-35.234l72.552,-125.69l185.898,0l-20.352,-35.247l-72.591,-125.755Z" style="fill:none;fill-rule:nonzero;stroke:#6fbe44;stroke-width:6.51px;"/><path d="M1685.692,1605.936l-129.245,0l-64.583,111.849l-64.557,-111.849l-129.245,0l64.609,-111.927l-64.609,-111.927l129.232,0l64.57,-111.836l64.583,111.836l129.245,0l-64.635,111.927l64.635,111.927Zm-193.828,-397.669c-157.799,0 -285.742,127.93 -285.742,285.742c0,157.812 127.943,285.755 285.742,285.755c157.826,0 285.755,-127.943 285.755,-285.755c0,-157.812 -127.93,-285.742 -285.755,-285.742Z" style="fill:none;fill-rule:nonzero;stroke:#6fbe44;stroke-width:6.51px;"/></svg>