<?xml version="1.0" encoding="UTF-8" standalone="no"?><!DOCTYPE svg PUBLIC "-//W3C//DTD SVG 1.1//EN" "http://www.w3.org/Graphics/SVG/1.1/DTD/svg11.dtd"><svg width="100%" height="100%" viewBox="0 0 3166 3166" version="1.1" xmlns="http://www.w3.org/2000/svg" xmlns:xlink="http://www.w3.org/1999/xlink" xml:space="preserve" xmlns:serif="http://www.serif.com/" style="fill-rule:evenodd;clip-rule:evenodd;stroke-miterlimit:10;"><path d="M3128.267,1589.839c0.99,-853.138 -688.568,-1544.284 -1541.68,-1545.247c-853.112,-1.003 -1544.258,688.542 -1545.26,1541.68c-0.977,853.112 688.542,1544.258 1541.693,1545.221c853.112,1.016 1544.258,-688.516 1545.247,-1541.654Z" style="fill:none;fill-rule:nonzero;stroke:#00bff3;stroke-width:6.51px;"/><path d="M1583.531,430.82c-409.089,0 -790.859,219.753 -996.367,573.503c-318.958,549.036 -131.784,1255.208 417.253,1574.167c175.911,102.214 375.729,156.224 577.799,156.25l0.091,0c409.023,0 790.781,-219.753 996.289,-573.503c154.635,-266.185 196.432,-576.419 117.643,-873.568c-78.763,-297.161 -268.737,-545.964 -534.909,-700.599c-175.938,-102.227 -375.742,-156.25 -577.799,-156.25Zm-1.224,2316.003l-0.091,0c-204.206,0 -406.12,-54.583 -583.867,-157.865c-135.951,-78.971 -252.331,-182.148 -345.951,-306.654c-90.404,-120.26 -155.872,-255.273 -194.596,-401.302c-38.711,-146.042 -48.698,-295.755 -29.727,-445.013c19.648,-154.518 69.635,-301.784 148.62,-437.747c104.323,-179.57 254.427,-328.008 434.128,-429.258c174.427,-98.307 372.461,-150.273 572.708,-150.273c204.193,0 406.094,54.609 583.88,157.878c135.951,78.984 252.357,182.174 345.938,306.667c90.417,120.247 155.885,255.273 194.596,401.302c38.711,146.029 48.711,295.755 29.74,445.013c-19.648,154.518 -69.648,301.81 -148.62,437.734c-104.323,179.583 -254.427,328.021 -434.128,429.284c-174.414,98.294 -372.448,150.234 -572.63,150.234Z" style="fill:none;fill-rule:nonzero;stroke:#00bff3;stroke-width:6.51px;"/><path d="M1583.315,816.816c-272.005,0 -525.872,146.133 -662.513,381.341c-212.083,365.052 -87.617,834.609 277.461,1046.693c116.979,67.969 249.818,103.88 384.18,103.88c272.005,0 525.859,-146.107 662.5,-381.328c102.826,-176.992 130.625,-383.268 78.242,-580.846c-52.37,-197.591 -178.685,-363.021 -355.677,-465.846c-116.992,-67.969 -249.844,-103.893 -384.193,-103.893Zm-0.872,1544.01c-136.497,0 -271.432,-36.471 -390.26,-105.521c-90.885,-52.786 -168.659,-121.745 -231.237,-204.961c-60.43,-80.378 -104.206,-170.638 -130.052,-268.242c-25.885,-97.604 -32.565,-197.682 -19.883,-297.448c13.125,-103.281 46.549,-201.719 99.323,-292.578c69.74,-120.013 170.078,-219.232 290.195,-286.914c116.589,-65.703 248.958,-100.443 382.786,-100.443c136.471,0 271.458,36.484 390.26,105.534c90.872,52.773 168.685,121.732 231.224,204.961c60.443,80.378 104.193,170.625 130.078,268.242c25.872,97.604 32.565,197.669 19.857,297.448c-13.125,103.268 -46.536,201.719 -99.336,292.565c-69.714,120.026 -170.039,219.245 -290.156,286.914c-116.602,65.716 -248.971,100.443 -382.799,100.443Z" style="fill:none;fill-rule:nonzero;stroke:#00bff3;stroke-width:6.51px;"/><path d="M1582.883,1582.782l1334.596,775.313" style="fill:none;fill-rule:nonzero;stroke:#00bff3;stroke-width:6.51px;"/><path d="M1582.883,1582.782l4.297,-1543.724" style="fill:none;fill-rule:nonzero;stroke:#00bff3;stroke-width:6.51px;"/><path d="M1582.883,1582.782l-1338.906,768.372" style="fill:none;fill-rule:nonzero;stroke:#00bff3;stroke-width:6.51px;"/><path d="M1846.987,1580.938c0,-144.813 -117.573,-262.383 -262.389,-262.383c-144.817,0 -262.389,117.57 -262.389,262.383c0,144.813 117.573,262.383 262.389,262.383c144.817,0 262.389,-117.57 262.389,-262.383Z" style="fill:none;stroke:#00bff3;stroke-width:6.51px;"/><path d="M1322.072,1430.334c-16.875,29.206 -26.966,57.747 -32.995,83.672c-5.99,26.016 -7.995,49.531 -8.242,70.26c-0.26,41.562 5.924,71.029 9.714,93.086c4.062,22.031 6.211,36.836 4.557,48.906c-1.602,12.044 -6.771,21.211 -15,31.276c12.812,-2.109 23.359,-2.044 34.596,2.604c11.289,4.57 23.073,13.841 40.195,28.438c17.214,14.336 39.805,34.609 75.716,55.117c17.956,10.117 39.284,20.143 64.805,27.891c25.495,7.721 55.234,13.177 89.18,13.216c-15.742,36.354 -46.25,59.388 -83.633,66.497c-37.214,7.318 -80.208,-1.927 -116.393,-23.086c-36.471,-21.029 -68.424,-47.487 -100.365,-68.763c-32.135,-21.302 -65.104,-37.917 -109.01,-41.224c19.023,-39.714 21.042,-76.602 18.633,-115.117c-2.461,-38.307 -9.297,-79.258 -9.219,-121.328c-0.182,-41.888 13.242,-83.763 38.164,-112.344c24.792,-28.854 59.987,-43.789 99.297,-39.102Z" style="fill:none;fill-rule:nonzero;stroke:#00bff3;stroke-width:6.51px;"/><path d="M1847.102,1430.334c-16.914,-29.219 -36.68,-52.305 -56.185,-70.599c-19.57,-18.268 -38.919,-31.849 -56.654,-42.331c-35.638,-20.911 -64.31,-30.286 -85.312,-37.982c-21.133,-7.487 -35.091,-13.047 -44.727,-20.508c-9.661,-7.396 -15.039,-16.471 -19.622,-28.62c-4.596,12.148 -9.987,21.224 -19.648,28.62c-9.635,7.461 -23.568,13.021 -44.714,20.508c-20.99,7.695 -49.674,17.07 -85.326,37.982c-17.747,10.482 -37.07,24.062 -56.654,42.331c-19.492,18.294 -39.271,41.38 -56.185,70.599c-23.659,-31.771 -28.203,-69.74 -15.612,-105.651c12.305,-35.885 41.745,-68.49 78.112,-89.349c36.406,-21.133 75.312,-35.638 109.74,-52.604c34.57,-17.148 65.521,-37.266 90.286,-73.646c24.727,36.38 55.703,56.497 90.273,73.646c34.427,16.966 73.333,31.471 109.727,52.604c36.393,20.859 65.807,53.464 78.112,89.349c12.617,35.911 8.047,73.893 -15.612,105.651Z" style="fill:none;fill-rule:nonzero;stroke:#00bff3;stroke-width:6.51px;"/><path d="M1584.599,1884.804c33.945,-0.039 63.672,-5.495 89.18,-13.229c25.508,-7.734 46.849,-17.76 64.779,-27.865c35.924,-20.521 58.503,-40.794 75.755,-55.143c17.083,-14.596 28.88,-23.867 40.195,-28.424c11.198,-4.661 21.745,-4.727 34.557,-2.604c-8.203,-10.065 -13.398,-19.232 -14.974,-31.289c-1.68,-12.044 0.482,-26.862 4.531,-48.906c3.802,-22.044 9.974,-51.523 9.714,-93.06c-0.208,-20.742 -2.227,-44.258 -8.242,-70.286c-6.016,-25.924 -16.12,-54.453 -32.995,-83.659c39.323,-4.701 74.518,10.247 99.323,39.102c24.909,28.581 38.32,70.469 38.151,112.344c0.065,42.083 -6.745,83.021 -9.219,121.341c-2.396,38.503 -0.404,75.391 18.607,115.104c-43.88,3.32 -76.875,19.922 -108.984,41.224c-31.927,21.276 -63.893,47.734 -100.378,68.776c-36.172,21.159 -79.18,30.391 -116.38,23.06c-37.383,-7.096 -67.878,-30.13 -83.62,-66.484Z" style="fill:none;fill-rule:nonzero;stroke:#00bff3;stroke-width:6.51px;"/><path d="M1581.941,1339.48l210.99,365.443l-422.005,0l211.016,-365.443Z" style="fill:#fff;fill-rule:nonzero;stroke:#00bff3;stroke-width:6.51px;"/><path d="M1792.932,1461.22l-422.005,0l211.016,365.469l210.99,-365.469Zm-11.276,6.51l-199.714,345.938l-199.74,-345.938l399.453,0Z" style="fill:#00bff3;fill-rule:nonzero;"/><path d="M1582.133,1636.632c-53.06,0 -97.643,-36.289 -110.286,-85.43c-2.331,9.128 -3.581,18.659 -3.581,28.477c0,62.904 50.99,113.893 113.867,113.893c62.904,0 113.893,-50.99 113.893,-113.893c0,-9.818 -1.263,-19.349 -3.581,-28.477c-12.669,49.141 -57.24,85.43 -110.312,85.43Z" style="fill:none;fill-rule:nonzero;stroke:#00bff3;stroke-width:6.51px;"/><path d="M2653.262,2167.556c0,-37.847 -30.724,-68.574 -68.568,-68.574c-37.844,0 -68.568,30.727 -68.568,68.574c0,37.847 30.724,68.574 68.568,68.574c37.844,0 68.568,-30.727 68.568,-68.574Z" style="fill:none;stroke:#00bff3;stroke-width:6.51px;"/><path d="M1655.005,423.132c0,-37.847 -30.724,-68.574 -68.568,-68.574c-37.844,0 -68.568,30.727 -68.568,68.574c0,37.847 30.724,68.574 68.568,68.574c37.844,0 68.568,-30.727 68.568,-68.574Z" style="fill:none;stroke:#00bff3;stroke-width:6.51px;"/><path d="M644.658,2159.494c0,-37.847 -30.724,-68.574 -68.568,-68.574c-37.844,0 -68.568,30.727 -68.568,68.574c0,37.847 30.724,68.574 68.568,68.574c37.844,0 68.568,-30.727 68.568,-68.574Z" style="fill:none;stroke:#00bff3;stroke-width:6.51px;"/></svg>