<?xml version="1.0" encoding="UTF-8" standalone="no"?>
<!DOCTYPE svg PUBLIC "-//W3C//DTD SVG 1.1//EN" "http://www.w3.org/Graphics/SVG/1.1/DTD/svg11.dtd">
<svg width="100%" height="100%" viewBox="0 0 3544 3544" version="1.1" xmlns="http://www.w3.org/2000/svg" xmlns:xlink="http://www.w3.org/1999/xlink" xml:space="preserve" xmlns:serif="http://www.serif.com/" style="fill-rule:evenodd;clip-rule:evenodd;stroke-linejoin:round;stroke-miterlimit:2;">
    <g id="Foundation" transform="matrix(2.87895,0,0,2.87895,-3394.18,-3561.9)">
        <g transform="matrix(4.16667,0,0,-4.16667,1178.6,2626.46)">
            <path d="M147.602,154.567C150.074,154.567 152.25,154.852 154.164,155.242C156.074,155.641 157.719,156.149 159.141,156.676C161.992,157.735 163.988,158.781 165.586,159.488C167.184,160.207 168.383,160.613 169.551,160.711C170.723,160.809 171.84,160.606 173.219,160.231C172.844,161.61 172.641,162.727 172.738,163.899C172.836,165.067 173.242,166.27 173.961,167.867C174.676,169.461 175.727,171.457 176.773,174.309C177.301,175.735 177.809,177.375 178.207,179.289C178.605,181.199 178.883,183.375 178.883,185.852C183.824,184.629 186.27,182.129 187.078,179.199C187.484,177.735 187.492,176.176 187.23,174.621C186.969,173.063 186.449,171.52 185.828,170.02C185.203,168.52 184.566,167.242 184.004,166.043C183.441,164.844 182.961,163.711 182.594,162.465C182.227,161.219 181.973,159.863 181.793,158.207C181.613,156.539 181.516,154.574 181.359,152.086C178.867,151.93 176.895,151.836 175.23,151.664C173.566,151.5 172.199,151.262 170.949,150.899C169.695,150.547 168.555,150.082 167.348,149.535C166.148,148.988 164.871,148.36 163.379,147.735C161.887,147.113 160.344,146.586 158.789,146.317C157.246,146.047 155.691,146.031 154.23,146.43C151.305,147.211 148.809,149.625 147.594,154.559L147.602,154.567Z" style="fill:rgb(239,62,66);fill-rule:nonzero;stroke:black;stroke-width:0.435px;"/>
        </g>
        <g transform="matrix(4.16667,0,0,-4.16667,1178.6,2626.74)">
            <path d="M116.316,185.926C116.316,183.449 116.602,181.273 116.992,179.363C117.391,177.449 117.898,175.808 118.426,174.383C119.484,171.531 120.531,169.535 121.238,167.937C121.957,166.34 122.363,165.14 122.461,163.972C122.559,162.801 122.355,161.683 121.98,160.304C123.359,160.679 124.477,160.883 125.648,160.785C126.816,160.687 128.016,160.281 129.613,159.562C131.211,158.847 133.207,157.808 136.059,156.75C137.484,156.222 139.125,155.715 141.039,155.316C142.949,154.918 145.125,154.64 147.602,154.633C146.379,149.691 143.879,147.246 140.949,146.437C139.484,146.031 137.926,146.023 136.371,146.285C134.812,146.551 133.266,147.066 131.766,147.687C130.266,148.312 128.992,148.949 127.793,149.511C126.594,150.074 125.461,150.554 124.215,150.922C122.969,151.289 121.613,151.551 119.953,151.722C118.289,151.902 116.324,152 113.836,152.16C113.676,154.648 113.586,156.621 113.414,158.285C113.25,159.953 113.012,161.316 112.648,162.57C112.297,163.82 111.832,164.961 111.285,166.16C110.738,167.363 110.109,168.637 109.484,170.129C108.863,171.621 108.336,173.168 108.066,174.711C107.797,176.258 107.781,177.808 108.18,179.273C108.961,182.195 111.375,184.695 116.309,185.91L116.316,185.926Z" style="fill:rgb(239,62,66);fill-rule:nonzero;stroke:black;stroke-width:0.435px;"/>
        </g>
        <g transform="matrix(4.16667,0,0,-4.16667,1178.6,2294.51)">
            <path d="M147.602,137.481C145.125,137.481 142.949,137.195 141.039,136.805C139.125,136.406 137.484,135.899 136.059,135.371C133.207,134.317 131.211,133.266 129.613,132.559C128.016,131.84 126.816,131.434 125.648,131.336C124.477,131.238 123.359,131.442 121.98,131.817C122.355,130.438 122.559,129.32 122.461,128.149C122.363,126.981 121.957,125.774 121.238,124.184C120.523,122.586 119.477,120.59 118.426,117.738C117.898,116.317 117.391,114.672 116.992,112.762C116.594,110.848 116.316,108.672 116.316,106.199C111.375,107.418 108.93,109.918 108.121,112.852C107.715,114.313 107.707,115.871 107.969,117.426C108.234,118.985 108.75,120.531 109.371,122.031C109.996,123.531 110.633,124.805 111.195,126.004C111.758,127.203 112.238,128.336 112.605,129.582C112.973,130.828 113.227,132.184 113.406,133.844C113.586,135.508 113.684,137.473 113.844,139.961C116.332,140.121 118.305,140.211 119.969,140.383C121.637,140.547 123,140.789 124.254,141.149C125.504,141.5 126.645,141.965 127.844,142.512C129.047,143.059 130.32,143.692 131.812,144.313C133.305,144.934 134.852,145.461 136.402,145.731C137.949,146 139.5,146.016 140.961,145.617C143.887,144.836 146.387,142.422 147.602,137.488L147.602,137.481Z" style="fill:rgb(239,62,66);fill-rule:nonzero;stroke:black;stroke-width:0.435px;"/>
        </g>
        <g transform="matrix(4.16667,0,0,-4.16667,1178.6,2294.27)">
            <path d="M178.891,106.133C178.891,108.605 178.605,110.781 178.215,112.695C177.816,114.605 177.309,116.25 176.781,117.672C175.727,120.523 174.676,122.519 173.969,124.117C173.25,125.715 172.844,126.914 172.746,128.082C172.648,129.254 172.852,130.371 173.227,131.75C171.848,131.375 170.73,131.172 169.559,131.269C168.391,131.367 167.184,131.773 165.594,132.492C163.996,133.207 162,134.258 159.148,135.304C157.727,135.832 156.082,136.34 154.172,136.738C152.258,137.136 150.082,137.414 147.609,137.414C148.828,142.355 151.328,144.801 154.262,145.609C155.723,146.015 157.281,146.023 158.836,145.761C160.395,145.5 161.941,144.98 163.441,144.359C164.941,143.734 166.215,143.097 167.414,142.535C168.613,141.972 169.746,141.492 170.992,141.125C172.238,140.758 173.594,140.504 175.254,140.324C176.918,140.144 178.883,140.047 181.371,139.89C181.531,137.398 181.621,135.426 181.793,133.761C181.957,132.097 182.199,130.73 182.559,129.48C182.91,128.226 183.375,127.086 183.922,125.886C184.469,124.687 185.102,123.41 185.723,121.918C186.344,120.426 186.871,118.883 187.141,117.336C187.41,115.793 187.426,114.238 187.027,112.777C186.246,109.851 183.832,107.355 178.898,106.14L178.891,106.133Z" style="fill:rgb(239,62,66);fill-rule:nonzero;stroke:black;stroke-width:0.435px;"/>
        </g>
        <g transform="matrix(4.16667,0,0,-4.16667,1178.6,2459.13)">
            <path d="M164.984,128.648L164.984,163.074L130.551,163.074L130.551,128.648L164.984,128.648ZM160.453,154.015L148.199,132.788L135.945,154.015L160.453,154.015Z" style="fill:rgb(191,49,26);fill-rule:nonzero;stroke:black;stroke-width:0.435px;"/>
        </g>
        <g transform="matrix(4.16667,0,0,-4.16667,1178.6,2258.98)">
            <path d="M165.219,118.672C160.492,122.629 154.41,125.016 147.766,125.016C141.121,125.016 135.039,122.629 130.312,118.672L165.219,118.672Z" style="fill:rgb(191,49,26);fill-rule:nonzero;stroke:black;stroke-width:0.435px;"/>
        </g>
        <g transform="matrix(4.16667,0,0,-4.16667,1178.6,2459.11)">
            <path d="M126.93,163.312C122.969,158.585 120.586,152.503 120.586,145.859C120.586,139.214 122.969,133.132 126.93,128.406L126.93,163.312Z" style="fill:rgb(191,49,26);fill-rule:nonzero;stroke:black;stroke-width:0.435px;"/>
        </g>
        <g transform="matrix(4.16667,0,0,-4.16667,1178.6,2659.18)">
            <path d="M130.32,173.039C135.047,169.078 141.129,166.695 147.773,166.695C154.418,166.695 160.5,169.078 165.227,173.039L130.32,173.039Z" style="fill:rgb(191,49,26);fill-rule:nonzero;stroke:black;stroke-width:0.435px;"/>
        </g>
        <g transform="matrix(0,4.16667,-4.16667,0,2502.07,1135.58)">
            <path d="M154.328,149.024L189.235,149.024C184.508,145.067 178.426,142.68 171.782,142.68C165.136,142.68 159.055,145.067 154.328,149.024Z" style="fill:rgb(191,49,26);fill-rule:nonzero;stroke:black;stroke-width:0.435px;"/>
        </g>
        <g transform="matrix(4.16667,0.680803,-0.680803,4.16667,2403.43,1235.86)">
            <ellipse cx="-118.711" cy="167.307" rx="95.463" ry="95.463" style="fill:white;stroke:rgb(35,31,32);stroke-width:0.43px;stroke-linejoin:miter;stroke-miterlimit:10;"/>
        </g>
        <g transform="matrix(4.16667,4.16667,-4.16667,4.16667,2402.4,1235.12)">
            <circle cx="1.019" cy="146.856" r="100.801" style="fill:none;stroke:rgb(35,31,32);stroke-width:0.305px;stroke-linejoin:miter;stroke-miterlimit:10;"/>
        </g>
        <g transform="matrix(4.16667,0,0,-4.16667,1178.6,2460.64)">
            <rect x="79.672" y="77.812" width="136.465" height="136.461" style="fill:white;stroke:rgb(35,31,32);stroke-width:0.435px;stroke-linejoin:miter;stroke-miterlimit:10;"/>
        </g>
        <g transform="matrix(4.16667,4.16667,-4.16667,4.16667,2401.8,1235.85)">
            <ellipse cx="0.931" cy="146.783" rx="48.117" ry="48.118" style="fill:white;stroke:rgb(35,31,32);stroke-width:0.305px;stroke-linejoin:miter;stroke-miterlimit:10;"/>
        </g>
        <g transform="matrix(4.16667,0,0,-4.16667,1178.6,2458.33)">
            <rect x="100.086" y="97.941" width="95.648" height="95.648" style="fill:white;stroke:rgb(35,31,32);stroke-width:0.435px;stroke-linejoin:miter;stroke-miterlimit:10;"/>
        </g>
        <g transform="matrix(4.16679,-4.16654,4.16654,4.16679,1178.62,1243.6)">
            <rect x="-32.884" y="112.993" width="67.637" height="67.633" style="fill:white;stroke:rgb(35,31,32);stroke-width:0.305px;stroke-linejoin:miter;stroke-miterlimit:10;"/>
        </g>
        <g transform="matrix(0,4.16667,-4.16667,0,2000.95,832.467)">
            <circle cx="148.02" cy="49.343" r="7.972" style="fill:none;stroke:rgb(35,31,32);stroke-width:0.435px;stroke-linejoin:miter;stroke-miterlimit:10;"/>
        </g>
        <g transform="matrix(0,4.16667,-4.16667,0,2804.97,1638.05)">
            <circle cx="147.832" cy="242.496" r="7.973" style="fill:none;stroke:rgb(35,31,32);stroke-width:0.435px;stroke-linejoin:miter;stroke-miterlimit:10;"/>
        </g>
        <g transform="matrix(0,4.16667,-4.16667,0,2806.16,831.686)">
            <ellipse cx="244.738" cy="145.875" rx="7.973" ry="7.972" style="fill:none;stroke:rgb(35,31,32);stroke-width:0.435px;stroke-linejoin:miter;stroke-miterlimit:10;"/>
        </g>
        <g transform="matrix(0,4.16667,-4.16667,0,1999.76,1638.83)">
            <ellipse cx="51.113" cy="145.965" rx="7.973" ry="7.973" style="fill:none;stroke:rgb(35,31,32);stroke-width:0.435px;stroke-linejoin:miter;stroke-miterlimit:10;"/>
        </g>
        <g transform="matrix(2.94615,2.94641,-2.94641,2.94615,1504.4,1103.46)">
            <ellipse cx="79.7" cy="77.562" rx="7.972" ry="7.972" style="fill:none;stroke:rgb(35,31,32);stroke-width:0.435px;stroke-linejoin:miter;stroke-miterlimit:10;"/>
        </g>
        <g transform="matrix(2.94628,2.94628,-2.94628,2.94628,2073.72,868.271)">
            <circle cx="216.152" cy="214.279" r="7.971" style="fill:none;stroke:rgb(35,31,32);stroke-width:0.435px;stroke-linejoin:miter;stroke-miterlimit:10;"/>
        </g>
        <g transform="matrix(2.94628,2.94628,-2.94628,2.94628,1670.75,700.68)">
            <ellipse cx="216.348" cy="77.427" rx="7.972" ry="7.972" style="fill:none;stroke:rgb(35,31,32);stroke-width:0.435px;stroke-linejoin:miter;stroke-miterlimit:10;"/>
        </g>
        <g transform="matrix(2.94628,2.94628,-2.94628,2.94628,1907.35,1271.04)">
            <circle cx="79.504" cy="214.414" r="7.972" style="fill:none;stroke:rgb(35,31,32);stroke-width:0.435px;stroke-linejoin:miter;stroke-miterlimit:10;"/>
        </g>
        <g transform="matrix(2.94628,2.94628,-2.94628,2.94628,1588.59,903.17)">
            <circle cx="147.828" cy="77.922" r="7.972" style="fill:none;stroke:rgb(35,31,32);stroke-width:0.435px;stroke-linejoin:miter;stroke-miterlimit:10;"/>
        </g>
        <g transform="matrix(2.94615,2.94641,-2.94641,2.94615,1988.7,1069.85)">
            <ellipse cx="147.55" cy="213.821" rx="7.972" ry="7.972" style="fill:none;stroke:rgb(35,31,32);stroke-width:0.435px;stroke-linejoin:miter;stroke-miterlimit:10;"/>
        </g>
        <g transform="matrix(2.94615,2.94641,-2.94641,2.94615,1871.16,786.589)">
            <circle cx="215.501" cy="145.783" r="7.972" style="fill:none;stroke:rgb(35,31,32);stroke-width:0.435px;stroke-linejoin:miter;stroke-miterlimit:10;"/>
        </g>
        <g transform="matrix(2.94628,2.94628,-2.94628,2.94628,1706.99,1185.13)">
            <ellipse cx="80.352" cy="146.059" rx="7.972" ry="7.972" style="fill:none;stroke:rgb(35,31,32);stroke-width:0.435px;stroke-linejoin:miter;stroke-miterlimit:10;"/>
        </g>
        <g transform="matrix(3.85331,-1.58528,1.58528,3.85331,1113.72,1443.68)">
            <path d="M76.73,63.399L150.61,63.399" style="fill:none;fill-rule:nonzero;stroke:rgb(35,31,32);stroke-width:0.435px;stroke-linejoin:miter;stroke-miterlimit:10;"/>
        </g>
        <g transform="matrix(3.84764,1.599,-1.599,3.84764,1338.27,972.881)">
            <path d="M144.999,63.541L218.989,63.541" style="fill:none;fill-rule:nonzero;stroke:rgb(35,31,32);stroke-width:0.435px;stroke-linejoin:miter;stroke-miterlimit:10;"/>
        </g>
        <g transform="matrix(1.60475,3.84524,-3.84524,1.60475,2198.48,644.166)">
            <path d="M193.49,111.757L267.217,111.757" style="fill:none;fill-rule:nonzero;stroke:rgb(35,31,32);stroke-width:0.435px;stroke-linejoin:miter;stroke-miterlimit:10;"/>
        </g>
        <g transform="matrix(-1.59902,3.84763,-3.84763,-1.59902,3199.09,1394.78)">
            <path d="M193.358,179.94L267.349,179.94" style="fill:none;fill-rule:nonzero;stroke:rgb(35,31,32);stroke-width:0.435px;stroke-linejoin:miter;stroke-miterlimit:10;"/>
        </g>
        <g transform="matrix(-3.8386,1.62056,-1.62056,-3.8386,3004.35,2776.51)">
            <path d="M144.615,228.298L219.088,228.298" style="fill:none;fill-rule:nonzero;stroke:rgb(35,31,32);stroke-width:0.435px;stroke-linejoin:miter;stroke-miterlimit:10;"/>
        </g>
        <g transform="matrix(-3.83373,-1.63206,1.63206,-3.83373,1714.27,3255.38)">
            <path d="M76.554,228.298L150.501,228.298" style="fill:none;fill-rule:nonzero;stroke:rgb(35,31,32);stroke-width:0.435px;stroke-linejoin:miter;stroke-miterlimit:10;"/>
        </g>
        <g transform="matrix(-1.60264,-3.84612,3.84612,-1.60264,862.515,2528.86)">
            <path d="M28.336,179.515L101.437,179.515" style="fill:none;fill-rule:nonzero;stroke:rgb(35,31,32);stroke-width:0.435px;stroke-linejoin:miter;stroke-miterlimit:10;"/>
        </g>
        <g transform="matrix(1.60509,-3.8451,3.8451,1.60509,915.462,1779.94)">
            <path d="M28.164,111.757L101.894,111.757" style="fill:none;fill-rule:nonzero;stroke:rgb(35,31,32);stroke-width:0.435px;stroke-linejoin:miter;stroke-miterlimit:10;"/>
        </g>
        <g transform="matrix(4.16667,-4.16667,-4.16667,-4.16667,2403.15,2468.16)">
            <rect x="-16.02" y="130.039" width="33.813" height="33.813" style="fill:none;stroke:rgb(35,31,32);stroke-width:0.305px;stroke-linejoin:miter;stroke-miterlimit:10;"/>
        </g>
        <g transform="matrix(4.16667,-4.16667,-4.16667,-4.16667,2401.18,2466.19)">
            <rect x="-4.609" y="141.074" width="11.269" height="11.27" style="fill:none;stroke:rgb(35,31,32);stroke-width:0.305px;stroke-linejoin:miter;stroke-miterlimit:10;"/>
        </g>
        <g transform="matrix(4.16667,0,0,-4.16667,1178.6,2462.37)">
            <path d="M147.977,139.648L155.602,152.852L140.355,152.852L147.977,139.648L155.602,152.852L140.355,152.852L147.977,139.648Z" style="fill:white;fill-rule:nonzero;stroke:rgb(35,31,32);stroke-width:0.435px;stroke-linejoin:miter;stroke-miterlimit:10;"/>
        </g>
        <g transform="matrix(4.16665,0.679421,-0.679421,4.16665,2402.29,1236.26)">
            <ellipse cx="-118.716" cy="167.08" rx="47.731" ry="47.732" style="fill:none;stroke:rgb(35,31,32);stroke-width:0.43px;stroke-linejoin:miter;stroke-miterlimit:10;"/>
        </g>
        <g transform="matrix(4.16666,0.680116,-0.680116,4.16666,2400.91,1235.06)">
            <ellipse cx="-118.387" cy="167.027" rx="56.613" ry="56.612" style="fill:none;stroke:rgb(35,31,32);stroke-width:0.43px;stroke-linejoin:miter;stroke-miterlimit:10;"/>
        </g>
        <g transform="matrix(4.16669,0.9941,-0.9941,4.16669,2399.94,1236.27)">
            <ellipse cx="-104.55" cy="172.388" rx="78.49" ry="78.49" style="fill:none;stroke:rgb(35,31,32);stroke-width:0.42px;stroke-linejoin:miter;stroke-miterlimit:10;"/>
        </g>
        <g transform="matrix(0,4.16667,-4.16667,0,2402.17,1236.24)">
            <ellipse cx="147.713" cy="145.943" rx="142.552" ry="142.553" style="fill:none;stroke:rgb(35,31,32);stroke-width:0.435px;stroke-linejoin:miter;stroke-miterlimit:10;"/>
        </g>
        <g transform="matrix(4.16667,0,0,-4.16667,1178.6,1753.37)">
            <rect x="46.395" y="44.723" width="32.895" height="32.895" style="fill:none;stroke:rgb(35,31,32);stroke-width:0.435px;stroke-linejoin:miter;stroke-miterlimit:10;"/>
        </g>
        <g transform="matrix(4.16667,0,0,-4.16667,1178.6,1754.55)">
            <rect x="216.172" y="44.863" width="32.895" height="32.898" style="fill:none;stroke:rgb(35,31,32);stroke-width:0.435px;stroke-linejoin:miter;stroke-miterlimit:10;"/>
        </g>
        <g transform="matrix(4.16667,0,0,-4.16667,1178.6,3165.05)">
            <rect x="216.457" y="214.125" width="32.895" height="32.895" style="fill:none;stroke:rgb(35,31,32);stroke-width:0.435px;stroke-linejoin:miter;stroke-miterlimit:10;"/>
        </g>
        <g transform="matrix(4.16667,0,0,-4.16667,1178.6,3169.75)">
            <rect x="46.352" y="214.688" width="32.895" height="32.895" style="fill:none;stroke:rgb(35,31,32);stroke-width:0.435px;stroke-linejoin:miter;stroke-miterlimit:10;"/>
        </g>
        <g transform="matrix(4.16649,-4.15522,4.15522,4.16649,1178.58,1243.62)">
            <rect x="-70.661" y="75.363" width="23.294" height="23.294" style="fill:none;stroke:rgb(35,31,32);stroke-width:0.305px;stroke-linejoin:miter;stroke-miterlimit:10;"/>
        </g>
        <g transform="matrix(4.16649,-4.15522,4.15522,4.16649,1178.6,1243.64)">
            <rect x="49.565" y="75.458" width="23.292" height="23.292" style="fill:none;stroke:rgb(35,31,32);stroke-width:0.305px;stroke-linejoin:miter;stroke-miterlimit:10;"/>
        </g>
        <g transform="matrix(4.16685,-4.15487,4.15487,4.16685,1178.63,1243.57)">
            <rect x="49.765" y="195.322" width="23.292" height="23.292" style="fill:none;stroke:rgb(35,31,32);stroke-width:0.305px;stroke-linejoin:miter;stroke-miterlimit:10;"/>
        </g>
        <g transform="matrix(4.16685,-4.15487,4.15487,4.16685,1178.65,1243.59)">
            <rect x="-70.692" y="195.722" width="23.295" height="23.294" style="fill:none;stroke:rgb(35,31,32);stroke-width:0.305px;stroke-linejoin:miter;stroke-miterlimit:10;"/>
        </g>
        <g transform="matrix(4.16667,0,0,-4.16667,1178.6,2626.46)">
            <path d="M147.602,154.567C150.074,154.567 152.25,154.852 154.164,155.242C156.074,155.641 157.719,156.149 159.141,156.676C161.992,157.735 163.988,158.781 165.586,159.488C167.184,160.207 168.383,160.613 169.551,160.711C170.723,160.809 171.84,160.606 173.219,160.231C172.844,161.61 172.641,162.727 172.738,163.899C172.836,165.067 173.242,166.27 173.961,167.867C174.676,169.461 175.727,171.457 176.773,174.309C177.301,175.735 177.809,177.375 178.207,179.289C178.605,181.199 178.883,183.375 178.883,185.852C183.824,184.629 186.27,182.129 187.078,179.199C187.484,177.735 187.492,176.176 187.23,174.621C186.969,173.063 186.449,171.52 185.828,170.02C185.203,168.52 184.566,167.242 184.004,166.043C183.441,164.844 182.961,163.711 182.594,162.465C182.227,161.219 181.973,159.863 181.793,158.207C181.613,156.539 181.516,154.574 181.359,152.086C178.867,151.93 176.895,151.836 175.23,151.664C173.566,151.5 172.199,151.262 170.949,150.899C169.695,150.547 168.555,150.082 167.348,149.535C166.148,148.988 164.871,148.36 163.379,147.735C161.887,147.113 160.344,146.586 158.789,146.317C157.246,146.047 155.691,146.031 154.23,146.43C151.305,147.211 148.809,149.625 147.594,154.559L147.602,154.567Z" style="fill:none;fill-rule:nonzero;stroke:rgb(35,31,32);stroke-width:0.435px;stroke-linejoin:miter;stroke-miterlimit:10;"/>
        </g>
        <g transform="matrix(4.16667,0,0,-4.16667,1178.6,2626.74)">
            <path d="M116.316,185.926C116.316,183.449 116.602,181.273 116.992,179.363C117.391,177.449 117.898,175.808 118.426,174.383C119.484,171.531 120.531,169.535 121.238,167.937C121.957,166.34 122.363,165.14 122.461,163.972C122.559,162.801 122.355,161.683 121.98,160.304C123.359,160.679 124.477,160.883 125.648,160.785C126.816,160.687 128.016,160.281 129.613,159.562C131.211,158.847 133.207,157.808 136.059,156.75C137.484,156.222 139.125,155.715 141.039,155.316C142.949,154.918 145.125,154.64 147.602,154.633C146.379,149.691 143.879,147.246 140.949,146.437C139.484,146.031 137.926,146.023 136.371,146.285C134.812,146.551 133.266,147.066 131.766,147.687C130.266,148.312 128.992,148.949 127.793,149.511C126.594,150.074 125.461,150.554 124.215,150.922C122.969,151.289 121.613,151.551 119.953,151.722C118.289,151.902 116.324,152 113.836,152.16C113.676,154.648 113.586,156.621 113.414,158.285C113.25,159.953 113.012,161.316 112.648,162.57C112.297,163.82 111.832,164.961 111.285,166.16C110.738,167.363 110.109,168.637 109.484,170.129C108.863,171.621 108.336,173.168 108.066,174.711C107.797,176.258 107.781,177.808 108.18,179.273C108.961,182.195 111.375,184.695 116.309,185.91L116.316,185.926Z" style="fill:none;fill-rule:nonzero;stroke:rgb(35,31,32);stroke-width:0.435px;stroke-linejoin:miter;stroke-miterlimit:10;"/>
        </g>
        <g transform="matrix(4.16667,0,0,-4.16667,1178.6,2294.51)">
            <path d="M147.602,137.481C145.125,137.481 142.949,137.195 141.039,136.805C139.125,136.406 137.484,135.899 136.059,135.371C133.207,134.317 131.211,133.266 129.613,132.559C128.016,131.84 126.816,131.434 125.648,131.336C124.477,131.238 123.359,131.442 121.98,131.817C122.355,130.438 122.559,129.32 122.461,128.149C122.363,126.981 121.957,125.774 121.238,124.184C120.523,122.586 119.477,120.59 118.426,117.738C117.898,116.317 117.391,114.672 116.992,112.762C116.594,110.848 116.316,108.672 116.316,106.199C111.375,107.418 108.93,109.918 108.121,112.852C107.715,114.313 107.707,115.871 107.969,117.426C108.234,118.985 108.75,120.531 109.371,122.031C109.996,123.531 110.633,124.805 111.195,126.004C111.758,127.203 112.238,128.336 112.605,129.582C112.973,130.828 113.227,132.184 113.406,133.844C113.586,135.508 113.684,137.473 113.844,139.961C116.332,140.121 118.305,140.211 119.969,140.383C121.637,140.547 123,140.789 124.254,141.149C125.504,141.5 126.645,141.965 127.844,142.512C129.047,143.059 130.32,143.692 131.812,144.313C133.305,144.934 134.852,145.461 136.402,145.731C137.949,146 139.5,146.016 140.961,145.617C143.887,144.836 146.387,142.422 147.602,137.488L147.602,137.481Z" style="fill:none;fill-rule:nonzero;stroke:rgb(35,31,32);stroke-width:0.435px;stroke-linejoin:miter;stroke-miterlimit:10;"/>
        </g>
        <g transform="matrix(4.16667,0,0,-4.16667,1178.6,2294.27)">
            <path d="M178.891,106.133C178.891,108.605 178.605,110.781 178.215,112.695C177.816,114.605 177.309,116.25 176.781,117.672C175.727,120.523 174.676,122.519 173.969,124.117C173.25,125.715 172.844,126.914 172.746,128.082C172.648,129.254 172.852,130.371 173.227,131.75C171.848,131.375 170.73,131.172 169.559,131.269C168.391,131.367 167.184,131.773 165.594,132.492C163.996,133.207 162,134.258 159.148,135.304C157.727,135.832 156.082,136.34 154.172,136.738C152.258,137.136 150.082,137.414 147.609,137.414C148.828,142.355 151.328,144.801 154.262,145.609C155.723,146.015 157.281,146.023 158.836,145.761C160.395,145.5 161.941,144.98 163.441,144.359C164.941,143.734 166.215,143.097 167.414,142.535C168.613,141.972 169.746,141.492 170.992,141.125C172.238,140.758 173.594,140.504 175.254,140.324C176.918,140.144 178.883,140.047 181.371,139.89C181.531,137.398 181.621,135.426 181.793,133.761C181.957,132.097 182.199,130.73 182.559,129.48C182.91,128.226 183.375,127.086 183.922,125.886C184.469,124.687 185.102,123.41 185.723,121.918C186.344,120.426 186.871,118.883 187.141,117.336C187.41,115.793 187.426,114.238 187.027,112.777C186.246,109.851 183.832,107.355 178.898,106.14L178.891,106.133Z" style="fill:none;fill-rule:nonzero;stroke:rgb(35,31,32);stroke-width:0.435px;stroke-linejoin:miter;stroke-miterlimit:10;"/>
        </g>
        <g transform="matrix(4.16667,0,0,-4.16667,1178.6,2459.13)">
            <path d="M164.984,128.648L164.984,163.074L130.551,163.074L130.551,128.648L164.984,128.648ZM160.453,154.015L148.199,132.788L135.945,154.015L160.453,154.015Z" style="fill:none;fill-rule:nonzero;stroke:rgb(35,31,32);stroke-width:0.435px;stroke-linejoin:miter;stroke-miterlimit:10;"/>
        </g>
        <g transform="matrix(4.16667,0,0,-4.16667,1178.6,2258.98)">
            <path d="M165.219,118.672C160.492,122.629 154.41,125.016 147.766,125.016C141.121,125.016 135.039,122.629 130.312,118.672L165.219,118.672Z" style="fill:none;fill-rule:nonzero;stroke:rgb(35,31,32);stroke-width:0.435px;stroke-linejoin:miter;stroke-miterlimit:10;"/>
        </g>
        <g transform="matrix(4.16667,0,0,-4.16667,1178.6,2459.11)">
            <path d="M126.93,163.312C122.969,158.585 120.586,152.503 120.586,145.859C120.586,139.214 122.969,133.132 126.93,128.406L126.93,163.312Z" style="fill:none;fill-rule:nonzero;stroke:rgb(35,31,32);stroke-width:0.435px;stroke-linejoin:miter;stroke-miterlimit:10;"/>
        </g>
        <g transform="matrix(4.16667,0,0,-4.16667,1178.6,2659.18)">
            <path d="M130.32,173.039C135.047,169.078 141.129,166.695 147.773,166.695C154.418,166.695 160.5,169.078 165.227,173.039L130.32,173.039Z" style="fill:none;fill-rule:nonzero;stroke:rgb(35,31,32);stroke-width:0.435px;stroke-linejoin:miter;stroke-miterlimit:10;"/>
        </g>
        <g transform="matrix(0,4.16667,-4.16667,0,2502.07,1135.58)">
            <path d="M154.328,149.024L189.235,149.024C184.508,145.067 178.426,142.68 171.782,142.68C165.136,142.68 159.055,145.067 154.328,149.024Z" style="fill:none;fill-rule:nonzero;stroke:rgb(35,31,32);stroke-width:0.435px;stroke-linejoin:miter;stroke-miterlimit:10;"/>
        </g>
        <g transform="matrix(4.16667,0,0,-4.16667,1178.6,2458.43)">
            <path d="M50.828,145.777L244.551,145.777" style="fill:none;fill-rule:nonzero;stroke:rgb(35,31,32);stroke-width:0.435px;stroke-linejoin:miter;stroke-miterlimit:10;"/>
        </g>
        <g transform="matrix(0,4.16667,-4.16667,0,2401.98,1235.06)">
            <path d="M51.114,145.778L244.551,145.778" style="fill:none;fill-rule:nonzero;stroke:rgb(35,31,32);stroke-width:0.435px;stroke-linejoin:miter;stroke-miterlimit:10;"/>
        </g>
    </g>
</svg>
