<?xml version="1.0" encoding="UTF-8" standalone="no"?>
<!DOCTYPE svg PUBLIC "-//W3C//DTD SVG 1.1//EN" "http://www.w3.org/Graphics/SVG/1.1/DTD/svg11.dtd">
<svg width="100%" height="100%" viewBox="0 0 3544 3544" version="1.1" xmlns="http://www.w3.org/2000/svg" xmlns:xlink="http://www.w3.org/1999/xlink" xml:space="preserve" xmlns:serif="http://www.serif.com/" style="fill-rule:evenodd;clip-rule:evenodd;stroke-miterlimit:10;">
    <g id="Power" transform="matrix(2.87895,0,0,2.87895,-3237.04,-3419.52)">
        <g transform="matrix(4.16667,0.0137955,-0.0137955,4.16667,2353.6,-1490.21)">
            <ellipse cx="-144.554" cy="791.147" rx="95.61" ry="95.611" style="fill:none;stroke:rgb(35,31,32);stroke-width:0.435px;"/>
        </g>
        <g transform="matrix(0,4.16667,-4.16667,0,2352.01,-1490.59)">
            <path d="M790.523,5.129C712.141,5.129 648.711,68.555 648.711,146.938C648.711,225.32 712.141,288.75 790.523,288.75C868.906,288.75 932.332,225.32 932.332,146.938C932.332,68.555 868.906,5.129 790.523,5.129Z" style="fill:none;fill-rule:nonzero;stroke:rgb(35,31,32);stroke-width:0.435px;"/>
        </g>
        <g transform="matrix(0,4.16667,-4.16667,0,2352.05,-1490.63)">
            <path d="M790.533,30.892C726.416,30.892 674.483,82.822 674.483,146.94C674.483,211.057 726.416,262.987 790.533,262.987C854.651,262.987 906.58,211.057 906.58,146.94C906.58,82.822 854.651,30.892 790.533,30.892Z" style="fill:none;fill-rule:nonzero;stroke:rgb(35,31,32);stroke-width:0.435px;"/>
        </g>
        <g transform="matrix(-4.16667,0,0,-4.16667,5033.65,2415.55)">
            <circle cx="790.528" cy="146.945" r="77.343" style="fill:none;stroke:rgb(35,31,32);stroke-width:0.435px;"/>
        </g>
        <g transform="matrix(-4.16667,0,0,-4.16667,5033.62,2415.5)">
            <ellipse cx="790.524" cy="146.939" rx="51.586" ry="51.584" style="fill:none;stroke:rgb(35,31,32);stroke-width:0.435px;"/>
        </g>
        <g transform="matrix(0,4.16667,-4.16667,0,2352.02,-1490.59)">
            <circle cx="790.523" cy="146.941" r="38.707" style="fill:none;stroke:rgb(35,31,32);stroke-width:0.435px;"/>
        </g>
        <g transform="matrix(-4.16667,0,0,-4.16667,5033.64,2415.53)">
            <circle cx="790.526" cy="146.943" r="25.76" style="fill:none;stroke:rgb(35,31,32);stroke-width:0.435px;"/>
        </g>
        <g transform="matrix(0,4.16667,-4.16667,0,2352.04,-1490.62)">
            <circle cx="790.529" cy="146.939" r="12.877" style="fill:none;stroke:rgb(35,31,32);stroke-width:0.435px;"/>
        </g>
        <g transform="matrix(0,4.16667,-4.16667,0,2646.92,-1195.83)">
            <path d="M719.848,217.699L861.231,217.699" style="fill:none;fill-rule:nonzero;stroke:rgb(35,31,32);stroke-width:0.435px;"/>
        </g>
        <g transform="matrix(2.4491,3.37091,-3.37091,2.4491,564.368,-1263.32)">
            <path d="M761.295,204.402L903.182,204.402" style="fill:none;fill-rule:nonzero;stroke:rgb(35,31,32);stroke-width:0.435px;"/>
        </g>
        <g transform="matrix(3.96295,1.28692,-1.28692,3.96295,-1161.91,121.247)">
            <path d="M787.072,168.912L928.908,168.912" style="fill:none;fill-rule:nonzero;stroke:rgb(35,31,32);stroke-width:0.435px;"/>
        </g>
        <g transform="matrix(3.96247,-1.2884,1.2884,3.96247,-1540.07,2321.88)">
            <path d="M787.067,125.104L928.745,125.103" style="fill:none;fill-rule:nonzero;stroke:rgb(35,31,32);stroke-width:0.435px;"/>
        </g>
        <g transform="matrix(2.44708,-3.37237,3.37237,2.44708,-425.66,4151.48)">
            <path d="M761.316,89.697L902.934,89.697" style="fill:none;fill-rule:nonzero;stroke:rgb(35,31,32);stroke-width:0.435px;"/>
        </g>
        <g transform="matrix(-0.000234909,-4.16667,4.16667,-0.000234909,1423.1,4801.83)">
            <path d="M719.585,76.058L861.485,76.058" style="fill:none;fill-rule:nonzero;stroke:rgb(35,31,32);stroke-width:0.435px;"/>
        </g>
        <g transform="matrix(-2.44924,-3.37081,3.37081,-2.44924,3098.37,4309.86)">
            <path d="M678.281,89.813L819.68,89.813" style="fill:none;fill-rule:nonzero;stroke:rgb(35,31,32);stroke-width:0.435px;"/>
        </g>
        <g transform="matrix(-3.96215,-1.28936,1.28936,-3.96215,4162.63,3139.96)">
            <path d="M652.183,125.062L794.02,125.062" style="fill:none;fill-rule:nonzero;stroke:rgb(35,31,32);stroke-width:0.435px;"/>
        </g>
        <g transform="matrix(-3.96304,1.28664,-1.28664,-3.96304,4542.16,1633.6)">
            <path d="M652.283,168.889L794.002,168.889" style="fill:none;fill-rule:nonzero;stroke:rgb(35,31,32);stroke-width:0.435px;"/>
        </g>
        <g transform="matrix(-2.44926,3.37079,-3.37079,-2.44926,4089.45,17.3361)">
            <path d="M678.281,204.203L819.68,204.203" style="fill:none;fill-rule:nonzero;stroke:rgb(35,31,32);stroke-width:0.435px;"/>
        </g>
        <g transform="matrix(0,4.16667,-4.16667,0,2352.37,-1491.94)">
            <ellipse cx="790.727" cy="146.82" rx="26.258" ry="26.258" style="fill:white;stroke:rgb(35,31,32);stroke-width:0.435px;"/>
        </g>
        <g transform="matrix(4.16667,0,0,-4.16667,-1554.08,2331.94)">
            <path d="M764.941,145.347C763.777,143.746 763.004,142.394 762.406,141.328C761.812,140.258 761.387,139.461 760.988,138.883C760.59,138.308 760.223,137.937 759.781,137.707C759.344,137.472 758.836,137.371 758.191,137.301C758.676,136.867 759.023,136.484 759.238,136.043C759.457,135.59 759.539,135.082 759.523,134.375C759.512,133.672 759.383,132.777 759.238,131.562C759.098,130.347 758.926,128.804 758.926,126.816C757.441,126.816 756.301,127.012 755.422,127.379C754.547,127.738 753.93,128.265 753.488,128.879C753.047,129.488 752.773,130.183 752.578,130.883C752.387,131.578 752.266,132.269 752.109,132.898C751.785,134.187 751.727,135.156 751.379,136.207C751.207,136.73 750.977,137.285 750.613,137.937C750.254,138.586 749.773,139.328 749.137,140.258C750.195,140.633 751.02,140.953 751.688,141.277C752.355,141.597 752.871,141.914 753.324,142.246C754.223,142.902 754.867,143.64 755.941,144.418C757.043,145.222 758.191,146.285 759.645,146.73C760.363,146.945 761.16,147.008 762.031,146.812C762.906,146.617 763.859,146.16 764.941,145.363L764.941,145.347Z" style="fill:none;fill-rule:nonzero;stroke:rgb(35,31,32);stroke-width:0.435px;"/>
        </g>
        <g transform="matrix(4.16667,0,0,-4.16667,-1554.08,2192.42)">
            <path d="M780.719,123.34C778.836,122.727 777.426,122.078 776.316,121.57C775.207,121.051 774.398,120.656 773.73,120.422C773.07,120.192 772.551,120.106 772.059,120.176C771.562,120.242 771.098,120.453 770.527,120.781C770.664,120.145 770.723,119.637 770.633,119.141C770.543,118.652 770.309,118.188 769.883,117.625C769.453,117.063 768.824,116.418 767.992,115.516C767.16,114.617 766.109,113.469 764.941,111.863C763.734,112.742 762.93,113.567 762.434,114.379C761.941,115.188 761.754,115.977 761.754,116.727C761.754,117.481 761.949,118.195 762.195,118.879C762.449,119.551 762.758,120.192 763.004,120.789C763.5,122.02 764.016,122.836 764.363,123.895C764.535,124.418 764.672,125.012 764.762,125.738C764.852,126.477 764.902,127.36 764.926,128.477C766.004,128.156 766.859,127.938 767.586,127.801C768.316,127.668 768.922,127.621 769.484,127.621C770.602,127.621 771.555,127.84 772.883,127.848C774.246,127.848 775.809,128.043 777.234,127.547C777.945,127.301 778.621,126.887 779.211,126.211C779.805,125.539 780.309,124.606 780.719,123.332L780.719,123.34Z" style="fill:none;fill-rule:nonzero;stroke:rgb(35,31,32);stroke-width:0.435px;"/>
        </g>
        <g transform="matrix(4.16667,0,0,-4.16667,-1554.08,2110.1)">
            <path d="M800.227,103.582C798.344,104.191 796.824,104.496 795.621,104.738C794.422,104.969 793.531,105.129 792.855,105.328C792.18,105.531 791.715,105.766 791.355,106.109C790.996,106.453 790.738,106.906 790.477,107.496C790.207,106.906 789.953,106.453 789.594,106.109C789.234,105.766 788.766,105.523 788.094,105.328C787.418,105.129 786.523,104.969 785.324,104.738C784.125,104.496 782.602,104.191 780.719,103.582C780.254,105 780.098,106.141 780.164,107.086C780.238,108.031 780.547,108.781 780.988,109.387C781.434,109.996 782.012,110.469 782.617,110.863C783.219,111.262 783.848,111.594 784.395,111.93C785.527,112.633 786.426,112.988 787.32,113.641C787.77,113.961 788.219,114.359 788.73,114.898C789.238,115.441 789.797,116.121 790.477,117.016C791.16,116.121 791.723,115.441 792.234,114.906C792.742,114.367 793.207,113.977 793.656,113.648C794.566,112.996 795.457,112.613 796.539,111.832C797.641,111.035 799.012,110.273 799.883,109.027C800.316,108.41 800.617,107.676 800.699,106.785C800.781,105.891 800.648,104.844 800.227,103.566L800.227,103.582Z" style="fill:none;fill-rule:nonzero;stroke:rgb(35,31,32);stroke-width:0.435px;"/>
        </g>
        <g transform="matrix(4.16667,0,0,-4.16667,-1554.08,2192.42)">
            <path d="M816,111.863C814.828,113.469 813.781,114.617 812.949,115.516C812.109,116.418 811.484,117.063 811.059,117.625C810.629,118.18 810.398,118.652 810.309,119.141C810.219,119.629 810.277,120.145 810.414,120.781C809.852,120.461 809.379,120.242 808.883,120.176C808.387,120.106 807.879,120.184 807.211,120.422C806.551,120.656 805.738,121.051 804.621,121.57C803.512,122.086 802.102,122.727 800.219,123.34C800.676,124.758 801.219,125.778 801.832,126.496C802.449,127.219 803.137,127.645 803.859,127.879C804.578,128.11 805.32,128.149 806.039,128.117C806.762,128.086 807.457,127.981 808.102,127.938C809.43,127.84 810.367,127.602 811.477,127.602C812.031,127.602 812.633,127.652 813.359,127.793C814.086,127.93 814.941,128.156 816.016,128.477C816.039,127.352 816.098,126.477 816.195,125.738C816.293,125.004 816.434,124.414 816.609,123.879C816.953,122.817 817.453,121.981 817.867,120.723C818.289,119.426 818.953,118 818.926,116.492C818.91,115.735 818.73,114.969 818.273,114.199C817.816,113.426 817.086,112.66 816,111.871L816,111.863Z" style="fill:none;fill-rule:nonzero;stroke:rgb(35,31,32);stroke-width:0.435px;"/>
        </g>
        <g transform="matrix(4.16667,0,0,-4.16667,-1554.08,2331.29)">
            <path d="M822.023,126.652C822.023,128.648 821.852,130.184 821.707,131.402C821.559,132.617 821.438,133.508 821.422,134.215C821.406,134.918 821.488,135.43 821.707,135.879C821.926,136.328 822.27,136.703 822.758,137.137C822.113,137.207 821.602,137.309 821.168,137.543C820.734,137.777 820.359,138.145 819.961,138.719C819.562,139.297 819.137,140.094 818.543,141.164C817.941,142.23 817.176,143.582 816.008,145.184C817.207,146.063 818.242,146.574 819.164,146.797C820.086,147.023 820.898,146.965 821.609,146.723C822.328,146.492 822.953,146.086 823.516,145.637C824.078,145.184 824.586,144.691 825.082,144.277C826.102,143.422 826.719,142.68 827.617,142.027C828.066,141.699 828.586,141.391 829.254,141.074C829.922,140.762 830.746,140.438 831.809,140.07C831.172,139.148 830.699,138.398 830.348,137.746C829.996,137.094 829.762,136.531 829.59,135.996C829.246,134.934 829.156,133.965 828.75,132.707C828.328,131.406 828.023,129.871 827.113,128.664C826.656,128.063 826.059,127.547 825.234,127.191C824.406,126.84 823.363,126.645 822.031,126.645L822.023,126.652Z" style="fill:none;fill-rule:nonzero;stroke:rgb(35,31,32);stroke-width:0.435px;"/>
        </g>
        <g transform="matrix(4.16667,0,0,-4.16667,-1554.08,2500.31)">
            <path d="M816,148.679C817.164,150.285 817.934,151.632 818.535,152.699C819.129,153.773 819.555,154.566 819.953,155.144C820.352,155.722 820.727,156.089 821.16,156.32C821.594,156.554 822.105,156.66 822.75,156.726C822.262,157.16 821.918,157.543 821.699,157.988C821.484,158.437 821.398,158.945 821.414,159.652C821.43,160.355 821.559,161.25 821.699,162.464C821.844,163.679 822.016,165.222 822.016,167.211C823.5,167.211 824.641,167.015 825.516,166.648C826.395,166.289 827.012,165.765 827.453,165.148C827.895,164.543 828.164,163.843 828.359,163.148C828.555,162.449 828.676,161.757 828.832,161.129C829.156,159.839 829.223,158.871 829.559,157.82C829.734,157.296 829.965,156.742 830.324,156.089C830.684,155.445 831.156,154.703 831.801,153.773C830.746,153.398 829.922,153.074 829.254,152.75C828.586,152.429 828.066,152.113 827.617,151.785C826.719,151.125 826.074,150.39 825,149.609C823.898,148.808 822.75,147.742 821.297,147.3C820.574,147.082 819.781,147.023 818.91,147.218C818.031,147.41 817.078,147.871 816,148.664L816,148.679Z" style="fill:none;fill-rule:nonzero;stroke:rgb(35,31,32);stroke-width:0.435px;"/>
        </g>
        <g transform="matrix(4.16667,0,0,-4.16667,-1554.08,2639.85)">
            <path d="M800.227,170.692C802.109,171.309 803.52,171.953 804.629,172.461C805.738,172.981 806.551,173.379 807.219,173.61C807.879,173.852 808.395,173.926 808.891,173.86C809.387,173.789 809.852,173.582 810.422,173.25C810.285,173.887 810.227,174.399 810.316,174.895C810.398,175.379 810.629,175.844 811.066,176.407C811.492,176.969 812.121,177.614 812.953,178.516C813.789,179.414 814.836,180.563 816.008,182.168C817.207,181.289 818.016,180.465 818.512,179.657C819.008,178.844 819.195,178.059 819.195,177.309C819.195,176.551 819,175.836 818.754,175.157C818.496,174.481 818.191,173.844 817.941,173.243C817.449,172.012 816.93,171.196 816.586,170.137C816.414,169.614 816.277,169.028 816.188,168.293C816.098,167.559 816.047,166.672 816.023,165.555C814.941,165.879 814.086,166.094 813.359,166.231C812.633,166.364 812.023,166.411 811.461,166.411C810.344,166.411 809.391,166.192 808.066,166.184C806.699,166.184 805.141,165.989 803.715,166.485C803.004,166.735 802.328,167.145 801.734,167.821C801.141,168.496 800.641,169.426 800.227,170.7L800.227,170.692Z" style="fill:none;fill-rule:nonzero;stroke:rgb(35,31,32);stroke-width:0.435px;"/>
        </g>
        <g transform="matrix(4.16667,0,0,-4.16667,-1554.08,2722.25)">
            <path d="M780.719,190.469C782.602,189.863 784.125,189.547 785.324,189.316C786.523,189.082 787.418,188.926 788.094,188.723C788.766,188.527 789.234,188.289 789.594,187.941C789.953,187.598 790.207,187.148 790.477,186.555C790.738,187.148 791.004,187.598 791.355,187.941C791.715,188.289 792.18,188.527 792.855,188.723C793.531,188.926 794.422,189.082 795.621,189.316C796.824,189.555 798.344,189.863 800.227,190.469C800.691,189.051 800.852,187.914 800.781,186.969C800.707,186.023 800.398,185.273 799.957,184.664C799.516,184.059 798.938,183.586 798.328,183.188C797.73,182.789 797.102,182.461 796.551,182.113C795.422,181.41 794.52,181.059 793.629,180.406C793.176,180.082 792.727,179.684 792.219,179.145C791.715,178.605 791.152,177.922 790.477,177.031C789.797,177.922 789.234,178.605 788.723,179.137C788.211,179.676 787.746,180.066 787.297,180.391C786.391,181.043 785.496,181.426 784.418,182.203C783.316,183 781.934,183.766 781.074,185.012C780.637,185.625 780.336,186.359 780.254,187.254C780.172,188.145 780.316,189.195 780.727,190.469L780.719,190.469Z" style="fill:none;fill-rule:nonzero;stroke:rgb(35,31,32);stroke-width:0.435px;"/>
        </g>
        <g transform="matrix(4.16667,0,0,-4.16667,-1554.08,2639.78)">
            <path d="M764.941,182.152C766.109,180.547 767.16,179.398 767.992,178.5C768.832,177.598 769.453,176.953 769.883,176.391C770.309,175.836 770.543,175.363 770.633,174.879C770.723,174.391 770.664,173.871 770.527,173.234C771.09,173.559 771.562,173.773 772.059,173.844C772.551,173.91 773.062,173.836 773.73,173.594C774.398,173.363 775.207,172.965 776.316,172.445C777.426,171.93 778.836,171.293 780.719,170.676C780.262,169.258 779.723,168.238 779.109,167.519C778.492,166.801 777.801,166.371 777.082,166.141C776.363,165.906 775.621,165.871 774.898,165.898C774.18,165.93 773.484,166.035 772.828,166.078C771.504,166.176 770.566,166.418 769.453,166.418C768.898,166.418 768.301,166.363 767.574,166.23C766.844,166.086 765.988,165.863 764.918,165.547C764.895,166.672 764.836,167.551 764.738,168.285C764.641,169.019 764.496,169.613 764.324,170.145C763.98,171.211 763.477,172.043 763.066,173.301C762.645,174.598 761.977,176.023 762.008,177.539C762.023,178.297 762.203,179.062 762.66,179.836C763.117,180.605 763.844,181.371 764.934,182.16L764.941,182.152Z" style="fill:none;fill-rule:nonzero;stroke:rgb(35,31,32);stroke-width:0.435px;"/>
        </g>
        <g transform="matrix(4.16667,0,0,-4.16667,-1554.08,2501)">
            <path d="M758.926,167.383C758.926,165.395 759.098,163.852 759.238,162.637C759.391,161.422 759.512,160.528 759.523,159.825C759.547,159.118 759.457,158.61 759.238,158.161C759.023,157.708 758.676,157.333 758.191,156.891C758.844,156.825 759.344,156.719 759.781,156.485C760.223,156.254 760.59,155.887 760.988,155.309C761.387,154.731 761.812,153.938 762.406,152.864C763.004,151.797 763.77,150.45 764.941,148.844C763.738,147.965 762.703,147.458 761.781,147.231C760.859,147.008 760.051,147.067 759.336,147.305C758.617,147.54 757.996,147.946 757.434,148.395C756.871,148.844 756.359,149.34 755.863,149.751C754.844,150.606 754.23,151.348 753.328,152.001C752.879,152.333 752.363,152.637 751.695,152.954C751.027,153.27 750.203,153.59 749.137,153.958C749.773,154.883 750.246,155.633 750.602,156.286C750.953,156.938 751.184,157.501 751.359,158.032C751.703,159.098 751.793,160.063 752.199,161.333C752.617,162.629 752.926,164.165 753.84,165.376C754.297,165.973 754.898,166.493 755.723,166.844C756.547,167.196 757.59,167.391 758.926,167.391L758.926,167.383Z" style="fill:none;fill-rule:nonzero;stroke:rgb(35,31,32);stroke-width:0.435px;"/>
        </g>
        <g transform="matrix(4.16667,0,0,-4.16667,-1554.08,2243.79)">
            <path d="M796.484,120.719L812.461,120.719L809.129,124.465L796.492,124.465L796.492,128.207L804.422,128.145C804.422,128.145 797.25,131.949 792.719,131.949L792.719,120.719L796.492,120.719L796.484,120.719Z" style="fill:none;fill-rule:nonzero;stroke:rgb(35,31,32);stroke-width:0.435px;"/>
        </g>
        <g transform="matrix(4.16667,0,0,-4.16667,-1554.08,2243.79)">
            <path d="M768.996,120.719L788.176,120.719L788.176,131.949C783.645,131.949 776.477,128.145 776.477,128.145L784.402,128.207L784.402,124.465L771.953,124.465L768.996,120.719Z" style="fill:none;fill-rule:nonzero;stroke:rgb(35,31,32);stroke-width:0.435px;"/>
        </g>
        <g transform="matrix(4.16667,0,0,-4.16667,-1554.08,2562.24)">
            <path d="M800.746,169.788L792.75,156.066L797.684,157.054L804.008,167.913L807.27,166.046L803.25,159.269C803.25,159.269 810.156,163.527 812.422,167.413C805.828,171.183 802.621,173.031 802.621,173.031L800.73,169.788L800.746,169.788Z" style="fill:none;fill-rule:nonzero;stroke:rgb(35,31,32);stroke-width:0.435px;"/>
        </g>
        <g transform="matrix(4.16667,0,0,-4.16667,-1554.08,2416.6)">
            <path d="M812.941,140.82L809.684,142.683L816.27,154.035L814.477,158.445L806.414,144.55L806.398,144.55L804.512,141.316C804.512,141.316 807.719,139.48 814.312,135.699C816.578,139.593 816.84,147.656 816.84,147.656L812.934,140.816L812.941,140.82Z" style="fill:none;fill-rule:nonzero;stroke:rgb(35,31,32);stroke-width:0.435px;"/>
        </g>
        <g transform="matrix(4.16667,0,0,-4.16667,-1554.08,2562.18)">
            <path d="M780.344,170.18L778.695,173.023C778.695,173.023 775.477,171.184 768.891,167.406C771.156,163.512 778.066,159.258 778.066,159.258L774.047,166.039L777.324,167.914L783.637,157.047L788.574,156.059L780.359,170.187L780.344,170.18Z" style="fill:none;fill-rule:nonzero;stroke:rgb(35,31,32);stroke-width:0.435px;"/>
        </g>
        <g transform="matrix(4.16667,0,0,-4.16667,-1554.08,2416.51)">
            <path d="M774.914,144.543L774.879,144.519L766.836,158.43L765.047,154.019L771.578,142.637L768.383,140.805L764.477,147.644C764.477,147.644 764.738,139.582 767.004,135.691C773.594,139.465 776.805,141.309 776.805,141.309L774.914,144.547L774.914,144.543Z" style="fill:none;fill-rule:nonzero;stroke:rgb(35,31,32);stroke-width:0.435px;"/>
        </g>
        <g transform="matrix(-4.16667,0,0,-4.16667,5036.39,2355.26)">
            <path d="M777.891,139.711L803.82,139.711" style="fill:none;fill-rule:nonzero;stroke:rgb(35,31,32);stroke-width:0.435px;"/>
        </g>
        <g transform="matrix(4.16667,0,0,-4.16667,-1554.08,2448.82)">
            <path d="M790.852,139.711L803.82,162.164L777.891,162.164L790.852,139.711Z" style="fill:none;fill-rule:nonzero;stroke:rgb(35,31,32);stroke-width:0.435px;"/>
        </g>
        <g transform="matrix(0,4.16667,-4.16667,0,2715.15,-2202.4)">
            <circle cx="919.516" cy="105.098" r="6.3" style="fill:none;stroke:rgb(35,31,32);stroke-width:0.435px;"/>
        </g>
        <g transform="matrix(0,4.16667,-4.16667,0,3063.77,-1852.59)">
            <ellipse cx="919.373" cy="188.91" rx="6.301" ry="6.299" style="fill:none;stroke:rgb(35,31,32);stroke-width:0.435px;"/>
        </g>
        <g transform="matrix(0,4.16667,-4.16667,0,3141.33,-1365.09)">
            <ellipse cx="870.18" cy="256.717" rx="6.299" ry="6.3" style="fill:none;stroke:rgb(35,31,32);stroke-width:0.435px;"/>
        </g>
        <g transform="matrix(0,4.16667,-4.16667,0,2916.4,-926.962)">
            <circle cx="790.613" cy="282.301" r="6.301" style="fill:none;stroke:rgb(35,31,32);stroke-width:0.435px;"/>
        </g>
        <g transform="matrix(0,4.16667,-4.16667,0,2476.2,-702.712)">
            <circle cx="710.879" cy="256.387" r="6.301" style="fill:none;stroke:rgb(35,31,32);stroke-width:0.435px;"/>
        </g>
        <g transform="matrix(0,4.16667,-4.16667,0,1993.02,-782.148)">
            <ellipse cx="662.43" cy="188.873" rx="6.299" ry="6.3" style="fill:none;stroke:rgb(35,31,32);stroke-width:0.435px;"/>
        </g>
        <g transform="matrix(0,4.16667,-4.16667,0,1641.33,-1125.21)">
            <ellipse cx="661.395" cy="105.502" rx="6.299" ry="6.3" style="fill:none;stroke:rgb(35,31,32);stroke-width:0.435px;"/>
        </g>
        <g transform="matrix(0,4.16667,-4.16667,0,1567.46,-1613.9)">
            <circle cx="711.172" cy="37.996" r="6.301" style="fill:none;stroke:rgb(35,31,32);stroke-width:0.435px;"/>
        </g>
        <g transform="matrix(0,4.16667,-4.16667,0,1786.7,-2054.97)">
            <ellipse cx="790.41" cy="11.377" rx="6.299" ry="6.301" style="fill:none;stroke:rgb(35,31,32);stroke-width:0.435px;"/>
        </g>
        <g transform="matrix(0,4.16667,-4.16667,0,2226.71,-2278.34)">
            <ellipse cx="870.016" cy="37.373" rx="6.299" ry="6.3" style="fill:none;stroke:rgb(35,31,32);stroke-width:0.435px;"/>
        </g>
        <g transform="matrix(0.00793764,4.16667,-4.16667,0.00793764,1951.75,-1886.41)">
            <circle cx="789.881" cy="52.92" r="33.721" style="fill:none;stroke:rgb(35,31,32);stroke-width:0.435px;"/>
        </g>
        <g transform="matrix(0,4.16667,-4.16667,0,2263.58,-2046.97)">
            <circle cx="846.675" cy="69.563" r="33.351" style="fill:none;stroke:rgb(35,31,32);stroke-width:0.435px;"/>
        </g>
        <g transform="matrix(0,4.16667,-4.16667,0,2606.36,-1994.49)">
            <circle cx="881.512" cy="116.992" r="33.352" style="fill:none;stroke:rgb(35,31,32);stroke-width:0.435px;"/>
        </g>
        <g transform="matrix(0,4.16667,-4.16667,0,2853.42,-1744.37)">
            <ellipse cx="881.144" cy="176.655" rx="33.721" ry="33.719" style="fill:none;stroke:rgb(35,31,32);stroke-width:0.435px;"/>
        </g>
        <g transform="matrix(0,4.16667,-4.16667,0,2907.45,-1400.03)">
            <ellipse cx="846.306" cy="224.459" rx="33.721" ry="33.72" style="fill:none;stroke:rgb(35,31,32);stroke-width:0.435px;"/>
        </g>
        <g transform="matrix(0,4.16667,-4.16667,0,2749.95,-1088.15)">
            <ellipse cx="789.983" cy="242.984" rx="32.976" ry="32.978" style="fill:none;stroke:rgb(35,31,32);stroke-width:0.435px;"/>
        </g>
        <g transform="matrix(0,4.16667,-4.16667,0,2441.15,-933.712)">
            <ellipse cx="734.392" cy="224.46" rx="33.351" ry="33.353" style="fill:none;stroke:rgb(35,31,32);stroke-width:0.435px;"/>
        </g>
        <g transform="matrix(0,4.16667,-4.16667,0,2096.81,-989.329)">
            <ellipse cx="699.747" cy="176.467" rx="32.978" ry="32.981" style="fill:none;stroke:rgb(35,31,32);stroke-width:0.435px;"/>
        </g>
        <g transform="matrix(0,4.16667,-4.16667,0,1849.77,-1234.84)">
            <circle cx="699.563" cy="117.36" r="33.719" style="fill:none;stroke:rgb(35,31,32);stroke-width:0.435px;"/>
        </g>
        <g transform="matrix(0,4.16667,-4.16667,0,1795.74,-1576.06)">
            <ellipse cx="734.026" cy="69.929" rx="32.976" ry="32.979" style="fill:none;stroke:rgb(35,31,32);stroke-width:0.435px;"/>
        </g>
        <g transform="matrix(-3.00167,2.88983,-2.88983,-3.00167,4428.91,632.586)">
            <path d="M703.21,222.426L786.736,222.426" style="fill:none;fill-rule:nonzero;stroke:rgb(35,31,32);stroke-width:0.435px;"/>
        </g>
        <g transform="matrix(-1.8065,3.75468,-3.75468,-1.8065,3625.02,-285.052)">
            <path d="M691.055,213.538L774.609,213.538" style="fill:none;fill-rule:nonzero;stroke:rgb(35,31,32);stroke-width:0.435px;"/>
        </g>
        <g transform="matrix(0.762783,4.09625,-4.09625,0.762783,2072.2,-1216.49)">
            <path d="M740.889,234.765L824.744,234.765" style="fill:none;fill-rule:nonzero;stroke:rgb(35,31,32);stroke-width:0.435px;"/>
        </g>
        <g transform="matrix(-0.752076,4.09823,-4.09823,-0.752076,3333.77,-925.61)">
            <path d="M756.321,234.705L840.011,234.705" style="fill:none;fill-rule:nonzero;stroke:rgb(35,31,32);stroke-width:0.435px;"/>
        </g>
        <g transform="matrix(3.01102,2.88009,-2.88009,3.01102,52.9524,-959.954)">
            <path d="M794.168,222.485L878.055,222.485" style="fill:none;fill-rule:nonzero;stroke:rgb(35,31,32);stroke-width:0.435px;"/>
        </g>
        <g transform="matrix(1.82117,3.74759,-3.74759,1.82117,1235.46,-1486.37)">
            <path d="M806.027,213.563L890.145,213.563" style="fill:none;fill-rule:nonzero;stroke:rgb(35,31,32);stroke-width:0.435px;"/>
        </g>
        <g transform="matrix(4.12841,0.563334,-0.563334,4.12841,-1418.57,707.021)">
            <path d="M829.347,181.366L913.571,181.366" style="fill:none;fill-rule:nonzero;stroke:rgb(35,31,32);stroke-width:0.435px;"/>
        </g>
        <g transform="matrix(-3.67977,-1.95459,1.95459,-3.67977,4994.86,4214.63)">
            <path d="M834.353,167.071L918.159,167.07" style="fill:none;fill-rule:nonzero;stroke:rgb(35,31,32);stroke-width:0.435px;"/>
        </g>
        <g transform="matrix(3.66268,-1.98643,1.98643,3.66268,-1365.35,2995.92)">
            <path d="M834.185,127.328L918.448,127.328" style="fill:none;fill-rule:nonzero;stroke:rgb(35,31,32);stroke-width:0.435px;"/>
        </g>
        <g transform="matrix(-4.12822,0.564709,-0.564709,-4.12822,5739.73,1633.2)">
            <path d="M829.635,112.651L913.654,112.651" style="fill:none;fill-rule:nonzero;stroke:rgb(35,31,32);stroke-width:0.435px;"/>
        </g>
        <g transform="matrix(3.01557,-2.87532,2.87532,3.01557,-797.937,3676.84)">
            <path d="M793.966,71.65L877.749,71.65" style="fill:none;fill-rule:nonzero;stroke:rgb(35,31,32);stroke-width:0.435px;"/>
        </g>
        <g transform="matrix(1.8057,-3.75507,3.75507,1.8057,146.171,4566.13)">
            <path d="M806.334,80.51L890.061,80.509" style="fill:none;fill-rule:nonzero;stroke:rgb(35,31,32);stroke-width:0.435px;"/>
        </g>
        <g transform="matrix(-0.731213,-4.102,4.102,-0.731213,2111.32,4754.98)">
            <path d="M756.015,59.302L840.043,59.303" style="fill:none;fill-rule:nonzero;stroke:rgb(35,31,32);stroke-width:0.435px;"/>
        </g>
        <g transform="matrix(0.742549,-4.09997,4.09997,0.742549,883.992,4603.64)">
            <path d="M740.852,59.201L824.976,59.201" style="fill:none;fill-rule:nonzero;stroke:rgb(35,31,32);stroke-width:0.435px;"/>
        </g>
        <g transform="matrix(-3.01158,-2.8795,2.8795,-3.01158,3588.61,3852.32)">
            <path d="M703.589,71.804L786.872,71.804" style="fill:none;fill-rule:nonzero;stroke:rgb(35,31,32);stroke-width:0.435px;"/>
        </g>
        <g transform="matrix(-1.78716,-3.76393,3.76393,-1.78716,2504.98,4430.78)">
            <path d="M691.143,80.843L774.584,80.843" style="fill:none;fill-rule:nonzero;stroke:rgb(35,31,32);stroke-width:0.435px;"/>
        </g>
        <g transform="matrix(-4.12647,-0.577351,0.577351,-4.12647,4262,2535.62)">
            <path d="M667.185,112.766L751.139,112.766" style="fill:none;fill-rule:nonzero;stroke:rgb(35,31,32);stroke-width:0.435px;"/>
        </g>
        <g transform="matrix(3.66742,1.97766,-1.97766,3.66742,-950.929,-138.855)">
            <path d="M662.468,127.125L746.595,127.125" style="fill:none;fill-rule:nonzero;stroke:rgb(35,31,32);stroke-width:0.435px;"/>
        </g>
        <g transform="matrix(-3.66623,1.97986,-1.97986,-3.66623,4298.19,1102.55)">
            <path d="M663.386,166.893L746.524,166.893" style="fill:none;fill-rule:nonzero;stroke:rgb(35,31,32);stroke-width:0.435px;"/>
        </g>
        <g transform="matrix(4.13074,-0.545998,0.545998,4.13074,-1627.6,1584.98)">
            <path d="M668.056,181.361L751.198,181.361" style="fill:none;fill-rule:nonzero;stroke:rgb(35,31,32);stroke-width:0.435px;"/>
        </g>
        <g transform="matrix(-1.94694,3.68382,-3.68382,-1.94694,3953.98,-415.229)">
            <path d="M748.645,205.525L805.574,205.525" style="fill:none;fill-rule:nonzero;stroke:rgb(35,31,32);stroke-width:0.435px;"/>
        </g>
        <g transform="matrix(-0.540784,4.13142,-4.13142,-0.540784,2894.2,-1026.68)">
            <path d="M738.878,202.354L795.825,202.354" style="fill:none;fill-rule:nonzero;stroke:rgb(35,31,32);stroke-width:0.435px;"/>
        </g>
        <g transform="matrix(2.00607,3.65196,-3.65196,2.00607,933.81,-1302.16)">
            <path d="M775.658,205.439L832.815,205.439" style="fill:none;fill-rule:nonzero;stroke:rgb(35,31,32);stroke-width:0.435px;"/>
        </g>
        <g transform="matrix(0.568089,4.12776,-4.12776,0.568089,2210.06,-1442.28)">
            <path d="M785.638,202.125L842.679,202.125" style="fill:none;fill-rule:nonzero;stroke:rgb(35,31,32);stroke-width:0.435px;"/>
        </g>
        <g transform="matrix(3.76112,1.79308,-1.79308,3.76112,-881.256,-232.731)">
            <path d="M807.526,186.123L864.705,186.123" style="fill:none;fill-rule:nonzero;stroke:rgb(35,31,32);stroke-width:0.435px;"/>
        </g>
        <g transform="matrix(2.90213,2.98978,-2.98978,2.90213,42.179,-1101.46)">
            <path d="M813.301,177.791L870.629,177.791" style="fill:none;fill-rule:nonzero;stroke:rgb(35,31,32);stroke-width:0.435px;"/>
        </g>
        <g transform="matrix(4.0973,-0.757107,0.757107,4.0973,-1610.16,1845.25)">
            <path d="M821.522,151.969L878.923,151.969" style="fill:none;fill-rule:nonzero;stroke:rgb(35,31,32);stroke-width:0.435px;"/>
        </g>
        <g transform="matrix(-4.10654,-0.705275,0.705275,-4.10654,5380.57,2962.89)">
            <path d="M821.725,141.686L878.842,141.686" style="fill:none;fill-rule:nonzero;stroke:rgb(35,31,32);stroke-width:0.435px;"/>
        </g>
        <g transform="matrix(2.8571,-3.03284,3.03284,2.8571,-803.29,3896.03)">
            <path d="M813.132,115.954L870.555,115.954" style="fill:none;fill-rule:nonzero;stroke:rgb(35,31,32);stroke-width:0.435px;"/>
        </g>
        <g transform="matrix(-3.74412,1.82829,-1.82829,-3.74412,5253.38,513.088)">
            <path d="M807.066,107.446L864.325,107.445" style="fill:none;fill-rule:nonzero;stroke:rgb(35,31,32);stroke-width:0.435px;"/>
        </g>
        <g transform="matrix(1.96473,-3.67436,3.67436,1.96473,-109.513,4339.35)">
            <path d="M775.232,88.537L832.334,88.537" style="fill:none;fill-rule:nonzero;stroke:rgb(35,31,32);stroke-width:0.435px;"/>
        </g>
        <g transform="matrix(0.540187,-4.1315,4.1315,0.540187,1018.02,4884.98)">
            <path d="M785.128,91.643L842.192,91.643" style="fill:none;fill-rule:nonzero;stroke:rgb(35,31,32);stroke-width:0.435px;"/>
        </g>
        <g transform="matrix(-1.97803,-3.66722,3.66722,-1.97803,2893.31,4583.66)">
            <path d="M748.025,88.609L805.295,88.609" style="fill:none;fill-rule:nonzero;stroke:rgb(35,31,32);stroke-width:0.435px;"/>
        </g>
        <g transform="matrix(-0.578245,-4.12635,4.12635,-0.578245,1705.91,4790.78)">
            <path d="M738.19,91.773L795.525,91.773" style="fill:none;fill-rule:nonzero;stroke:rgb(35,31,32);stroke-width:0.435px;"/>
        </g>
        <g transform="matrix(-3.76172,-1.79182,1.79182,-3.76172,4160.3,3382.18)">
            <path d="M716.769,107.967L773.531,107.967" style="fill:none;fill-rule:nonzero;stroke:rgb(35,31,32);stroke-width:0.435px;"/>
        </g>
        <g transform="matrix(-2.87502,-3.01585,3.01585,-2.87502,3299.04,4239.95)">
            <path d="M710.639,116.451L767.505,116.451" style="fill:none;fill-rule:nonzero;stroke:rgb(35,31,32);stroke-width:0.435px;"/>
        </g>
        <g transform="matrix(-4.09992,0.742811,-0.742811,-4.09992,4590.59,1823.68)">
            <path d="M701.933,142.178L759.142,142.178" style="fill:none;fill-rule:nonzero;stroke:rgb(35,31,32);stroke-width:0.435px;"/>
        </g>
        <g transform="matrix(4.10205,0.730949,-0.730949,4.10205,-1395.43,666.82)">
            <path d="M701.938,152.455L759.273,152.455" style="fill:none;fill-rule:nonzero;stroke:rgb(35,31,32);stroke-width:0.435px;"/>
        </g>
        <g transform="matrix(-2.86235,3.02788,-3.02788,-2.86235,4182.18,204.265)">
            <path d="M711.026,178.111L767.689,178.111" style="fill:none;fill-rule:nonzero;stroke:rgb(35,31,32);stroke-width:0.435px;"/>
        </g>
        <g transform="matrix(3.75237,-1.8113,1.8113,3.75237,-1583.01,2618.53)">
            <path d="M717.136,186.481L773.801,186.481" style="fill:none;fill-rule:nonzero;stroke:rgb(35,31,32);stroke-width:0.435px;"/>
        </g>
        <g transform="matrix(-2.81835,3.06888,-3.06888,-2.81835,4659.04,95.4134)">
            <path d="M784.492,196.098L822.18,196.098" style="fill:none;fill-rule:nonzero;stroke:rgb(35,31,32);stroke-width:0.435px;"/>
        </g>
        <g transform="matrix(-3.77895,-1.75519,1.75519,-3.77895,4083.51,3890.21)">
            <path d="M729.482,174.463L766.639,174.463" style="fill:none;fill-rule:nonzero;stroke:rgb(35,31,32);stroke-width:0.435px;"/>
        </g>
        <g transform="matrix(-1.9636,-3.67497,3.67497,-1.9636,2454.19,4795.91)">
            <path d="M721.836,144.244L758.804,144.244" style="fill:none;fill-rule:nonzero;stroke:rgb(35,31,32);stroke-width:0.435px;"/>
        </g>
        <g transform="matrix(0.491012,-4.13763,4.13763,0.491012,730.768,4722.46)">
            <path d="M732.656,115.132L769.781,115.132" style="fill:none;fill-rule:nonzero;stroke:rgb(35,31,32);stroke-width:0.435px;"/>
        </g>
        <g transform="matrix(2.86879,-3.02178,3.02178,2.86879,-842.328,3668.51)">
            <path d="M759.243,98.445L795.956,98.445" style="fill:none;fill-rule:nonzero;stroke:rgb(35,31,32);stroke-width:0.435px;"/>
        </g>
        <g transform="matrix(4.09497,-0.769623,0.769623,4.09497,-1573.13,1820.61)">
            <path d="M790.097,100.104L827.383,100.104" style="fill:none;fill-rule:nonzero;stroke:rgb(35,31,32);stroke-width:0.435px;"/>
        </g>
        <g transform="matrix(3.76047,1.79442,-1.79442,3.76047,-1000.6,-255.111)">
            <path d="M814.351,119.877L851.712,119.877" style="fill:none;fill-rule:nonzero;stroke:rgb(35,31,32);stroke-width:0.435px;"/>
        </g>
        <g transform="matrix(1.94861,3.68294,-3.68294,1.94861,861.962,-1572.07)">
            <path d="M822.097,149.832L858.848,149.832" style="fill:none;fill-rule:nonzero;stroke:rgb(35,31,32);stroke-width:0.435px;"/>
        </g>
        <g transform="matrix(2.82112,3.06633,-3.06633,2.82112,93.9663,-929.837)">
            <path d="M758.923,196.181L796.561,196.181" style="fill:none;fill-rule:nonzero;stroke:rgb(35,31,32);stroke-width:0.435px;"/>
        </g>
        <g transform="matrix(1.98258,-3.66477,3.66477,1.98258,-487.307,4231.19)">
            <path d="M721.483,150.026L758.837,150.026" style="fill:none;fill-rule:nonzero;stroke:rgb(35,31,32);stroke-width:0.435px;"/>
        </g>
        <g transform="matrix(3.75359,-1.80877,1.80877,3.75359,-1461.73,2593.98)">
            <path d="M729.892,119.832L766.675,119.832" style="fill:none;fill-rule:nonzero;stroke:rgb(35,31,32);stroke-width:0.435px;"/>
        </g>
        <g transform="matrix(4.09436,0.772886,-0.772886,4.09436,-1420.91,601.659)">
            <path d="M753.187,100.078L790.591,100.078" style="fill:none;fill-rule:nonzero;stroke:rgb(35,31,32);stroke-width:0.435px;"/>
        </g>
        <g transform="matrix(2.89276,2.99884,-2.99884,2.89276,-235.392,-1092.43)">
            <path d="M784.721,98.498L821.838,98.498" style="fill:none;fill-rule:nonzero;stroke:rgb(35,31,32);stroke-width:0.435px;"/>
        </g>
        <g transform="matrix(0.530679,4.13273,-4.13273,0.530679,1938.01,-1818.67)">
            <path d="M811.011,115.14L848.094,115.14" style="fill:none;fill-rule:nonzero;stroke:rgb(35,31,32);stroke-width:0.435px;"/>
        </g>
        <g transform="matrix(-2.03304,3.63701,-3.63701,-2.03304,4184.16,-973.092)">
            <path d="M822.401,144.263L859.467,144.264" style="fill:none;fill-rule:nonzero;stroke:rgb(35,31,32);stroke-width:0.435px;"/>
        </g>
        <g transform="matrix(-3.74256,1.83149,-1.83149,-3.74256,5350.01,1043.83)">
            <path d="M814.256,174.188L850.904,174.188" style="fill:none;fill-rule:nonzero;stroke:rgb(35,31,32);stroke-width:0.435px;"/>
        </g>
        <g transform="matrix(-4.09707,-0.758379,0.758379,-4.09707,4979.73,3406.13)">
            <path d="M790.155,193.861L826.747,193.861" style="fill:none;fill-rule:nonzero;stroke:rgb(35,31,32);stroke-width:0.435px;"/>
        </g>
        <g transform="matrix(-0.607354,4.12216,-4.12216,-0.607354,3141.31,-1373.68)">
            <path d="M810.707,178.75L847.664,178.75" style="fill:none;fill-rule:nonzero;stroke:rgb(35,31,32);stroke-width:0.435px;"/>
        </g>
        <g transform="matrix(-4.0947,0.771078,-0.771078,-4.0947,4975.05,2198.13)">
            <path d="M753.715,193.983L790.715,193.983" style="fill:none;fill-rule:nonzero;stroke:rgb(35,31,32);stroke-width:0.435px;"/>
        </g>
        <g transform="matrix(-0.531358,-4.13265,4.13265,-0.531358,1236.13,5137.95)">
            <path d="M732.726,179.103L770.192,179.104" style="fill:none;fill-rule:nonzero;stroke:rgb(35,31,32);stroke-width:0.435px;"/>
        </g>
    </g>
</svg>
