<?xml version="1.0" encoding="UTF-8" standalone="no"?><!DOCTYPE svg PUBLIC "-//W3C//DTD SVG 1.1//EN" "http://www.w3.org/Graphics/SVG/1.1/DTD/svg11.dtd"><svg width="100%" height="100%" viewBox="0 0 3675 3855" version="1.1" xmlns="http://www.w3.org/2000/svg" xmlns:xlink="http://www.w3.org/1999/xlink" xml:space="preserve" xmlns:serif="http://www.serif.com/" style="fill-rule:evenodd;clip-rule:evenodd;stroke-miterlimit:10;"><path d="M3085.16,2325.963l-849.974,-115.911l-0.26,0.534l374.414,770.664l-0.417,0.846l-617.5,-590.586l-0.82,0.547l-153.854,838.451l-1.263,1.263l-156.315,-839.727l-0.82,-0.807l-612.93,590.013l-1.68,-2.096l368.958,-766.953l-1.081,0.273l-839.518,110.951l-0.417,-1.667l745.13,-402.344l0.273,-0.547l-754.232,-406.693l0.846,-2.109l846.836,118.464l0.247,-0.534l-364.531,-767.773l1.68,-1.263l613.112,586.211l0.924,0.104l152.682,-843.151l2.513,1.263l150.208,842.604l1.354,-1.081l617.656,-588.893l1.68,0.417l-369.609,768.581l-0.273,1.094l847.826,-116.042l0.846,2.943l-754.44,409.128l-0.247,0l753.841,400.456" style="fill:none;fill-rule:nonzero;stroke:#f7da5e;stroke-width:6.51px;"/><path d="M2731.397,1915.458l-574.935,106.237l-0.052,0.404l406.719,419.023l-0.104,0.625l-525.651,-250.612l-0.417,0.534l79.206,575.573l-0.547,1.081l-280.273,-510.247l-0.69,-0.339l-270.938,512.656l-1.536,-1.003l75.26,-575.169l-0.625,0.417l-519.779,250.859l-0.625,-1.003l396.536,-419.349l0.052,-0.404l-574.961,-102.422l0.091,-1.536l573.424,-103.919l0.078,-0.404l-399.727,-419.258l0.833,-1.185l521.901,248.724l0.599,-0.13l-80.964,-578.346l1.901,0.273l276.94,513.411l0.638,-1.003l274.232,-512.93l1.185,-0.091l-75.352,576.354l0.052,0.768l524.076,-255.924l1.185,1.732l-401.12,425.716l-0.182,0.052l573.385,98.464" style="fill:none;fill-rule:nonzero;stroke:#f7da5e;stroke-width:6.51px;"/><path d="M1575.277,1729.276c-11.875,16.367 -19.688,30.104 -25.781,40.977c-6.068,10.911 -10.391,19.01 -14.466,24.909c-4.036,5.911 -7.812,9.622 -12.292,12.005c-4.466,2.383 -9.596,3.424 -16.198,4.128c4.922,4.466 8.464,8.32 10.677,12.878c2.227,4.557 3.086,9.779 2.904,16.927c-0.169,7.174 -1.432,16.25 -2.943,28.646c-1.445,12.396 -3.19,28.112 -3.216,48.398c-15.156,0 -26.745,-1.992 -35.677,-5.703c-8.945,-3.685 -15.221,-9.023 -19.74,-15.247c-4.505,-6.237 -7.24,-13.294 -9.219,-20.365c-1.979,-7.096 -3.203,-14.18 -4.818,-20.573c-3.281,-13.151 -3.932,-22.982 -7.422,-33.711c-1.732,-5.378 -4.167,-11.016 -7.799,-17.604c-3.633,-6.615 -8.516,-14.18 -15.039,-23.607c10.807,-3.802 19.18,-7.122 25.99,-10.404c6.823,-3.281 12.096,-6.497 16.693,-9.87c9.193,-6.706 15.742,-14.193 26.667,-22.135c11.224,-8.164 22.956,-19.062 37.708,-23.516c7.357,-2.24 15.404,-2.865 24.297,-0.846c8.919,2.005 18.659,6.68 29.674,14.714Z" style="fill:none;fill-rule:nonzero;stroke:#f7da5e;stroke-width:6.51px;"/><path d="M1735.977,1612.412c-19.18,6.263 -33.555,12.799 -44.883,18.034c-11.302,5.273 -19.557,9.31 -26.341,11.693c-6.732,2.409 -11.992,3.203 -16.992,2.513c-5.039,-0.69 -9.818,-2.852 -15.573,-6.159c1.38,6.497 1.966,11.706 1.081,16.706c-0.885,4.987 -3.255,9.74 -7.643,15.417c-4.362,5.703 -10.742,12.331 -19.245,21.471c-8.49,9.18 -19.193,20.859 -31.107,37.188c-12.253,-8.893 -20.443,-17.331 -25.495,-25.586c-5.052,-8.242 -6.992,-16.263 -6.966,-23.945c0.013,-7.682 1.966,-15.013 4.544,-21.901c2.565,-6.888 5.755,-13.333 8.216,-19.44c5.078,-12.565 10.326,-20.898 13.802,-31.628c1.771,-5.365 3.112,-11.341 4.049,-18.815c0.924,-7.487 1.419,-16.471 1.68,-27.904c10.964,3.268 19.688,5.495 27.135,6.836c7.422,1.354 13.568,1.836 19.284,1.81c11.38,-0.026 21.068,-2.253 34.57,-2.292c13.893,-0.013 29.779,-1.966 44.349,3.086c7.266,2.5 14.141,6.719 20.143,13.594c6.029,6.849 11.185,16.354 15.391,29.323Z" style="fill:none;fill-rule:nonzero;stroke:#f7da5e;stroke-width:6.51px;"/><path d="M1934.66,1612.412c-19.206,-6.198 -34.661,-9.349 -46.901,-11.771c-12.253,-2.37 -21.315,-3.958 -28.203,-6.003c-6.875,-2.031 -11.602,-4.466 -15.26,-7.982c-3.672,-3.503 -6.263,-8.06 -8.984,-14.128c-2.721,6.068 -5.312,10.625 -8.971,14.128c-3.672,3.516 -8.385,5.951 -15.26,7.982c-6.901,2.044 -15.964,3.633 -28.203,6.003c-12.24,2.422 -27.708,5.573 -46.901,11.771c-4.701,-14.401 -6.393,-26.042 -5.612,-35.677c0.729,-9.648 3.88,-17.266 8.411,-23.464c4.531,-6.224 10.43,-11.003 16.562,-15.052c6.12,-4.062 12.487,-7.383 18.086,-10.885c11.523,-7.161 20.664,-10.807 29.792,-17.422c4.583,-3.294 9.18,-7.331 14.349,-12.826c5.143,-5.508 10.82,-12.461 17.747,-21.576c6.927,9.115 12.669,16.029 17.891,21.497c5.208,5.456 9.909,9.466 14.531,12.786c9.219,6.667 18.372,10.573 29.31,18.49c11.263,8.138 25.26,15.885 34.089,28.529c4.401,6.289 7.487,13.75 8.32,22.826c0.859,9.102 -0.56,19.805 -4.792,32.773Z" style="fill:none;fill-rule:nonzero;stroke:#f7da5e;stroke-width:6.51px;"/><path d="M2095.347,1729.276c-11.927,-16.328 -22.604,-28.008 -31.081,-37.188c-8.516,-9.141 -14.909,-15.768 -19.258,-21.471c-4.375,-5.69 -6.758,-10.43 -7.643,-15.417c-0.885,-5 -0.299,-10.208 1.081,-16.706c-5.768,3.307 -10.56,5.469 -15.547,6.159c-5.039,0.69 -10.286,-0.104 -17.044,-2.513c-6.758,-2.383 -15,-6.419 -26.328,-11.693c-11.315,-5.234 -25.69,-11.771 -44.87,-18.034c4.674,-14.414 10.143,-24.831 16.432,-32.174c6.25,-7.37 13.281,-11.68 20.612,-14.049c7.292,-2.357 14.87,-2.76 22.214,-2.435c7.344,0.312 14.453,1.367 21.042,1.81c13.516,0.964 23.086,3.411 34.349,3.411c5.638,0.013 11.745,-0.521 19.154,-1.94c7.396,-1.419 16.107,-3.711 27.07,-6.979c0.26,11.432 0.82,20.417 1.823,27.917c0.99,7.487 2.435,13.49 4.232,18.906c3.516,10.807 8.62,19.362 12.799,32.188c4.297,13.19 11.055,27.695 10.755,43.112c-0.143,7.695 -2.005,15.547 -6.667,23.385c-4.648,7.865 -12.083,15.69 -23.125,23.711Z" style="fill:none;fill-rule:nonzero;stroke:#f7da5e;stroke-width:6.51px;"/><path d="M2156.662,1918.14c-0.026,-20.286 -1.758,-36.003 -3.229,-48.398c-1.484,-12.383 -2.76,-21.471 -2.93,-28.646c-0.182,-7.148 0.69,-12.37 2.904,-16.927c2.214,-4.544 5.755,-8.411 10.69,-12.878c-6.602,-0.703 -11.745,-1.745 -16.198,-4.128c-4.479,-2.383 -8.268,-6.094 -12.318,-12.005c-4.062,-5.885 -8.398,-13.997 -14.453,-24.896c-6.081,-10.885 -13.906,-24.622 -25.781,-40.99c12.24,-8.919 22.786,-14.128 32.201,-16.393c9.375,-2.279 17.604,-1.654 24.909,0.729c7.318,2.383 13.698,6.497 19.44,11.055c5.768,4.583 10.924,9.596 15.977,13.815c10.391,8.711 16.706,16.302 25.82,22.917c4.557,3.346 9.831,6.471 16.654,9.674c6.836,3.216 15.221,6.458 26.016,10.273c-6.497,9.414 -11.328,17.031 -14.909,23.672c-3.594,6.667 -5.951,12.37 -7.695,17.799c-3.516,10.833 -4.414,20.729 -8.581,33.581c-4.284,13.203 -7.383,28.906 -16.706,41.198c-4.622,6.12 -10.768,11.354 -19.154,14.974c-8.385,3.62 -19.01,5.573 -32.656,5.573Z" style="fill:none;fill-rule:nonzero;stroke:#f7da5e;stroke-width:6.51px;"/><path d="M2095.347,2106.988c11.875,-16.367 19.701,-30.104 25.781,-40.977c6.055,-10.911 10.391,-19.01 14.453,-24.896c4.049,-5.911 7.826,-9.622 12.318,-12.005c4.453,-2.396 9.596,-3.438 16.198,-4.141c-4.935,-4.44 -8.477,-8.307 -10.69,-12.878c-2.214,-4.531 -3.086,-9.766 -2.904,-16.914c0.169,-7.174 1.445,-16.263 2.93,-28.659c1.471,-12.383 3.203,-28.099 3.229,-48.372c15.156,-0.026 26.758,1.966 35.677,5.69c8.945,3.672 15.221,9.023 19.74,15.247c4.518,6.224 7.24,13.281 9.219,20.365c1.992,7.083 3.203,14.18 4.818,20.573c3.294,13.151 3.945,22.995 7.435,33.698c1.745,5.378 4.154,11.016 7.799,17.617c3.633,6.602 8.516,14.18 15.013,23.594c-10.794,3.802 -19.154,7.122 -25.977,10.417c-6.81,3.268 -12.083,6.484 -16.693,9.857c-9.193,6.719 -15.742,14.193 -26.667,22.135c-11.224,8.177 -22.956,19.062 -37.708,23.529c-7.357,2.24 -15.391,2.865 -24.31,0.846c-8.893,-2.018 -18.633,-6.68 -29.661,-14.727Z" style="fill:none;fill-rule:nonzero;stroke:#f7da5e;stroke-width:6.51px;"/><path d="M1934.66,2223.863c19.18,-6.263 33.555,-12.799 44.87,-18.034c11.315,-5.286 19.57,-9.31 26.328,-11.706c6.758,-2.396 12.005,-3.203 17.031,-2.5c5,0.677 9.792,2.852 15.56,6.159c-1.38,-6.497 -1.979,-11.719 -1.081,-16.706c0.885,-4.987 3.268,-9.727 7.643,-15.43c4.349,-5.703 10.742,-12.318 19.258,-21.471c8.464,-9.154 19.154,-20.846 31.081,-37.188c12.253,8.906 20.456,17.331 25.495,25.599c5.065,8.242 6.992,16.25 6.966,23.932c0,7.695 -1.94,15.013 -4.544,21.888c-2.565,6.901 -5.742,13.346 -8.216,19.479c-5.065,12.552 -10.326,20.885 -13.802,31.602c-1.758,5.378 -3.112,11.341 -4.049,18.828c-0.924,7.474 -1.406,16.458 -1.68,27.904c-10.951,-3.268 -19.674,-5.495 -27.122,-6.836c-7.448,-1.341 -13.581,-1.836 -19.297,-1.81c-11.38,0.026 -21.068,2.253 -34.583,2.279c-13.88,0.026 -29.753,1.966 -44.323,-3.073c-7.279,-2.513 -14.141,-6.732 -20.156,-13.594c-6.042,-6.849 -11.172,-16.354 -15.378,-29.323Z" style="fill:none;fill-rule:nonzero;stroke:#f7da5e;stroke-width:6.51px;"/><path d="M1735.977,2223.863c19.193,6.185 34.661,9.362 46.901,11.758c12.24,2.383 21.302,3.971 28.203,6.016c6.875,2.005 11.589,4.453 15.247,7.969c3.672,3.503 6.263,8.073 8.984,14.128c2.721,-6.055 5.312,-10.625 8.971,-14.128c3.672,-3.516 8.398,-5.964 15.273,-7.969c6.888,-2.044 15.951,-3.633 28.203,-6.016c12.24,-2.396 27.695,-5.573 46.901,-11.758c4.688,14.401 6.38,26.042 5.612,35.677c-0.742,9.635 -3.88,17.266 -8.411,23.464c-4.544,6.211 -10.43,10.99 -16.562,15.039c-6.12,4.049 -12.5,7.383 -18.099,10.898c-11.51,7.161 -20.664,10.794 -29.792,17.409c-4.583,3.307 -9.18,7.344 -14.336,12.826c-5.143,5.508 -10.833,12.474 -17.76,21.576c-6.927,-9.102 -12.669,-16.029 -17.878,-21.484c-5.221,-5.482 -9.909,-9.479 -14.544,-12.799c-9.219,-6.667 -18.359,-10.56 -29.31,-18.477c-11.25,-8.125 -25.247,-15.898 -34.076,-28.529c-4.414,-6.289 -7.5,-13.75 -8.333,-22.839c-0.859,-9.089 0.573,-19.805 4.805,-32.76Z" style="fill:none;fill-rule:nonzero;stroke:#f7da5e;stroke-width:6.51px;"/><path d="M1575.277,2106.988c11.914,16.341 22.604,28.034 31.094,37.188c8.516,9.154 14.896,15.768 19.258,21.471c4.375,5.69 6.758,10.443 7.643,15.43c0.872,4.987 0.299,10.208 -1.081,16.706c5.755,-3.307 10.534,-5.482 15.56,-6.159c5.013,-0.703 10.26,0.104 17.005,2.5c6.784,2.396 15.026,6.432 26.341,11.706c11.315,5.221 25.703,11.771 44.883,18.034c-4.688,14.414 -10.143,24.805 -16.432,32.161c-6.263,7.37 -13.281,11.693 -20.599,14.062c-7.318,2.344 -14.896,2.747 -22.227,2.435c-7.344,-0.326 -14.466,-1.354 -21.055,-1.823c-13.503,-0.951 -23.073,-3.385 -34.349,-3.411c-5.625,-0.013 -11.745,0.521 -19.154,1.953c-7.396,1.406 -16.094,3.711 -27.07,6.992c-0.247,-11.458 -0.807,-20.443 -1.823,-27.917c-1.003,-7.5 -2.435,-13.503 -4.232,-18.932c-3.516,-10.82 -8.607,-19.349 -12.786,-32.174c-4.297,-13.203 -11.068,-27.708 -10.768,-43.125c0.13,-7.682 2.005,-15.534 6.68,-23.385c4.648,-7.852 12.083,-15.69 23.112,-23.711Z" style="fill:none;fill-rule:nonzero;stroke:#f7da5e;stroke-width:6.51px;"/><path d="M1513.962,1918.14c0.026,20.273 1.771,36.003 3.216,48.385c1.51,12.383 2.773,21.484 2.943,28.646c0.182,7.148 -0.677,12.37 -2.904,16.927c-2.214,4.557 -5.755,8.424 -10.677,12.865c6.602,0.703 11.732,1.758 16.198,4.141c4.479,2.396 8.255,6.107 12.292,12.018c4.076,5.872 8.398,13.984 14.466,24.883c6.094,10.872 13.906,24.622 25.781,40.977c-12.24,8.932 -22.786,14.141 -32.188,16.406c-9.388,2.279 -17.617,1.641 -24.935,-0.729c-7.292,-2.383 -13.672,-6.497 -19.427,-11.068c-5.755,-4.557 -10.924,-9.583 -15.977,-13.802c-10.391,-8.724 -16.693,-16.302 -25.82,-22.917c-4.557,-3.333 -9.831,-6.484 -16.654,-9.688c-6.823,-3.19 -15.221,-6.458 -26.029,-10.26c6.523,-9.414 11.328,-17.018 14.922,-23.672c3.607,-6.667 5.964,-12.357 7.695,-17.799c3.516,-10.833 4.414,-20.742 8.581,-33.568c4.297,-13.216 7.396,-28.919 16.706,-41.211c4.635,-6.133 10.781,-11.367 19.154,-14.974c8.398,-3.62 19.023,-5.573 32.656,-5.56Z" style="fill:none;fill-rule:nonzero;stroke:#f7da5e;stroke-width:6.51px;"/><path d="M1836.291,32.714l0,3789.544" style="fill:none;fill-rule:nonzero;stroke:#f7da5e;stroke-width:6.51px;"/><path d="M725.692,394.061l2227.422,3065.807" style="fill:none;fill-rule:nonzero;stroke:#f7da5e;stroke-width:6.51px;"/><path d="M37.381,1336.794l3604.062,1171.042" style="fill:none;fill-rule:nonzero;stroke:#f7da5e;stroke-width:6.51px;"/><path d="M32.714,2506.781l3604.062,-1171.029" style="fill:none;fill-rule:nonzero;stroke:#f7da5e;stroke-width:6.51px;"/><path d="M718.445,3460.379l2227.409,-3065.794" style="fill:none;fill-rule:nonzero;stroke:#f7da5e;stroke-width:6.51px;"/><path d="M2811.658,1923.711c0,-537.46 -436.349,-973.809 -973.809,-973.809c-537.46,0 -973.809,436.349 -973.809,973.809c0,537.46 436.349,973.809 973.809,973.809c537.46,0 973.809,-436.349 973.809,-973.809Z" style="fill:none;stroke:#f7da5e;stroke-width:6.51px;"/><path d="M3280.243,1921.122c0,-798.346 -646.029,-1444.375 -1444.401,-1444.375c-798.346,0 -1444.375,646.029 -1444.375,1444.375c0,798.385 646.029,1444.414 1444.375,1444.414c798.372,0 1444.401,-646.029 1444.401,-1444.414Z" style="fill:none;fill-rule:nonzero;stroke:#f7da5e;stroke-width:6.51px;"/><path d="M3017.881,1921.129c0,-652.377 -529.65,-1182.025 -1182.031,-1182.025c-652.381,0 -1182.031,529.648 -1182.031,1182.025c0,652.377 529.65,1182.025 1182.031,1182.025c652.381,0 1182.031,-529.648 1182.031,-1182.025Z" style="fill:none;stroke:#f7da5e;stroke-width:6.51px;"/><path d="M1835.846,2708.928c-435.13,0 -787.773,-352.63 -787.773,-787.799c0,-435.13 352.643,-787.773 787.773,-787.773c435.156,0 787.786,352.643 787.786,787.773c0,435.169 -352.63,787.799 -787.786,787.799Z" style="fill:none;fill-rule:nonzero;stroke:#f7da5e;stroke-width:6.51px;"/><path d="M1835.846,2446.553c-290.56,0 -525.43,-234.857 -525.43,-525.43c0,-290.547 234.87,-525.417 525.43,-525.417c290.56,0 525.443,234.87 525.443,525.417c0,290.573 -234.883,525.43 -525.443,525.43Z" style="fill:none;fill-rule:nonzero;stroke:#f7da5e;stroke-width:6.51px;"/><path d="M2230.108,1921.142c0,-217.593 -176.658,-394.251 -394.251,-394.251c-217.593,0 -394.251,176.658 -394.251,394.251c0,217.593 176.658,394.251 394.251,394.251c217.593,0 394.251,-176.658 394.251,-394.251Z" style="fill:none;stroke:#f7da5e;stroke-width:6.51px;"/><path d="M1835.846,2183.51c-145.286,0 -262.344,-117.083 -262.344,-262.383c0,-145.286 117.057,-262.344 262.344,-262.344c145.273,0 262.37,117.057 262.37,262.344c0,145.299 -117.096,262.383 -262.37,262.383Z" style="fill:none;fill-rule:nonzero;stroke:#f7da5e;stroke-width:6.51px;"/><path d="M1967.033,1921.142c0,-72.399 -58.776,-131.178 -131.172,-131.178c-72.396,0 -131.172,58.779 -131.172,131.178c0,72.399 58.776,131.178 131.172,131.178c72.396,0 131.172,-58.779 131.172,-131.178Z" style="fill:none;stroke:#f7da5e;stroke-width:6.51px;"/><path d="M1835.948,1921.816l0,1440.026" style="fill:none;fill-rule:nonzero;stroke:#f7da5e;stroke-width:6.51px;"/><path d="M1835.948,1921.816l849.466,1169.167" style="fill:none;fill-rule:nonzero;stroke:#f7da5e;stroke-width:6.51px;"/><path d="M1835.948,1921.816l1374.049,446.172" style="fill:none;fill-rule:nonzero;stroke:#f7da5e;stroke-width:6.51px;"/><path d="M1835.948,1921.816l1372.383,-446.224" style="fill:none;fill-rule:nonzero;stroke:#f7da5e;stroke-width:6.51px;"/><path d="M1835.948,1921.816l847.174,-1167.539" style="fill:none;fill-rule:nonzero;stroke:#f7da5e;stroke-width:6.51px;"/><path d="M1835.948,1921.816l-0.039,-1445.365" style="fill:none;fill-rule:nonzero;stroke:#f7da5e;stroke-width:6.51px;"/><path d="M1835.948,1921.816l-846.562,-1165.091" style="fill:none;fill-rule:nonzero;stroke:#f7da5e;stroke-width:6.51px;"/><path d="M1835.948,1921.816l-1373.711,-447.044" style="fill:none;fill-rule:nonzero;stroke:#f7da5e;stroke-width:6.51px;"/><path d="M1835.948,1921.816l-1372.878,445.768" style="fill:none;fill-rule:nonzero;stroke:#f7da5e;stroke-width:6.51px;"/><path d="M1835.948,1921.816l-846.562,1165.091" style="fill:none;fill-rule:nonzero;stroke:#f7da5e;stroke-width:6.51px;"/><path d="M2105.329,1919.934c0,-147.626 -119.854,-267.48 -267.48,-267.48c-147.626,0 -267.48,119.854 -267.48,267.48c0,147.626 119.854,267.48 267.48,267.48c147.626,0 267.48,-119.854 267.48,-267.48Z" style="fill:none;stroke:#f7da5e;stroke-width:6.51px;"/><path d="M1950.045,2142.961l-23.906,-13.802l41.354,-71.641l-47.669,-27.513l-80.612,139.622l-80.482,-139.401l-47.279,27.292l41.367,71.641l-23.919,13.802l-138.047,-239.102l23.919,-13.789l41.458,71.823l47.266,-27.305l-80.742,-139.87l161.536,0l0,-52.083l-82.721,0l0,-27.604l276.081,0l0,27.604l-82.943,0l0,52.083l160.938,0l-80.599,139.648l47.669,27.526l41.471,-71.823l23.893,13.789l-138.034,239.102Zm-110.573,-506.016c-156.341,0 -283.086,126.732 -283.086,283.073c0,156.354 126.745,283.086 283.086,283.086c156.341,0 283.073,-126.732 283.073,-283.086c0,-156.341 -126.732,-283.073 -283.073,-283.073Z" style="fill:none;fill-rule:nonzero;stroke:#f7da5e;stroke-width:6.51px;"/><path d="M1858.088,1768.427l201.146,0l-33.945,-38.125l-128.763,0l0,-38.125l80.703,0.625c0,0 -73.021,-38.763 -119.141,-38.763l0,114.388Z" style="fill:none;fill-rule:nonzero;stroke:#f7da5e;stroke-width:6.51px;"/><path d="M1616.591,1768.427l195.378,0l0,-114.388c-46.12,0 -119.154,38.763 -119.154,38.763l80.716,-0.625l0,38.125l-126.836,0l-30.104,38.125Z" style="fill:none;fill-rule:nonzero;stroke:#f7da5e;stroke-width:6.51px;"/><path d="M1939.962,2047.084l0.065,0.039l-81.419,139.766l50.26,-10.117l64.453,-110.573l33.203,19.023l-40.898,69.023c0,0 70.352,-43.359 93.411,-82.982c-67.122,-38.451 -99.844,-57.188 -99.844,-57.188l-19.232,33.008Z" style="fill:none;fill-rule:nonzero;stroke:#f7da5e;stroke-width:6.51px;"/><path d="M2064.194,1986.151l-33.138,-18.958l67.096,-115.677l-18.216,-44.935l-82.174,141.536l-0.143,-0.091l-19.219,33.021c0,0 32.734,18.75 99.844,57.188c23.086,-39.609 25.742,-121.745 25.742,-121.745l-39.792,69.661Z" style="fill:none;fill-rule:nonzero;stroke:#f7da5e;stroke-width:6.51px;"/><path d="M1732.149,2043.009l-16.836,-28.932c0,0 -32.734,18.737 -99.857,57.187c23.073,39.622 93.411,82.982 93.411,82.982l-40.911,-69.023l33.359,-19.102l64.31,110.651l50.26,10.117l-83.659,-143.919l-0.078,0.039Z" style="fill:none;fill-rule:nonzero;stroke:#f7da5e;stroke-width:6.51px;"/><path d="M1676.888,1948.03l-0.404,0.221l-81.914,-141.667l-18.242,44.935l66.523,116.003l-32.539,18.633l-39.805,-69.661c0,0 2.669,82.122 25.742,121.745c67.122,-38.438 99.844,-57.188 99.844,-57.188l-19.206,-33.021Z" style="fill:none;fill-rule:nonzero;stroke:#f7da5e;stroke-width:6.51px;"/><path d="M1971.255,1847.505l-264.076,0" style="fill:none;fill-rule:nonzero;stroke:#f7da5e;stroke-width:6.51px;"/><path d="M1839.203,2076.203l132.057,-228.698l-264.089,0l132.031,228.698Z" style="fill:none;fill-rule:nonzero;stroke:#f7da5e;stroke-width:6.51px;"/><path d="M3213.867,1494.932c0,-35.415 -28.752,-64.167 -64.167,-64.167c-35.415,0 -64.167,28.752 -64.167,64.167c0,35.415 28.752,64.167 64.167,64.167c35.415,0 64.167,-28.752 64.167,-64.167Z" style="fill:none;stroke:#f7da5e;stroke-width:6.51px;"/><path d="M3212.38,2348.648c0,-35.415 -28.752,-64.167 -64.167,-64.167c-35.415,0 -64.167,28.752 -64.167,64.167c0,35.415 28.752,64.167 64.167,64.167c35.415,0 64.167,-28.752 64.167,-64.167Z" style="fill:none;stroke:#f7da5e;stroke-width:6.51px;"/><path d="M2711.345,3039.274c0,-35.418 -28.752,-64.173 -64.167,-64.173c-35.415,0 -64.167,28.755 -64.167,64.173c0,35.418 28.752,64.173 64.167,64.173c35.415,0 64.167,-28.755 64.167,-64.173Z" style="fill:none;stroke:#f7da5e;stroke-width:6.51px;"/><path d="M1900.912,3299.856c0,-35.415 -28.752,-64.167 -64.167,-64.167c-35.415,0 -64.167,28.752 -64.167,64.167c0,35.415 28.752,64.167 64.167,64.167c35.415,0 64.167,-28.752 64.167,-64.167Z" style="fill:none;stroke:#f7da5e;stroke-width:6.51px;"/><path d="M1088.802,3035.885c0,-35.418 -28.749,-64.173 -64.16,-64.173c-35.411,0 -64.16,28.755 -64.16,64.173c0,35.418 28.749,64.173 64.16,64.173c35.411,0 64.16,-28.755 64.16,-64.173Z" style="fill:none;stroke:#f7da5e;stroke-width:6.51px;"/><path d="M595.332,2348.248c0,-35.418 -28.749,-64.173 -64.16,-64.173c-35.411,0 -64.16,28.755 -64.16,64.173c0,35.418 28.749,64.173 64.16,64.173c35.411,0 64.16,-28.755 64.16,-64.173Z" style="fill:none;stroke:#f7da5e;stroke-width:6.51px;"/><path d="M584.74,1499.084c0,-35.415 -28.749,-64.167 -64.16,-64.167c-35.411,0 -64.16,28.752 -64.16,64.167c0,35.415 28.749,64.167 64.16,64.167c35.411,0 64.16,-28.752 64.16,-64.167Z" style="fill:none;stroke:#f7da5e;stroke-width:6.51px;"/><path d="M1091.751,811.453c0,-35.415 -28.749,-64.167 -64.16,-64.167c-35.411,0 -64.16,28.752 -64.16,64.167c0,35.415 28.749,64.167 64.16,64.167c35.411,0 64.16,-28.752 64.16,-64.167Z" style="fill:none;stroke:#f7da5e;stroke-width:6.51px;"/><path d="M1898.815,540.323c0,-35.415 -28.752,-64.167 -64.167,-64.167c-35.415,0 -64.167,28.752 -64.167,64.167c0,35.415 28.752,64.167 64.167,64.167c35.415,0 64.167,-28.752 64.167,-64.167Z" style="fill:none;stroke:#f7da5e;stroke-width:6.51px;"/><path d="M2709.653,805.145c0,-35.415 -28.749,-64.167 -64.16,-64.167c-35.411,0 -64.16,28.752 -64.16,64.167c0,35.415 28.749,64.167 64.16,64.167c35.411,0 64.16,-28.752 64.16,-64.167Z" style="fill:none;stroke:#f7da5e;stroke-width:6.51px;"/><path d="M2173.777,948.013c0,-189.57 -153.907,-343.477 -343.477,-343.477c-189.57,0 -343.477,153.907 -343.477,343.477c0,189.57 153.907,343.477 343.477,343.477c189.57,0 343.477,-153.907 343.477,-343.477Z" style="fill:none;stroke:#f7da5e;stroke-width:6.51px;"/><path d="M2747.496,1132.962c0,-187.486 -152.218,-339.701 -339.707,-339.701c-187.489,0 -339.707,152.215 -339.707,339.701c0,187.486 152.218,339.701 339.707,339.701c187.489,0 339.707,-152.215 339.707,-339.701Z" style="fill:none;stroke:#f7da5e;stroke-width:6.51px;"/><path d="M3102.287,1616.1c0,-187.486 -152.215,-339.701 -339.701,-339.701c-187.486,0 -339.701,152.215 -339.701,339.701c0,187.486 152.215,339.701 339.701,339.701c187.486,0 339.701,-152.215 339.701,-339.701Z" style="fill:none;stroke:#f7da5e;stroke-width:6.51px;"/><path d="M3102.287,2223.774c0,-189.566 -153.907,-343.47 -343.477,-343.47c-189.57,0 -343.477,153.904 -343.477,343.47c0,189.566 153.907,343.47 343.477,343.47c189.57,0 343.477,-153.904 343.477,-343.47Z" style="fill:none;stroke:#f7da5e;stroke-width:6.51px;"/><path d="M2747.496,2710.675c0,-189.566 -153.907,-343.47 -343.477,-343.47c-189.57,0 -343.477,153.904 -343.477,343.47c0,189.566 153.907,343.47 343.477,343.47c189.57,0 343.477,-153.904 343.477,-343.47Z" style="fill:none;stroke:#f7da5e;stroke-width:6.51px;"/><path d="M2166.237,2899.408c0,-185.402 -150.526,-335.924 -335.931,-335.924c-185.405,0 -335.931,150.523 -335.931,335.924c0,185.402 150.526,335.924 335.931,335.924c185.405,0 335.931,-150.523 335.931,-335.924Z" style="fill:none;stroke:#f7da5e;stroke-width:6.51px;"/><path d="M1603.837,2710.675c0,-187.482 -152.215,-339.694 -339.701,-339.694c-187.486,0 -339.701,152.212 -339.701,339.694c0,187.482 152.215,339.694 339.701,339.694c187.486,0 339.701,-152.212 339.701,-339.694Z" style="fill:none;stroke:#f7da5e;stroke-width:6.51px;"/><path d="M1247.149,2221.893c0,-185.402 -150.523,-335.924 -335.924,-335.924c-185.402,0 -335.924,150.523 -335.924,335.924c0,185.402 150.523,335.924 335.924,335.924c185.402,0 335.924,-150.523 335.924,-335.924Z" style="fill:none;stroke:#f7da5e;stroke-width:6.51px;"/><path d="M1252.82,1619.869c0,-189.566 -153.91,-343.47 -343.483,-343.47c-189.573,0 -343.483,153.904 -343.483,343.47c0,189.566 153.91,343.47 343.483,343.47c189.573,0 343.483,-153.904 343.483,-343.47Z" style="fill:none;stroke:#f7da5e;stroke-width:6.51px;"/><path d="M1596.283,1136.738c0,-185.402 -150.523,-335.924 -335.924,-335.924c-185.402,0 -335.924,150.523 -335.924,335.924c0,185.402 150.523,335.924 335.924,335.924c185.402,0 335.924,-150.523 335.924,-335.924Z" style="fill:none;stroke:#f7da5e;stroke-width:6.51px;"/><path d="M2099.937,2267.287l-259.648,282.721" style="fill:none;fill-rule:nonzero;stroke:#f7da5e;stroke-width:6.51px;"/><path d="M1578.684,2267.955l-343.164,-159.401" style="fill:none;fill-rule:nonzero;stroke:#f7da5e;stroke-width:6.51px;"/><path d="M1416.967,2046.467l-177.409,-332.031" style="fill:none;fill-rule:nonzero;stroke:#f7da5e;stroke-width:6.51px;"/><path d="M1417.018,1771.701l44.479,-375.56" style="fill:none;fill-rule:nonzero;stroke:#f7da5e;stroke-width:6.51px;"/><path d="M1838.49,1465.889l373.281,-70.104" style="fill:none;fill-rule:nonzero;stroke:#f7da5e;stroke-width:6.51px;"/><path d="M2100.854,1550.296l343.451,163.88" style="fill:none;fill-rule:nonzero;stroke:#f7da5e;stroke-width:6.51px;"/><path d="M2260.842,1771.929l175.026,330.898" style="fill:none;fill-rule:nonzero;stroke:#f7da5e;stroke-width:6.51px;"/><path d="M1579.639,2268.425l259.57,282.122" style="fill:none;fill-rule:nonzero;stroke:#f7da5e;stroke-width:6.51px;"/><path d="M1236.112,2106.695l181.042,-334.701" style="fill:none;fill-rule:nonzero;stroke:#f7da5e;stroke-width:6.51px;"/><path d="M1240.652,1713.082l337.487,-162.604" style="fill:none;fill-rule:nonzero;stroke:#f7da5e;stroke-width:6.51px;"/><path d="M1462.604,1395.222l374.414,70.664" style="fill:none;fill-rule:nonzero;stroke:#f7da5e;stroke-width:6.51px;"/><path d="M2213.056,1396.704l48.151,374.609" style="fill:none;fill-rule:nonzero;stroke:#f7da5e;stroke-width:6.51px;"/><path d="M2445.143,1715.854l-184.167,329.557" style="fill:none;fill-rule:nonzero;stroke:#f7da5e;stroke-width:6.51px;"/><path d="M2435.605,2103.369l-335.312,164.115" style="fill:none;fill-rule:nonzero;stroke:#f7da5e;stroke-width:6.51px;"/><path d="M2205.401,2419.773l-366.432,-67.878" style="fill:none;fill-rule:nonzero;stroke:#f7da5e;stroke-width:6.51px;"/><path d="M2260.854,2045.748l-54.896,372.37" style="fill:none;fill-rule:nonzero;stroke:#f7da5e;stroke-width:6.51px;"/><path d="M1838.313,2352.209l-370.352,69.727" style="fill:none;fill-rule:nonzero;stroke:#f7da5e;stroke-width:6.51px;"/><path d="M1466.036,2424.757l-48.685,-378.477" style="fill:none;fill-rule:nonzero;stroke:#f7da5e;stroke-width:6.51px;"/><path d="M1579.231,1549.565l257.435,-271.159" style="fill:none;fill-rule:nonzero;stroke:#f7da5e;stroke-width:6.51px;"/><path d="M1838.274,1278.423l262.539,272.161" style="fill:none;fill-rule:nonzero;stroke:#f7da5e;stroke-width:6.51px;"/></svg>