<?xml version="1.0" encoding="UTF-8" standalone="no"?><!DOCTYPE svg PUBLIC "-//W3C//DTD SVG 1.1//EN" "http://www.w3.org/Graphics/SVG/1.1/DTD/svg11.dtd"><svg width="100%" height="100%" viewBox="0 0 3238 3234" version="1.1" xmlns="http://www.w3.org/2000/svg" xmlns:xlink="http://www.w3.org/1999/xlink" xml:space="preserve" xmlns:serif="http://www.serif.com/" style="fill-rule:evenodd;clip-rule:evenodd;stroke-miterlimit:10;"><path d="M2571.117,1427.772c-104.038,-524.484 -614.318,-865.832 -1138.802,-761.795c-524.484,104.038 -865.832,614.318 -761.794,1138.802c104.038,524.484 614.318,865.832 1138.802,761.795c524.484,-104.038 865.832,-614.318 761.794,-1138.802Z" style="fill:none;stroke:#3c6db5;stroke-width:6.51px;"/><path d="M1820.098,1261.738c-192.612,-111.901 -439.837,-46.375 -551.737,146.234c-111.899,192.61 -46.371,439.834 146.242,551.735c192.612,111.901 439.837,46.375 551.737,-146.234c111.899,-192.61 46.371,-439.834 -146.242,-551.735Z" style="fill:none;stroke:#3c6db5;stroke-width:6.51px;"/><path d="M2225.573,563.769c-578.685,-336.185 -1318.997,-139.961 -1655.169,438.737c-336.198,578.685 -139.961,1318.997 438.724,1655.195c578.698,336.172 1319.01,139.948 1655.195,-438.737c336.185,-578.698 139.948,-1319.01 -438.75,-1655.195Z" style="fill:none;fill-rule:nonzero;stroke:#3c6db5;stroke-width:6.51px;"/><path d="M1620.968,1616.238l0,876.133" style="fill:none;fill-rule:nonzero;stroke:#3c6db5;stroke-width:6.51px;"/><path d="M1620.968,1616.238l335.391,809.401" style="fill:none;fill-rule:nonzero;stroke:#3c6db5;stroke-width:6.51px;"/><path d="M1620.968,1616.238l619.453,619.453" style="fill:none;fill-rule:nonzero;stroke:#3c6db5;stroke-width:6.51px;"/><path d="M1620.968,1616.238l809.401,335.404" style="fill:none;fill-rule:nonzero;stroke:#3c6db5;stroke-width:6.51px;"/><path d="M1620.968,1616.238l876.133,0" style="fill:none;fill-rule:nonzero;stroke:#3c6db5;stroke-width:6.51px;"/><path d="M1620.968,1616.238l809.401,-335.391" style="fill:none;fill-rule:nonzero;stroke:#3c6db5;stroke-width:6.51px;"/><path d="M1620.968,1616.238l619.453,-619.453" style="fill:none;fill-rule:nonzero;stroke:#3c6db5;stroke-width:6.51px;"/><path d="M1620.968,1616.238l335.391,-809.401" style="fill:none;fill-rule:nonzero;stroke:#3c6db5;stroke-width:6.51px;"/><path d="M1620.968,1616.238l0,-876.146" style="fill:none;fill-rule:nonzero;stroke:#3c6db5;stroke-width:6.51px;"/><path d="M1620.968,1616.238l-335.404,-809.401" style="fill:none;fill-rule:nonzero;stroke:#3c6db5;stroke-width:6.51px;"/><path d="M1620.968,1616.238l-619.453,-619.453" style="fill:none;fill-rule:nonzero;stroke:#3c6db5;stroke-width:6.51px;"/><path d="M1620.968,1616.238l-809.401,-335.391" style="fill:none;fill-rule:nonzero;stroke:#3c6db5;stroke-width:6.51px;"/><path d="M1620.968,1616.238l-876.146,0" style="fill:none;fill-rule:nonzero;stroke:#3c6db5;stroke-width:6.51px;"/><path d="M1620.968,1616.238l-809.401,335.404" style="fill:none;fill-rule:nonzero;stroke:#3c6db5;stroke-width:6.51px;"/><path d="M1620.968,1616.238l-619.453,619.453" style="fill:none;fill-rule:nonzero;stroke:#3c6db5;stroke-width:6.51px;"/><path d="M1620.968,1616.238l-335.404,809.401" style="fill:none;fill-rule:nonzero;stroke:#3c6db5;stroke-width:6.51px;"/><path d="M1620.816,1616.269l314.128,1583.581" style="fill:none;fill-rule:nonzero;stroke:#3c6db5;stroke-width:6.51px;"/><path d="M1620.816,1616.269l896.406,1342.695" style="fill:none;fill-rule:nonzero;stroke:#3c6db5;stroke-width:6.51px;"/><path d="M1620.816,1616.269l1341.732,897.539" style="fill:none;fill-rule:nonzero;stroke:#3c6db5;stroke-width:6.51px;"/><path d="M1620.816,1616.269l1583.203,316.029" style="fill:none;fill-rule:nonzero;stroke:#3c6db5;stroke-width:6.51px;"/><path d="M1620.816,1616.269l1583.568,-314.115" style="fill:none;fill-rule:nonzero;stroke:#3c6db5;stroke-width:6.51px;"/><path d="M1620.816,1616.269l1342.695,-896.393" style="fill:none;fill-rule:nonzero;stroke:#3c6db5;stroke-width:6.51px;"/><path d="M1620.816,1616.269l897.552,-1341.719" style="fill:none;fill-rule:nonzero;stroke:#3c6db5;stroke-width:6.51px;"/><path d="M1620.816,1616.269l316.029,-1583.19" style="fill:none;fill-rule:nonzero;stroke:#3c6db5;stroke-width:6.51px;"/><path d="M1620.816,1616.269l-314.115,-1583.555" style="fill:none;fill-rule:nonzero;stroke:#3c6db5;stroke-width:6.51px;"/><path d="M1620.816,1616.269l-896.393,-1342.682" style="fill:none;fill-rule:nonzero;stroke:#3c6db5;stroke-width:6.51px;"/><path d="M1620.816,1616.269l-1341.719,-897.539" style="fill:none;fill-rule:nonzero;stroke:#3c6db5;stroke-width:6.51px;"/><path d="M1620.816,1616.269l-1583.19,-316.016" style="fill:none;fill-rule:nonzero;stroke:#3c6db5;stroke-width:6.51px;"/><path d="M1620.816,1616.269l-1583.568,314.128" style="fill:none;fill-rule:nonzero;stroke:#3c6db5;stroke-width:6.51px;"/><path d="M1620.816,1616.269l-1342.682,896.393" style="fill:none;fill-rule:nonzero;stroke:#3c6db5;stroke-width:6.51px;"/><path d="M1620.816,1616.269l-897.539,1341.719" style="fill:none;fill-rule:nonzero;stroke:#3c6db5;stroke-width:6.51px;"/><path d="M1620.816,1616.269l-316.016,1583.19" style="fill:none;fill-rule:nonzero;stroke:#3c6db5;stroke-width:6.51px;"/><path d="M1296.186,1476.613c-5.326,12.878 -8.776,23.203 -11.667,31.328c-2.852,8.125 -5.143,14.049 -7.708,18.398c-5.104,8.698 -11.393,10.977 -23.49,12.357c10.651,5.885 15.599,10.378 17.005,20.378c0.716,5 0.586,11.354 0.117,19.987c-0.43,8.607 -1.159,19.505 -1.185,33.516c-14.466,0 -25.495,-1.367 -34.062,-3.88c-8.555,-2.5 -14.622,-6.12 -19.089,-10.299c-8.984,-8.411 -11.549,-18.984 -15.677,-27.578c-4.206,-8.841 -5.898,-15.495 -10.508,-22.682c-2.305,-3.607 -5.326,-7.383 -9.688,-11.771c-4.362,-4.388 -10.065,-9.401 -17.682,-15.625c9.414,-2.852 16.562,-5.352 22.24,-7.812c5.677,-2.435 9.896,-4.844 13.424,-7.331c7.057,-4.961 11.38,-10.404 19.323,-16.471c8.177,-6.237 15.729,-14.557 27.409,-18.698c5.82,-2.07 12.656,-3.073 21.003,-2.253c8.346,0.807 18.229,3.438 30.234,8.438Z" style="fill:none;fill-rule:nonzero;stroke:#3c6db5;stroke-width:6.51px;"/><path d="M1373.306,1361.371c-9.87,9.896 -17.044,18.138 -22.826,24.531c-5.768,6.419 -10.169,11.029 -14.219,14.049c-8.047,6.107 -14.74,5.794 -26.419,2.409c7.565,9.531 10.404,15.599 7.852,25.352c-1.263,4.896 -3.854,10.716 -7.578,18.49c-3.711,7.773 -8.568,17.526 -13.932,30.417c-13.346,-5.534 -23.021,-11.042 -29.974,-16.628c-6.953,-5.573 -11.159,-11.25 -13.672,-16.836c-5.091,-11.211 -3.372,-21.966 -3.867,-31.484c-0.495,-9.779 0.495,-16.562 -0.99,-24.987c-0.742,-4.219 -2.083,-8.841 -4.414,-14.583c-2.344,-5.729 -5.69,-12.552 -10.326,-21.211c9.792,0.99 17.344,1.432 23.529,1.341c6.185,-0.078 10.99,-0.664 15.195,-1.615c8.424,-1.862 14.518,-5.221 24.167,-7.773c9.948,-2.617 20.117,-7.409 32.474,-6.771c6.185,0.326 12.865,2.005 20.286,5.951c7.409,3.932 15.521,10.143 24.714,19.349Z" style="fill:none;fill-rule:nonzero;stroke:#3c6db5;stroke-width:6.51px;"/><path d="M1488.548,1284.257c-12.878,5.365 -22.63,10.221 -30.417,13.932c-7.786,3.724 -13.594,6.315 -18.49,7.565c-9.753,2.565 -15.82,-0.286 -25.339,-7.852c3.372,11.693 3.672,18.385 -2.409,26.432c-3.021,4.049 -7.643,8.451 -14.062,14.219c-6.406,5.794 -14.635,12.956 -24.531,22.812c-10.221,-10.208 -17.057,-18.997 -21.341,-26.81c-4.271,-7.826 -6.003,-14.661 -6.211,-20.794c-0.404,-12.292 5.26,-21.576 8.451,-30.573c3.268,-9.232 6.771,-15.117 8.607,-23.464c0.924,-4.193 1.458,-8.984 1.471,-15.169c0.013,-6.185 -0.469,-13.763 -1.458,-23.542c8.672,4.635 15.482,7.917 21.25,10.208c5.742,2.279 10.404,3.568 14.674,4.297c8.49,1.484 15.391,0.69 25.299,2.018c10.182,1.38 21.406,0.807 32.604,6.133c5.586,2.656 11.12,6.771 16.458,13.255c5.352,6.471 10.456,15.299 15.443,27.331Z" style="fill:none;fill-rule:nonzero;stroke:#3c6db5;stroke-width:6.51px;"/><path d="M1624.504,1257.319c-13.997,0.026 -24.896,0.768 -33.516,1.198c-8.62,0.456 -14.987,0.599 -19.974,-0.117c-10,-1.393 -14.518,-6.354 -20.391,-17.005c-1.367,12.083 -3.659,18.372 -12.357,23.477c-4.336,2.565 -10.273,4.857 -18.398,7.721c-8.112,2.891 -18.438,6.328 -31.315,11.667c-5.56,-13.359 -8.529,-24.076 -9.479,-32.943c-0.964,-8.867 0.052,-15.833 2.201,-21.576c4.349,-11.51 13.151,-17.93 19.518,-25.013c6.576,-7.266 12.07,-11.354 16.979,-18.372c2.448,-3.503 4.792,-7.721 7.188,-13.438c2.396,-5.703 4.87,-12.891 7.708,-22.292c6.237,7.617 11.263,13.268 15.69,17.591c4.427,4.31 8.242,7.292 11.901,9.609c7.266,4.635 13.945,6.562 22.591,11.589c8.854,5.195 19.44,8.997 27.734,18.203c4.128,4.583 7.669,10.508 10.13,18.542c2.448,8.021 3.802,18.151 3.789,31.159Z" style="fill:none;fill-rule:nonzero;stroke:#3c6db5;stroke-width:6.51px;"/><path d="M1760.472,1284.257c-12.878,-5.339 -23.203,-8.776 -31.328,-11.667c-8.125,-2.865 -14.062,-5.156 -18.398,-7.721c-8.698,-5.091 -10.99,-11.393 -12.37,-23.477c-5.872,10.651 -10.365,15.612 -20.365,17.005c-5.013,0.716 -11.367,0.573 -19.987,0.117c-8.62,-0.43 -19.505,-1.172 -33.516,-1.198c0,-14.453 1.367,-25.495 3.88,-34.049c2.5,-8.555 6.107,-14.609 10.299,-19.102c8.398,-8.971 18.984,-11.549 27.578,-15.651c8.828,-4.219 15.482,-5.911 22.682,-10.534c3.607,-2.292 7.37,-5.312 11.771,-9.674c4.388,-4.375 9.401,-10.065 15.612,-17.682c2.852,9.401 5.365,16.549 7.812,22.24c2.448,5.677 4.857,9.883 7.344,13.411c4.948,7.057 10.404,11.393 16.458,19.323c6.25,8.19 14.57,15.729 18.711,27.409c2.07,5.82 3.06,12.669 2.24,21.016c-0.794,8.359 -3.424,18.216 -8.424,30.234Z" style="fill:none;fill-rule:nonzero;stroke:#3c6db5;stroke-width:6.51px;"/><path d="M1875.701,1361.371c-9.896,-9.87 -18.125,-17.031 -24.531,-22.812c-6.406,-5.781 -11.016,-10.169 -14.049,-14.232c-6.094,-8.034 -5.781,-14.74 -2.396,-26.419c-9.531,7.565 -15.612,10.417 -25.365,7.852c-4.896,-1.263 -10.703,-3.841 -18.49,-7.578c-7.773,-3.711 -17.526,-8.568 -30.404,-13.919c5.534,-13.359 11.029,-23.034 16.628,-29.987c5.573,-6.94 11.237,-11.146 16.836,-13.672c11.211,-5.078 21.966,-3.372 31.471,-3.867c9.792,-0.495 16.562,0.495 24.987,-0.99c4.219,-0.742 8.854,-2.083 14.596,-4.414c5.716,-2.344 12.552,-5.677 21.211,-10.326c-1.003,9.792 -1.432,17.344 -1.354,23.542c0.091,6.172 0.677,10.99 1.615,15.195c1.875,8.411 5.234,14.505 7.786,24.154c2.604,9.948 7.409,20.117 6.758,32.487c-0.312,6.172 -2.005,12.865 -5.951,20.273c-3.919,7.409 -10.143,15.521 -19.349,24.714Z" style="fill:none;fill-rule:nonzero;stroke:#3c6db5;stroke-width:6.51px;"/><path d="M1952.823,1476.613c-5.352,-12.878 -10.221,-22.63 -13.919,-30.417c-3.737,-7.773 -6.328,-13.594 -7.578,-18.477c-2.565,-9.766 0.273,-15.846 7.852,-25.365c-11.693,3.385 -18.385,3.698 -26.432,-2.396c-4.049,-3.021 -8.451,-7.643 -14.219,-14.062c-5.781,-6.393 -12.943,-14.635 -22.826,-24.531c10.208,-10.221 18.997,-17.057 26.823,-21.328c7.812,-4.284 14.661,-6.016 20.781,-6.224c12.305,-0.404 21.602,5.273 30.573,8.451c9.245,3.268 15.117,6.771 23.49,8.607c4.167,0.911 8.971,1.458 15.156,1.471c6.185,0.026 13.763,-0.469 23.542,-1.445c-4.635,8.659 -7.93,15.482 -10.195,21.237c-2.292,5.742 -3.568,10.404 -4.31,14.674c-1.484,8.49 -0.703,15.391 -2.005,25.299c-1.393,10.195 -0.833,21.406 -6.146,32.604c-2.669,5.586 -6.771,11.12 -13.242,16.458c-6.471,5.352 -15.312,10.456 -27.344,15.443Z" style="fill:none;fill-rule:nonzero;stroke:#3c6db5;stroke-width:6.51px;"/><path d="M1979.754,1612.575c-0.013,-14.01 -0.768,-24.896 -1.198,-33.516c-0.443,-8.633 -0.599,-14.987 0.13,-19.987c1.393,-9.987 6.341,-14.492 17.005,-20.378c-12.096,-1.38 -18.385,-3.659 -23.49,-12.357c-2.552,-4.349 -4.844,-10.273 -7.708,-18.398c-2.904,-8.125 -6.341,-18.451 -11.667,-31.328c13.346,-5.56 24.076,-8.516 32.943,-9.466c8.867,-0.977 15.833,0.039 21.576,2.201c11.51,4.336 17.93,13.138 25,19.518c7.279,6.562 11.38,12.057 18.385,16.953c3.503,2.474 7.721,4.805 13.424,7.201c5.716,2.409 12.904,4.883 22.305,7.721c-7.617,6.224 -13.281,11.263 -17.591,15.703c-4.323,4.427 -7.305,8.242 -9.622,11.875c-4.622,7.279 -6.549,13.958 -11.589,22.591c-5.195,8.867 -8.984,19.44 -18.203,27.734c-4.583,4.154 -10.508,7.682 -18.529,10.13c-8.034,2.461 -18.164,3.802 -31.172,3.802Z" style="fill:none;fill-rule:nonzero;stroke:#3c6db5;stroke-width:6.51px;"/><path d="M1952.823,1748.537c5.326,-12.878 8.776,-23.203 11.667,-31.328c2.865,-8.125 5.143,-14.062 7.708,-18.398c5.104,-8.698 11.393,-10.99 23.49,-12.37c-10.651,-5.872 -15.599,-10.378 -17.005,-20.365c-0.716,-5 -0.573,-11.367 -0.117,-19.974c0.43,-8.62 1.172,-19.531 1.185,-33.529c14.466,0 25.508,1.367 34.062,3.867c8.555,2.513 14.622,6.12 19.089,10.312c8.984,8.411 11.549,18.984 15.664,27.578c4.232,8.841 5.924,15.482 10.534,22.669c2.292,3.62 5.312,7.383 9.674,11.784c4.362,4.388 10.078,9.401 17.695,15.612c-9.414,2.865 -16.576,5.352 -22.253,7.826c-5.677,2.448 -9.883,4.844 -13.424,7.331c-7.057,4.961 -11.38,10.404 -19.31,16.471c-8.19,6.224 -15.742,14.557 -27.409,18.698c-5.833,2.07 -12.656,3.06 -21.003,2.253c-8.359,-0.807 -18.229,-3.451 -30.247,-8.438Z" style="fill:none;fill-rule:nonzero;stroke:#3c6db5;stroke-width:6.51px;"/><path d="M1875.701,1863.767c9.883,-9.883 17.044,-18.125 22.826,-24.518c5.768,-6.419 10.169,-11.029 14.219,-14.049c8.047,-6.094 14.74,-5.781 26.432,-2.409c-7.578,-9.531 -10.417,-15.599 -7.865,-25.365c1.263,-4.883 3.841,-10.703 7.591,-18.477c3.698,-7.786 8.568,-17.526 13.919,-30.417c13.359,5.534 23.034,11.029 29.974,16.628c6.94,5.573 11.159,11.237 13.685,16.836c5.065,11.211 3.359,21.953 3.867,31.471c0.482,9.779 -0.508,16.576 0.99,24.987c0.729,4.219 2.07,8.854 4.401,14.583c2.344,5.729 5.69,12.552 10.326,21.224c-9.779,-1.003 -17.344,-1.432 -23.516,-1.354c-6.198,0.091 -10.99,0.664 -15.208,1.615c-8.424,1.875 -14.505,5.234 -24.167,7.786c-9.935,2.617 -20.117,7.422 -32.474,6.758c-6.185,-0.312 -12.865,-1.992 -20.286,-5.951c-7.409,-3.932 -15.521,-10.13 -24.714,-19.349Z" style="fill:none;fill-rule:nonzero;stroke:#3c6db5;stroke-width:6.51px;"/><path d="M1760.472,1940.894c12.865,-5.365 22.617,-10.221 30.404,-13.932c7.786,-3.724 13.594,-6.315 18.49,-7.578c9.753,-2.552 15.833,0.299 25.352,7.865c-3.385,-11.693 -3.685,-18.385 2.409,-26.432c3.021,-4.036 7.643,-8.451 14.049,-14.219c6.406,-5.781 14.635,-12.956 24.531,-22.826c10.234,10.221 17.07,18.997 21.328,26.81c4.284,7.826 6.029,14.674 6.224,20.794c0.404,12.292 -5.26,21.602 -8.438,30.573c-3.281,9.232 -6.771,15.13 -8.607,23.477c-0.938,4.167 -1.458,8.971 -1.471,15.169c-0.039,6.185 0.456,13.763 1.445,23.555c-8.659,-4.661 -15.482,-7.93 -21.237,-10.221c-5.742,-2.292 -10.417,-3.581 -14.674,-4.297c-8.49,-1.484 -15.404,-0.703 -25.312,-2.018c-10.182,-1.38 -21.406,-0.82 -32.591,-6.133c-5.586,-2.656 -11.12,-6.784 -16.458,-13.242c-5.352,-6.484 -10.469,-15.326 -15.443,-27.344Z" style="fill:none;fill-rule:nonzero;stroke:#3c6db5;stroke-width:6.51px;"/><path d="M1624.504,1967.819c14.01,-0.013 24.896,-0.755 33.516,-1.185c8.62,-0.443 14.987,-0.599 19.987,0.117c10,1.38 14.505,6.341 20.378,17.005c1.367,-12.096 3.659,-18.385 12.357,-23.477c4.336,-2.565 10.273,-4.857 18.398,-7.721c8.125,-2.891 18.451,-6.328 31.328,-11.667c5.547,13.359 8.516,24.076 9.479,32.93c0.964,8.867 -0.052,15.859 -2.214,21.589c-4.336,11.51 -13.151,17.93 -19.518,25.013c-6.562,7.266 -12.07,11.367 -16.979,18.385c-2.435,3.477 -4.779,7.708 -7.174,13.411c-2.409,5.703 -4.883,12.904 -7.721,22.318c-6.224,-7.63 -11.263,-13.281 -15.69,-17.604c-4.427,-4.323 -8.242,-7.292 -11.888,-9.609c-7.279,-4.648 -13.971,-6.562 -22.591,-11.602c-8.867,-5.182 -19.453,-8.971 -27.747,-18.177c-4.128,-4.609 -7.669,-10.534 -10.117,-18.555c-2.448,-8.034 -3.802,-18.151 -3.802,-31.172Z" style="fill:none;fill-rule:nonzero;stroke:#3c6db5;stroke-width:6.51px;"/><path d="M1488.548,1940.894c12.878,5.339 23.203,8.776 31.315,11.667c8.125,2.865 14.062,5.143 18.398,7.721c8.698,5.091 10.99,11.38 12.37,23.477c5.872,-10.664 10.378,-15.625 20.378,-17.005c5,-0.716 11.354,-0.573 19.974,-0.117c8.62,0.43 19.518,1.172 33.516,1.185c0.013,14.453 -1.354,25.508 -3.867,34.062c-2.513,8.542 -6.107,14.622 -10.299,19.089c-8.411,8.984 -18.984,11.549 -27.578,15.677c-8.841,4.219 -15.495,5.898 -22.682,10.521c-3.62,2.292 -7.383,5.313 -11.771,9.661c-4.388,4.375 -9.401,10.078 -15.625,17.708c-2.852,-9.414 -5.352,-16.576 -7.812,-22.253c-2.448,-5.677 -4.844,-9.883 -7.331,-13.438c-4.961,-7.044 -10.417,-11.367 -16.471,-19.323c-6.237,-8.164 -14.557,-15.716 -18.698,-27.383c-2.07,-5.846 -3.06,-12.669 -2.253,-21.016c0.807,-8.359 3.451,-18.216 8.438,-30.234Z" style="fill:none;fill-rule:nonzero;stroke:#3c6db5;stroke-width:6.51px;"/><path d="M1373.306,1863.767c9.883,9.883 18.125,17.031 24.531,22.826c6.419,5.781 11.029,10.169 14.062,14.219c6.081,8.047 5.768,14.753 2.396,26.432c9.531,-7.565 15.599,-10.417 25.352,-7.865c4.896,1.263 10.703,3.854 18.49,7.578c7.773,3.724 17.526,8.581 30.417,13.932c-5.534,13.359 -11.042,23.034 -16.641,29.974c-5.573,6.953 -11.237,11.159 -16.823,13.685c-11.211,5.078 -21.966,3.372 -31.484,3.854c-9.779,0.495 -16.562,-0.482 -24.987,1.003c-4.219,0.729 -8.854,2.07 -14.583,4.401c-5.729,2.344 -12.552,5.69 -21.224,10.326c1.003,-9.779 1.445,-17.344 1.354,-23.529c-0.078,-6.172 -0.664,-10.99 -1.615,-15.208c-1.862,-8.411 -5.234,-14.492 -7.773,-24.154c-2.617,-9.935 -7.422,-20.104 -6.758,-32.474c0.299,-6.185 1.979,-12.865 5.938,-20.286c3.932,-7.396 10.143,-15.521 19.349,-24.714Z" style="fill:none;fill-rule:nonzero;stroke:#3c6db5;stroke-width:6.51px;"/><path d="M1296.186,1748.537c5.365,12.878 10.221,22.63 13.932,30.404c3.711,7.773 6.315,13.607 7.565,18.49c2.565,9.753 -0.273,15.833 -7.839,25.365c11.68,-3.385 18.372,-3.698 26.419,2.383c4.049,3.034 8.451,7.656 14.219,14.062c5.781,6.406 12.956,14.648 22.826,24.531c-10.208,10.234 -18.997,17.057 -26.823,21.341c-7.799,4.284 -14.661,6.003 -20.781,6.211c-12.305,0.404 -21.589,-5.273 -30.573,-8.451c-9.232,-3.268 -15.13,-6.771 -23.477,-8.594c-4.18,-0.938 -8.971,-1.458 -15.156,-1.484c-6.185,-0.013 -13.763,0.469 -23.555,1.471c4.635,-8.672 7.917,-15.495 10.208,-21.263c2.292,-5.742 3.568,-10.404 4.297,-14.661c1.497,-8.49 0.703,-15.404 2.018,-25.299c1.393,-10.195 0.82,-21.406 6.146,-32.604c2.643,-5.586 6.758,-11.12 13.229,-16.458c6.484,-5.352 15.326,-10.456 27.344,-15.443Z" style="fill:none;fill-rule:nonzero;stroke:#3c6db5;stroke-width:6.51px;"/><path d="M1269.254,1612.575c0.026,13.997 0.768,24.909 1.198,33.529c0.456,8.607 0.599,14.974 -0.13,19.961c-1.393,9.987 -6.341,14.505 -17.005,20.378c12.096,1.38 18.385,3.672 23.49,12.37c2.565,4.336 4.844,10.273 7.721,18.398c2.891,8.112 6.328,18.451 11.654,31.328c-13.346,5.547 -24.062,8.516 -32.93,9.466c-8.867,0.977 -15.846,-0.039 -21.589,-2.201c-11.51,-4.336 -17.917,-13.138 -25,-19.531c-7.279,-6.549 -11.367,-12.057 -18.372,-16.953c-3.516,-2.461 -7.734,-4.792 -13.438,-7.201c-5.703,-2.409 -12.891,-4.87 -22.305,-7.721c7.617,-6.211 13.281,-11.25 17.591,-15.677c4.323,-4.44 7.305,-8.255 9.622,-11.901c4.635,-7.266 6.549,-13.945 11.589,-22.578c5.195,-8.88 8.997,-19.453 18.203,-27.747c4.583,-4.141 10.508,-7.682 18.529,-10.117c8.034,-2.461 18.164,-3.802 31.172,-3.802Z" style="fill:none;fill-rule:nonzero;stroke:#3c6db5;stroke-width:6.51px;"/><path d="M1620.295,1478.037c-74.115,0 -134.219,60.091 -134.219,134.206c0,74.115 60.104,134.206 134.219,134.206c74.102,0 134.193,-60.091 134.193,-134.206c0,-74.115 -60.091,-134.206 -134.193,-134.206Zm0,63.281c39.102,0 70.911,31.823 70.911,70.924c0,39.115 -31.81,70.924 -70.911,70.924c-39.115,0 -70.924,-31.81 -70.924,-70.924c0,-39.102 31.81,-70.924 70.924,-70.924" style="fill:none;fill-rule:nonzero;stroke:#3c6db5;stroke-width:6.51px;"/><path d="M2030.299,2022.001c0,-225.85 -183.365,-409.212 -409.219,-409.212c-225.854,0 -409.219,183.362 -409.219,409.212c0,225.85 183.365,409.212 409.219,409.212c225.854,0 409.219,-183.362 409.219,-409.212Z" style="fill:none;stroke:#3c6db5;stroke-width:6.51px;"/><path d="M2032.41,1201.453c0,-225.854 -183.365,-409.219 -409.219,-409.219c-225.854,0 -409.219,183.365 -409.219,409.219c0,225.854 183.365,409.219 409.219,409.219c225.854,0 409.219,-183.365 409.219,-409.219Z" style="fill:none;stroke:#3c6db5;stroke-width:6.51px;"/><ellipse cx="2026.084" cy="1612.776" rx="409.225" ry="409.212" style="fill:none;stroke:#3c6db5;stroke-width:6.51px;"/><ellipse cx="1207.647" cy="1610.665" rx="409.219" ry="409.212" style="fill:none;stroke:#3c6db5;stroke-width:6.51px;"/><path d="M1524.763,1514.773c-52.409,52.409 -52.409,137.383 0,189.792c52.383,52.409 137.383,52.409 189.779,0c52.409,-52.409 52.409,-137.383 0,-189.792c-52.396,-52.409 -137.383,-52.409 -189.779,0Zm44.74,44.753c27.656,-27.656 72.656,-27.656 100.299,0c27.643,27.643 27.643,72.643 0,100.299c-27.643,27.643 -72.643,27.643 -100.299,0c-27.643,-27.656 -27.643,-72.656 0,-100.299" style="fill:none;fill-rule:nonzero;stroke:#3c6db5;stroke-width:6.51px;"/><path d="M2199.318,1609.489c-159.705,-159.705 -419.025,-159.705 -578.73,0c-159.705,159.705 -159.705,419.025 0,578.73c159.705,159.705 419.025,159.705 578.73,0c159.705,-159.705 159.705,-419.025 0,-578.73Z" style="fill:none;stroke:#3c6db5;stroke-width:6.51px;"/><path d="M1620.586,1027.776c-159.706,-159.702 -419.023,-159.7 -578.723,0.004c-159.701,159.704 -159.697,419.021 0.009,578.723c159.706,159.702 419.023,159.7 578.723,-0.004c159.701,-159.704 159.697,-419.021 -0.009,-578.723Z" style="fill:none;stroke:#3c6db5;stroke-width:6.51px;"/><path d="M1617.617,1033.743c-159.707,159.704 -159.712,419.023 -0.011,578.728c159.701,159.705 419.021,159.706 578.728,0.002c159.707,-159.704 159.712,-419.023 0.011,-578.728c-159.701,-159.705 -419.021,-159.706 -578.728,-0.002Z" style="fill:none;stroke:#3c6db5;stroke-width:6.51px;"/><path d="M1037.397,1610.98c-159.707,159.707 -159.708,419.029 -0.003,578.734c159.705,159.705 419.027,159.704 578.734,-0.003c159.707,-159.707 159.708,-419.029 0.003,-578.734c-159.705,-159.705 -419.027,-159.704 -578.734,0.003Z" style="fill:none;stroke:#3c6db5;stroke-width:6.51px;"/><path d="M1622.24,1401.655c-116.458,0 -210.885,94.414 -210.885,210.872c0,116.471 94.427,210.898 210.885,210.898c116.471,0 210.885,-94.427 210.885,-210.898c0,-116.458 -94.414,-210.872 -210.885,-210.872Zm0,99.44c61.458,0 111.458,49.987 111.458,111.432c0,61.458 -50,111.445 -111.458,111.445c-61.445,0 -111.445,-49.987 -111.445,-111.445c0,-61.445 50,-111.432 111.445,-111.432" style="fill:none;fill-rule:nonzero;stroke:#3c6db5;stroke-width:6.51px;"/><path d="M2266.543,2256.445c0,-354.914 -288.143,-643.06 -643.053,-643.06c-354.911,0 -643.053,288.145 -643.053,643.06c0,354.914 288.143,643.06 643.053,643.06c354.911,0 643.053,-288.145 643.053,-643.06Z" style="fill:none;stroke:#3c6db5;stroke-width:6.51px;"/><path d="M2269.875,967.007c0,-354.914 -288.145,-643.06 -643.06,-643.06c-354.914,0 -643.06,288.145 -643.06,643.06c0,354.914 288.145,643.06 643.06,643.06c354.914,0 643.06,-288.145 643.06,-643.06Z" style="fill:none;stroke:#3c6db5;stroke-width:6.51px;"/><circle cx="2259.918" cy="1613.386" r="643.06" style="fill:none;stroke:#3c6db5;stroke-width:6.51px;"/><ellipse cx="973.806" cy="1610.061" rx="643.06" ry="643.053" style="fill:none;stroke:#3c6db5;stroke-width:6.51px;"/><path d="M1524.763,1514.773c-52.409,52.409 -52.409,137.383 0,189.792c52.383,52.409 137.383,52.409 189.779,0c52.409,-52.409 52.409,-137.383 0,-189.792c-52.396,-52.409 -137.383,-52.409 -189.779,0Zm44.74,44.753c27.656,-27.656 72.656,-27.656 100.299,0c27.643,27.643 27.643,72.643 0,100.299c-27.643,27.643 -72.643,27.643 -100.299,0c-27.643,-27.656 -27.643,-72.656 0,-100.299" style="fill:none;fill-rule:nonzero;stroke:#3c6db5;stroke-width:6.51px;"/><path d="M2199.318,1609.489c-159.705,-159.705 -419.025,-159.705 -578.73,0c-159.705,159.705 -159.705,419.025 0,578.73c159.705,159.705 419.025,159.705 578.73,0c159.705,-159.705 159.705,-419.025 0,-578.73Z" style="fill:none;stroke:#3c6db5;stroke-width:6.51px;"/><path d="M1620.586,1027.776c-159.706,-159.702 -419.023,-159.7 -578.723,0.004c-159.701,159.704 -159.697,419.021 0.009,578.723c159.706,159.702 419.023,159.7 578.723,-0.004c159.701,-159.704 159.697,-419.021 -0.009,-578.723Z" style="fill:none;stroke:#3c6db5;stroke-width:6.51px;"/><path d="M1617.617,1033.743c-159.707,159.704 -159.712,419.023 -0.011,578.728c159.701,159.705 419.021,159.706 578.728,0.002c159.707,-159.704 159.712,-419.023 0.011,-578.728c-159.701,-159.705 -419.021,-159.706 -578.728,-0.002Z" style="fill:none;stroke:#3c6db5;stroke-width:6.51px;"/><path d="M1037.397,1610.98c-159.707,159.707 -159.708,419.029 -0.003,578.734c159.705,159.705 419.027,159.704 578.734,-0.003c159.707,-159.707 159.708,-419.029 0.003,-578.734c-159.705,-159.705 -419.027,-159.704 -578.734,0.003Z" style="fill:none;stroke:#3c6db5;stroke-width:6.51px;"/><path d="M1568.86,1486.914c-68.477,28.359 -100.99,106.862 -72.617,175.339c28.359,68.477 106.862,100.99 175.339,72.63c68.464,-28.372 100.99,-106.875 72.63,-175.352c-28.372,-68.477 -106.862,-100.99 -175.352,-72.617Zm24.219,58.451c36.133,-14.961 77.695,2.253 92.669,38.398c14.961,36.12 -2.253,77.682 -38.385,92.656c-36.133,14.961 -77.682,-2.266 -92.669,-38.385c-14.948,-36.133 2.266,-77.695 38.385,-92.669" style="fill:none;fill-rule:nonzero;stroke:#3c6db5;stroke-width:6.51px;"/><path d="M2155.845,1832.561c-86.429,-208.668 -326.012,-307.911 -534.681,-221.482c-208.67,86.429 -307.914,326.012 -221.485,534.68c86.429,208.668 326.012,307.911 534.681,221.482c208.67,-86.429 307.914,-326.012 221.485,-534.68Z" style="fill:none;stroke:#3c6db5;stroke-width:6.51px;"/><path d="M1843.776,1073.651c-86.436,-208.663 -326.02,-307.896 -534.685,-221.46c-208.665,86.436 -307.901,326.02 -221.465,534.683c86.436,208.663 326.02,307.896 534.685,221.46c208.665,-86.436 307.901,-326.02 221.465,-534.683Z" style="fill:none;stroke:#3c6db5;stroke-width:6.51px;"/><path d="M1838.729,1078.019c-208.665,86.433 -307.901,326.017 -221.467,534.685c86.434,208.668 326.016,307.908 534.681,221.475c208.665,-86.433 307.901,-326.017 221.467,-534.685c-86.434,-208.668 -326.016,-307.908 -534.681,-221.475Z" style="fill:none;stroke:#3c6db5;stroke-width:6.51px;"/><path d="M1081.787,1389.282c-208.665,86.433 -307.902,326.014 -221.469,534.679c86.433,208.665 326.014,307.902 534.679,221.469c208.665,-86.433 307.902,-326.014 221.469,-534.679c-86.433,-208.665 -326.014,-307.902 -534.679,-221.469Z" style="fill:none;stroke:#3c6db5;stroke-width:6.51px;"/><path d="M1494.665,1557.408c-28.372,68.477 4.154,146.966 72.63,175.339c68.477,28.359 146.979,-4.167 175.339,-72.63c28.372,-68.477 -4.141,-146.979 -72.63,-175.339c-68.464,-28.372 -146.966,4.154 -175.339,72.63Zm58.451,24.206c14.987,-36.12 56.536,-53.333 92.669,-38.372c36.133,14.974 53.346,56.523 38.385,92.656c-14.961,36.133 -56.536,53.346 -92.656,38.385c-36.133,-14.961 -53.346,-56.536 -38.398,-92.669" style="fill:none;fill-rule:nonzero;stroke:#3c6db5;stroke-width:6.51px;"/><path d="M2154.123,1386.764c-208.665,-86.433 -448.245,12.801 -534.676,221.462c-86.431,208.661 12.808,448.239 221.473,534.671c208.665,86.433 448.245,-12.801 534.676,-221.462c86.431,-208.661 -12.808,-448.239 -221.473,-534.671Z" style="fill:none;stroke:#3c6db5;stroke-width:6.51px;"/><path d="M1396.848,1070.8c-208.664,-86.432 -448.244,12.805 -534.676,221.468c-86.432,208.664 12.805,448.244 221.468,534.676c208.664,86.432 448.244,-12.805 534.676,-221.468c86.432,-208.664 -12.805,-448.244 -221.468,-534.676Z" style="fill:none;stroke:#3c6db5;stroke-width:6.51px;"/><path d="M1396.365,1077.454c-86.433,208.665 12.805,448.247 221.469,534.679c208.665,86.433 448.247,-12.805 534.679,-221.469c86.433,-208.665 -12.805,-448.247 -221.469,-534.679c-208.665,-86.433 -448.247,12.805 -534.679,221.469Z" style="fill:none;stroke:#3c6db5;stroke-width:6.51px;"/><path d="M1081.215,1832.79c-86.43,208.663 12.808,448.242 221.473,534.673c208.665,86.431 448.244,-12.806 534.675,-221.47c86.43,-208.663 -12.808,-448.242 -221.473,-534.673c-208.665,-86.431 -448.244,12.806 -534.675,221.47Z" style="fill:none;stroke:#3c6db5;stroke-width:6.51px;"/><path d="M1620.295,1907.484l-253.281,-438.672l506.536,0l-253.255,438.672Zm0,-607.5c-174.753,0 -316.406,141.667 -316.406,316.419c0,174.727 141.654,316.393 316.406,316.393c174.74,0 316.406,-141.667 316.406,-316.393c0,-174.753 -141.667,-316.419 -316.406,-316.419Z" style="fill:none;fill-rule:nonzero;stroke:#3c6db5;stroke-width:6.51px;"/><path d="M2977.412,762.705c0,-39.583 -32.139,-71.719 -71.725,-71.719c-39.586,0 -71.725,32.136 -71.725,71.719c0,39.583 32.139,71.719 71.725,71.719c39.586,0 71.725,-32.136 71.725,-71.719Z" style="fill:none;stroke:#3c6db5;stroke-width:6.51px;"/><path d="M3196.782,1319.575c0,-39.583 -32.136,-71.719 -71.719,-71.719c-39.583,0 -71.719,32.136 -71.719,71.719c0,39.583 32.136,71.719 71.719,71.719c39.583,0 71.719,-32.136 71.719,-71.719Z" style="fill:none;stroke:#3c6db5;stroke-width:6.51px;"/><path d="M2547.101,332.389c0,-39.583 -32.136,-71.719 -71.719,-71.719c-39.583,0 -71.719,32.136 -71.719,71.719c0,39.583 32.136,71.719 71.719,71.719c39.583,0 71.719,-32.136 71.719,-71.719Z" style="fill:none;stroke:#3c6db5;stroke-width:6.51px;"/><path d="M1990.218,104.575c0,-39.586 -32.136,-71.725 -71.719,-71.725c-39.583,0 -71.719,32.139 -71.719,71.725c0,39.586 32.136,71.725 71.719,71.725c39.583,0 71.719,-32.139 71.719,-71.725Z" style="fill:none;stroke:#3c6db5;stroke-width:6.51px;"/><path d="M1395.381,108.796c0,-39.579 -32.139,-71.712 -71.725,-71.712c-39.586,0 -71.725,32.133 -71.725,71.712c0,39.579 32.139,71.712 71.725,71.712c39.586,0 71.725,-32.133 71.725,-71.712Z" style="fill:none;stroke:#3c6db5;stroke-width:6.51px;"/><path d="M834.29,336.604c0,-39.583 -32.139,-71.719 -71.725,-71.719c-39.586,0 -71.725,32.136 -71.725,71.719c0,39.583 32.139,71.719 71.725,71.719c39.586,0 71.725,-32.136 71.725,-71.719Z" style="fill:none;stroke:#3c6db5;stroke-width:6.51px;"/><path d="M408.187,766.92c0,-39.583 -32.136,-71.719 -71.719,-71.719c-39.583,0 -71.719,32.136 -71.719,71.719c0,39.583 32.136,71.719 71.719,71.719c39.583,0 71.719,-32.136 71.719,-71.719Z" style="fill:none;stroke:#3c6db5;stroke-width:6.51px;"/><path d="M176.165,1319.575c0,-39.583 -32.139,-71.719 -71.725,-71.719c-39.586,0 -71.725,32.136 -71.725,71.719c0,39.583 32.139,71.719 71.725,71.719c39.586,0 71.725,-32.136 71.725,-71.719Z" style="fill:none;stroke:#3c6db5;stroke-width:6.51px;"/><path d="M180.375,1914.427c0,-39.583 -32.136,-71.719 -71.719,-71.719c-39.583,0 -71.719,32.136 -71.719,71.719c0,39.583 32.136,71.719 71.719,71.719c39.583,0 71.719,-32.136 71.719,-71.719Z" style="fill:none;stroke:#3c6db5;stroke-width:6.51px;"/><path d="M408.187,2467.08c0,-39.59 -32.136,-71.732 -71.719,-71.732c-39.583,0 -71.719,32.142 -71.719,71.732c0,39.59 32.136,71.732 71.719,71.732c39.583,0 71.719,-32.142 71.719,-71.732Z" style="fill:none;stroke:#3c6db5;stroke-width:6.51px;"/><path d="M842.72,2897.392c0,-39.583 -32.136,-71.719 -71.719,-71.719c-39.583,0 -71.719,32.136 -71.719,71.719c0,39.583 32.136,71.719 71.719,71.719c39.583,0 71.719,-32.136 71.719,-71.719Z" style="fill:none;stroke:#3c6db5;stroke-width:6.51px;"/><path d="M1391.158,3129.427c0,-39.583 -32.136,-71.719 -71.719,-71.719c-39.583,0 -71.719,32.136 -71.719,71.719c0,39.583 32.136,71.719 71.719,71.719c39.583,0 71.719,-32.136 71.719,-71.719Z" style="fill:none;stroke:#3c6db5;stroke-width:6.51px;"/><path d="M1986.01,3120.983c0,-39.583 -32.139,-71.719 -71.725,-71.719c-39.586,0 -71.725,32.136 -71.725,71.719c0,39.583 32.139,71.719 71.725,71.719c39.586,0 71.725,-32.136 71.725,-71.719Z" style="fill:none;stroke:#3c6db5;stroke-width:6.51px;"/><path d="M2542.88,2893.169c0,-39.583 -32.139,-71.719 -71.725,-71.719c-39.586,0 -71.725,32.136 -71.725,71.719c0,39.583 32.139,71.719 71.725,71.719c39.586,0 71.725,-32.136 71.725,-71.719Z" style="fill:none;stroke:#3c6db5;stroke-width:6.51px;"/><path d="M2964.76,2462.859c0,-39.59 -32.139,-71.732 -71.725,-71.732c-39.586,0 -71.725,32.142 -71.725,71.732c0,39.59 32.139,71.732 71.725,71.732c39.586,0 71.725,-32.142 71.725,-71.732Z" style="fill:none;stroke:#3c6db5;stroke-width:6.51px;"/><path d="M3196.782,1914.427c0,-39.583 -32.136,-71.719 -71.719,-71.719c-39.583,0 -71.719,32.136 -71.719,71.719c0,39.583 32.136,71.719 71.719,71.719c39.583,0 71.719,-32.136 71.719,-71.719Z" style="fill:none;stroke:#3c6db5;stroke-width:6.51px;"/><path d="M2636.302,976.557c0,-29.673 -24.093,-53.763 -53.77,-53.763c-29.676,0 -53.77,24.09 -53.77,53.763c0,29.673 24.093,53.763 53.77,53.763c29.676,0 53.77,-24.09 53.77,-53.763Z" style="fill:none;stroke:#3c6db5;stroke-width:6.51px;"/><path d="M2800.754,1394.037c0,-29.673 -24.093,-53.763 -53.77,-53.763c-29.676,0 -53.77,24.09 -53.77,53.763c0,29.673 24.093,53.763 53.77,53.763c29.676,0 53.77,-24.09 53.77,-53.763Z" style="fill:none;stroke:#3c6db5;stroke-width:6.51px;"/><path d="M2313.692,653.967c0,-29.673 -24.09,-53.763 -53.763,-53.763c-29.673,0 -53.763,24.09 -53.763,53.763c0,29.673 24.09,53.763 53.763,53.763c29.673,0 53.763,-24.09 53.763,-53.763Z" style="fill:none;stroke:#3c6db5;stroke-width:6.51px;"/><path d="M1896.238,483.183c0,-29.676 -24.093,-53.77 -53.77,-53.77c-29.676,0 -53.77,24.093 -53.77,53.77c0,29.676 24.093,53.77 53.77,53.77c29.676,0 53.77,-24.093 53.77,-53.77Z" style="fill:none;stroke:#3c6db5;stroke-width:6.51px;"/><path d="M1450.299,486.35c0,-29.676 -24.093,-53.77 -53.77,-53.77c-29.676,0 -53.77,24.093 -53.77,53.77c0,29.676 24.093,53.77 53.77,53.77c29.676,0 53.77,-24.093 53.77,-53.77Z" style="fill:none;stroke:#3c6db5;stroke-width:6.51px;"/><path d="M1029.665,657.127c0,-29.673 -24.093,-53.763 -53.77,-53.763c-29.676,0 -53.77,24.09 -53.77,53.763c0,29.673 24.093,53.763 53.77,53.763c29.676,0 53.77,-24.09 53.77,-53.763Z" style="fill:none;stroke:#3c6db5;stroke-width:6.51px;"/><path d="M710.235,979.717c0,-29.676 -24.09,-53.77 -53.763,-53.77c-29.673,0 -53.763,24.093 -53.763,53.77c0,29.676 24.09,53.77 53.763,53.77c29.673,0 53.763,-24.093 53.763,-53.77Z" style="fill:none;stroke:#3c6db5;stroke-width:6.51px;"/><path d="M536.285,1394.037c0,-29.673 -24.09,-53.763 -53.763,-53.763c-29.673,0 -53.763,24.09 -53.763,53.763c0,29.673 24.09,53.763 53.763,53.763c29.673,0 53.763,-24.09 53.763,-53.763Z" style="fill:none;stroke:#3c6db5;stroke-width:6.51px;"/><path d="M539.451,1839.963c0,-29.673 -24.093,-53.763 -53.77,-53.763c-29.676,0 -53.77,24.09 -53.77,53.763c0,29.673 24.093,53.763 53.77,53.763c29.676,0 53.77,-24.09 53.77,-53.763Z" style="fill:none;stroke:#3c6db5;stroke-width:6.51px;"/><path d="M710.235,2254.283c0,-29.673 -24.09,-53.763 -53.763,-53.763c-29.673,0 -53.763,24.09 -53.763,53.763c0,29.673 24.09,53.763 53.763,53.763c29.673,0 53.763,-24.09 53.763,-53.763Z" style="fill:none;stroke:#3c6db5;stroke-width:6.51px;"/><path d="M1035.985,2576.868c0,-29.68 -24.09,-53.776 -53.763,-53.776c-29.673,0 -53.763,24.096 -53.763,53.776c0,29.68 24.09,53.776 53.763,53.776c29.673,0 53.763,-24.096 53.763,-53.776Z" style="fill:none;stroke:#3c6db5;stroke-width:6.51px;"/><path d="M1447.134,2750.817c0,-29.68 -24.093,-53.776 -53.77,-53.776c-29.676,0 -53.77,24.096 -53.77,53.776c0,29.68 24.093,53.776 53.77,53.776c29.676,0 53.77,-24.096 53.77,-53.776Z" style="fill:none;stroke:#3c6db5;stroke-width:6.51px;"/><path d="M1893.071,2744.485c0,-29.68 -24.093,-53.776 -53.77,-53.776c-29.676,0 -53.77,24.096 -53.77,53.776c0,29.68 24.093,53.776 53.77,53.776c29.676,0 53.77,-24.096 53.77,-53.776Z" style="fill:none;stroke:#3c6db5;stroke-width:6.51px;"/><path d="M2310.539,2573.701c0,-29.673 -24.093,-53.763 -53.77,-53.763c-29.676,0 -53.77,24.09 -53.77,53.763c0,29.673 24.093,53.763 53.77,53.763c29.676,0 53.77,-24.09 53.77,-53.763Z" style="fill:none;stroke:#3c6db5;stroke-width:6.51px;"/><path d="M2626.803,2251.105c0,-29.673 -24.093,-53.763 -53.77,-53.763c-29.676,0 -53.77,24.09 -53.77,53.763c0,29.673 24.093,53.763 53.77,53.763c29.676,0 53.77,-24.09 53.77,-53.763Z" style="fill:none;stroke:#3c6db5;stroke-width:6.51px;"/><path d="M2800.754,1839.963c0,-29.673 -24.093,-53.763 -53.77,-53.763c-29.676,0 -53.77,24.09 -53.77,53.763c0,29.673 24.093,53.763 53.77,53.763c29.676,0 53.77,-24.09 53.77,-53.763Z" style="fill:none;stroke:#3c6db5;stroke-width:6.51px;"/><path d="M2856.143,840.054c0,-35.997 -29.231,-65.221 -65.234,-65.221c-36.004,0 -65.234,29.225 -65.234,65.221c0,35.997 29.231,65.221 65.234,65.221c36.004,0 65.234,-29.225 65.234,-65.221Z" style="fill:none;stroke:#3c6db5;stroke-width:6.51px;"/><path d="M3055.651,1346.506c0,-35.997 -29.228,-65.221 -65.228,-65.221c-36,0 -65.228,29.225 -65.228,65.221c0,35.997 29.228,65.221 65.228,65.221c36,0 65.228,-29.225 65.228,-65.221Z" style="fill:none;stroke:#3c6db5;stroke-width:6.51px;"/><path d="M2464.78,448.712c0,-36 -29.228,-65.228 -65.228,-65.228c-36,0 -65.228,29.228 -65.228,65.228c0,36 29.228,65.228 65.228,65.228c36,0 65.228,-29.228 65.228,-65.228Z" style="fill:none;stroke:#3c6db5;stroke-width:6.51px;"/><path d="M1958.341,241.523c0,-36 -29.228,-65.228 -65.228,-65.228c-36,0 -65.228,29.228 -65.228,65.228c0,36 29.228,65.228 65.228,65.228c36,0 65.228,-29.228 65.228,-65.228Z" style="fill:none;stroke:#3c6db5;stroke-width:6.51px;"/><path d="M1417.354,245.356c0,-35.997 -29.228,-65.221 -65.228,-65.221c-36,0 -65.228,29.225 -65.228,65.221c0,35.997 29.228,65.221 65.228,65.221c36,0 65.228,-29.225 65.228,-65.221Z" style="fill:none;stroke:#3c6db5;stroke-width:6.51px;"/><path d="M907.061,452.539c0,-35.997 -29.228,-65.221 -65.228,-65.221c-36,0 -65.228,29.225 -65.228,65.221c0,35.997 29.228,65.221 65.228,65.221c36,0 65.228,-29.225 65.228,-65.221Z" style="fill:none;stroke:#3c6db5;stroke-width:6.51px;"/><path d="M519.552,843.889c0,-36 -29.228,-65.228 -65.228,-65.228c-36,0 -65.228,29.228 -65.228,65.228c0,36 29.228,65.228 65.228,65.228c36,0 65.228,-29.228 65.228,-65.228Z" style="fill:none;stroke:#3c6db5;stroke-width:6.51px;"/><path d="M308.528,1346.506c0,-35.997 -29.228,-65.221 -65.228,-65.221c-36,0 -65.228,29.225 -65.228,65.221c0,35.997 29.228,65.221 65.228,65.221c36,0 65.228,-29.225 65.228,-65.221Z" style="fill:none;stroke:#3c6db5;stroke-width:6.51px;"/><path d="M312.369,1887.488c0,-36 -29.228,-65.228 -65.228,-65.228c-36,0 -65.228,29.228 -65.228,65.228c0,36 29.228,65.228 65.228,65.228c36,0 65.228,-29.228 65.228,-65.228Z" style="fill:none;stroke:#3c6db5;stroke-width:6.51px;"/><path d="M519.552,2390.1c0,-35.997 -29.228,-65.221 -65.228,-65.221c-36,0 -65.228,29.225 -65.228,65.221c0,35.997 29.228,65.221 65.228,65.221c36,0 65.228,-29.225 65.228,-65.221Z" style="fill:none;stroke:#3c6db5;stroke-width:6.51px;"/><path d="M914.735,2781.462c0,-35.997 -29.225,-65.221 -65.221,-65.221c-35.997,0 -65.221,29.225 -65.221,65.221c0,35.997 29.225,65.221 65.221,65.221c35.997,0 65.221,-29.225 65.221,-65.221Z" style="fill:none;stroke:#3c6db5;stroke-width:6.51px;"/><path d="M1413.526,2992.479c0,-36.004 -29.231,-65.234 -65.234,-65.234c-36.004,0 -65.234,29.231 -65.234,65.234c0,36.004 29.231,65.234 65.234,65.234c36.004,0 65.234,-29.231 65.234,-65.234Z" style="fill:none;stroke:#3c6db5;stroke-width:6.51px;"/><path d="M1954.488,2984.811c0,-35.997 -29.225,-65.221 -65.221,-65.221c-35.997,0 -65.221,29.225 -65.221,65.221c0,35.997 29.225,65.221 65.221,65.221c35.997,0 65.221,-29.225 65.221,-65.221Z" style="fill:none;stroke:#3c6db5;stroke-width:6.51px;"/><path d="M2460.953,2777.622c0,-35.997 -29.228,-65.221 -65.228,-65.221c-36,0 -65.228,29.225 -65.228,65.221c0,35.997 29.228,65.221 65.228,65.221c36,0 65.228,-29.225 65.228,-65.221Z" style="fill:none;stroke:#3c6db5;stroke-width:6.51px;"/><path d="M2844.622,2386.273c0,-36.004 -29.228,-65.234 -65.228,-65.234c-36,0 -65.228,29.231 -65.228,65.234c0,36.004 29.228,65.234 65.228,65.234c36,0 65.228,-29.231 65.228,-65.234Z" style="fill:none;stroke:#3c6db5;stroke-width:6.51px;"/><path d="M3055.651,1887.488c0,-36 -29.228,-65.228 -65.228,-65.228c-36,0 -65.228,29.228 -65.228,65.228c0,36 29.228,65.228 65.228,65.228c36,0 65.228,-29.228 65.228,-65.228Z" style="fill:none;stroke:#3c6db5;stroke-width:6.51px;"/><path d="M2437.022,1104.134c0,-23.765 -19.292,-43.06 -43.053,-43.06c-23.762,0 -43.053,19.294 -43.053,43.06c0,23.765 19.292,43.06 43.053,43.06c23.762,0 43.053,-19.294 43.053,-43.06Z" style="fill:none;stroke:#3c6db5;stroke-width:6.51px;"/><path d="M2568.718,1438.441c0,-23.765 -19.292,-43.06 -43.053,-43.06c-23.762,0 -43.053,19.294 -43.053,43.06c0,23.765 19.292,43.06 43.053,43.06c23.762,0 43.053,-19.294 43.053,-43.06Z" style="fill:none;stroke:#3c6db5;stroke-width:6.51px;"/><path d="M2178.691,845.802c0,-23.765 -19.292,-43.06 -43.053,-43.06c-23.762,0 -43.053,19.294 -43.053,43.06c0,23.765 19.292,43.06 43.053,43.06c23.762,0 43.053,-19.294 43.053,-43.06Z" style="fill:none;stroke:#3c6db5;stroke-width:6.51px;"/><path d="M1844.384,709.039c0,-23.762 -19.292,-43.053 -43.053,-43.053c-23.762,0 -43.053,19.292 -43.053,43.053c0,23.762 19.292,43.053 43.053,43.053c23.762,0 43.053,-19.292 43.053,-43.053Z" style="fill:none;stroke:#3c6db5;stroke-width:6.51px;"/><path d="M1487.277,711.576c0,-23.765 -19.292,-43.06 -43.053,-43.06c-23.762,0 -43.053,19.294 -43.053,43.06c0,23.765 19.292,43.06 43.053,43.06c23.762,0 43.053,-19.294 43.053,-43.06Z" style="fill:none;stroke:#3c6db5;stroke-width:6.51px;"/><path d="M1150.427,848.333c0,-23.762 -19.292,-43.053 -43.053,-43.053c-23.762,0 -43.053,19.292 -43.053,43.053c0,23.762 19.292,43.053 43.053,43.053c23.762,0 43.053,-19.292 43.053,-43.053Z" style="fill:none;stroke:#3c6db5;stroke-width:6.51px;"/><path d="M894.631,1106.67c0,-23.762 -19.292,-43.053 -43.053,-43.053c-23.762,0 -43.053,19.292 -43.053,43.053c0,23.762 19.292,43.053 43.053,43.053c23.762,0 43.053,-19.292 43.053,-43.053Z" style="fill:none;stroke:#3c6db5;stroke-width:6.51px;"/><path d="M755.338,1438.441c0,-23.765 -19.292,-43.06 -43.053,-43.06c-23.762,0 -43.053,19.294 -43.053,43.06c0,23.765 19.292,43.06 43.053,43.06c23.762,0 43.053,-19.294 43.053,-43.06Z" style="fill:none;stroke:#3c6db5;stroke-width:6.51px;"/><path d="M757.868,1795.548c0,-23.762 -19.292,-43.053 -43.053,-43.053c-23.762,0 -43.053,19.292 -43.053,43.053c0,23.762 19.292,43.053 43.053,43.053c23.762,0 43.053,-19.292 43.053,-43.053Z" style="fill:none;stroke:#3c6db5;stroke-width:6.51px;"/><path d="M894.631,2127.33c0,-23.765 -19.292,-43.06 -43.053,-43.06c-23.762,0 -43.053,19.294 -43.053,43.06c0,23.765 19.292,43.06 43.053,43.06c23.762,0 43.053,-19.294 43.053,-43.06Z" style="fill:none;stroke:#3c6db5;stroke-width:6.51px;"/><path d="M1155.493,2385.662c0,-23.765 -19.292,-43.06 -43.053,-43.06c-23.762,0 -43.053,19.294 -43.053,43.06c0,23.765 19.292,43.06 43.053,43.06c23.762,0 43.053,-19.294 43.053,-43.06Z" style="fill:none;stroke:#3c6db5;stroke-width:6.51px;"/><path d="M1484.734,2524.949c0,-23.765 -19.292,-43.06 -43.053,-43.06c-23.762,0 -43.053,19.294 -43.053,43.06c0,23.765 19.292,43.06 43.053,43.06c23.762,0 43.053,-19.294 43.053,-43.06Z" style="fill:none;stroke:#3c6db5;stroke-width:6.51px;"/><path d="M1841.852,2519.889c0,-23.765 -19.294,-43.06 -43.06,-43.06c-23.765,0 -43.06,19.294 -43.06,43.06c0,23.765 19.294,43.06 43.06,43.06c23.765,0 43.06,-19.294 43.06,-43.06Z" style="fill:none;stroke:#3c6db5;stroke-width:6.51px;"/><path d="M2176.16,2383.119c0,-23.765 -19.292,-43.06 -43.053,-43.06c-23.762,0 -43.053,19.294 -43.053,43.06c0,23.765 19.292,43.06 43.053,43.06c23.762,0 43.053,-19.294 43.053,-43.06Z" style="fill:none;stroke:#3c6db5;stroke-width:6.51px;"/><path d="M2429.418,2124.794c0,-23.762 -19.292,-43.053 -43.053,-43.053c-23.762,0 -43.053,19.292 -43.053,43.053c0,23.762 19.292,43.053 43.053,43.053c23.762,0 43.053,-19.292 43.053,-43.053Z" style="fill:none;stroke:#3c6db5;stroke-width:6.51px;"/><path d="M2568.718,1795.548c0,-23.762 -19.292,-43.053 -43.053,-43.053c-23.762,0 -43.053,19.292 -43.053,43.053c0,23.762 19.292,43.053 43.053,43.053c23.762,0 43.053,-19.292 43.053,-43.053Z" style="fill:none;stroke:#3c6db5;stroke-width:6.51px;"/><path d="M2161.231,1277.041c0,-15.753 -12.789,-28.542 -28.542,-28.542c-15.753,0 -28.542,12.789 -28.542,28.542c0,15.753 12.789,28.542 28.542,28.542c15.753,0 28.542,-12.789 28.542,-28.542Z" style="fill:none;stroke:#3c6db5;stroke-width:6.51px;"/><path d="M2248.524,1498.649c0,-15.749 -12.789,-28.535 -28.542,-28.535c-15.753,0 -28.542,12.786 -28.542,28.535c0,15.749 12.789,28.535 28.542,28.535c15.753,0 28.542,-12.786 28.542,-28.535Z" style="fill:none;stroke:#3c6db5;stroke-width:6.51px;"/><path d="M1989.99,1105.806c0,-15.749 -12.789,-28.535 -28.542,-28.535c-15.753,0 -28.542,12.786 -28.542,28.535c0,15.749 12.789,28.535 28.542,28.535c15.753,0 28.542,-12.786 28.542,-28.535Z" style="fill:none;stroke:#3c6db5;stroke-width:6.51px;"/><path d="M1768.381,1015.149c0,-15.753 -12.789,-28.542 -28.542,-28.542c-15.753,0 -28.542,12.789 -28.542,28.542c0,15.753 12.789,28.542 28.542,28.542c15.753,0 28.542,-12.789 28.542,-28.542Z" style="fill:none;stroke:#3c6db5;stroke-width:6.51px;"/><path d="M1531.679,1016.834c0,-15.749 -12.789,-28.535 -28.542,-28.535c-15.753,0 -28.542,12.786 -28.542,28.535c0,15.749 12.789,28.535 28.542,28.535c15.753,0 28.542,-12.786 28.542,-28.535Z" style="fill:none;stroke:#3c6db5;stroke-width:6.51px;"/><path d="M1308.393,1107.484c0,-15.749 -12.789,-28.535 -28.542,-28.535c-15.753,0 -28.542,12.786 -28.542,28.535c0,15.749 12.789,28.535 28.542,28.535c15.753,0 28.542,-12.786 28.542,-28.535Z" style="fill:none;stroke:#3c6db5;stroke-width:6.51px;"/><path d="M1138.842,1278.726c0,-15.749 -12.789,-28.535 -28.542,-28.535c-15.753,0 -28.542,12.786 -28.542,28.535c0,15.749 12.789,28.535 28.542,28.535c15.753,0 28.542,-12.786 28.542,-28.535Z" style="fill:none;stroke:#3c6db5;stroke-width:6.51px;"/><path d="M1046.501,1498.649c0,-15.749 -12.789,-28.535 -28.542,-28.535c-15.753,0 -28.542,12.786 -28.542,28.535c0,15.749 12.789,28.535 28.542,28.535c15.753,0 28.542,-12.786 28.542,-28.535Z" style="fill:none;stroke:#3c6db5;stroke-width:6.51px;"/><path d="M1048.179,1735.351c0,-15.753 -12.786,-28.542 -28.535,-28.542c-15.749,0 -28.535,12.789 -28.535,28.542c0,15.753 12.786,28.542 28.535,28.542c15.749,0 28.535,-12.789 28.535,-28.542Z" style="fill:none;stroke:#3c6db5;stroke-width:6.51px;"/><path d="M1138.842,1955.276c0,-15.749 -12.789,-28.535 -28.542,-28.535c-15.753,0 -28.542,12.786 -28.542,28.535c0,15.749 12.789,28.535 28.542,28.535c15.753,0 28.542,-12.786 28.542,-28.535Z" style="fill:none;stroke:#3c6db5;stroke-width:6.51px;"/><path d="M1311.75,2126.517c0,-15.745 -12.786,-28.529 -28.535,-28.529c-15.749,0 -28.535,12.783 -28.535,28.529c0,15.745 12.786,28.529 28.535,28.529c15.749,0 28.535,-12.783 28.535,-28.529Z" style="fill:none;stroke:#3c6db5;stroke-width:6.51px;"/><path d="M1530.001,2218.846c0,-15.753 -12.789,-28.542 -28.542,-28.542c-15.753,0 -28.542,12.789 -28.542,28.542c0,15.753 12.789,28.542 28.542,28.542c15.753,0 28.542,-12.789 28.542,-28.542Z" style="fill:none;stroke:#3c6db5;stroke-width:6.51px;"/><path d="M1766.703,2215.481c0,-15.749 -12.789,-28.535 -28.542,-28.535c-15.753,0 -28.542,12.786 -28.542,28.535c0,15.749 12.789,28.535 28.542,28.535c15.753,0 28.542,-12.786 28.542,-28.535Z" style="fill:none;stroke:#3c6db5;stroke-width:6.51px;"/><path d="M1988.312,2124.832c0,-15.749 -12.789,-28.535 -28.542,-28.535c-15.753,0 -28.542,12.786 -28.542,28.535c0,15.749 12.789,28.535 28.542,28.535c15.753,0 28.542,-12.786 28.542,-28.535Z" style="fill:none;stroke:#3c6db5;stroke-width:6.51px;"/><path d="M2156.196,1953.597c0,-15.753 -12.792,-28.542 -28.548,-28.542c-15.756,0 -28.548,12.789 -28.548,28.542c0,15.753 12.792,28.542 28.548,28.542c15.756,0 28.548,-12.789 28.548,-28.542Z" style="fill:none;stroke:#3c6db5;stroke-width:6.51px;"/><path d="M2248.524,1735.351c0,-15.753 -12.789,-28.542 -28.542,-28.542c-15.753,0 -28.542,12.789 -28.542,28.542c0,15.753 12.789,28.542 28.542,28.542c15.753,0 28.542,-12.789 28.542,-28.542Z" style="fill:none;stroke:#3c6db5;stroke-width:6.51px;"/></svg>