<?xml version="1.0" encoding="UTF-8"?><svg xmlns="http://www.w3.org/2000/svg" width="1000" height="1000" viewBox="0 0 1000 1000" style="fill-rule:evenodd;stroke-miterlimit:10"><g id="eye-draw-this">
<rect width="1000" height="1000" style="fill:#000000"/>
<circle cx="500.000" cy="500.000" r="492.000" style="fill:none;stroke:#941952;stroke-width:0.595px"/>
<circle cx="500.000" cy="500.000" r="478.000" style="fill:none;stroke:#941952;stroke-width:1.15px"/>
<circle cx="500.000" cy="500.000" r="420.000" style="fill:none;stroke:#941952;stroke-width:0.85px"/>
<circle cx="500.000" cy="500.000" r="360.000" style="fill:none;stroke:#941952;stroke-width:0.85px"/>
<circle cx="500.000" cy="500.000" r="300.000" style="fill:none;stroke:#941952;stroke-width:0.85px"/>
<circle cx="500.000" cy="500.000" r="245.000" style="fill:none;stroke:#941952;stroke-width:0.85px"/>
<circle cx="500.000" cy="500.000" r="195.000" style="fill:none;stroke:#941952;stroke-width:0.85px"/>
<circle cx="500.000" cy="500.000" r="150.000" style="fill:none;stroke:#941952;stroke-width:0.85px"/>
<circle cx="500.000" cy="500.000" r="115.000" style="fill:none;stroke:#941952;stroke-width:0.85px"/>
<circle cx="500.000" cy="500.000" r="85.000" style="fill:none;stroke:#941952;stroke-width:0.85px"/>
<path d="M500.000,500.000L978.000,500.000" style="fill:none;stroke:#941952;stroke-width:0.6375px;stroke-linecap:round"/>
<path d="M500.000,500.000L837.997,837.997" style="fill:none;stroke:#941952;stroke-width:0.6375px;stroke-linecap:round"/>
<path d="M500.000,500.000L500.000,978.000" style="fill:none;stroke:#941952;stroke-width:0.6375px;stroke-linecap:round"/>
<path d="M500.000,500.000L162.003,837.997" style="fill:none;stroke:#941952;stroke-width:0.6375px;stroke-linecap:round"/>
<path d="M500.000,500.000L22.000,500.000" style="fill:none;stroke:#941952;stroke-width:0.6375px;stroke-linecap:round"/>
<path d="M500.000,500.000L162.003,162.003" style="fill:none;stroke:#941952;stroke-width:0.6375px;stroke-linecap:round"/>
<path d="M500.000,500.000L500.000,22.000" style="fill:none;stroke:#941952;stroke-width:0.6375px;stroke-linecap:round"/>
<path d="M500.000,500.000L837.997,162.003" style="fill:none;stroke:#941952;stroke-width:0.6375px;stroke-linecap:round"/>
<g transform="rotate(0.000 500.000 500.000)"><path d="M500.000,110.360Q328.640,372.500 426.560,451.040L573.440,451.040Q671.360,372.500 500.000,110.360Z" style="fill:none;stroke:#941952;stroke-width:0.85px"/></g>
<g transform="rotate(90.000 500.000 500.000)"><path d="M500.000,110.360Q328.640,372.500 426.560,451.040L573.440,451.040Q671.360,372.500 500.000,110.360Z" style="fill:none;stroke:#941952;stroke-width:0.85px"/></g>
<g transform="rotate(180.000 500.000 500.000)"><path d="M500.000,110.360Q328.640,372.500 426.560,451.040L573.440,451.040Q671.360,372.500 500.000,110.360Z" style="fill:none;stroke:#941952;stroke-width:0.85px"/></g>
<g transform="rotate(270.000 500.000 500.000)"><path d="M500.000,110.360Q328.640,372.500 426.560,451.040L573.440,451.040Q671.360,372.500 500.000,110.360Z" style="fill:none;stroke:#941952;stroke-width:0.85px"/></g>
<g transform="rotate(0.000 500.000 500.000)"><path d="M500.000,133.280Q338.720,380.000 430.880,453.920L569.120,453.920Q661.280,380.000 500.000,133.280Z" style="fill:none;stroke:#941952;stroke-width:0.85px"/></g>
<g transform="rotate(90.000 500.000 500.000)"><path d="M500.000,133.280Q338.720,380.000 430.880,453.920L569.120,453.920Q661.280,380.000 500.000,133.280Z" style="fill:none;stroke:#941952;stroke-width:0.85px"/></g>
<g transform="rotate(180.000 500.000 500.000)"><path d="M500.000,133.280Q338.720,380.000 430.880,453.920L569.120,453.920Q661.280,380.000 500.000,133.280Z" style="fill:none;stroke:#941952;stroke-width:0.85px"/></g>
<g transform="rotate(270.000 500.000 500.000)"><path d="M500.000,133.280Q338.720,380.000 430.880,453.920L569.120,453.920Q661.280,380.000 500.000,133.280Z" style="fill:none;stroke:#941952;stroke-width:0.85px"/></g>
<g transform="rotate(0.000 500.000 500.000)"><path d="M500.000,156.200Q348.800,387.500 435.200,456.800L564.800,456.800Q651.200,387.500 500.000,156.200Z" style="fill:none;stroke:#941952;stroke-width:0.85px"/></g>
<g transform="rotate(90.000 500.000 500.000)"><path d="M500.000,156.200Q348.800,387.500 435.200,456.800L564.800,456.800Q651.200,387.500 500.000,156.200Z" style="fill:none;stroke:#941952;stroke-width:0.85px"/></g>
<g transform="rotate(180.000 500.000 500.000)"><path d="M500.000,156.200Q348.800,387.500 435.200,456.800L564.800,456.800Q651.200,387.500 500.000,156.200Z" style="fill:none;stroke:#941952;stroke-width:0.85px"/></g>
<g transform="rotate(270.000 500.000 500.000)"><path d="M500.000,156.200Q348.800,387.500 435.200,456.800L564.800,456.800Q651.200,387.500 500.000,156.200Z" style="fill:none;stroke:#941952;stroke-width:0.85px"/></g>
<g transform="rotate(0.000 500.000 500.000)"><path d="M500.000,179.120Q358.880,395.000 439.520,459.680L560.480,459.680Q641.120,395.000 500.000,179.120Z" style="fill:none;stroke:#941952;stroke-width:0.85px"/></g>
<g transform="rotate(90.000 500.000 500.000)"><path d="M500.000,179.120Q358.880,395.000 439.520,459.680L560.480,459.680Q641.120,395.000 500.000,179.120Z" style="fill:none;stroke:#941952;stroke-width:0.85px"/></g>
<g transform="rotate(180.000 500.000 500.000)"><path d="M500.000,179.120Q358.880,395.000 439.520,459.680L560.480,459.680Q641.120,395.000 500.000,179.120Z" style="fill:none;stroke:#941952;stroke-width:0.85px"/></g>
<g transform="rotate(270.000 500.000 500.000)"><path d="M500.000,179.120Q358.880,395.000 439.520,459.680L560.480,459.680Q641.120,395.000 500.000,179.120Z" style="fill:none;stroke:#941952;stroke-width:0.85px"/></g>
<g transform="rotate(0.000 500.000 500.000)"><path d="M500.000,202.040Q368.960,402.500 443.840,462.560L556.160,462.560Q631.040,402.500 500.000,202.040Z" style="fill:none;stroke:#941952;stroke-width:1.15px"/></g>
<g transform="rotate(90.000 500.000 500.000)"><path d="M500.000,202.040Q368.960,402.500 443.840,462.560L556.160,462.560Q631.040,402.500 500.000,202.040Z" style="fill:none;stroke:#941952;stroke-width:1.15px"/></g>
<g transform="rotate(180.000 500.000 500.000)"><path d="M500.000,202.040Q368.960,402.500 443.840,462.560L556.160,462.560Q631.040,402.500 500.000,202.040Z" style="fill:none;stroke:#941952;stroke-width:1.15px"/></g>
<g transform="rotate(270.000 500.000 500.000)"><path d="M500.000,202.040Q368.960,402.500 443.840,462.560L556.160,462.560Q631.040,402.500 500.000,202.040Z" style="fill:none;stroke:#941952;stroke-width:1.15px"/></g>
<circle cx="747.600" cy="602.559" r="13.000" style="fill:none;stroke:#941952;stroke-width:0.51px"/>
<circle cx="747.600" cy="602.559" r="8.500" style="fill:none;stroke:#941952;stroke-width:0.3825px"/>
<circle cx="602.559" cy="747.600" r="13.000" style="fill:none;stroke:#941952;stroke-width:0.51px"/>
<circle cx="602.559" cy="747.600" r="8.500" style="fill:none;stroke:#941952;stroke-width:0.3825px"/>
<circle cx="397.441" cy="747.600" r="13.000" style="fill:none;stroke:#941952;stroke-width:0.51px"/>
<circle cx="397.441" cy="747.600" r="8.500" style="fill:none;stroke:#941952;stroke-width:0.3825px"/>
<circle cx="252.400" cy="602.559" r="13.000" style="fill:none;stroke:#941952;stroke-width:0.51px"/>
<circle cx="252.400" cy="602.559" r="8.500" style="fill:none;stroke:#941952;stroke-width:0.3825px"/>
<circle cx="252.400" cy="397.441" r="13.000" style="fill:none;stroke:#941952;stroke-width:0.51px"/>
<circle cx="252.400" cy="397.441" r="8.500" style="fill:none;stroke:#941952;stroke-width:0.3825px"/>
<circle cx="397.441" cy="252.400" r="13.000" style="fill:none;stroke:#941952;stroke-width:0.51px"/>
<circle cx="397.441" cy="252.400" r="8.500" style="fill:none;stroke:#941952;stroke-width:0.3825px"/>
<circle cx="602.559" cy="252.400" r="13.000" style="fill:none;stroke:#941952;stroke-width:0.51px"/>
<circle cx="602.559" cy="252.400" r="8.500" style="fill:none;stroke:#941952;stroke-width:0.3825px"/>
<circle cx="747.600" cy="397.441" r="13.000" style="fill:none;stroke:#941952;stroke-width:0.51px"/>
<circle cx="747.600" cy="397.441" r="8.500" style="fill:none;stroke:#941952;stroke-width:0.3825px"/>
<circle cx="500.000" cy="500.000" r="38.000" fill="#ffffff" stroke="none"/>
<path d="M500.000,516.320L482.000,487.080L518.000,487.080Z" style="fill:none;stroke:#941952;stroke-width:1.6px;stroke-linejoin:miter"/>
<path d="M487.400,492.520L512.600,492.520" style="fill:none;stroke:#941952;stroke-width:1.2px;stroke-linecap:round"/>
</g></svg>