<?xml version="1.0" encoding="UTF-8" standalone="no"?>
<!DOCTYPE svg PUBLIC "-//W3C//DTD SVG 1.1//EN" "http://www.w3.org/Graphics/SVG/1.1/DTD/svg11.dtd">
<svg width="100%" height="100%" viewBox="0 0 3544 3544" version="1.1" xmlns="http://www.w3.org/2000/svg" xmlns:xlink="http://www.w3.org/1999/xlink" xml:space="preserve" xmlns:serif="http://www.serif.com/" style="fill-rule:evenodd;clip-rule:evenodd;stroke-miterlimit:10;">
    <g id="_5" serif:id="5" transform="matrix(2.87895,0,0,2.87895,-35.6323,-19.4244)">
        <g transform="matrix(3.60285,2.09298,-2.09298,3.60285,-102.554,-2047.53)">
            <ellipse cx="473.036" cy="465.554" rx="35.643" ry="35.644" style="fill:none;stroke:rgb(35,31,32);stroke-width:0.87px;"/>
        </g>
        <g transform="matrix(3.60284,2.093,-2.093,3.60284,-102.555,-2047.54)">
            <path d="M473.036,358.627C413.935,358.631 366.109,406.45 366.11,465.553C366.115,524.653 413.935,572.483 473.036,572.479C532.137,572.474 579.967,524.653 579.962,465.553C579.964,406.448 532.139,358.625 473.036,358.627Z" style="fill:none;fill-rule:nonzero;stroke:rgb(35,31,32);stroke-width:0.87px;"/>
        </g>
        <g transform="matrix(0.810692,4.08704,-4.08704,0.810692,2149.62,-1690.49)">
            <ellipse cx="473.343" cy="466.047" rx="85.558" ry="85.558" style="fill:none;stroke:rgb(35,31,32);stroke-width:0.87px;"/>
        </g>
        <g transform="matrix(0,4.16667,-4.16667,0,2731.69,-1189.24)">
            <path d="M434.67,504.728L512.041,504.728" style="fill:none;fill-rule:nonzero;stroke:rgb(35,31,32);stroke-width:0.87px;"/>
        </g>
        <g transform="matrix(1.59543,3.84912,-3.84912,1.59543,1842.94,-1908.78)">
            <path d="M449.483,501.78L526.852,501.78" style="fill:none;fill-rule:nonzero;stroke:rgb(35,31,32);stroke-width:0.87px;"/>
        </g>
        <g transform="matrix(2.94631,2.94625,-2.94625,2.94631,721.045,-2193.05)">
            <path d="M462.026,493.395L539.388,493.395" style="fill:none;fill-rule:nonzero;stroke:rgb(35,31,32);stroke-width:0.87px;"/>
        </g>
        <g transform="matrix(3.84933,1.59491,-1.59491,3.84933,-415.195,-1979.33)">
            <path d="M470.409,480.852L547.782,480.852" style="fill:none;fill-rule:nonzero;stroke:rgb(35,31,32);stroke-width:0.87px;"/>
        </g>
        <g transform="matrix(4.16667,0,0,-4.16667,-1343.66,2563.73)">
            <path d="M473.355,466.043L550.734,466.043" style="fill:none;fill-rule:nonzero;stroke:rgb(35,31,32);stroke-width:0.87px;"/>
        </g>
        <g transform="matrix(3.84933,-1.59491,1.59491,3.84933,-1901.79,-364.809)">
            <path d="M470.409,451.234L547.782,451.234" style="fill:none;fill-rule:nonzero;stroke:rgb(35,31,32);stroke-width:0.87px;"/>
        </g>
        <g transform="matrix(2.9462,-2.94636,2.94636,2.9462,-2025.1,690.708)">
            <path d="M462.024,438.69L539.39,438.689" style="fill:none;fill-rule:nonzero;stroke:rgb(35,31,32);stroke-width:0.87px;"/>
        </g>
        <g transform="matrix(1.59535,-3.84915,3.84915,1.59535,-1744.74,1665.52)">
            <path d="M449.481,430.304L526.854,430.304" style="fill:none;fill-rule:nonzero;stroke:rgb(35,31,32);stroke-width:0.87px;"/>
        </g>
        <g transform="matrix(0,-4.16667,4.16667,0,-1152.01,2433.01)">
            <path d="M434.67,427.358L512.041,427.358" style="fill:none;fill-rule:nonzero;stroke:rgb(35,31,32);stroke-width:0.87px;"/>
        </g>
        <g transform="matrix(-1.59499,-3.8493,3.8493,-1.59499,-358.049,2924.39)">
            <path d="M419.861,430.304L497.232,430.304" style="fill:none;fill-rule:nonzero;stroke:rgb(35,31,32);stroke-width:0.87px;"/>
        </g>
        <g transform="matrix(-2.94606,-2.94649,2.94649,-2.94606,536.058,3114.47)">
            <path d="M407.325,438.689L484.686,438.689" style="fill:none;fill-rule:nonzero;stroke:rgb(35,31,32);stroke-width:0.87px;"/>
        </g>
        <g transform="matrix(-3.84929,-1.595,1.595,-3.84929,1444.54,2995.12)">
            <path d="M398.932,451.235L476.302,451.235" style="fill:none;fill-rule:nonzero;stroke:rgb(35,31,32);stroke-width:0.87px;"/>
        </g>
        <g transform="matrix(-4.16667,0,0,-4.16667,2278.58,2563.73)">
            <path d="M395.984,466.043L473.355,466.043" style="fill:none;fill-rule:nonzero;stroke:rgb(35,31,32);stroke-width:0.87px;"/>
        </g>
        <g transform="matrix(-3.84929,1.595,-1.595,-3.84929,2931.22,1836.52)">
            <path d="M398.932,480.852L476.302,480.852" style="fill:none;fill-rule:nonzero;stroke:rgb(35,31,32);stroke-width:0.87px;"/>
        </g>
        <g transform="matrix(-2.94617,2.94639,-2.94639,-2.94617,3282.43,875.369)">
            <path d="M407.326,493.394L484.685,493.395" style="fill:none;fill-rule:nonzero;stroke:rgb(35,31,32);stroke-width:0.87px;"/>
        </g>
        <g transform="matrix(-1.59506,3.84927,-3.84927,-1.59506,3229.84,-193.914)">
            <path d="M419.863,501.78L497.23,501.78" style="fill:none;fill-rule:nonzero;stroke:rgb(35,31,32);stroke-width:0.87px;"/>
        </g>
        <g transform="matrix(0.810551,4.08707,-4.08707,0.810551,2482.01,-1512.48)">
            <path d="M415.931,535.965L558.499,535.965" style="fill:none;fill-rule:nonzero;stroke:rgb(35,31,32);stroke-width:0.87px;"/>
        </g>
        <g transform="matrix(2.31341,3.46544,-3.46544,2.31341,1427.42,-2123.9)">
            <path d="M441.642,525.33L584.21,525.33" style="fill:none;fill-rule:nonzero;stroke:rgb(35,31,32);stroke-width:0.87px;"/>
        </g>
        <g transform="matrix(3.46325,2.31668,-2.31668,3.46325,202.454,-2198.1)">
            <path d="M461.315,505.672L603.865,505.672" style="fill:none;fill-rule:nonzero;stroke:rgb(35,31,32);stroke-width:0.87px;"/>
        </g>
        <g transform="matrix(4.08607,0.815588,-0.815588,4.08607,-908.397,-1724.34)">
            <path d="M471.969,479.996L614.535,479.996" style="fill:none;fill-rule:nonzero;stroke:rgb(35,31,32);stroke-width:0.87px;"/>
        </g>
        <g transform="matrix(4.08706,-0.810596,0.810596,4.08706,-1666.95,-843.595)">
            <path d="M471.986,452.176L614.546,452.176" style="fill:none;fill-rule:nonzero;stroke:rgb(35,31,32);stroke-width:0.87px;"/>
        </g>
        <g transform="matrix(3.46536,-2.31352,2.31352,3.46536,-1956.76,211.37)">
            <path d="M461.351,426.465L603.911,426.465" style="fill:none;fill-rule:nonzero;stroke:rgb(35,31,32);stroke-width:0.87px;"/>
        </g>
        <g transform="matrix(2.31675,-3.46321,3.46321,2.31675,-1803.53,1209.14)">
            <path d="M441.703,406.801L584.254,406.801" style="fill:none;fill-rule:nonzero;stroke:rgb(35,31,32);stroke-width:0.87px;"/>
        </g>
        <g transform="matrix(0.815582,-4.08607,4.08607,0.815582,-1329.32,1998.68)">
            <path d="M416.018,396.139L558.584,396.138" style="fill:none;fill-rule:nonzero;stroke:rgb(35,31,32);stroke-width:0.87px;"/>
        </g>
        <g transform="matrix(-0.810827,-4.08701,4.08701,-0.810827,-675.581,2529.62)">
            <path d="M388.194,396.123L530.759,396.123" style="fill:none;fill-rule:nonzero;stroke:rgb(35,31,32);stroke-width:0.87px;"/>
        </g>
        <g transform="matrix(-2.31368,-3.46526,3.46526,-2.31368,57.7628,2819.09)">
            <path d="M362.483,406.76L505.049,406.76" style="fill:none;fill-rule:nonzero;stroke:rgb(35,31,32);stroke-width:0.87px;"/>
        </g>
        <g transform="matrix(-3.4632,-2.31675,2.31675,-3.4632,828.017,2892.89)">
            <path d="M342.829,426.412L485.382,426.412" style="fill:none;fill-rule:nonzero;stroke:rgb(35,31,32);stroke-width:0.87px;"/>
        </g>
        <g transform="matrix(-4.08608,-0.815538,0.815538,-4.08608,1617.12,2740.04)">
            <path d="M332.152,452.09L474.727,452.09" style="fill:none;fill-rule:nonzero;stroke:rgb(35,31,32);stroke-width:0.87px;"/>
        </g>
        <g transform="matrix(-4.08702,0.810776,-0.810776,-4.08702,2375.19,2314.01)">
            <path d="M332.141,479.914L474.711,479.914" style="fill:none;fill-rule:nonzero;stroke:rgb(35,31,32);stroke-width:0.87px;"/>
        </g>
        <g transform="matrix(-3.46539,2.31348,-2.31348,-3.46539,2986.22,1581.06)">
            <path d="M342.775,505.623L485.346,505.623" style="fill:none;fill-rule:nonzero;stroke:rgb(35,31,32);stroke-width:0.87px;"/>
        </g>
        <g transform="matrix(-2.31677,3.46319,-3.46319,-2.31677,3287.48,583.643)">
            <path d="M362.441,525.285L504.993,525.285" style="fill:none;fill-rule:nonzero;stroke:rgb(35,31,32);stroke-width:0.87px;"/>
        </g>
        <g transform="matrix(-0.815611,4.08606,-4.08606,-0.815611,3135.08,-526.836)">
            <path d="M388.111,535.948L530.678,535.948" style="fill:none;fill-rule:nonzero;stroke:rgb(35,31,32);stroke-width:0.87px;"/>
        </g>
        <g transform="matrix(4.16667,0,0,-4.16667,-1343.66,2507.69)">
            <path d="M444.676,464.926C444.203,463.785 443.902,462.875 443.648,462.157C443.391,461.438 443.191,460.918 442.965,460.528C442.516,459.766 441.961,459.563 440.895,459.434C441.832,458.918 442.273,458.52 442.395,457.633C442.453,457.192 442.449,456.629 442.402,455.871C442.363,455.106 442.297,454.149 442.297,452.91C441.023,452.91 440.047,453.028 439.289,453.254C438.531,453.473 438,453.793 437.602,454.16C436.809,454.903 436.582,455.84 436.223,456.598C435.848,457.379 435.699,457.965 435.293,458.602C435.09,458.926 434.82,459.254 434.438,459.637C434.055,460.028 433.547,460.469 432.879,461.016C433.711,461.274 434.34,461.489 434.844,461.707C435.344,461.926 435.711,462.133 436.027,462.352C436.648,462.785 437.031,463.266 437.738,463.809C438.457,464.356 439.125,465.09 440.16,465.457C440.676,465.637 441.277,465.727 442.012,465.66C442.746,465.59 443.617,465.352 444.684,464.918L444.676,464.926Z" style="fill:none;fill-rule:nonzero;stroke:rgb(35,31,32);stroke-width:0.87px;"/>
        </g>
        <g transform="matrix(4.16667,0,0,-4.16667,-1343.66,2408.99)">
            <path d="M451.484,451.414C450.613,450.543 449.977,449.816 449.469,449.246C448.957,448.676 448.566,448.273 448.215,448.008C447.504,447.469 446.91,447.5 445.883,447.801C446.551,446.961 446.805,446.418 446.574,445.558C446.461,445.121 446.234,444.613 445.906,443.922C445.574,443.23 445.148,442.375 444.676,441.238C443.496,441.722 442.641,442.211 442.027,442.707C441.414,443.203 441.047,443.695 440.82,444.191C440.371,445.183 440.52,446.133 440.484,446.972C440.438,447.836 440.527,448.437 440.391,449.179C440.324,449.554 440.211,449.961 440.004,450.469C439.793,450.98 439.5,451.578 439.094,452.344C439.957,452.254 440.625,452.215 441.172,452.222C441.719,452.222 442.141,452.285 442.516,452.367C443.258,452.531 443.797,452.832 444.645,453.058C445.523,453.289 446.422,453.711 447.516,453.656C448.066,453.625 448.648,453.476 449.309,453.133C449.961,452.785 450.684,452.238 451.492,451.422L451.484,451.414Z" style="fill:none;fill-rule:nonzero;stroke:rgb(35,31,32);stroke-width:0.87px;"/>
        </g>
        <g transform="matrix(4.16667,0,0,-4.16667,-1343.66,2324.51)">
            <path d="M461.664,437.945C460.523,437.473 459.668,437.047 458.977,436.719C458.289,436.387 457.777,436.16 457.344,436.051C456.48,435.824 455.949,436.07 455.102,436.738C455.398,435.703 455.422,435.121 454.891,434.406C454.621,434.047 454.215,433.664 453.645,433.156C453.082,432.645 452.355,432.016 451.477,431.137C450.578,432.035 449.969,432.817 449.594,433.508C449.219,434.195 449.062,434.797 449.047,435.344C449.012,436.434 449.512,437.25 449.789,438.043C450.074,438.863 450.391,439.379 450.547,440.113C450.629,440.481 450.676,440.91 450.676,441.457C450.676,442.004 450.637,442.672 450.547,443.535C451.312,443.121 451.914,442.836 452.422,442.633C452.934,442.434 453.344,442.32 453.719,442.25C454.469,442.117 455.078,442.192 455.953,442.07C456.855,441.953 457.844,441.996 458.836,441.531C459.328,441.301 459.816,440.934 460.289,440.363C460.762,439.793 461.211,439.012 461.656,437.945L461.664,437.945Z" style="fill:none;fill-rule:nonzero;stroke:rgb(35,31,32);stroke-width:0.87px;"/>
        </g>
        <g transform="matrix(4.16667,0,0,-4.16667,-1343.66,2270.29)">
            <path d="M473.672,427.313C472.434,427.313 471.473,427.247 470.707,427.208C469.941,427.173 469.379,427.157 468.945,427.216C468.059,427.337 467.664,427.778 467.145,428.716C467.023,427.649 466.824,427.095 466.051,426.645C465.668,426.423 465.141,426.22 464.422,425.962C463.703,425.708 462.797,425.399 461.656,424.934C461.168,426.114 460.906,427.067 460.816,427.845C460.734,428.626 460.816,429.239 461.012,429.751C461.391,430.77 462.172,431.333 462.734,431.958C463.312,432.602 463.801,432.962 464.234,433.575C464.453,433.884 464.664,434.259 464.871,434.763C465.082,435.263 465.301,435.899 465.555,436.727C466.102,436.052 466.551,435.556 466.941,435.173C467.332,434.79 467.672,434.528 467.992,434.325C468.637,433.915 469.223,433.747 469.988,433.298C470.766,432.841 471.703,432.505 472.441,431.692C472.809,431.29 473.113,430.763 473.332,430.059C473.551,429.345 473.672,428.454 473.672,427.306L473.672,427.313Z" style="fill:none;fill-rule:nonzero;stroke:rgb(35,31,32);stroke-width:0.87px;"/>
        </g>
        <g transform="matrix(4.16667,0,0,-4.16667,-1343.66,2270.29)">
            <path d="M485.676,424.933C484.539,425.406 483.629,425.707 482.91,425.961C482.191,426.219 481.664,426.422 481.281,426.644C480.516,427.094 480.316,427.648 480.195,428.715C479.676,427.777 479.281,427.336 478.395,427.215C477.953,427.156 477.391,427.164 476.633,427.207C475.875,427.246 474.906,427.312 473.672,427.312C473.672,428.586 473.789,429.562 474.016,430.32C474.234,431.078 474.555,431.609 474.922,432.008C475.664,432.801 476.602,433.027 477.359,433.387C478.141,433.762 478.727,433.914 479.363,434.316C479.684,434.519 480.016,434.789 480.406,435.172C480.797,435.555 481.238,436.066 481.785,436.734C482.039,435.898 482.258,435.269 482.477,434.769C482.691,434.265 482.902,433.898 483.121,433.582C483.555,432.961 484.035,432.578 484.574,431.871C485.121,431.152 485.859,430.484 486.227,429.449C486.406,428.933 486.496,428.332 486.426,427.598C486.352,426.863 486.121,425.984 485.684,424.926L485.676,424.933Z" style="fill:none;fill-rule:nonzero;stroke:rgb(35,31,32);stroke-width:0.87px;"/>
        </g>
        <g transform="matrix(4.16667,0,0,-4.16667,-1343.66,2324.51)">
            <path d="M495.855,431.137C494.984,432.008 494.258,432.645 493.688,433.156C493.117,433.664 492.711,434.055 492.441,434.406C491.902,435.121 491.934,435.711 492.234,436.738C491.391,436.07 490.852,435.817 489.996,436.051C489.562,436.16 489.051,436.387 488.363,436.719C487.672,437.047 486.816,437.473 485.676,437.945C486.164,439.125 486.652,439.981 487.148,440.594C487.641,441.211 488.137,441.578 488.633,441.801C489.621,442.25 490.574,442.102 491.414,442.149C492.277,442.192 492.879,442.102 493.621,442.238C493.996,442.305 494.398,442.418 494.91,442.625C495.414,442.836 496.02,443.129 496.785,443.535C496.695,442.672 496.656,442.004 496.664,441.457C496.664,440.91 496.727,440.488 496.809,440.113C496.973,439.371 497.273,438.832 497.496,437.977C497.73,437.098 498.148,436.199 498.098,435.113C498.066,434.563 497.918,433.981 497.574,433.32C497.227,432.668 496.672,431.945 495.863,431.137L495.855,431.137Z" style="fill:none;fill-rule:nonzero;stroke:rgb(35,31,32);stroke-width:0.87px;"/>
        </g>
        <g transform="matrix(4.16667,0,0,-4.16667,-1343.66,2408.28)">
            <path d="M502.664,441.066C502.191,442.203 501.766,443.058 501.434,443.75C501.105,444.441 500.879,444.949 500.766,445.386C500.543,446.246 500.789,446.781 501.465,447.629C500.43,447.328 499.844,447.304 499.133,447.836C498.773,448.105 498.391,448.511 497.879,449.074C497.371,449.636 496.734,450.363 495.863,451.242C496.762,452.14 497.543,452.75 498.234,453.125C498.922,453.5 499.531,453.656 500.07,453.672C501.156,453.711 501.977,453.207 502.77,452.929C503.586,452.644 504.105,452.328 504.84,452.172C505.207,452.089 505.637,452.043 506.184,452.043C506.73,452.043 507.398,452.089 508.262,452.172C507.855,451.406 507.562,450.808 507.359,450.297C507.156,449.789 507.047,449.375 506.977,449C506.852,448.25 506.918,447.64 506.797,446.765C506.676,445.863 506.723,444.875 506.258,443.886C506.023,443.39 505.656,442.902 505.086,442.429C504.516,441.957 503.738,441.507 502.672,441.066L502.664,441.066Z" style="fill:none;fill-rule:nonzero;stroke:rgb(35,31,32);stroke-width:0.87px;"/>
        </g>
        <g transform="matrix(4.16667,0,0,-4.16667,-1343.66,2507.12)">
            <path d="M505.043,452.781C505.043,454.016 504.977,454.977 504.938,455.742C504.898,456.508 504.887,457.062 504.953,457.504C505.074,458.391 505.516,458.789 506.453,459.305C505.387,459.426 504.832,459.629 504.383,460.398C504.156,460.781 503.953,461.309 503.699,462.027C503.445,462.746 503.137,463.656 502.672,464.797C503.852,465.281 504.801,465.547 505.582,465.637C506.363,465.719 506.984,465.637 507.488,465.441C508.508,465.059 509.07,464.277 509.699,463.715C510.344,463.137 510.703,462.648 511.32,462.215C511.629,461.996 512.004,461.797 512.504,461.578C513.008,461.359 513.645,461.148 514.477,460.895C513.801,460.348 513.309,459.898 512.926,459.508C512.543,459.117 512.281,458.781 512.078,458.457C511.664,457.812 511.5,457.227 511.051,456.461C510.594,455.684 510.254,454.746 509.445,454.012C509.039,453.641 508.516,453.336 507.809,453.117C507.098,452.898 506.203,452.781 505.059,452.781L505.043,452.781Z" style="fill:none;fill-rule:nonzero;stroke:rgb(35,31,32);stroke-width:0.87px;"/>
        </g>
        <g transform="matrix(4.16667,0,0,-4.16667,-1343.66,2614.41)">
            <path d="M502.664,466.523C503.137,467.664 503.445,468.57 503.691,469.289C503.949,470.012 504.148,470.527 504.375,470.918C504.824,471.691 505.379,471.887 506.445,472.012C505.508,472.531 505.066,472.926 504.945,473.812C504.879,474.254 504.891,474.816 504.93,475.574C504.969,476.34 505.035,477.301 505.035,478.539C506.309,478.539 507.285,478.418 508.043,478.191C508.801,477.977 509.332,477.652 509.73,477.285C510.523,476.543 510.75,475.605 511.109,474.848C511.484,474.066 511.637,473.484 512.039,472.844C512.242,472.523 512.512,472.191 512.895,471.801C513.277,471.414 513.789,470.969 514.453,470.422C513.621,470.168 512.992,469.949 512.488,469.734C511.988,469.516 511.621,469.305 511.305,469.086C510.684,468.652 510.301,468.172 509.594,467.633C508.875,467.086 508.207,466.352 507.172,465.984C506.656,465.801 506.055,465.711 505.32,465.781C504.586,465.848 503.707,466.078 502.648,466.523L502.664,466.523Z" style="fill:none;fill-rule:nonzero;stroke:rgb(35,31,32);stroke-width:0.87px;"/>
        </g>
        <g transform="matrix(4.16667,0,0,-4.16667,-1343.66,2713)">
            <path d="M495.855,480.012C496.727,480.883 497.363,481.609 497.871,482.18C498.383,482.75 498.773,483.156 499.125,483.418C499.836,483.957 500.43,483.926 501.457,483.629C500.789,484.469 500.535,485.008 500.762,485.871C500.871,486.305 501.098,486.816 501.426,487.504C501.758,488.195 502.184,489.051 502.656,490.191C503.836,489.703 504.691,489.215 505.305,488.719C505.922,488.226 506.289,487.73 506.512,487.234C506.961,486.246 506.812,485.293 506.852,484.453C506.895,483.59 506.805,482.988 506.941,482.246C507.008,481.871 507.121,481.469 507.328,480.957C507.539,480.457 507.832,479.848 508.238,479.082C507.375,479.172 506.707,479.211 506.16,479.203C505.613,479.203 505.184,479.144 504.816,479.058C504.074,478.894 503.535,478.594 502.688,478.371C501.809,478.137 500.91,477.719 499.824,477.769C499.273,477.801 498.684,477.949 498.031,478.297C497.379,478.64 496.656,479.187 495.848,480.004L495.855,480.012Z" style="fill:none;fill-rule:nonzero;stroke:rgb(35,31,32);stroke-width:0.87px;"/>
        </g>
        <g transform="matrix(4.16667,0,0,-4.16667,-1343.66,2797.49)">
            <path d="M485.676,493.481C486.816,493.954 487.672,494.387 488.363,494.711C489.051,495.04 489.562,495.266 489.996,495.379C490.859,495.602 491.391,495.356 492.234,494.688C491.934,495.723 491.91,496.309 492.441,497.02C492.711,497.379 493.117,497.762 493.688,498.282C494.25,498.79 494.977,499.422 495.855,500.297C496.754,499.399 497.363,498.618 497.738,497.926C498.113,497.239 498.27,496.629 498.285,496.09C498.324,495.004 497.82,494.184 497.543,493.391C497.25,492.575 496.941,492.055 496.785,491.313C496.703,490.946 496.656,490.516 496.656,489.969C496.656,489.422 496.695,488.754 496.785,487.891C496.02,488.305 495.422,488.59 494.91,488.793C494.398,488.997 493.988,489.11 493.613,489.176C492.863,489.309 492.254,489.235 491.379,489.356C490.477,489.477 489.488,489.43 488.496,489.895C488.004,490.129 487.516,490.497 487.043,491.067C486.57,491.637 486.121,492.415 485.676,493.481Z" style="fill:none;fill-rule:nonzero;stroke:rgb(35,31,32);stroke-width:0.87px;"/>
        </g>
        <g transform="matrix(4.16667,0,0,-4.16667,-1343.66,2851.75)">
            <path d="M473.672,504.125C474.906,504.125 475.867,504.195 476.633,504.231C477.398,504.27 477.953,504.285 478.395,504.215C479.281,504.098 479.676,503.652 480.195,502.715C480.316,503.781 480.516,504.344 481.281,504.793C481.664,505.02 482.191,505.223 482.91,505.477C483.629,505.731 484.539,506.039 485.676,506.504C486.164,505.324 486.426,504.383 486.516,503.594C486.602,502.813 486.516,502.191 486.324,501.688C485.941,500.668 485.16,500.106 484.598,499.477C484.02,498.832 483.531,498.473 483.098,497.856C482.879,497.547 482.676,497.172 482.461,496.672C482.242,496.168 482.031,495.531 481.777,494.707C481.23,495.383 480.781,495.875 480.391,496.258C480,496.641 479.664,496.902 479.34,497.106C478.695,497.52 478.109,497.684 477.344,498.133C476.566,498.59 475.629,498.93 474.891,499.738C474.523,500.145 474.219,500.668 474,501.375C473.781,502.086 473.664,502.977 473.664,504.125L473.672,504.125Z" style="fill:none;fill-rule:nonzero;stroke:rgb(35,31,32);stroke-width:0.87px;"/>
        </g>
        <g transform="matrix(4.16667,0,0,-4.16667,-1343.66,2851.78)">
            <path d="M461.664,506.512C462.801,506.039 463.711,505.739 464.43,505.485C465.148,505.231 465.676,505.028 466.059,504.801C466.824,504.352 467.023,503.797 467.152,502.723C467.672,503.668 468.066,504.106 468.953,504.223C469.395,504.285 469.957,504.278 470.715,504.239C471.473,504.203 472.441,504.133 473.676,504.133C473.676,502.86 473.559,501.883 473.332,501.125C473.113,500.367 472.793,499.836 472.426,499.438C471.684,498.645 470.746,498.418 469.988,498.051C469.207,497.676 468.621,497.528 467.984,497.121C467.664,496.918 467.332,496.649 466.941,496.266C466.551,495.883 466.109,495.375 465.562,494.707C465.309,495.539 465.09,496.168 464.871,496.672C464.656,497.172 464.445,497.543 464.227,497.856C463.793,498.481 463.312,498.86 462.773,499.567C462.227,500.285 461.488,500.953 461.121,501.989C460.941,502.508 460.852,503.106 460.922,503.84C460.996,504.578 461.227,505.453 461.664,506.512Z" style="fill:none;fill-rule:nonzero;stroke:rgb(35,31,32);stroke-width:0.87px;"/>
        </g>
        <g transform="matrix(4.16667,0,0,-4.16667,-1343.66,2797.52)">
            <path d="M451.484,500.297C452.355,499.429 453.082,498.789 453.652,498.281C454.223,497.769 454.629,497.379 454.898,497.027C455.438,496.316 455.406,495.722 455.109,494.695C455.949,495.363 456.488,495.617 457.352,495.386C457.785,495.273 458.297,495.047 458.984,494.718C459.676,494.386 460.531,493.961 461.672,493.488C461.184,492.308 460.695,491.457 460.199,490.84C459.703,490.226 459.211,489.859 458.715,489.633C457.727,489.183 456.773,489.332 455.934,489.289C455.07,489.242 454.469,489.332 453.727,489.199C453.352,489.129 452.949,489.011 452.438,488.808C451.926,488.597 451.328,488.304 450.562,487.898C450.652,488.761 450.691,489.429 450.684,489.976C450.684,490.523 450.621,490.945 450.539,491.32C450.375,492.062 450.074,492.601 449.852,493.449C449.617,494.328 449.199,495.226 449.25,496.316C449.281,496.863 449.422,497.449 449.773,498.109C450.121,498.761 450.676,499.48 451.484,500.289L451.484,500.297Z" style="fill:none;fill-rule:nonzero;stroke:rgb(35,31,32);stroke-width:0.87px;"/>
        </g>
        <g transform="matrix(4.16667,0,0,-4.16667,-1343.66,2713.81)">
            <path d="M444.676,490.379C445.148,489.239 445.574,488.383 445.906,487.692C446.234,487.004 446.461,486.493 446.574,486.059C446.797,485.196 446.551,484.665 445.883,483.817C446.918,484.118 447.512,484.145 448.215,483.606C448.574,483.336 448.957,482.93 449.469,482.36C449.977,481.797 450.613,481.071 451.484,480.192C450.586,479.286 449.805,478.684 449.113,478.309C448.426,477.934 447.816,477.778 447.277,477.762C446.191,477.727 445.371,478.227 444.578,478.504C443.762,478.797 443.242,479.106 442.508,479.262C442.141,479.344 441.711,479.391 441.164,479.391C440.617,479.391 439.949,479.352 439.086,479.262C439.5,480.028 439.785,480.629 439.988,481.137C440.191,481.649 440.301,482.059 440.371,482.434C440.496,483.184 440.43,483.794 440.551,484.672C440.672,485.571 440.625,486.559 441.09,487.551C441.324,488.047 441.691,488.532 442.262,489.004C442.828,489.477 443.609,489.93 444.676,490.372L444.676,490.379Z" style="fill:none;fill-rule:nonzero;stroke:rgb(35,31,32);stroke-width:0.87px;"/>
        </g>
        <g transform="matrix(4.16667,0,0,-4.16667,-1343.66,2614.93)">
            <path d="M442.297,478.656C442.297,477.418 442.363,476.457 442.402,475.691C442.441,474.934 442.453,474.371 442.395,473.93C442.273,473.047 441.832,472.648 440.895,472.129C441.961,472.012 442.523,471.809 442.965,471.035C443.191,470.652 443.391,470.129 443.648,469.406C443.902,468.687 444.211,467.781 444.676,466.641C443.496,466.152 442.551,465.891 441.766,465.801C440.984,465.719 440.363,465.801 439.859,465.996C438.84,466.379 438.277,467.156 437.656,467.719C437.012,468.297 436.648,468.785 436.035,469.219C435.727,469.437 435.352,469.641 434.852,469.859C434.348,470.066 433.711,470.285 432.879,470.539C433.551,471.086 434.047,471.539 434.43,471.926C434.812,472.316 435.074,472.656 435.277,472.977C435.691,473.621 435.855,474.207 436.305,474.973C436.762,475.762 437.102,476.691 437.91,477.426C438.316,477.793 438.84,478.102 439.547,478.316C440.25,478.535 441.148,478.656 442.297,478.656Z" style="fill:none;fill-rule:nonzero;stroke:rgb(35,31,32);stroke-width:0.87px;"/>
        </g>
        <g transform="matrix(4.16667,0,0,-4.16667,-1343.66,2560.78)">
            <path d="M473.297,471.953C476.746,471.953 479.559,469.141 479.559,465.688C479.559,462.238 476.746,459.426 473.297,459.426C469.844,459.426 467.031,462.238 467.031,465.688C467.031,469.141 469.844,471.953 473.297,471.953M473.297,477.539C466.746,477.539 461.445,472.231 461.445,465.688C461.445,459.149 466.746,453.84 473.297,453.84C479.844,453.84 485.145,459.141 485.145,465.688C485.145,472.238 479.836,477.539 473.297,477.539Z" style="fill:white;fill-rule:nonzero;stroke:rgb(35,31,32);stroke-width:0.87px;"/>
        </g>
        <g transform="matrix(0.962717,4.16667,-4.16667,0.962717,2719.83,-1201.3)">
            <ellipse cx="339.31" cy="580.257" rx="35.208" ry="35.207" style="fill:none;stroke:rgb(35,31,32);stroke-width:0.85px;"/>
        </g>
        <g transform="matrix(4.16671,0.987851,-0.987851,4.16671,2418.68,-1503.96)">
            <ellipse cx="-300.243" cy="544.758" rx="35.162" ry="35.161" style="fill:none;stroke:rgb(35,31,32);stroke-width:0.84px;"/>
        </g>
        <g transform="matrix(4.16667,4.16667,-4.16667,4.16667,2718.3,-1500.76)">
            <circle cx="21.695" cy="487.436" r="25.553" style="fill:none;stroke:rgb(35,31,32);stroke-width:0.61px;"/>
        </g>
        <g transform="matrix(0,4.16667,-4.16667,0,2416.38,-1200.43)">
            <ellipse cx="436.861" cy="465.549" rx="36.135" ry="36.134" style="fill:none;stroke:rgb(35,31,32);stroke-width:0.87px;"/>
        </g>
        <g transform="matrix(4.16667,0,0,-4.16667,-1343.66,2558.88)">
            <path d="M468.809,469.891C471.254,472.336 475.223,472.336 477.668,469.891C480.113,467.445 480.113,463.477 477.668,461.031C475.223,458.586 471.254,458.586 468.809,461.031C466.363,463.477 466.363,467.445 468.809,469.891M464.863,473.844C460.238,469.215 460.238,461.707 464.863,457.078C469.492,452.453 477,452.453 481.629,457.078C486.254,461.707 486.254,469.215 481.629,473.844C477,478.469 469.492,478.469 464.863,473.844Z" style="fill:white;fill-rule:nonzero;stroke:rgb(35,31,32);stroke-width:0.87px;"/>
        </g>
        <g transform="matrix(2.94628,2.94628,-2.94628,2.94628,711.774,-2190.59)">
            <ellipse cx="498.878" cy="490.998" rx="36.139" ry="36.14" style="fill:none;stroke:rgb(35,31,32);stroke-width:0.87px;"/>
        </g>
        <g transform="matrix(2.94631,2.94625,-2.94625,2.94631,498.038,-2102.71)">
            <ellipse cx="447.775" cy="439.629" rx="36.141" ry="36.137" style="fill:none;stroke:rgb(35,31,32);stroke-width:0.87px;"/>
        </g>
        <g transform="matrix(2.94613,-2.94642,2.94642,2.94613,-2031.96,686.389)">
            <ellipse cx="498.614" cy="440.155" rx="36.138" ry="36.14" style="fill:none;stroke:rgb(35,31,32);stroke-width:0.87px;"/>
        </g>
        <g transform="matrix(2.94639,-2.94616,2.94616,2.94639,-2244.69,597.39)">
            <ellipse cx="447.377" cy="491.129" rx="36.14" ry="36.137" style="fill:none;stroke:rgb(35,31,32);stroke-width:0.87px;"/>
        </g>
        <g transform="matrix(4.16667,0,0,-4.16667,-1343.66,2560.98)">
            <path d="M473.469,475.555C478.898,475.555 483.309,471.137 483.309,465.715C483.309,460.289 478.891,455.875 473.469,455.875C468.047,455.875 463.629,460.289 463.629,465.715C463.629,471.137 468.047,475.555 473.469,475.555M473.469,484.336C463.184,484.336 454.844,475.996 454.844,465.715C454.844,455.43 463.184,447.09 473.469,447.09C483.75,447.09 492.09,455.43 492.09,465.715C492.09,475.996 483.75,484.336 473.469,484.336Z" style="fill:white;fill-rule:nonzero;stroke:rgb(35,31,32);stroke-width:0.87px;"/>
        </g>
        <g transform="matrix(0,4.16667,-4.16667,0,2807,-1115.8)">
            <ellipse cx="473.58" cy="522.578" rx="56.789" ry="56.791" style="fill:none;stroke:rgb(35,31,32);stroke-width:0.87px;"/>
        </g>
        <g transform="matrix(4.16667,0.456251,-0.456251,4.16667,2333.94,-1591.51)">
            <ellipse cx="-352.606" cy="512.515" rx="56.454" ry="56.453" style="fill:none;stroke:rgb(35,31,32);stroke-width:0.86px;"/>
        </g>
        <g transform="matrix(0.977321,4.16666,-4.16666,0.977321,2804.42,-1586.96)">
            <circle cx="398.643" cy="559.235" r="55.291" style="fill:none;stroke:rgb(35,31,32);stroke-width:0.85px;"/>
        </g>
        <g transform="matrix(0,4.16667,-4.16667,0,2330.08,-1114.59)">
            <circle cx="416.205" cy="465.494" r="56.791" style="fill:none;stroke:rgb(35,31,32);stroke-width:0.87px;"/>
        </g>
        <g transform="matrix(4.16667,0,0,-4.16667,-1343.66,2558.88)">
            <path d="M468.809,469.891C471.254,472.336 475.223,472.336 477.668,469.891C480.113,467.445 480.113,463.477 477.668,461.031C475.223,458.586 471.254,458.586 468.809,461.031C466.363,463.477 466.363,467.445 468.809,469.891M464.863,473.844C460.238,469.215 460.238,461.707 464.863,457.078C469.492,452.453 477,452.453 481.629,457.078C486.254,461.707 486.254,469.215 481.629,473.844C477,478.469 469.492,478.469 464.863,473.844Z" style="fill:white;fill-rule:nonzero;stroke:rgb(35,31,32);stroke-width:0.87px;"/>
        </g>
        <g transform="matrix(2.94628,2.94628,-2.94628,2.94628,711.774,-2190.59)">
            <ellipse cx="498.878" cy="490.998" rx="36.139" ry="36.14" style="fill:none;stroke:rgb(35,31,32);stroke-width:0.87px;"/>
        </g>
        <g transform="matrix(2.94631,2.94625,-2.94625,2.94631,498.038,-2102.71)">
            <ellipse cx="447.775" cy="439.629" rx="36.141" ry="36.137" style="fill:none;stroke:rgb(35,31,32);stroke-width:0.87px;"/>
        </g>
        <g transform="matrix(2.94613,-2.94642,2.94642,2.94613,-2031.96,686.389)">
            <ellipse cx="498.614" cy="440.155" rx="36.138" ry="36.14" style="fill:none;stroke:rgb(35,31,32);stroke-width:0.87px;"/>
        </g>
        <g transform="matrix(2.94639,-2.94616,2.94616,2.94639,-2244.69,597.39)">
            <ellipse cx="447.377" cy="491.129" rx="36.14" ry="36.137" style="fill:none;stroke:rgb(35,31,32);stroke-width:0.87px;"/>
        </g>
        <g transform="matrix(4.16667,0,0,-4.16667,-1343.66,2559.81)">
            <path d="M470.895,471.363C474.082,472.683 477.758,471.167 479.078,467.972C480.398,464.785 478.883,461.113 475.688,459.792C472.5,458.472 468.824,459.988 467.504,463.183C466.184,466.371 467.707,470.042 470.895,471.363M468.758,476.523C462.711,474.019 459.84,467.089 462.344,461.035C464.852,454.992 471.781,452.121 477.832,454.624C483.879,457.128 486.75,464.058 484.246,470.105C481.738,476.148 474.809,479.023 468.758,476.515L468.758,476.523Z" style="fill:white;fill-rule:nonzero;stroke:rgb(35,31,32);stroke-width:0.87px;"/>
        </g>
        <g transform="matrix(1.59458,3.84947,-3.84947,1.59458,1830.26,-1912.04)">
            <ellipse cx="487.205" cy="498.977" rx="36.138" ry="36.14" style="fill:none;stroke:rgb(35,31,32);stroke-width:0.87px;"/>
        </g>
        <g transform="matrix(4.16667,0,0,-4.16667,-1343.66,2279.63)">
            <path d="M493.035,445.778C500.672,427.337 491.918,406.2 473.477,398.567C455.031,390.93 433.898,399.684 426.254,418.126C418.621,436.567 427.371,457.704 445.816,465.337C464.258,472.973 485.391,464.219 493.027,445.778L493.035,445.778Z" style="fill:none;fill-rule:nonzero;stroke:rgb(35,31,32);stroke-width:0.87px;"/>
        </g>
        <g transform="matrix(4.16667,0,0,-4.16667,-1343.66,2445.88)">
            <path d="M492.586,485.285C511.027,492.922 532.164,484.168 539.805,465.727C547.441,447.285 538.688,426.149 520.246,418.512C501.801,410.879 480.668,419.629 473.031,438.074C465.398,456.516 474.148,477.653 492.594,485.293L492.586,485.285Z" style="fill:none;fill-rule:nonzero;stroke:rgb(35,31,32);stroke-width:0.87px;"/>
        </g>
        <g transform="matrix(4.16667,0,0,-4.16667,-1343.66,2674.98)">
            <path d="M425.746,512.781C444.18,520.418 465.324,511.664 472.957,493.223C480.594,474.781 471.84,453.644 453.398,446.004C434.953,438.367 413.82,447.121 406.176,465.562C398.543,484.004 407.297,505.14 425.738,512.773L425.746,512.781Z" style="fill:none;fill-rule:nonzero;stroke:rgb(35,31,32);stroke-width:0.87px;"/>
        </g>
        <g transform="matrix(4.16667,0,0,-4.16667,-1343.66,2558.16)">
            <path d="M467.371,467.766C468.691,470.953 472.363,472.477 475.551,471.156C478.738,469.836 480.262,466.164 478.941,462.977C477.621,459.789 473.949,458.266 470.762,459.586C467.574,460.906 466.051,464.578 467.371,467.766M462.203,469.906C459.699,463.859 462.57,456.922 468.613,454.426C474.66,451.922 481.598,454.793 484.094,460.836C486.602,466.883 483.727,473.82 477.684,476.324C471.637,478.828 464.699,475.957 462.195,469.914L462.203,469.906Z" style="fill:white;fill-rule:nonzero;stroke:rgb(35,31,32);stroke-width:0.87px;"/>
        </g>
        <g transform="matrix(4.16667,0,0,-4.16667,-1343.66,2673.04)">
            <path d="M520.441,512.544C538.883,504.907 547.637,483.766 540,465.333C532.363,446.895 511.223,438.137 492.789,445.77C474.352,453.407 465.594,474.548 473.227,492.993C480.863,511.434 502.004,520.184 520.441,512.551L520.441,512.544Z" style="fill:none;fill-rule:nonzero;stroke:rgb(35,31,32);stroke-width:0.87px;"/>
        </g>
        <g transform="matrix(4.16667,0,0,-4.16667,-1343.66,2440.57)">
            <path d="M453.57,484.648C472.004,477.015 480.766,455.871 473.129,437.437C465.496,418.996 444.352,410.242 425.91,417.879C407.477,425.511 398.715,446.656 406.352,465.089C413.984,483.523 435.129,492.285 453.562,484.648L453.57,484.648Z" style="fill:none;fill-rule:nonzero;stroke:rgb(35,31,32);stroke-width:0.87px;"/>
        </g>
        <g transform="matrix(4.16667,0,0,-4.16667,-1343.66,2282.46)">
            <path d="M453.523,446.121C461.16,464.562 482.301,473.316 500.738,465.68C519.18,458.043 527.934,436.902 520.297,418.461C512.664,400.016 491.52,391.266 473.086,398.898C454.648,406.535 445.891,427.676 453.523,446.113L453.523,446.121Z" style="fill:none;fill-rule:nonzero;stroke:rgb(35,31,32);stroke-width:0.87px;"/>
        </g>
        <g transform="matrix(4.16667,0,0,-4.16667,-1343.66,2838.33)">
            <path d="M425.691,512.821C433.328,531.262 454.469,540.016 472.906,532.38C491.348,524.747 500.102,503.602 492.465,485.169C484.828,466.727 463.688,457.973 445.254,465.61C426.809,473.243 418.059,494.387 425.691,512.829L425.691,512.821Z" style="fill:none;fill-rule:nonzero;stroke:rgb(35,31,32);stroke-width:0.87px;"/>
        </g>
        <g transform="matrix(4.16667,0,0,-4.16667,-1343.66,2563.83)">
            <path d="M473.297,493.996C457.859,493.996 445.359,481.488 445.359,466.058C445.359,450.632 457.867,438.113 473.297,438.113C488.723,438.113 501.238,450.625 501.238,466.058C501.238,481.496 488.73,493.996 473.297,493.996ZM473.297,440.347L450.93,479.086L495.66,479.086L473.297,440.347Z" style="fill:white;fill-rule:nonzero;stroke:rgb(35,31,32);stroke-width:0.87px;"/>
        </g>
        <g transform="matrix(0,4.16667,-4.16667,0,2729.14,-2137.25)">
            <circle cx="586.811" cy="390.662" r="6.334" style="fill:none;stroke:rgb(35,31,32);stroke-width:0.87px;"/>
        </g>
        <g transform="matrix(0,4.16667,-4.16667,0,3014.81,-2013.02)">
            <ellipse cx="606.184" cy="439.85" rx="6.334" ry="6.332" style="fill:none;stroke:rgb(35,31,32);stroke-width:0.87px;"/>
        </g>
        <g transform="matrix(0,4.16667,-4.16667,0,2412.48,-2137.22)">
            <ellipse cx="548.809" cy="352.666" rx="6.33" ry="6.332" style="fill:none;stroke:rgb(35,31,32);stroke-width:0.87px;"/>
        </g>
        <g transform="matrix(0,4.16667,-4.16667,0,2123.75,-2016.14)">
            <ellipse cx="499.631" cy="332.549" rx="6.33" ry="6.334" style="fill:none;stroke:rgb(35,31,32);stroke-width:0.87px;"/>
        </g>
        <g transform="matrix(0,4.16667,-4.16667,0,1906.4,-1795.73)">
            <ellipse cx="447.1" cy="332.916" rx="6.33" ry="6.334" style="fill:none;stroke:rgb(35,31,32);stroke-width:0.87px;"/>
        </g>
        <g transform="matrix(4.1676,4.16574,-4.16574,4.1676,1783.45,-1505.75)">
            <ellipse cx="22.256" cy="375.299" rx="4.476" ry="4.477" style="fill:none;stroke:rgb(35,31,32);stroke-width:0.61px;"/>
        </g>
        <g transform="matrix(0,4.16667,-4.16667,0,1785.36,-1190.34)">
            <circle cx="359.928" cy="391.037" r="6.334" style="fill:none;stroke:rgb(35,31,32);stroke-width:0.87px;"/>
        </g>
        <g transform="matrix(0,4.16667,-4.16667,0,1903.35,-901.553)">
            <circle cx="339.432" cy="439.85" r="6.334" style="fill:none;stroke:rgb(35,31,32);stroke-width:0.87px;"/>
        </g>
        <g transform="matrix(0,4.16667,-4.16667,0,2123.76,-684.261)">
            <ellipse cx="339.807" cy="492.375" rx="6.336" ry="6.334" style="fill:none;stroke:rgb(35,31,32);stroke-width:0.87px;"/>
        </g>
        <g transform="matrix(0,4.16667,-4.16667,0,2410.95,-564.753)">
            <ellipse cx="359.928" cy="541.178" rx="6.338" ry="6.334" style="fill:none;stroke:rgb(35,31,32);stroke-width:0.87px;"/>
        </g>
        <g transform="matrix(0,4.16667,-4.16667,0,2729.16,-566.299)">
            <circle cx="398.299" cy="579.178" r="6.334" style="fill:none;stroke:rgb(35,31,32);stroke-width:0.87px;"/>
        </g>
        <g transform="matrix(0,4.16667,-4.16667,0,3016.35,-682.753)">
            <ellipse cx="446.736" cy="599.666" rx="6.334" ry="6.33" style="fill:none;stroke:rgb(35,31,32);stroke-width:0.87px;"/>
        </g>
        <g transform="matrix(0,4.16667,-4.16667,0,3232.1,-904.728)">
            <ellipse cx="499.264" cy="598.92" rx="6.338" ry="6.334" style="fill:none;stroke:rgb(35,31,32);stroke-width:0.87px;"/>
        </g>
        <g transform="matrix(0,4.16667,-4.16667,0,3353.18,-1193.4)">
            <circle cx="548.434" cy="578.809" r="6.332" style="fill:none;stroke:rgb(35,31,32);stroke-width:0.87px;"/>
        </g>
        <g transform="matrix(0,4.16667,-4.16667,0,3350.05,-1507.02)">
            <circle cx="585.693" cy="540.799" r="6.334" style="fill:none;stroke:rgb(35,31,32);stroke-width:0.87px;"/>
        </g>
        <g transform="matrix(0,4.16667,-4.16667,0,3233.67,-1794.17)">
            <ellipse cx="606.184" cy="492.375" rx="6.336" ry="6.332" style="fill:none;stroke:rgb(35,31,32);stroke-width:0.87px;"/>
        </g>
        <g transform="matrix(0,4.16667,-4.16667,0,2688.93,-1939.61)">
            <ellipse cx="558.27" cy="409.553" rx="4.748" ry="4.746" style="fill:none;stroke:rgb(35,31,32);stroke-width:0.87px;"/>
        </g>
        <g transform="matrix(0,4.16667,-4.16667,0,2903.07,-1846.56)">
            <circle cx="572.799" cy="446.416" r="4.748" style="fill:none;stroke:rgb(35,31,32);stroke-width:0.87px;"/>
        </g>
        <g transform="matrix(0,4.16667,-4.16667,0,2451.56,-1939.62)">
            <ellipse cx="529.785" cy="381.068" rx="4.748" ry="4.746" style="fill:none;stroke:rgb(35,31,32);stroke-width:0.87px;"/>
        </g>
        <g transform="matrix(0,4.16667,-4.16667,0,2235.13,-1848.87)">
            <circle cx="492.924" cy="365.986" r="4.748" style="fill:none;stroke:rgb(35,31,32);stroke-width:0.87px;"/>
        </g>
        <g transform="matrix(0,4.16667,-4.16667,0,2072.19,-1683.62)">
            <circle cx="453.541" cy="366.264" r="4.748" style="fill:none;stroke:rgb(35,31,32);stroke-width:0.87px;"/>
        </g>
        <g transform="matrix(0,4.16667,-4.16667,0,1980.25,-1465.99)">
            <circle cx="416.393" cy="381.346" r="4.748" style="fill:none;stroke:rgb(35,31,32);stroke-width:0.87px;"/>
        </g>
        <g transform="matrix(0,4.16667,-4.16667,0,1981.4,-1229.78)">
            <circle cx="388.186" cy="409.83" r="4.748" style="fill:none;stroke:rgb(35,31,32);stroke-width:0.87px;"/>
        </g>
        <g transform="matrix(0,4.16667,-4.16667,0,2069.85,-1013.34)">
            <circle cx="372.826" cy="446.416" r="4.748" style="fill:none;stroke:rgb(35,31,32);stroke-width:0.87px;"/>
        </g>
        <g transform="matrix(0,4.16667,-4.16667,0,2235.1,-850.397)">
            <ellipse cx="373.104" cy="485.799" rx="4.748" ry="4.749" style="fill:none;stroke:rgb(35,31,32);stroke-width:0.87px;"/>
        </g>
        <g transform="matrix(0,4.16667,-4.16667,0,2450.37,-760.807)">
            <ellipse cx="388.186" cy="522.383" rx="4.746" ry="4.748" style="fill:none;stroke:rgb(35,31,32);stroke-width:0.87px;"/>
        </g>
        <g transform="matrix(0,4.16667,-4.16667,0,2688.96,-761.961)">
            <ellipse cx="416.955" cy="550.875" rx="4.746" ry="4.748" style="fill:none;stroke:rgb(35,31,32);stroke-width:0.87px;"/>
        </g>
        <g transform="matrix(0,4.16667,-4.16667,0,2904.25,-849.245)">
            <circle cx="453.264" cy="566.236" r="4.748" style="fill:none;stroke:rgb(35,31,32);stroke-width:0.87px;"/>
        </g>
        <g transform="matrix(0,4.16667,-4.16667,0,3065.97,-1015.65)">
            <circle cx="492.639" cy="565.674" r="4.748" style="fill:none;stroke:rgb(35,31,32);stroke-width:0.87px;"/>
        </g>
        <g transform="matrix(0,4.16667,-4.16667,0,3156.75,-1232.12)">
            <circle cx="529.508" cy="550.59" r="4.746" style="fill:none;stroke:rgb(35,31,32);stroke-width:0.87px;"/>
        </g>
        <g transform="matrix(0,4.16667,-4.16667,0,3154.43,-1467.18)">
            <circle cx="557.438" cy="522.105" r="4.746" style="fill:none;stroke:rgb(35,31,32);stroke-width:0.87px;"/>
        </g>
        <g transform="matrix(0,4.16667,-4.16667,0,3067.16,-1682.46)">
            <circle cx="572.799" cy="485.799" r="4.748" style="fill:none;stroke:rgb(35,31,32);stroke-width:0.87px;"/>
        </g>
        <g transform="matrix(0,4.16667,-4.16667,0,2715.4,-2066.52)">
            <ellipse cx="576.674" cy="397.5" rx="5.762" ry="5.76" style="fill:none;stroke:rgb(35,31,32);stroke-width:0.87px;"/>
        </g>
        <g transform="matrix(0,4.16667,-4.16667,0,2975.14,-1953.58)">
            <ellipse cx="594.291" cy="442.223" rx="5.762" ry="5.76" style="fill:none;stroke:rgb(35,31,32);stroke-width:0.87px;"/>
        </g>
        <g transform="matrix(0.0563609,4.16666,-4.16666,0.0563609,2427.26,-2066.4)">
            <ellipse cx="537.116" cy="370.197" rx="5.76" ry="5.76" style="fill:none;stroke:rgb(35,31,32);stroke-width:0.87px;"/>
        </g>
        <g transform="matrix(0,4.16667,-4.16667,0,2164.8,-1956.44)">
            <circle cx="497.393" cy="344.639" r="5.759" style="fill:none;stroke:rgb(35,31,32);stroke-width:0.87px;"/>
        </g>
        <g transform="matrix(0,4.16667,-4.16667,0,1967.16,-1755.96)">
            <ellipse cx="449.619" cy="344.978" rx="5.759" ry="5.76" style="fill:none;stroke:rgb(35,31,32);stroke-width:0.87px;"/>
        </g>
        <g transform="matrix(0,4.16667,-4.16667,0,1855.65,-1491.96)">
            <ellipse cx="404.556" cy="363.277" rx="5.762" ry="5.76" style="fill:none;stroke:rgb(35,31,32);stroke-width:0.87px;"/>
        </g>
        <g transform="matrix(0,4.16667,-4.16667,0,1857.05,-1205.36)">
            <circle cx="370.334" cy="397.838" r="5.76" style="fill:none;stroke:rgb(35,31,32);stroke-width:0.87px;"/>
        </g>
        <g transform="matrix(0,4.16667,-4.16667,0,1964.34,-942.774)">
            <ellipse cx="351.698" cy="442.222" rx="5.762" ry="5.76" style="fill:none;stroke:rgb(35,31,32);stroke-width:0.87px;"/>
        </g>
        <g transform="matrix(0,4.16667,-4.16667,0,2164.81,-745.115)">
            <ellipse cx="352.035" cy="489.998" rx="5.76" ry="5.762" style="fill:none;stroke:rgb(35,31,32);stroke-width:0.87px;"/>
        </g>
        <g transform="matrix(0,4.16667,-4.16667,0,2425.98,-636.432)">
            <circle cx="370.334" cy="534.381" r="5.76" style="fill:none;stroke:rgb(35,31,32);stroke-width:0.87px;"/>
        </g>
        <g transform="matrix(0,4.16667,-4.16667,0,2715.4,-637.832)">
            <circle cx="405.232" cy="568.944" r="5.76" style="fill:none;stroke:rgb(35,31,32);stroke-width:0.87px;"/>
        </g>
        <g transform="matrix(0,4.16667,-4.16667,0,2976.55,-743.742)">
            <ellipse cx="449.28" cy="587.572" rx="5.76" ry="5.76" style="fill:none;stroke:rgb(35,31,32);stroke-width:0.87px;"/>
        </g>
        <g transform="matrix(0,4.16667,-4.16667,0,3172.78,-945.597)">
            <ellipse cx="497.049" cy="586.896" rx="5.76" ry="5.76" style="fill:none;stroke:rgb(35,31,32);stroke-width:0.87px;"/>
        </g>
        <g transform="matrix(4.16655,0.67857,-0.67857,4.16655,3283.3,-1207.75)">
            <ellipse cx="-468.079" cy="617.921" rx="5.688" ry="5.686" style="fill:none;stroke:rgb(35,31,32);stroke-width:0.86px;"/>
        </g>
        <g transform="matrix(0,4.16667,-4.16667,0,3280.09,-1493.33)">
            <ellipse cx="575.654" cy="534.045" rx="5.76" ry="5.76" style="fill:none;stroke:rgb(35,31,32);stroke-width:0.87px;"/>
        </g>
        <g transform="matrix(0,4.16667,-4.16667,0,3174.21,-1754.52)">
            <circle cx="594.291" cy="489.998" r="5.76" style="fill:none;stroke:rgb(35,31,32);stroke-width:0.87px;"/>
        </g>
        <g transform="matrix(0,4.16667,-4.16667,0,2666.49,-1823.3)">
            <ellipse cx="541.619" cy="420.818" rx="3.803" ry="3.803" style="fill:none;stroke:rgb(35,31,32);stroke-width:0.87px;"/>
        </g>
        <g transform="matrix(0,4.16667,-4.16667,0,2837.96,-1748.77)">
            <circle cx="553.252" cy="450.338" r="3.803" style="fill:none;stroke:rgb(35,31,32);stroke-width:0.87px;"/>
        </g>
        <g transform="matrix(0,4.16667,-4.16667,0,2476.37,-1823.31)">
            <ellipse cx="518.807" cy="398.002" rx="3.803" ry="3.803" style="fill:none;stroke:rgb(35,31,32);stroke-width:0.87px;"/>
        </g>
        <g transform="matrix(0,4.16667,-4.16667,0,2303.06,-1750.62)">
            <ellipse cx="489.285" cy="385.928" rx="3.802" ry="3.801" style="fill:none;stroke:rgb(35,31,32);stroke-width:0.87px;"/>
        </g>
        <g transform="matrix(0,4.16667,-4.16667,0,2172.59,-1618.28)">
            <ellipse cx="457.748" cy="386.152" rx="3.8" ry="3.803" style="fill:none;stroke:rgb(35,31,32);stroke-width:0.87px;"/>
        </g>
        <g transform="matrix(0,4.16667,-4.16667,0,2098.96,-1444.02)">
            <ellipse cx="428.002" cy="398.228" rx="3.803" ry="3.803" style="fill:none;stroke:rgb(35,31,32);stroke-width:0.87px;"/>
        </g>
        <g transform="matrix(0,4.16667,-4.16667,0,2099.89,-1254.84)">
            <circle cx="405.412" cy="421.041" r="3.803" style="fill:none;stroke:rgb(35,31,32);stroke-width:0.87px;"/>
        </g>
        <g transform="matrix(0,4.16667,-4.16667,0,2170.71,-1081.52)">
            <ellipse cx="393.111" cy="450.338" rx="3.803" ry="3.802" style="fill:none;stroke:rgb(35,31,32);stroke-width:0.87px;"/>
        </g>
        <g transform="matrix(0,4.16667,-4.16667,0,2303.06,-951.057)">
            <ellipse cx="393.338" cy="481.875" rx="3.801" ry="3.803" style="fill:none;stroke:rgb(35,31,32);stroke-width:0.87px;"/>
        </g>
        <g transform="matrix(0,4.16667,-4.16667,0,2475.46,-879.272)">
            <ellipse cx="405.412" cy="511.178" rx="3.803" ry="3.803" style="fill:none;stroke:rgb(35,31,32);stroke-width:0.87px;"/>
        </g>
        <g transform="matrix(0,4.16667,-4.16667,0,2666.49,-880.23)">
            <ellipse cx="428.451" cy="533.987" rx="3.803" ry="3.803" style="fill:none;stroke:rgb(35,31,32);stroke-width:0.87px;"/>
        </g>
        <g transform="matrix(0,4.16667,-4.16667,0,2838.86,-950.113)">
            <ellipse cx="457.521" cy="546.285" rx="3.801" ry="3.803" style="fill:none;stroke:rgb(35,31,32);stroke-width:0.87px;"/>
        </g>
        <g transform="matrix(0,4.16667,-4.16667,0,2968.43,-1083.37)">
            <ellipse cx="489.061" cy="545.842" rx="3.803" ry="3.803" style="fill:none;stroke:rgb(35,31,32);stroke-width:0.87px;"/>
        </g>
        <g transform="matrix(0,4.16667,-4.16667,0,3041.09,-1256.71)">
            <ellipse cx="518.58" cy="533.76" rx="3.803" ry="3.803" style="fill:none;stroke:rgb(35,31,32);stroke-width:0.87px;"/>
        </g>
        <g transform="matrix(0,4.16667,-4.16667,0,3039.26,-1444.96)">
            <circle cx="540.951" cy="510.951" r="3.803" style="fill:none;stroke:rgb(35,31,32);stroke-width:0.87px;"/>
        </g>
        <g transform="matrix(0,4.16667,-4.16667,0,2969.37,-1617.37)">
            <ellipse cx="553.252" cy="481.875" rx="3.801" ry="3.803" style="fill:none;stroke:rgb(35,31,32);stroke-width:0.87px;"/>
        </g>
        <g transform="matrix(0,4.16667,-4.16667,0,2634,-1663.56)">
            <ellipse cx="518.551" cy="436.088" rx="2.522" ry="2.52" style="fill:none;stroke:rgb(35,31,32);stroke-width:0.87px;"/>
        </g>
        <g transform="matrix(0,4.16667,-4.16667,0,2747.65,-1614.14)">
            <ellipse cx="526.26" cy="455.657" rx="2.519" ry="2.522" style="fill:none;stroke:rgb(35,31,32);stroke-width:0.87px;"/>
        </g>
        <g transform="matrix(0,4.16667,-4.16667,0,2507.96,-1663.52)">
            <circle cx="503.422" cy="420.968" r="2.519" style="fill:none;stroke:rgb(35,31,32);stroke-width:0.87px;"/>
        </g>
        <g transform="matrix(0,4.16667,-4.16667,0,2393.06,-1615.37)">
            <circle cx="483.856" cy="412.958" r="2.52" style="fill:none;stroke:rgb(35,31,32);stroke-width:0.87px;"/>
        </g>
        <g transform="matrix(0,4.16667,-4.16667,0,2306.59,-1527.65)">
            <ellipse cx="462.953" cy="413.107" rx="2.522" ry="2.519" style="fill:none;stroke:rgb(35,31,32);stroke-width:0.87px;"/>
        </g>
        <g transform="matrix(0,4.16667,-4.16667,0,2257.77,-1412.15)">
            <circle cx="443.235" cy="421.11" r="2.52" style="fill:none;stroke:rgb(35,31,32);stroke-width:0.87px;"/>
        </g>
        <g transform="matrix(0,4.16667,-4.16667,0,2258.44,-1286.74)">
            <circle cx="428.265" cy="436.238" r="2.519" style="fill:none;stroke:rgb(35,31,32);stroke-width:0.87px;"/>
        </g>
        <g transform="matrix(0,4.16667,-4.16667,0,2305.35,-1171.83)">
            <circle cx="420.106" cy="455.656" r="2.519" style="fill:none;stroke:rgb(35,31,32);stroke-width:0.87px;"/>
        </g>
        <g transform="matrix(0,4.16667,-4.16667,0,2393.05,-1085.36)">
            <circle cx="420.253" cy="476.558" r="2.519" style="fill:none;stroke:rgb(35,31,32);stroke-width:0.87px;"/>
        </g>
        <g transform="matrix(0,4.16667,-4.16667,0,2507.37,-1037.81)">
            <ellipse cx="428.265" cy="495.982" rx="2.522" ry="2.519" style="fill:none;stroke:rgb(35,31,32);stroke-width:0.87px;"/>
        </g>
        <g transform="matrix(0,4.16667,-4.16667,0,2633.99,-1038.44)">
            <circle cx="443.535" cy="511.102" r="2.519" style="fill:none;stroke:rgb(35,31,32);stroke-width:0.87px;"/>
        </g>
        <g transform="matrix(0,4.16667,-4.16667,0,2748.24,-1084.75)">
            <ellipse cx="462.803" cy="519.254" rx="2.52" ry="2.522" style="fill:none;stroke:rgb(35,31,32);stroke-width:0.87px;"/>
        </g>
        <g transform="matrix(0,4.16667,-4.16667,0,2834.12,-1173.06)">
            <circle cx="483.706" cy="518.962" r="2.522" style="fill:none;stroke:rgb(35,31,32);stroke-width:0.87px;"/>
        </g>
        <g transform="matrix(0,4.16667,-4.16667,0,2882.32,-1287.99)">
            <circle cx="503.282" cy="510.953" r="2.52" style="fill:none;stroke:rgb(35,31,32);stroke-width:0.87px;"/>
        </g>
        <g transform="matrix(0,4.16667,-4.16667,0,2881.05,-1412.74)">
            <ellipse cx="518.1" cy="495.832" rx="2.52" ry="2.521" style="fill:none;stroke:rgb(35,31,32);stroke-width:0.87px;"/>
        </g>
        <g transform="matrix(0,4.16667,-4.16667,0,2834.75,-1527.05)">
            <ellipse cx="526.26" cy="476.559" rx="2.519" ry="2.522" style="fill:none;stroke:rgb(35,31,32);stroke-width:0.87px;"/>
        </g>
    </g>
</svg>
