<?xml version="1.0" encoding="UTF-8" standalone="no"?>
<!DOCTYPE svg PUBLIC "-//W3C//DTD SVG 1.1//EN" "http://www.w3.org/Graphics/SVG/1.1/DTD/svg11.dtd">
<svg width="100%" height="100%" viewBox="0 0 3544 3544" version="1.1" xmlns="http://www.w3.org/2000/svg" xmlns:xlink="http://www.w3.org/1999/xlink" xml:space="preserve" xmlns:serif="http://www.serif.com/" style="fill-rule:evenodd;clip-rule:evenodd;stroke-miterlimit:10;">
    <g id="_5" serif:id="5" transform="matrix(2.10136,0,0,2.10136,-4875.34,-4910.35)">
        <g transform="matrix(-3.60281,-2.09307,-2.09307,3.60281,2992.16,3275.02)">
            <ellipse cx="-23.873" cy="-41.091" rx="47.523" ry="47.524" style="fill:none;stroke:rgb(35,31,32);stroke-width:1px;"/>
        </g>
        <g transform="matrix(-3.60282,-2.09305,-2.09305,3.60282,2648.14,3471.17)">
            <path d="M-71.614,-265.839C7.188,-265.84 70.953,-202.073 70.953,-123.273C70.952,-44.471 7.187,19.295 -71.614,19.294C-150.417,19.293 -214.182,-44.47 -214.181,-123.273C-214.182,-202.076 -150.417,-265.841 -71.614,-265.839Z" style="fill:none;fill-rule:nonzero;stroke:rgb(35,31,32);stroke-width:1px;"/>
        </g>
        <g transform="matrix(-0.810713,-4.08704,-4.08704,0.810713,2984.45,2740.35)">
            <path d="M-111.891,-136.266C-48.869,-136.266 2.181,-85.217 2.181,-22.194C2.182,40.829 -48.868,91.878 -111.891,91.877C-174.913,91.877 -225.963,40.828 -225.963,-22.196C-225.964,-85.216 -174.914,-136.268 -111.891,-136.266Z" style="fill:none;fill-rule:nonzero;stroke:rgb(35,31,32);stroke-width:1px;"/>
        </g>
        <g transform="matrix(0,4.16667,4.16667,0,3380.86,3394.56)">
            <path d="M-51.58,-51.58L51.58,-51.58" style="fill:none;fill-rule:nonzero;stroke:rgb(35,31,32);stroke-width:1px;"/>
        </g>
        <g transform="matrix(1.59508,3.84927,3.84927,-1.59508,3400.15,3226.17)">
            <path d="M-31.835,-47.652L71.327,-47.652" style="fill:none;fill-rule:nonzero;stroke:rgb(35,31,32);stroke-width:1px;"/>
        </g>
        <g transform="matrix(2.94626,2.9463,2.9463,-2.94626,3317.9,3116.7)">
            <path d="M-15.106,-36.469L88.043,-36.469" style="fill:none;fill-rule:nonzero;stroke:rgb(35,31,32);stroke-width:1px;"/>
        </g>
        <g transform="matrix(3.84929,1.59502,1.59502,-3.84929,3212.56,3109.9)">
            <path d="M-3.929,-19.745L99.231,-19.745" style="fill:none;fill-rule:nonzero;stroke:rgb(35,31,32);stroke-width:1px;"/>
        </g>
        <g transform="matrix(4.16667,0,0,4.16667,3165.94,3179.64)">
            <path d="M0,0L103.162,0" style="fill:none;fill-rule:nonzero;stroke:rgb(35,31,32);stroke-width:1px;"/>
        </g>
        <g transform="matrix(3.84927,-1.59509,-1.59509,-3.84927,3212.57,3249.38)">
            <path d="M-3.929,19.746L99.231,19.746" style="fill:none;fill-rule:nonzero;stroke:rgb(35,31,32);stroke-width:1px;"/>
        </g>
        <g transform="matrix(2.94626,-2.9463,-2.9463,-2.94626,3317.9,3242.58)">
            <path d="M-15.106,36.469L88.043,36.469" style="fill:none;fill-rule:nonzero;stroke:rgb(35,31,32);stroke-width:1px;"/>
        </g>
        <g transform="matrix(1.59509,-3.84927,-3.84927,-1.59509,3400.14,3133.11)">
            <path d="M-31.834,47.651L71.326,47.651" style="fill:none;fill-rule:nonzero;stroke:rgb(35,31,32);stroke-width:1px;"/>
        </g>
        <g transform="matrix(0,-4.16667,-4.16667,0,3380.87,2964.72)">
            <path d="M-51.581,51.581L51.581,51.581" style="fill:none;fill-rule:nonzero;stroke:rgb(35,31,32);stroke-width:1px;"/>
        </g>
        <g transform="matrix(-1.59502,-3.84929,-3.84929,1.59502,3235.6,2829.09)">
            <path d="M-71.325,47.651L31.835,47.651" style="fill:none;fill-rule:nonzero;stroke:rgb(35,31,32);stroke-width:1px;"/>
        </g>
        <g transform="matrix(-2.94628,-2.94628,-2.94628,2.94628,3013.99,2812.79)">
            <path d="M-88.044,36.469L15.106,36.469" style="fill:none;fill-rule:nonzero;stroke:rgb(35,31,32);stroke-width:1px;"/>
        </g>
        <g transform="matrix(-3.84927,-1.59508,-1.59508,3.84927,2815.47,2945.35)">
            <path d="M-99.232,19.746L3.929,19.746" style="fill:none;fill-rule:nonzero;stroke:rgb(35,31,32);stroke-width:1px;"/>
        </g>
        <g transform="matrix(-4.16667,0,0,4.16667,2736.11,3179.64)">
            <path d="M-103.161,0L0,0" style="fill:none;fill-rule:nonzero;stroke:rgb(35,31,32);stroke-width:1px;"/>
        </g>
        <g transform="matrix(-3.8493,1.59501,1.59501,3.8493,2815.46,3413.92)">
            <path d="M-99.232,-19.745L3.929,-19.745" style="fill:none;fill-rule:nonzero;stroke:rgb(35,31,32);stroke-width:1px;"/>
        </g>
        <g transform="matrix(-2.94628,2.94628,2.94628,2.94628,3013.99,3546.49)">
            <path d="M-88.044,-36.469L15.106,-36.469" style="fill:none;fill-rule:nonzero;stroke:rgb(35,31,32);stroke-width:1px;"/>
        </g>
        <g transform="matrix(-1.59501,3.8493,3.8493,1.59501,3235.61,3530.2)">
            <path d="M-71.325,-47.652L31.835,-47.652" style="fill:none;fill-rule:nonzero;stroke:rgb(35,31,32);stroke-width:1px;"/>
        </g>
        <g transform="matrix(0.810713,4.08704,4.08704,-0.810713,3608.96,3416.95)">
            <path d="M-76.552,-93.229L112.613,-93.18" style="fill:none;fill-rule:nonzero;stroke:rgb(35,31,32);stroke-width:1px;"/>
        </g>
        <g transform="matrix(2.30232,3.44862,3.46537,-2.31351,3537.13,3142.56)">
            <path d="M-42.272,-79.048L147.818,-79.048" style="fill:none;fill-rule:nonzero;stroke:rgb(35,31,32);stroke-width:1px;"/>
        </g>
        <g transform="matrix(3.46892,2.32053,2.31672,-3.46322,3343.95,3033.89)">
            <path d="M-16.045,-52.841L172.221,-51.455" style="fill:none;fill-rule:nonzero;stroke:rgb(35,31,32);stroke-width:1px;"/>
        </g>
        <g transform="matrix(4.08607,0.815596,0.815596,-4.08607,3188.56,3105.14)">
            <path d="M-1.839,-18.605L187.286,-18.708" style="fill:none;fill-rule:nonzero;stroke:rgb(35,31,32);stroke-width:1px;"/>
        </g>
        <g transform="matrix(4.07229,-0.807788,-0.810713,-4.08704,3188.26,3253.77)">
            <path d="M-1.816,18.493L188.273,18.493" style="fill:none;fill-rule:nonzero;stroke:rgb(35,31,32);stroke-width:1px;"/>
        </g>
        <g transform="matrix(3.46537,-2.31352,-2.31352,-3.46537,3343.4,3325.52)">
            <path d="M-15.997,52.773L174.092,52.773" style="fill:none;fill-rule:nonzero;stroke:rgb(35,31,32);stroke-width:1px;"/>
        </g>
        <g transform="matrix(2.31673,-3.46322,-3.46322,-2.31673,3537.18,3216.53)">
            <path d="M-42.194,78.99L147.875,78.99" style="fill:none;fill-rule:nonzero;stroke:rgb(35,31,32);stroke-width:1px;"/>
        </g>
        <g transform="matrix(0.815626,-4.08606,-4.08606,-0.815626,3609.06,2943.34)">
            <path d="M-76.44,93.206L113.65,93.206" style="fill:none;fill-rule:nonzero;stroke:rgb(35,31,32);stroke-width:1px;"/>
        </g>
        <g transform="matrix(-0.809605,-4.08157,-4.08704,0.810692,3454.98,2640.67)">
            <path d="M-113.537,93.229L76.552,93.229" style="fill:none;fill-rule:nonzero;stroke:rgb(35,31,32);stroke-width:1px;"/>
        </g>
        <g transform="matrix(-2.31352,-3.46537,-3.46537,2.31352,3097.82,2484.54)">
            <path d="M-147.818,79.048L42.272,79.048" style="fill:none;fill-rule:nonzero;stroke:rgb(35,31,32);stroke-width:1px;"/>
        </g>
        <g transform="matrix(-3.46323,-2.31671,-2.31671,3.46323,2685.6,2593.5)">
            <path d="M-174.024,52.84L16.044,52.84" style="fill:none;fill-rule:nonzero;stroke:rgb(35,31,32);stroke-width:1px;"/>
        </g>
        <g transform="matrix(-4.08607,-0.815584,-0.815584,4.08607,2411.84,2950.11)">
            <path d="M-188.251,18.604L1.839,18.604" style="fill:none;fill-rule:nonzero;stroke:rgb(35,31,32);stroke-width:1px;"/>
        </g>
        <g transform="matrix(-4.08704,0.810717,0.810717,4.08704,2411.39,3407.87)">
            <path d="M-188.272,-18.493L1.816,-18.493" style="fill:none;fill-rule:nonzero;stroke:rgb(35,31,32);stroke-width:1px;"/>
        </g>
        <g transform="matrix(-3.46536,2.31354,2.31354,3.46536,2684.67,3765.31)">
            <path d="M-174.092,-52.774L15.997,-52.774" style="fill:none;fill-rule:nonzero;stroke:rgb(35,31,32);stroke-width:1px;"/>
        </g>
        <g transform="matrix(-2.31671,3.46323,3.46323,2.31671,3096.85,3874.78)">
            <path d="M-147.874,-78.99L41.692,-79.149" style="fill:none;fill-rule:nonzero;stroke:rgb(35,31,32);stroke-width:1px;"/>
        </g>
        <g transform="matrix(-0.815605,4.08607,4.08607,0.815605,3454.02,3720.05)">
            <path d="M-113.649,-93.206L76.44,-93.206" style="fill:none;fill-rule:nonzero;stroke:rgb(35,31,32);stroke-width:1px;"/>
        </g>
        <g transform="matrix(4.16667,0,0,4.16667,3006.61,3173.3)">
            <path d="M0,-14.92C-0.627,-13.403 -1.034,-12.186 -1.372,-11.231C-1.71,-10.274 -1.98,-9.577 -2.282,-9.065C-2.882,-8.042 -3.624,-7.772 -5.047,-7.61C-3.792,-6.917 -3.209,-6.385 -3.045,-5.21C-2.96,-4.622 -2.978,-3.874 -3.03,-2.858C-3.081,-1.842 -3.169,-0.559 -3.171,1.089C-4.872,1.089 -6.173,0.929 -7.181,0.632C-8.188,0.339 -8.901,-0.088 -9.429,-0.581C-10.486,-1.571 -10.788,-2.817 -11.272,-3.827C-11.771,-4.868 -11.97,-5.651 -12.513,-6.499C-12.783,-6.924 -13.139,-7.366 -13.652,-7.883C-14.167,-8.401 -14.838,-8.991 -15.734,-9.723C-14.626,-10.059 -13.784,-10.354 -13.116,-10.643C-12.446,-10.932 -11.952,-11.213 -11.536,-11.506C-10.704,-12.09 -10.195,-12.731 -9.261,-13.445C-8.298,-14.18 -7.409,-15.16 -6.032,-15.648C-5.347,-15.891 -4.544,-16.009 -3.56,-15.913C-2.576,-15.818 -1.415,-15.507 0,-14.92Z" style="fill:none;fill-rule:nonzero;stroke:rgb(35,31,32);stroke-width:1px;"/>
        </g>
        <g transform="matrix(4.16667,0,0,4.16667,3044.44,3098.41)">
            <path d="M0,-10.513C-1.162,-9.349 -2.006,-8.378 -2.688,-7.624C-3.367,-6.868 -3.885,-6.325 -4.361,-5.97C-5.309,-5.252 -6.098,-5.288 -7.474,-5.687C-6.582,-4.566 -6.248,-3.85 -6.549,-2.701C-6.697,-2.125 -7.002,-1.441 -7.44,-0.525C-7.877,0.391 -8.45,1.54 -9.081,3.055C-10.654,2.405 -11.793,1.758 -12.609,1.098C-13.428,0.441 -13.924,-0.226 -14.222,-0.883C-14.818,-2.203 -14.617,-3.47 -14.676,-4.589C-14.734,-5.742 -14.617,-6.54 -14.793,-7.532C-14.879,-8.029 -15.037,-8.575 -15.313,-9.249C-15.588,-9.925 -15.98,-10.728 -16.527,-11.747C-15.375,-11.631 -14.485,-11.579 -13.757,-11.589C-13.029,-11.599 -12.463,-11.667 -11.967,-11.779C-10.977,-11.998 -10.26,-12.394 -9.123,-12.695C-7.951,-13.003 -6.755,-13.568 -5.298,-13.492C-4.57,-13.454 -3.783,-13.256 -2.911,-12.791C-2.038,-12.327 -1.082,-11.597 0,-10.513Z" style="fill:none;fill-rule:nonzero;stroke:rgb(35,31,32);stroke-width:1px;"/>
        </g>
        <g transform="matrix(4.16667,0,0,4.16667,3100.98,3023.58)">
            <path d="M0,-1.634C-1.516,-1.003 -2.664,-0.431 -3.58,0.007C-4.496,0.445 -5.181,0.749 -5.757,0.897C-6.905,1.199 -7.621,0.864 -8.742,-0.027C-8.346,1.349 -8.309,2.137 -9.025,3.085C-9.382,3.561 -9.924,4.079 -10.681,4.76C-11.435,5.44 -12.404,6.284 -13.568,7.446C-14.772,6.243 -15.578,5.21 -16.082,4.288C-16.586,3.368 -16.789,2.563 -16.813,1.841C-16.86,0.393 -16.192,-0.7 -15.818,-1.758C-15.434,-2.846 -15.021,-3.539 -14.807,-4.523C-14.697,-5.015 -14.634,-5.579 -14.632,-6.308C-14.629,-7.036 -14.687,-7.929 -14.804,-9.08C-13.783,-8.534 -12.979,-8.148 -12.302,-7.879C-11.625,-7.61 -11.076,-7.458 -10.574,-7.372C-9.574,-7.197 -8.761,-7.29 -7.595,-7.136C-6.395,-6.972 -5.073,-7.039 -3.756,-6.412C-3.099,-6.1 -2.447,-5.614 -1.818,-4.853C-1.189,-4.09 -0.586,-3.05 0,-1.634Z" style="fill:none;fill-rule:nonzero;stroke:rgb(35,31,32);stroke-width:1px;"/>
        </g>
        <g transform="matrix(4.16667,0,0,4.16667,3167.68,2964.42)">
            <path d="M0,9.391C-1.649,9.393 -2.932,9.482 -3.946,9.533C-4.962,9.585 -5.712,9.602 -6.3,9.518C-7.476,9.354 -8.007,8.771 -8.698,7.516C-8.86,8.94 -9.13,9.68 -10.154,10.28C-10.665,10.582 -11.363,10.852 -12.32,11.19C-13.275,11.529 -14.492,11.936 -16.009,12.563C-16.662,10.991 -17.012,9.728 -17.124,8.684C-17.237,7.641 -17.118,6.82 -16.864,6.143C-16.354,4.787 -15.317,4.033 -14.566,3.2C-13.793,2.344 -13.146,1.862 -12.569,1.036C-12.279,0.623 -12.003,0.125 -11.722,-0.547C-11.438,-1.218 -11.148,-2.064 -10.813,-3.172C-10.079,-2.275 -9.487,-1.609 -8.966,-1.101C-8.443,-0.591 -7.994,-0.242 -7.564,0.031C-6.709,0.578 -5.923,0.805 -4.906,1.397C-3.861,2.007 -2.616,2.455 -1.64,3.539C-1.153,4.079 -0.736,4.778 -0.446,5.722C-0.157,6.667 0.001,7.86 0,9.391Z" style="fill:none;fill-rule:nonzero;stroke:rgb(35,31,32);stroke-width:1px;"/>
        </g>
        <g transform="matrix(4.16667,0,0,4.16667,3234.38,2951.21)">
            <path d="M0,15.734C-1.516,15.107 -2.732,14.7 -3.688,14.361C-4.645,14.023 -5.344,13.754 -5.855,13.451C-6.879,12.851 -7.148,12.111 -7.311,10.687C-8.002,11.942 -8.533,12.525 -9.709,12.689C-10.297,12.773 -11.046,12.756 -12.062,12.704C-13.076,12.653 -14.359,12.564 -16.008,12.562C-16.009,10.861 -15.847,9.56 -15.551,8.553C-15.257,7.546 -14.832,6.832 -14.338,6.304C-13.349,5.248 -12.103,4.945 -11.092,4.461C-10.05,3.963 -9.268,3.764 -8.422,3.221C-7.996,2.951 -7.553,2.595 -7.035,2.082C-6.518,1.568 -5.928,0.896 -5.195,0C-4.859,1.107 -4.564,1.949 -4.275,2.618C-3.988,3.287 -3.705,3.782 -3.412,4.197C-2.828,5.029 -2.188,5.539 -1.473,6.473C-0.738,7.437 0.242,8.326 0.729,9.7C0.973,10.386 1.09,11.191 0.994,12.173C0.898,13.158 0.588,14.32 0,15.734Z" style="fill:none;fill-rule:nonzero;stroke:rgb(35,31,32);stroke-width:1px;"/>
        </g>
        <g transform="matrix(4.16667,0,0,4.16667,3290.92,2985.74)">
            <path d="M0,16.527C-1.164,15.365 -2.135,14.521 -2.887,13.84C-3.643,13.16 -4.186,12.642 -4.543,12.166C-5.26,11.218 -5.223,10.43 -4.826,9.054C-5.947,9.945 -6.662,10.28 -7.811,9.978C-8.387,9.83 -9.072,9.526 -9.988,9.088C-10.904,8.65 -12.053,8.078 -13.568,7.447C-12.916,5.874 -12.27,4.735 -11.609,3.918C-10.953,3.1 -10.287,2.604 -9.629,2.306C-8.309,1.709 -7.043,1.91 -5.922,1.851C-4.77,1.793 -3.971,1.91 -2.98,1.734C-2.484,1.648 -1.938,1.49 -1.262,1.214C-0.588,0.939 0.215,0.547 1.234,0C1.119,1.152 1.066,2.043 1.076,2.771C1.086,3.499 1.156,4.064 1.268,4.56C1.486,5.552 1.883,6.268 2.184,7.406C2.49,8.576 3.057,9.773 2.98,11.23C2.941,11.957 2.744,12.744 2.279,13.617C1.816,14.489 1.084,15.445 0,16.527Z" style="fill:none;fill-rule:nonzero;stroke:rgb(35,31,32);stroke-width:1px;"/>
        </g>
        <g transform="matrix(4.16667,0,0,4.16667,3328.75,3040.89)">
            <path d="M0,16.86C-0.629,15.344 -1.203,14.196 -1.641,13.28C-2.078,12.364 -2.383,11.679 -2.531,11.103C-2.832,9.955 -2.498,9.239 -1.605,8.118C-2.982,8.516 -3.77,8.552 -4.719,7.835C-5.195,7.479 -5.713,6.936 -6.393,6.18C-7.074,5.426 -7.918,4.456 -9.08,3.292C-7.877,2.088 -6.842,1.282 -5.922,0.779C-5.002,0.275 -4.195,0.071 -3.475,0.047C-2.027,0 -0.932,0.669 0.125,1.042C1.213,1.426 1.906,1.839 2.889,2.055C3.381,2.164 3.947,2.227 4.676,2.229C5.404,2.231 6.297,2.173 7.447,2.057C6.902,3.077 6.514,3.881 6.246,4.558C5.977,5.235 5.826,5.785 5.738,6.286C5.564,7.286 5.658,8.1 5.502,9.265C5.338,10.465 5.406,11.788 4.779,13.104C4.467,13.762 3.982,14.414 3.219,15.042C2.457,15.672 1.416,16.274 0,16.86Z" style="fill:none;fill-rule:nonzero;stroke:rgb(35,31,32);stroke-width:1px;"/>
        </g>
        <g transform="matrix(4.16667,0,0,4.16667,3341.97,3106.02)">
            <path d="M0,17.238C-0.002,15.59 -0.09,14.306 -0.141,13.291C-0.193,12.275 -0.211,11.527 -0.125,10.939C0.039,9.763 0.621,9.232 1.875,8.539C0.453,8.377 -0.289,8.107 -0.889,7.084C-1.191,6.572 -1.459,5.875 -1.797,4.918C-2.137,3.963 -2.543,2.746 -3.172,1.229C-1.6,0.576 -0.336,0.227 0.707,0.113C1.75,0 2.572,0.119 3.248,0.374C4.604,0.884 5.359,1.921 6.193,2.672C7.049,3.445 7.531,4.092 8.355,4.67C8.77,4.959 9.266,5.234 9.938,5.517C10.609,5.8 11.455,6.09 12.564,6.425C11.668,7.158 11,7.752 10.492,8.273C9.984,8.795 9.633,9.244 9.361,9.674C8.814,10.529 8.588,11.316 7.996,12.332C7.385,13.377 6.938,14.623 5.854,15.599C5.313,16.086 4.615,16.502 3.67,16.791C2.725,17.08 1.531,17.238 0,17.238Z" style="fill:none;fill-rule:nonzero;stroke:rgb(35,31,32);stroke-width:1px;"/>
        </g>
        <g transform="matrix(4.16667,0,0,4.16667,3328.75,3182.37)">
            <path d="M0,14.924C0.629,13.406 1.035,12.19 1.375,11.235C1.713,10.278 1.98,9.58 2.283,9.069C2.883,8.043 3.623,7.774 5.047,7.613C3.793,6.92 3.211,6.389 3.047,5.213C2.961,4.625 2.979,3.875 3.031,2.861C3.082,1.846 3.17,0.563 3.172,-1.086C4.873,-1.088 6.174,-0.926 7.182,-0.629C8.189,-0.336 8.902,0.09 9.43,0.584C10.488,1.574 10.791,2.82 11.273,3.83C11.771,4.871 11.971,5.654 12.514,6.5C12.785,6.926 13.141,7.369 13.654,7.887C14.168,8.404 14.84,8.994 15.736,9.727C14.627,10.063 13.785,10.358 13.117,10.647C12.447,10.936 11.953,11.217 11.537,11.51C10.707,12.094 10.197,12.735 9.262,13.449C8.297,14.184 7.41,15.164 6.035,15.651C5.348,15.895 4.545,16.012 3.563,15.916C2.578,15.822 1.414,15.512 0,14.924Z" style="fill:none;fill-rule:nonzero;stroke:rgb(35,31,32);stroke-width:1px;"/>
        </g>
        <g transform="matrix(4.16667,0,0,4.16667,3290.92,3257.28)">
            <path d="M0,10.513C1.162,9.349 2.006,8.378 2.688,7.624C3.367,6.868 3.885,6.325 4.361,5.97C5.311,5.251 6.098,5.288 7.475,5.687C6.582,4.564 6.248,3.849 6.549,2.7C6.697,2.124 7.002,1.441 7.439,0.525C7.877,-0.391 8.451,-1.54 9.08,-3.055C10.654,-2.405 11.793,-1.758 12.609,-1.1C13.428,-0.442 13.924,0.224 14.221,0.882C14.818,2.202 14.617,3.468 14.676,4.589C14.734,5.742 14.617,6.54 14.793,7.531C14.881,8.029 15.037,8.574 15.313,9.249C15.588,9.923 15.982,10.726 16.527,11.747C15.377,11.63 14.484,11.579 13.758,11.587C13.029,11.597 12.463,11.667 11.967,11.779C10.977,11.997 10.26,12.394 9.123,12.695C7.951,13.003 6.756,13.568 5.299,13.492C4.572,13.454 3.783,13.255 2.912,12.79C2.039,12.327 1.084,11.597 0,10.513Z" style="fill:none;fill-rule:nonzero;stroke:rgb(35,31,32);stroke-width:1px;"/>
        </g>
        <g transform="matrix(4.16667,0,0,4.16667,3234.38,3332.12)">
            <path d="M0,1.633C1.516,1.002 2.664,0.428 3.58,-0.008C4.496,-0.447 5.182,-0.752 5.758,-0.898C6.906,-1.201 7.621,-0.865 8.742,0.026C8.346,-1.351 8.309,-2.138 9.025,-3.086C9.383,-3.562 9.926,-4.08 10.682,-4.762C11.434,-5.441 12.404,-6.285 13.568,-7.447C14.773,-6.244 15.58,-5.211 16.082,-4.291C16.586,-3.369 16.789,-2.564 16.814,-1.842C16.861,-0.394 16.193,0.699 15.82,1.756C15.434,2.844 15.021,3.537 14.807,4.522C14.697,5.012 14.635,5.578 14.633,6.307C14.629,7.035 14.688,7.928 14.803,9.08C13.783,8.533 12.98,8.147 12.303,7.877C11.625,7.608 11.076,7.457 10.574,7.371C9.574,7.196 8.762,7.289 7.596,7.133C6.395,6.971 5.074,7.037 3.756,6.41C3.1,6.098 2.447,5.613 1.818,4.852C1.189,4.088 0.586,3.049 0,1.633Z" style="fill:none;fill-rule:nonzero;stroke:rgb(35,31,32);stroke-width:1px;"/>
        </g>
        <g transform="matrix(4.16667,0,0,4.16667,3167.68,3391.27)">
            <path d="M0,-9.394C1.649,-9.396 2.933,-9.484 3.946,-9.535C4.962,-9.587 5.711,-9.603 6.299,-9.519C7.475,-9.355 8.006,-8.773 8.698,-7.517C8.86,-8.941 9.129,-9.683 10.153,-10.283C10.665,-10.583 11.364,-10.853 12.321,-11.191C13.276,-11.531 14.493,-11.937 16.008,-12.564C16.663,-10.992 17.01,-9.73 17.124,-8.685C17.237,-7.642 17.118,-6.82 16.864,-6.146C16.354,-4.79 15.317,-4.035 14.567,-3.201C13.793,-2.345 13.145,-1.863 12.569,-1.037C12.278,-0.624 12.004,-0.126 11.721,0.545C11.438,1.217 11.149,2.063 10.813,3.17C10.081,2.274 9.487,1.608 8.965,1.098C8.444,0.59 7.995,0.239 7.565,-0.033C6.709,-0.58 5.923,-0.806 4.905,-1.398C3.86,-2.009 2.616,-2.456 1.64,-3.54C1.153,-4.081 0.735,-4.779 0.448,-5.724C0.157,-6.669 -0.001,-7.861 0,-9.394Z" style="fill:none;fill-rule:nonzero;stroke:rgb(35,31,32);stroke-width:1px;"/>
        </g>
        <g transform="matrix(4.16667,0,0,4.16667,3100.98,3404.48)">
            <path d="M0,-15.734C1.517,-15.107 2.733,-14.701 3.688,-14.361C4.646,-14.023 5.344,-13.754 5.854,-13.453C6.879,-12.853 7.148,-12.111 7.311,-10.687C8.002,-11.943 8.533,-12.525 9.709,-12.689C10.297,-12.773 11.047,-12.757 12.063,-12.705C13.077,-12.654 14.359,-12.566 16.009,-12.564C16.01,-10.861 15.848,-9.56 15.553,-8.554C15.258,-7.546 14.833,-6.834 14.339,-6.306C13.35,-5.248 12.104,-4.945 11.092,-4.461C10.051,-3.964 9.269,-3.765 8.422,-3.222C7.996,-2.951 7.553,-2.595 7.036,-2.082C6.518,-1.568 5.93,-0.896 5.196,0C4.86,-1.107 4.565,-1.949 4.276,-2.619C3.987,-3.287 3.705,-3.783 3.412,-4.199C2.828,-5.029 2.188,-5.539 1.473,-6.474C0.739,-7.437 -0.24,-8.326 -0.729,-9.701C-0.971,-10.386 -1.089,-11.191 -0.994,-12.173C-0.898,-13.158 -0.588,-14.32 0,-15.734Z" style="fill:none;fill-rule:nonzero;stroke:rgb(35,31,32);stroke-width:1px;"/>
        </g>
        <g transform="matrix(4.16667,0,0,4.16667,3044.44,3369.94)">
            <path d="M0,-16.527C1.164,-15.363 2.134,-14.521 2.888,-13.839C3.644,-13.16 4.187,-12.64 4.543,-12.166C5.26,-11.216 5.223,-10.429 4.826,-9.052C5.947,-9.943 6.662,-10.279 7.812,-9.976C8.388,-9.83 9.072,-9.525 9.988,-9.086C10.904,-8.65 12.053,-8.076 13.568,-7.445C12.917,-5.873 12.27,-4.734 11.611,-3.916C10.953,-3.099 10.287,-2.603 9.629,-2.304C8.309,-1.709 7.043,-1.908 5.923,-1.849C4.771,-1.793 3.972,-1.908 2.98,-1.734C2.484,-1.646 1.938,-1.488 1.264,-1.214C0.588,-0.939 -0.215,-0.545 -1.235,0C-1.118,-1.15 -1.066,-2.041 -1.076,-2.769C-1.086,-3.498 -1.156,-4.064 -1.267,-4.56C-1.486,-5.55 -1.882,-6.267 -2.183,-7.404C-2.49,-8.574 -3.055,-9.771 -2.979,-11.228C-2.941,-11.955 -2.744,-12.742 -2.279,-13.615C-1.815,-14.488 -1.084,-15.443 0,-16.527Z" style="fill:none;fill-rule:nonzero;stroke:rgb(35,31,32);stroke-width:1px;"/>
        </g>
        <g transform="matrix(4.16667,0,0,4.16667,3006.61,3314.79)">
            <path d="M0,-16.859C0.631,-15.343 1.204,-14.195 1.641,-13.279C2.079,-12.363 2.384,-11.679 2.532,-11.103C2.833,-9.955 2.499,-9.24 1.607,-8.117C2.983,-8.515 3.772,-8.552 4.72,-7.836C5.196,-7.478 5.714,-6.935 6.394,-6.179C7.075,-5.425 7.919,-4.457 9.081,-3.293C7.878,-2.088 6.844,-1.281 5.923,-0.779C5.003,-0.275 4.197,-0.072 3.476,-0.046C2.028,0 0.933,-0.668 -0.124,-1.041C-1.211,-1.427 -1.905,-1.839 -2.888,-2.054C-3.38,-2.164 -3.944,-2.226 -4.674,-2.228C-5.402,-2.23 -6.294,-2.173 -7.446,-2.056C-6.899,-3.078 -6.514,-3.88 -6.244,-4.558C-5.976,-5.236 -5.825,-5.785 -5.737,-6.285C-5.563,-7.285 -5.656,-8.099 -5.501,-9.265C-5.339,-10.464 -5.405,-11.787 -4.778,-13.105C-4.466,-13.761 -3.981,-14.414 -3.218,-15.043C-2.456,-15.671 -1.415,-16.273 0,-16.859Z" style="fill:none;fill-rule:nonzero;stroke:rgb(35,31,32);stroke-width:1px;"/>
        </g>
        <g transform="matrix(4.16667,0,0,4.16667,2993.39,3249.66)">
            <path d="M0,-17.236C0.002,-15.588 0.09,-14.304 0.141,-13.289C0.193,-12.275 0.211,-11.525 0.126,-10.937C-0.038,-9.761 -0.621,-9.23 -1.876,-8.537C-0.453,-8.377 0.289,-8.107 0.889,-7.082C1.19,-6.57 1.46,-5.873 1.799,-4.916C2.137,-3.961 2.544,-2.744 3.171,-1.226C1.6,-0.574 0.336,-0.224 -0.707,-0.111C-1.75,0.002 -2.572,-0.119 -3.248,-0.373C-4.604,-0.882 -5.359,-1.92 -6.191,-2.67C-7.049,-3.443 -7.531,-4.091 -8.355,-4.668C-8.768,-4.957 -9.266,-5.232 -9.938,-5.515C-10.609,-5.798 -11.455,-6.088 -12.563,-6.423C-11.667,-7.156 -11,-7.75 -10.492,-8.271C-9.983,-8.793 -9.633,-9.242 -9.361,-9.672C-8.814,-10.527 -8.587,-11.312 -7.995,-12.33C-7.385,-13.375 -6.938,-14.621 -5.854,-15.597C-5.313,-16.084 -4.615,-16.502 -3.669,-16.789C-2.725,-17.078 -1.531,-17.238 0,-17.236Z" style="fill:none;fill-rule:nonzero;stroke:rgb(35,31,32);stroke-width:1px;"/>
        </g>
        <g transform="matrix(4.16667,0,0,4.16667,3165.61,3243.52)">
            <path d="M0,-31.603C-8.727,-31.603 -15.801,-24.527 -15.801,-15.801C-15.801,-7.074 -8.727,0 0,0C8.726,0 15.802,-7.074 15.802,-15.801C15.802,-24.527 8.726,-31.603 0,-31.603M0,-24.152C4.604,-24.152 8.351,-20.406 8.351,-15.801C8.351,-11.197 4.604,-7.451 0,-7.451C-4.604,-7.451 -8.351,-11.197 -8.351,-15.801C-8.351,-20.406 -4.604,-24.152 0,-24.152" style="fill:white;fill-rule:nonzero;"/>
        </g>
        <g transform="matrix(4.16667,0,0,4.16667,3165.61,3243.52)">
            <path d="M0,-31.603C-8.727,-31.603 -15.801,-24.527 -15.801,-15.801C-15.801,-7.074 -8.727,0 0,0C8.726,0 15.802,-7.074 15.802,-15.801C15.802,-24.527 8.726,-31.603 0,-31.603ZM0,-24.152C4.604,-24.152 8.351,-20.406 8.351,-15.801C8.351,-11.197 4.604,-7.451 0,-7.451C-4.604,-7.451 -8.351,-11.197 -8.351,-15.801C-8.351,-20.406 -4.604,-24.152 0,-24.152" style="fill:none;fill-rule:nonzero;stroke:rgb(35,31,32);stroke-width:1px;"/>
        </g>
        <g transform="matrix(0,-4.16667,-4.16667,0,3166,3177.94)">
            <circle cx="-48.184" cy="0" r="48.184" style="fill:none;stroke:rgb(35,31,32);stroke-width:1px;"/>
        </g>
        <g transform="matrix(0,-4.16667,-4.16667,0,3167.04,2775.38)">
            <circle cx="-48.183" cy="0" r="48.183" style="fill:none;stroke:rgb(35,31,32);stroke-width:1px;"/>
        </g>
        <g transform="matrix(-4.16667,0,0,4.16667,3364.7,3378.71)">
            <circle cx="0" cy="-48.184" r="48.183" style="fill:none;stroke:rgb(35,31,32);stroke-width:1px;"/>
        </g>
        <g transform="matrix(-4.16667,0,0,4.16667,2963.17,3377.67)">
            <circle cx="0" cy="-48.184" r="48.184" style="fill:none;stroke:rgb(35,31,32);stroke-width:1px;"/>
        </g>
        <g transform="matrix(4.16667,0,0,4.16667,3118.74,3222.98)">
            <path d="M0,-22.348C-6.171,-16.176 -6.171,-6.172 0,0C6.17,6.17 16.176,6.17 22.347,0C28.517,-6.172 28.517,-16.178 22.347,-22.348C16.176,-28.518 6.17,-28.518 0,-22.348M5.269,-17.078C8.525,-20.334 13.822,-20.334 17.078,-17.078C20.333,-13.823 20.333,-8.526 17.078,-5.27C13.822,-2.014 8.525,-2.014 5.269,-5.27C2.013,-8.526 2.013,-13.823 5.269,-17.078" style="fill:white;fill-rule:nonzero;"/>
        </g>
        <g transform="matrix(4.16667,0,0,4.16667,3118.74,3222.98)">
            <path d="M0,-22.348C-6.171,-16.176 -6.171,-6.172 0,0C6.17,6.17 16.176,6.17 22.347,0C28.517,-6.172 28.517,-16.178 22.347,-22.348C16.176,-28.518 6.17,-28.518 0,-22.348ZM5.269,-17.078C8.525,-20.334 13.822,-20.334 17.078,-17.078C20.333,-13.823 20.333,-8.526 17.078,-5.27C13.822,-2.014 8.525,-2.014 5.269,-5.27C2.013,-8.526 2.013,-13.823 5.269,-17.078" style="fill:none;fill-rule:nonzero;stroke:rgb(35,31,32);stroke-width:1px;"/>
        </g>
        <g transform="matrix(-2.94624,-2.94632,-2.94632,2.94624,3106.96,3318.29)">
            <circle cx="-34.072" cy="-34.072" r="48.184" style="fill:none;stroke:rgb(35,31,32);stroke-width:1px;"/>
        </g>
        <g transform="matrix(-2.94626,-2.9463,-2.9463,2.94626,2823.04,3032.9)">
            <circle cx="-34.07" cy="-34.07" r="48.184" style="fill:none;stroke:rgb(35,31,32);stroke-width:1px;"/>
        </g>
        <g transform="matrix(-2.94632,2.94624,2.94624,2.94632,3507.02,3035.84)">
            <ellipse cx="34.07" cy="-34.071" rx="48.184" ry="48.183" style="fill:none;stroke:rgb(35,31,32);stroke-width:1px;"/>
        </g>
        <g transform="matrix(-2.94626,2.9463,2.9463,2.94626,3222.37,3319.02)">
            <circle cx="34.071" cy="-34.071" r="48.184" style="fill:none;stroke:rgb(35,31,32);stroke-width:1px;"/>
        </g>
        <g transform="matrix(4.16667,0,0,4.16667,3166.57,3281.29)">
            <path d="M0,-49.662C-13.713,-49.662 -24.83,-38.545 -24.83,-24.83C-24.83,-11.118 -13.713,0 0,0C13.712,0 24.832,-11.118 24.832,-24.83C24.832,-38.545 13.712,-49.662 0,-49.662M0,-37.954C7.236,-37.954 13.123,-32.067 13.123,-24.83C13.123,-17.596 7.236,-11.709 0,-11.709C-7.235,-11.709 -13.122,-17.596 -13.122,-24.83C-13.122,-32.067 -7.235,-37.954 0,-37.954" style="fill:white;fill-rule:nonzero;"/>
        </g>
        <g transform="matrix(4.16667,0,0,4.16667,3166.57,3281.29)">
            <path d="M0,-49.662C-13.713,-49.662 -24.83,-38.545 -24.83,-24.83C-24.83,-11.118 -13.713,0 0,0C13.712,0 24.832,-11.118 24.832,-24.83C24.832,-38.545 13.712,-49.662 0,-49.662ZM0,-37.954C7.236,-37.954 13.123,-32.067 13.123,-24.83C13.123,-17.596 7.236,-11.709 0,-11.709C-7.235,-11.709 -13.122,-17.596 -13.122,-24.83C-13.122,-32.067 -7.235,-37.954 0,-37.954" style="fill:none;fill-rule:nonzero;stroke:rgb(35,31,32);stroke-width:1px;"/>
        </g>
        <g transform="matrix(0,-4.16667,-4.16667,0,3167.19,3178.24)">
            <circle cx="-75.717" cy="0" r="75.717" style="fill:none;stroke:rgb(35,31,32);stroke-width:1px;"/>
        </g>
        <g transform="matrix(0,-4.16667,-4.16667,0,3168.82,2545.64)">
            <ellipse cx="-75.718" cy="0.001" rx="75.717" ry="75.718" style="fill:none;stroke:rgb(35,31,32);stroke-width:1px;"/>
        </g>
        <g transform="matrix(-4.16667,0,0,4.16667,3479.42,3493.73)">
            <circle cx="0.001" cy="-75.717" r="75.717" style="fill:none;stroke:rgb(35,31,32);stroke-width:1px;"/>
        </g>
        <g transform="matrix(-4.16667,0,0,4.16667,2848.45,3492.1)">
            <circle cx="0" cy="-75.717" r="75.717" style="fill:none;stroke:rgb(35,31,32);stroke-width:1px;"/>
        </g>
        <g transform="matrix(4.16667,0,0,4.16667,3118.74,3222.98)">
            <path d="M0,-22.348C-6.171,-16.176 -6.171,-6.172 0,0C6.17,6.17 16.176,6.17 22.347,0C28.517,-6.172 28.517,-16.178 22.347,-22.348C16.176,-28.518 6.17,-28.518 0,-22.348M5.269,-17.078C8.525,-20.334 13.822,-20.334 17.078,-17.078C20.333,-13.823 20.333,-8.526 17.078,-5.27C13.822,-2.014 8.525,-2.014 5.269,-5.27C2.013,-8.526 2.013,-13.823 5.269,-17.078" style="fill:white;fill-rule:nonzero;"/>
        </g>
        <g transform="matrix(4.16667,0,0,4.16667,3118.74,3222.98)">
            <path d="M0,-22.348C-6.171,-16.176 -6.171,-6.172 0,0C6.17,6.17 16.176,6.17 22.347,0C28.517,-6.172 28.517,-16.178 22.347,-22.348C16.176,-28.518 6.17,-28.518 0,-22.348ZM5.269,-17.078C8.525,-20.334 13.822,-20.334 17.078,-17.078C20.333,-13.823 20.333,-8.526 17.078,-5.27C13.822,-2.014 8.525,-2.014 5.269,-5.27C2.013,-8.526 2.013,-13.823 5.269,-17.078" style="fill:none;fill-rule:nonzero;stroke:rgb(35,31,32);stroke-width:1px;"/>
        </g>
        <g transform="matrix(-2.94624,-2.94632,-2.94632,2.94624,3106.96,3318.29)">
            <circle cx="-34.072" cy="-34.072" r="48.184" style="fill:none;stroke:rgb(35,31,32);stroke-width:1px;"/>
        </g>
        <g transform="matrix(-2.94626,-2.9463,-2.9463,2.94626,2823.04,3032.9)">
            <circle cx="-34.07" cy="-34.07" r="48.184" style="fill:none;stroke:rgb(35,31,32);stroke-width:1px;"/>
        </g>
        <g transform="matrix(-2.94632,2.94624,2.94624,2.94632,3507.02,3035.84)">
            <ellipse cx="34.07" cy="-34.071" rx="48.184" ry="48.183" style="fill:none;stroke:rgb(35,31,32);stroke-width:1px;"/>
        </g>
        <g transform="matrix(-2.94626,2.9463,2.9463,2.94626,3222.37,3319.02)">
            <circle cx="34.071" cy="-34.071" r="48.184" style="fill:none;stroke:rgb(35,31,32);stroke-width:1px;"/>
        </g>
        <g transform="matrix(4.16667,0,0,4.16667,3140.38,3237.84)">
            <path d="M0,-29.197C-8.063,-25.858 -11.891,-16.614 -8.552,-8.551C-5.212,-0.49 4.031,3.34 12.095,0C20.156,-3.34 23.986,-12.584 20.646,-20.645C17.306,-28.709 8.063,-32.537 0,-29.197M2.852,-22.313C7.105,-24.076 12,-22.049 13.761,-17.795C15.525,-13.541 13.498,-8.647 9.243,-6.885C4.989,-5.121 0.095,-7.149 -1.668,-11.403C-3.43,-15.656 -1.402,-20.551 2.852,-22.313" style="fill:white;fill-rule:nonzero;"/>
        </g>
        <g transform="matrix(4.16667,0,0,4.16667,3140.38,3237.84)">
            <path d="M0,-29.197C-8.063,-25.858 -11.891,-16.614 -8.552,-8.551C-5.212,-0.49 4.031,3.34 12.095,0C20.156,-3.34 23.986,-12.584 20.646,-20.645C17.306,-28.709 8.063,-32.537 0,-29.197ZM2.852,-22.313C7.105,-24.076 12,-22.049 13.761,-17.795C15.525,-13.541 13.498,-8.647 9.243,-6.885C4.989,-5.121 0.095,-7.149 -1.668,-11.403C-3.43,-15.656 -1.402,-20.551 2.852,-22.313" style="fill:none;fill-rule:nonzero;stroke:rgb(35,31,32);stroke-width:1px;"/>
        </g>
        <g transform="matrix(-1.59456,-3.84948,-3.84948,1.59456,3100.91,3220.64)">
            <circle cx="-44.514" cy="-18.439" r="48.184" style="fill:none;stroke:rgb(35,31,32);stroke-width:1px;"/>
        </g>
        <g transform="matrix(-1.59456,-3.84948,-3.84948,1.59456,2947.81,2848.32)">
            <circle cx="-44.515" cy="-18.438" r="48.184" style="fill:none;stroke:rgb(35,31,32);stroke-width:1px;"/>
        </g>
        <g transform="matrix(-3.84949,1.59454,1.59454,3.84949,3491.58,3243.03)">
            <circle cx="18.441" cy="-44.515" r="48.184" style="fill:none;stroke:rgb(35,31,32);stroke-width:1px;"/>
        </g>
        <g transform="matrix(-3.8495,1.59452,1.59452,3.8495,3120.21,3395.74)">
            <ellipse cx="18.439" cy="-44.515" rx="48.184" ry="48.183" style="fill:none;stroke:rgb(35,31,32);stroke-width:1px;"/>
        </g>
        <g transform="matrix(4.16667,0,0,4.16667,3103.98,3201.17)">
            <path d="M0,-12.093C-3.34,-4.03 0.489,5.214 8.552,8.552C16.614,11.891 25.857,8.063 29.197,0.001C32.537,-8.062 28.708,-17.306 20.646,-20.644C12.583,-23.984 3.34,-20.155 0,-12.093M6.883,-9.241C8.646,-13.495 13.541,-15.523 17.794,-13.761C22.048,-11.999 24.076,-7.105 22.314,-2.851C20.552,1.403 15.656,3.43 11.403,1.669C7.148,-0.093 5.121,-4.988 6.883,-9.241" style="fill:white;fill-rule:nonzero;"/>
        </g>
        <g transform="matrix(4.16667,0,0,4.16667,3103.98,3201.17)">
            <path d="M0,-12.093C-3.34,-4.03 0.489,5.214 8.552,8.552C16.614,11.891 25.857,8.063 29.197,0.001C32.537,-8.062 28.708,-17.306 20.646,-20.644C12.583,-23.984 3.34,-20.155 0,-12.093ZM6.883,-9.241C8.646,-13.495 13.541,-15.523 17.794,-13.761C22.048,-11.999 24.076,-7.105 22.314,-2.851C20.552,1.403 15.656,3.43 11.403,1.669C7.148,-0.093 5.121,-4.988 6.883,-9.241" style="fill:none;fill-rule:nonzero;stroke:rgb(35,31,32);stroke-width:1px;"/>
        </g>
        <g transform="matrix(-3.84948,-1.59456,-1.59456,3.84948,3208.72,3394.5)">
            <circle cx="-18.439" cy="-44.514" r="48.184" style="fill:none;stroke:rgb(35,31,32);stroke-width:1px;"/>
        </g>
        <g transform="matrix(-3.84948,-1.59456,-1.59456,3.84948,2837.19,3239.49)">
            <ellipse cx="-18.441" cy="-44.515" rx="48.184" ry="48.183" style="fill:none;stroke:rgb(35,31,32);stroke-width:1px;"/>
        </g>
        <g transform="matrix(-1.59456,3.84948,3.84948,1.59456,3383.2,2850.19)">
            <ellipse cx="44.515" cy="-18.438" rx="48.184" ry="48.183" style="fill:none;stroke:rgb(35,31,32);stroke-width:1px;"/>
        </g>
        <g transform="matrix(-1.59448,3.84952,3.84952,1.59448,3228.58,3220.76)">
            <ellipse cx="44.514" cy="-18.439" rx="48.185" ry="48.184" style="fill:none;stroke:rgb(35,31,32);stroke-width:1px;"/>
        </g>
        <g transform="matrix(4.16667,0,0,4.16667,3165.61,3036.9)">
            <path d="M0,68.55L-29.821,16.897L29.822,16.897L0,68.55ZM0,-2.98C-20.575,-2.98 -37.255,13.699 -37.255,34.275C-37.255,54.851 -20.575,71.53 0,71.53C20.576,71.53 37.255,54.851 37.255,34.275C37.255,13.699 20.576,-2.98 0,-2.98" style="fill:white;fill-rule:nonzero;"/>
        </g>
        <g transform="matrix(4.16667,0,0,4.16667,3165.61,3036.9)">
            <path d="M0,68.55L-29.821,16.897L29.822,16.897L0,68.55ZM0,-2.98C-20.575,-2.98 -37.255,13.699 -37.255,34.275C-37.255,54.851 -20.575,71.53 0,71.53C20.576,71.53 37.255,54.851 37.255,34.275C37.255,13.699 20.576,-2.98 0,-2.98Z" style="fill:none;fill-rule:nonzero;stroke:rgb(35,31,32);stroke-width:1px;"/>
        </g>
        <g transform="matrix(4.16667,0,0,4.16667,0,0)">
            <g transform="matrix(0,-1,-1,0,911.096,654.169)">
                <circle cx="-8.445" cy="0.001" r="8.445" style="fill:white;stroke:rgb(35,31,32);stroke-width:1px;"/>
            </g>
            <g transform="matrix(0,-1,-1,0,936.925,719.739)">
                <ellipse cx="-8.445" cy="-0.001" rx="8.444" ry="8.445" style="fill:white;stroke:rgb(35,31,32);stroke-width:1px;"/>
            </g>
            <g transform="matrix(0,-1,-1,0,860.428,603.502)">
                <circle cx="-8.445" cy="-0.001" r="8.445" style="fill:white;stroke:rgb(35,31,32);stroke-width:1px;"/>
            </g>
            <g transform="matrix(0,-1,-1,0,794.859,576.679)">
                <circle cx="-8.445" cy="-0.001" r="8.445" style="fill:white;stroke:rgb(35,31,32);stroke-width:1px;"/>
            </g>
            <g transform="matrix(0,-1,-1,0,724.819,577.175)">
                <ellipse cx="-8.445" cy="-0.001" rx="8.444" ry="8.445" style="fill:white;stroke:rgb(35,31,32);stroke-width:1px;"/>
            </g>
            <g transform="matrix(0,-1,-1,0,608.583,654.665)">
                <ellipse cx="-8.445" cy="-0.001" rx="8.444" ry="8.445" style="fill:white;stroke:rgb(35,31,32);stroke-width:1px;"/>
            </g>
            <g transform="matrix(0,-1,-1,0,581.261,719.739)">
                <ellipse cx="-8.445" cy="-0.001" rx="8.444" ry="8.445" style="fill:white;stroke:rgb(35,31,32);stroke-width:1px;"/>
            </g>
            <g transform="matrix(0,-1,-1,0,581.76,789.778)">
                <circle cx="-8.445" cy="0" r="8.445" style="fill:white;stroke:rgb(35,31,32);stroke-width:1px;"/>
            </g>
            <g transform="matrix(0,-1,-1,0,608.583,854.85)">
                <circle cx="-8.445" cy="0" r="8.445" style="fill:white;stroke:rgb(35,31,32);stroke-width:1px;"/>
            </g>
            <g transform="matrix(0,-1,-1,0,659.748,905.517)">
                <ellipse cx="-8.445" cy="0.001" rx="8.444" ry="8.445" style="fill:white;stroke:rgb(35,31,32);stroke-width:1px;"/>
            </g>
            <g transform="matrix(0,-1,-1,0,724.324,932.838)">
                <ellipse cx="-8.445" cy="0.001" rx="8.444" ry="8.445" style="fill:white;stroke:rgb(35,31,32);stroke-width:1px;"/>
            </g>
            <g transform="matrix(0,-1,-1,0,794.364,931.845)">
                <circle cx="-8.444" cy="0" r="8.445" style="fill:white;stroke:rgb(35,31,32);stroke-width:1px;"/>
            </g>
            <g transform="matrix(0,-1,-1,0,859.931,905.021)">
                <ellipse cx="-8.445" cy="-0.001" rx="8.444" ry="8.445" style="fill:white;stroke:rgb(35,31,32);stroke-width:1px;"/>
            </g>
            <g transform="matrix(0,-1,-1,0,909.607,854.353)">
                <ellipse cx="-8.445" cy="0.001" rx="8.444" ry="8.445" style="fill:white;stroke:rgb(35,31,32);stroke-width:1px;"/>
            </g>
            <g transform="matrix(0,-1,-1,0,936.926,789.778)">
                <circle cx="-8.444" cy="0" r="8.445" style="fill:white;stroke:rgb(35,31,32);stroke-width:1px;"/>
            </g>
            <g transform="matrix(0,-1,-1,0,873.045,681.463)">
                <circle cx="-6.331" cy="0" r="6.331" style="fill:white;stroke:rgb(35,31,32);stroke-width:1px;"/>
            </g>
            <g transform="matrix(0,-1,-1,0,892.41,730.62)">
                <circle cx="-6.33" cy="0" r="6.33" style="fill:white;stroke:rgb(35,31,32);stroke-width:1px;"/>
            </g>
            <g transform="matrix(0,-1,-1,0,835.061,643.48)">
                <ellipse cx="-6.331" cy="0" rx="6.33" ry="6.331" style="fill:white;stroke:rgb(35,31,32);stroke-width:1px;"/>
            </g>
            <g transform="matrix(0,-1,-1,0,785.906,623.371)">
                <circle cx="-6.331" cy="0" r="6.331" style="fill:white;stroke:rgb(35,31,32);stroke-width:1px;"/>
            </g>
            <g transform="matrix(0,-1,-1,0,733.401,623.744)">
                <ellipse cx="-6.33" cy="0.001" rx="6.331" ry="6.33" style="fill:white;stroke:rgb(35,31,32);stroke-width:1px;"/>
            </g>
            <g transform="matrix(0,-1,-1,0,683.873,643.853)">
                <circle cx="-6.331" cy="0" r="6.331" style="fill:white;stroke:rgb(35,31,32);stroke-width:1px;"/>
            </g>
            <g transform="matrix(0,-1,-1,0,646.261,681.837)">
                <ellipse cx="-6.33" cy="0" rx="6.331" ry="6.33" style="fill:white;stroke:rgb(35,31,32);stroke-width:1px;"/>
            </g>
            <g transform="matrix(0,-1,-1,0,625.78,730.619)">
                <ellipse cx="-6.33" cy="0" rx="6.33" ry="6.331" style="fill:white;stroke:rgb(35,31,32);stroke-width:1px;"/>
            </g>
            <g transform="matrix(0,-1,-1,0,626.152,783.126)">
                <circle cx="-6.331" cy="-0.001" r="6.331" style="fill:white;stroke:rgb(35,31,32);stroke-width:1px;"/>
            </g>
            <g transform="matrix(0,-1,-1,0,646.262,831.908)">
                <circle cx="-6.33" cy="0" r="6.33" style="fill:white;stroke:rgb(35,31,32);stroke-width:1px;"/>
            </g>
            <g transform="matrix(0,-1,-1,0,684.619,869.891)">
                <circle cx="-6.331" cy="0.001" r="6.331" style="fill:white;stroke:rgb(35,31,32);stroke-width:1px;"/>
            </g>
            <g transform="matrix(0,-1,-1,0,733.028,890.373)">
                <ellipse cx="-6.33" cy="0" rx="6.33" ry="6.331" style="fill:white;stroke:rgb(35,31,32);stroke-width:1px;"/>
            </g>
            <g transform="matrix(0,-1,-1,0,785.534,889.628)">
                <ellipse cx="-6.331" cy="0" rx="6.33" ry="6.331" style="fill:white;stroke:rgb(35,31,32);stroke-width:1px;"/>
            </g>
            <g transform="matrix(0,-1,-1,0,834.689,869.52)">
                <circle cx="-6.33" cy="0" r="6.33" style="fill:white;stroke:rgb(35,31,32);stroke-width:1px;"/>
            </g>
            <g transform="matrix(0,-1,-1,0,871.929,831.535)">
                <circle cx="-6.331" cy="0.001" r="6.331" style="fill:white;stroke:rgb(35,31,32);stroke-width:1px;"/>
            </g>
            <g transform="matrix(0,-1,-1,0,892.409,783.126)">
                <ellipse cx="-6.33" cy="-0.001" rx="6.331" ry="6.33" style="fill:white;stroke:rgb(35,31,32);stroke-width:1px;"/>
            </g>
            <g transform="matrix(0,-1,-1,0,897.582,664.042)">
                <circle cx="-7.68" cy="0" r="7.68" style="fill:white;stroke:rgb(35,31,32);stroke-width:1px;"/>
            </g>
            <g transform="matrix(0,-1,-1,0,921.073,723.673)">
                <ellipse cx="-7.681" cy="0" rx="7.68" ry="7.681" style="fill:white;stroke:rgb(35,31,32);stroke-width:1px;"/>
            </g>
            <g transform="matrix(0,-1,-1,0,851.502,617.963)">
                <ellipse cx="-7.68" cy="0" rx="7.681" ry="7.68" style="fill:white;stroke:rgb(35,31,32);stroke-width:1px;"/>
            </g>
            <g transform="matrix(0,-1,-1,0,791.87,593.567)">
                <ellipse cx="-7.681" cy="0" rx="7.68" ry="7.681" style="fill:white;stroke:rgb(35,31,32);stroke-width:1px;"/>
            </g>
            <g transform="matrix(0,-1,-1,0,728.172,594.019)">
                <circle cx="-7.68" cy="0" r="7.68" style="fill:white;stroke:rgb(35,31,32);stroke-width:1px;"/>
            </g>
            <g transform="matrix(0,-1,-1,0,668.088,618.415)">
                <circle cx="-7.68" cy="0" r="7.68" style="fill:white;stroke:rgb(35,31,32);stroke-width:1px;"/>
            </g>
            <g transform="matrix(0,-1,-1,0,622.461,664.493)">
                <ellipse cx="-7.68" cy="0.001" rx="7.681" ry="7.68" style="fill:white;stroke:rgb(35,31,32);stroke-width:1px;"/>
            </g>
            <g transform="matrix(0,-1,-1,0,597.614,723.675)">
                <circle cx="-7.68" cy="0" r="7.68" style="fill:white;stroke:rgb(35,31,32);stroke-width:1px;"/>
            </g>
            <g transform="matrix(0,-1,-1,0,598.064,787.372)">
                <ellipse cx="-7.68" cy="-0.001" rx="7.681" ry="7.68" style="fill:white;stroke:rgb(35,31,32);stroke-width:1px;"/>
            </g>
            <g transform="matrix(0,-1,-1,0,622.46,846.553)">
                <circle cx="-7.68" cy="0" r="7.68" style="fill:white;stroke:rgb(35,31,32);stroke-width:1px;"/>
            </g>
            <g transform="matrix(0,-1,-1,0,668.992,892.632)">
                <ellipse cx="-7.68" cy="0.001" rx="7.681" ry="7.68" style="fill:white;stroke:rgb(35,31,32);stroke-width:1px;"/>
            </g>
            <g transform="matrix(0,-1,-1,0,727.72,917.478)">
                <circle cx="-7.68" cy="0" r="7.68" style="fill:white;stroke:rgb(35,31,32);stroke-width:1px;"/>
            </g>
            <g transform="matrix(0,-1,-1,0,791.417,916.575)">
                <ellipse cx="-7.68" cy="-0.001" rx="7.681" ry="7.68" style="fill:white;stroke:rgb(35,31,32);stroke-width:1px;"/>
            </g>
            <g transform="matrix(0,-1,-1,0,851.05,892.18)">
                <circle cx="-7.68" cy="0" r="7.68" style="fill:white;stroke:rgb(35,31,32);stroke-width:1px;"/>
            </g>
            <g transform="matrix(0,-1,-1,0,896.227,846.101)">
                <ellipse cx="-7.68" cy="0.001" rx="7.681" ry="7.68" style="fill:white;stroke:rgb(35,31,32);stroke-width:1px;"/>
            </g>
            <g transform="matrix(0,-1,-1,0,921.072,787.371)">
                <circle cx="-7.681" cy="-0.001" r="7.681" style="fill:white;stroke:rgb(35,31,32);stroke-width:1px;"/>
            </g>
            <g transform="matrix(0,-1,-1,0,850.842,697.746)">
                <ellipse cx="-5.07" cy="0" rx="5.069" ry="5.07" style="fill:white;stroke:rgb(35,31,32);stroke-width:1px;"/>
            </g>
            <g transform="matrix(0,-1,-1,0,866.35,737.11)">
                <ellipse cx="-5.07" cy="0" rx="5.069" ry="5.07" style="fill:white;stroke:rgb(35,31,32);stroke-width:1px;"/>
            </g>
            <g transform="matrix(0,-1,-1,0,820.427,667.329)">
                <circle cx="-5.07" cy="0" r="5.07" style="fill:white;stroke:rgb(35,31,32);stroke-width:1px;"/>
            </g>
            <g transform="matrix(0,-1,-1,0,781.063,651.225)">
                <circle cx="-5.07" cy="0" r="5.07" style="fill:white;stroke:rgb(35,31,32);stroke-width:1px;"/>
            </g>
            <g transform="matrix(0,-1,-1,0,739.015,651.523)">
                <ellipse cx="-5.07" cy="0" rx="5.069" ry="5.07" style="fill:white;stroke:rgb(35,31,32);stroke-width:1px;"/>
            </g>
            <g transform="matrix(0,-1,-1,0,699.353,667.627)">
                <ellipse cx="-5.07" cy="0" rx="5.069" ry="5.07" style="fill:white;stroke:rgb(35,31,32);stroke-width:1px;"/>
            </g>
            <g transform="matrix(0,-1,-1,0,669.234,698.044)">
                <circle cx="-5.07" cy="-0.001" r="5.07" style="fill:white;stroke:rgb(35,31,32);stroke-width:1px;"/>
            </g>
            <g transform="matrix(0,-1,-1,0,652.833,737.11)">
                <ellipse cx="-5.07" cy="0" rx="5.069" ry="5.07" style="fill:white;stroke:rgb(35,31,32);stroke-width:1px;"/>
            </g>
            <g transform="matrix(0,-1,-1,0,653.132,779.156)">
                <ellipse cx="-5.07" cy="0.001" rx="5.069" ry="5.07" style="fill:white;stroke:rgb(35,31,32);stroke-width:1px;"/>
            </g>
            <g transform="matrix(0,-1,-1,0,669.234,818.222)">
                <ellipse cx="-5.07" cy="-0.001" rx="5.069" ry="5.07" style="fill:white;stroke:rgb(35,31,32);stroke-width:1px;"/>
            </g>
            <g transform="matrix(0,-1,-1,0,699.951,848.638)">
                <ellipse cx="-5.07" cy="0.001" rx="5.069" ry="5.07" style="fill:white;stroke:rgb(35,31,32);stroke-width:1px;"/>
            </g>
            <g transform="matrix(0,-1,-1,0,738.716,865.041)">
                <ellipse cx="-5.07" cy="-0.001" rx="5.069" ry="5.07" style="fill:white;stroke:rgb(35,31,32);stroke-width:1px;"/>
            </g>
            <g transform="matrix(0,-1,-1,0,780.764,864.444)">
                <circle cx="-5.07" cy="0" r="5.07" style="fill:white;stroke:rgb(35,31,32);stroke-width:1px;"/>
            </g>
            <g transform="matrix(0,-1,-1,0,820.126,848.342)">
                <ellipse cx="-5.07" cy="-0.001" rx="5.069" ry="5.07" style="fill:white;stroke:rgb(35,31,32);stroke-width:1px;"/>
            </g>
            <g transform="matrix(0,-1,-1,0,849.949,817.923)">
                <ellipse cx="-5.07" cy="0.001" rx="5.069" ry="5.07" style="fill:white;stroke:rgb(35,31,32);stroke-width:1px;"/>
            </g>
            <g transform="matrix(0,-1,-1,0,866.351,779.156)">
                <ellipse cx="-5.07" cy="0.001" rx="5.069" ry="5.07" style="fill:white;stroke:rgb(35,31,32);stroke-width:1px;"/>
            </g>
            <g transform="matrix(0,-1,-1,0,820.078,719.814)">
                <circle cx="-3.361" cy="0" r="3.361" style="fill:white;stroke:rgb(35,31,32);stroke-width:1px;"/>
            </g>
            <g transform="matrix(0,-1,-1,0,830.359,745.906)">
                <ellipse cx="-3.361" cy="0.001" rx="3.36" ry="3.361" style="fill:white;stroke:rgb(35,31,32);stroke-width:1px;"/>
            </g>
            <g transform="matrix(0,-1,-1,0,799.916,699.652)">
                <ellipse cx="-3.361" cy="0" rx="3.36" ry="3.361" style="fill:white;stroke:rgb(35,31,32);stroke-width:1px;"/>
            </g>
            <g transform="matrix(0,-1,-1,0,773.825,688.978)">
                <circle cx="-3.36" cy="0.001" r="3.36" style="fill:white;stroke:rgb(35,31,32);stroke-width:1px;"/>
            </g>
            <g transform="matrix(0,-1,-1,0,745.952,689.175)">
                <ellipse cx="-3.361" cy="0" rx="3.36" ry="3.361" style="fill:white;stroke:rgb(35,31,32);stroke-width:1px;"/>
            </g>
            <g transform="matrix(0,-1,-1,0,719.661,699.849)">
                <ellipse cx="-3.361" cy="-0.001" rx="3.36" ry="3.361" style="fill:white;stroke:rgb(35,31,32);stroke-width:1px;"/>
            </g>
            <g transform="matrix(0,-1,-1,0,699.697,720.012)">
                <ellipse cx="-3.361" cy="-0.001" rx="3.36" ry="3.361" style="fill:white;stroke:rgb(35,31,32);stroke-width:1px;"/>
            </g>
            <g transform="matrix(0,-1,-1,0,688.826,745.906)">
                <ellipse cx="-3.361" cy="0.001" rx="3.36" ry="3.361" style="fill:white;stroke:rgb(35,31,32);stroke-width:1px;"/>
            </g>
            <g transform="matrix(0,-1,-1,0,689.024,773.777)">
                <ellipse cx="-3.361" cy="0.001" rx="3.36" ry="3.361" style="fill:white;stroke:rgb(35,31,32);stroke-width:1px;"/>
            </g>
            <g transform="matrix(0,-1,-1,0,699.699,799.672)">
                <ellipse cx="-3.361" cy="0.001" rx="3.36" ry="3.361" style="fill:white;stroke:rgb(35,31,32);stroke-width:1px;"/>
            </g>
            <g transform="matrix(0,-1,-1,0,720.058,819.834)">
                <ellipse cx="-3.361" cy="0.001" rx="3.36" ry="3.361" style="fill:white;stroke:rgb(35,31,32);stroke-width:1px;"/>
            </g>
            <g transform="matrix(0,-1,-1,0,745.754,830.707)">
                <ellipse cx="-3.361" cy="-0.001" rx="3.36" ry="3.361" style="fill:white;stroke:rgb(35,31,32);stroke-width:1px;"/>
            </g>
            <g transform="matrix(0,-1,-1,0,773.625,830.311)">
                <circle cx="-3.361" cy="0" r="3.361" style="fill:white;stroke:rgb(35,31,32);stroke-width:1px;"/>
            </g>
            <g transform="matrix(0,-1,-1,0,799.72,819.637)">
                <ellipse cx="-3.361" cy="0.001" rx="3.36" ry="3.361" style="fill:white;stroke:rgb(35,31,32);stroke-width:1px;"/>
            </g>
            <g transform="matrix(-1,-6.12323e-17,-6.12323e-17,1,816.124,802.834)">
                <ellipse cx="-3.361" cy="0.001" rx="3.36" ry="3.361" style="fill:white;stroke:rgb(35,31,32);stroke-width:1px;"/>
            </g>
            <g transform="matrix(0,-1,-1,0,830.359,773.777)">
                <ellipse cx="-3.361" cy="0.001" rx="3.36" ry="3.361" style="fill:white;stroke:rgb(35,31,32);stroke-width:1px;"/>
            </g>
        </g>
        <g transform="matrix(0,-4.16667,-4.16667,0,2744.81,2516.66)">
            <ellipse cx="-8.445" cy="0" rx="8.444" ry="8.445" style="fill:white;stroke:rgb(35,31,32);stroke-width:1px;"/>
        </g>
    </g>
</svg>
